<svg width="138" height="50" viewBox="0 0 138 50" fill="none" xmlns="http://www.w3.org/2000/svg">
<path d="M42.57 18.9297L36.5 24.9997L42.57 31.0697" stroke="#2B80F7" stroke-width="1.5" stroke-miterlimit="10" stroke-linecap="round" stroke-linejoin="round"/>
<path d="M53.4999 25H36.6699" stroke="#2B80F7" stroke-width="1.5" stroke-miterlimit="10" stroke-linecap="round" stroke-linejoin="round"/>
<path d="M72.4645 25.288C73.0618 25.3947 73.5685 25.7093 73.9845 26.232C74.4005 26.7547 74.6085 27.3467 74.6085 28.008C74.6085 28.5733 74.4592 29.0853 74.1605 29.544C73.8725 29.992 73.4512 30.3493 72.8965 30.616C72.3418 30.872 71.6965 31 70.9605 31H66.5125V19.88H70.7525C71.5098 19.88 72.1605 20.008 72.7045 20.264C73.2485 20.52 73.6592 20.8667 73.9365 21.304C74.2138 21.7307 74.3525 22.2107 74.3525 22.744C74.3525 23.384 74.1818 23.9173 73.8405 24.344C73.4992 24.7707 73.0405 25.0853 72.4645 25.288ZM68.3365 24.552H70.5925C71.1898 24.552 71.6538 24.4187 71.9845 24.152C72.3258 23.8747 72.4965 23.48 72.4965 22.968C72.4965 22.4667 72.3258 22.0773 71.9845 21.8C71.6538 21.512 71.1898 21.368 70.5925 21.368H68.3365V24.552ZM70.8005 29.512C71.4192 29.512 71.9045 29.3627 72.2565 29.064C72.6085 28.7653 72.7845 28.3493 72.7845 27.816C72.7845 27.272 72.5978 26.84 72.2245 26.52C71.8512 26.2 71.3552 26.04 70.7365 26.04H68.3365V29.512H70.8005ZM75.9826 26.552C75.9826 25.6667 76.164 24.8827 76.5266 24.2C76.9 23.5173 77.4013 22.9893 78.0306 22.616C78.6706 22.232 79.3746 22.04 80.1426 22.04C80.836 22.04 81.4386 22.1787 81.9506 22.456C82.4733 22.7227 82.8893 23.0587 83.1986 23.464V22.184H85.0386V31H83.1986V29.688C82.8893 30.104 82.468 30.4507 81.9346 30.728C81.4013 31.0053 80.7933 31.144 80.1106 31.144C79.3533 31.144 78.66 30.952 78.0306 30.568C77.4013 30.1733 76.9 29.6293 76.5266 28.936C76.164 28.232 75.9826 27.4373 75.9826 26.552ZM83.1986 26.584C83.1986 25.976 83.0706 25.448 82.8146 25C82.5693 24.552 82.244 24.2107 81.8386 23.976C81.4333 23.7413 80.996 23.624 80.5266 23.624C80.0573 23.624 79.62 23.7413 79.2146 23.976C78.8093 24.2 78.4786 24.536 78.2226 24.984C77.9773 25.4213 77.8546 25.944 77.8546 26.552C77.8546 27.16 77.9773 27.6933 78.2226 28.152C78.4786 28.6107 78.8093 28.9627 79.2146 29.208C79.6306 29.4427 80.068 29.56 80.5266 29.56C80.996 29.56 81.4333 29.4427 81.8386 29.208C82.244 28.9733 82.5693 28.632 82.8146 28.184C83.0706 27.7253 83.1986 27.192 83.1986 26.584ZM86.8264 26.584C86.8264 25.6773 87.0077 24.8827 87.3704 24.2C87.7437 23.5067 88.2557 22.9733 88.9064 22.6C89.557 22.2267 90.3037 22.04 91.1464 22.04C92.213 22.04 93.093 22.296 93.7864 22.808C94.4904 23.3093 94.965 24.0293 95.2104 24.968H93.2424C93.0824 24.5307 92.8264 24.1893 92.4744 23.944C92.1224 23.6987 91.6797 23.576 91.1464 23.576C90.3997 23.576 89.8024 23.8427 89.3544 24.376C88.917 24.8987 88.6984 25.6347 88.6984 26.584C88.6984 27.5333 88.917 28.2747 89.3544 28.808C89.8024 29.3413 90.3997 29.608 91.1464 29.608C92.2024 29.608 92.901 29.144 93.2424 28.216H95.2104C94.9544 29.112 94.4744 29.8267 93.7704 30.36C93.0664 30.8827 92.1917 31.144 91.1464 31.144C90.3037 31.144 89.557 30.9573 88.9064 30.584C88.2557 30.2 87.7437 29.6667 87.3704 28.984C87.0077 28.2907 86.8264 27.4907 86.8264 26.584ZM100.516 26.6L104.58 31H102.116L98.8521 27.208V31H97.0281V19.16H98.8521V26.04L102.052 22.184H104.58L100.516 26.6Z" fill="#2B80F7"/>
<rect x="1" y="1" width="136" height="48" rx="8" stroke="#2B80F7"/>
</svg>
