<svg width="369" height="58" viewBox="0 0 369 58" fill="none" xmlns="http://www.w3.org/2000/svg">
<path d="M0.817688 10.624C0.817688 8.992 1.19369 7.528 1.94569 6.232C2.71369 4.936 3.74569 3.928 5.04169 3.208C6.35369 2.472 7.78569 2.104 9.33769 2.104C11.1137 2.104 12.6897 2.544 14.0657 3.424C15.4577 4.288 16.4657 5.52 17.0897 7.12H13.8017C13.3697 6.24 12.7697 5.584 12.0017 5.152C11.2337 4.72 10.3457 4.504 9.33769 4.504C8.23369 4.504 7.24969 4.752 6.38569 5.248C5.52169 5.744 4.84169 6.456 4.34569 7.384C3.86569 8.312 3.62569 9.392 3.62569 10.624C3.62569 11.856 3.86569 12.936 4.34569 13.864C4.84169 14.792 5.52169 15.512 6.38569 16.024C7.24969 16.52 8.23369 16.768 9.33769 16.768C10.3457 16.768 11.2337 16.552 12.0017 16.12C12.7697 15.688 13.3697 15.032 13.8017 14.152H17.0897C16.4657 15.752 15.4577 16.984 14.0657 17.848C12.6897 18.712 11.1137 19.144 9.33769 19.144C7.76969 19.144 6.33769 18.784 5.04169 18.064C3.74569 17.328 2.71369 16.312 1.94569 15.016C1.19369 13.72 0.817688 12.256 0.817688 10.624ZM27.1322 5.56C28.1402 5.56 29.0362 5.776 29.8202 6.208C30.6202 6.64 31.2442 7.28 31.6922 8.128C32.1562 8.976 32.3882 10 32.3882 11.2V19H29.6762V11.608C29.6762 10.424 29.3802 9.52 28.7882 8.896C28.1962 8.256 27.3882 7.936 26.3642 7.936C25.3402 7.936 24.5242 8.256 23.9162 8.896C23.3242 9.52 23.0282 10.424 23.0282 11.608V19H20.2922V1.24H23.0282V7.312C23.4922 6.752 24.0762 6.32 24.7802 6.016C25.5002 5.712 26.2842 5.56 27.1322 5.56ZM41.6141 19.216C40.3661 19.216 39.2381 18.936 38.2301 18.376C37.2221 17.8 36.4301 17 35.8541 15.976C35.2781 14.936 34.9901 13.736 34.9901 12.376C34.9901 11.032 35.2861 9.84 35.8781 8.8C36.4701 7.76 37.2781 6.96 38.3021 6.4C39.3261 5.84 40.4701 5.56 41.7341 5.56C42.9981 5.56 44.1421 5.84 45.1661 6.4C46.1901 6.96 46.9981 7.76 47.5901 8.8C48.1821 9.84 48.4781 11.032 48.4781 12.376C48.4781 13.72 48.1741 14.912 47.5661 15.952C46.9581 16.992 46.1261 17.8 45.0701 18.376C44.0301 18.936 42.8781 19.216 41.6141 19.216ZM41.6141 16.84C42.3181 16.84 42.9741 16.672 43.5821 16.336C44.2061 16 44.7101 15.496 45.0941 14.824C45.4781 14.152 45.6701 13.336 45.6701 12.376C45.6701 11.416 45.4861 10.608 45.1181 9.952C44.7501 9.28 44.2621 8.776 43.6541 8.44C43.0461 8.104 42.3901 7.936 41.6861 7.936C40.9821 7.936 40.3261 8.104 39.7181 8.44C39.1261 8.776 38.6541 9.28 38.3021 9.952C37.9501 10.608 37.7741 11.416 37.7741 12.376C37.7741 13.8 38.1341 14.904 38.8541 15.688C39.5901 16.456 40.5101 16.84 41.6141 16.84ZM56.9188 19.216C55.6708 19.216 54.5428 18.936 53.5348 18.376C52.5268 17.8 51.7348 17 51.1588 15.976C50.5828 14.936 50.2948 13.736 50.2948 12.376C50.2948 11.032 50.5908 9.84 51.1828 8.8C51.7748 7.76 52.5828 6.96 53.6068 6.4C54.6308 5.84 55.7748 5.56 57.0388 5.56C58.3028 5.56 59.4468 5.84 60.4708 6.4C61.4948 6.96 62.3028 7.76 62.8948 8.8C63.4868 9.84 63.7828 11.032 63.7828 12.376C63.7828 13.72 63.4788 14.912 62.8708 15.952C62.2628 16.992 61.4308 17.8 60.3748 18.376C59.3348 18.936 58.1828 19.216 56.9188 19.216ZM56.9188 16.84C57.6228 16.84 58.2788 16.672 58.8868 16.336C59.5108 16 60.0148 15.496 60.3988 14.824C60.7828 14.152 60.9748 13.336 60.9748 12.376C60.9748 11.416 60.7908 10.608 60.4228 9.952C60.0548 9.28 59.5668 8.776 58.9588 8.44C58.3508 8.104 57.6948 7.936 56.9908 7.936C56.2868 7.936 55.6308 8.104 55.0228 8.44C54.4308 8.776 53.9588 9.28 53.6068 9.952C53.2548 10.608 53.0788 11.416 53.0788 12.376C53.0788 13.8 53.4388 14.904 54.1588 15.688C54.8948 16.456 55.8148 16.84 56.9188 16.84ZM71.2875 19.216C70.2475 19.216 69.3115 19.032 68.4795 18.664C67.6635 18.28 67.0155 17.768 66.5355 17.128C66.0555 16.472 65.7995 15.744 65.7675 14.944H68.5995C68.6475 15.504 68.9115 15.976 69.3915 16.36C69.8875 16.728 70.5035 16.912 71.2395 16.912C72.0075 16.912 72.5995 16.768 73.0155 16.48C73.4475 16.176 73.6635 15.792 73.6635 15.328C73.6635 14.832 73.4235 14.464 72.9435 14.224C72.4795 13.984 71.7355 13.72 70.7115 13.432C69.7195 13.16 68.9115 12.896 68.2875 12.64C67.6635 12.384 67.1195 11.992 66.6555 11.464C66.2075 10.936 65.9835 10.24 65.9835 9.376C65.9835 8.672 66.1915 8.032 66.6075 7.456C67.0235 6.864 67.6155 6.4 68.3835 6.064C69.1675 5.728 70.0635 5.56 71.0715 5.56C72.5755 5.56 73.7835 5.944 74.6955 6.712C75.6235 7.464 76.1195 8.496 76.1835 9.808H73.4475C73.3995 9.216 73.1595 8.744 72.7275 8.392C72.2955 8.04 71.7115 7.864 70.9755 7.864C70.2555 7.864 69.7035 8 69.3195 8.272C68.9355 8.544 68.7435 8.904 68.7435 9.352C68.7435 9.704 68.8715 10 69.1275 10.24C69.3835 10.48 69.6955 10.672 70.0635 10.816C70.4315 10.944 70.9755 11.112 71.6955 11.32C72.6555 11.576 73.4395 11.84 74.0475 12.112C74.6715 12.368 75.2075 12.752 75.6555 13.264C76.1035 13.776 76.3355 14.456 76.3515 15.304C76.3515 16.056 76.1435 16.728 75.7275 17.32C75.3115 17.912 74.7195 18.376 73.9515 18.712C73.1995 19.048 72.3115 19.216 71.2875 19.216ZM91.4278 12.064C91.4278 12.56 91.3958 13.008 91.3318 13.408H81.2278C81.3078 14.464 81.6998 15.312 82.4038 15.952C83.1078 16.592 83.9718 16.912 84.9958 16.912C86.4678 16.912 87.5078 16.296 88.1158 15.064H91.0678C90.6678 16.28 89.9398 17.28 88.8838 18.064C87.8438 18.832 86.5478 19.216 84.9958 19.216C83.7318 19.216 82.5958 18.936 81.5878 18.376C80.5958 17.8 79.8118 17 79.2358 15.976C78.6758 14.936 78.3958 13.736 78.3958 12.376C78.3958 11.016 78.6678 9.824 79.2118 8.8C79.7718 7.76 80.5478 6.96 81.5398 6.4C82.5478 5.84 83.6998 5.56 84.9958 5.56C86.2438 5.56 87.3558 5.832 88.3318 6.376C89.3078 6.92 90.0678 7.688 90.6118 8.68C91.1558 9.656 91.4278 10.784 91.4278 12.064ZM88.5718 11.2C88.5558 10.192 88.1958 9.384 87.4918 8.776C86.7878 8.168 85.9158 7.864 84.8758 7.864C83.9318 7.864 83.1238 8.168 82.4518 8.776C81.7798 9.368 81.3798 10.176 81.2518 11.2H88.5718ZM103.547 8.008V15.328C103.547 15.824 103.659 16.184 103.883 16.408C104.123 16.616 104.523 16.72 105.083 16.72H106.763V19H104.603C103.371 19 102.427 18.712 101.771 18.136C101.115 17.56 100.787 16.624 100.787 15.328V8.008H99.2267V5.776H100.787V2.488H103.547V5.776H106.763V8.008H103.547ZM116.124 5.56C117.132 5.56 118.028 5.776 118.812 6.208C119.612 6.64 120.236 7.28 120.684 8.128C121.148 8.976 121.38 10 121.38 11.2V19H118.668V11.608C118.668 10.424 118.372 9.52 117.78 8.896C117.188 8.256 116.38 7.936 115.356 7.936C114.332 7.936 113.516 8.256 112.908 8.896C112.316 9.52 112.02 10.424 112.02 11.608V19H109.284V1.24H112.02V7.312C112.484 6.752 113.068 6.32 113.772 6.016C114.492 5.712 115.276 5.56 116.124 5.56ZM136.99 12.064C136.99 12.56 136.958 13.008 136.894 13.408H126.79C126.87 14.464 127.262 15.312 127.966 15.952C128.67 16.592 129.534 16.912 130.558 16.912C132.03 16.912 133.07 16.296 133.678 15.064H136.63C136.23 16.28 135.502 17.28 134.446 18.064C133.406 18.832 132.11 19.216 130.558 19.216C129.294 19.216 128.158 18.936 127.15 18.376C126.158 17.8 125.374 17 124.798 15.976C124.238 14.936 123.958 13.736 123.958 12.376C123.958 11.016 124.23 9.824 124.774 8.8C125.334 7.76 126.11 6.96 127.102 6.4C128.11 5.84 129.262 5.56 130.558 5.56C131.806 5.56 132.918 5.832 133.894 6.376C134.87 6.92 135.63 7.688 136.174 8.68C136.718 9.656 136.99 10.784 136.99 12.064ZM134.134 11.2C134.118 10.192 133.758 9.384 133.054 8.776C132.35 8.168 131.478 7.864 130.438 7.864C129.494 7.864 128.686 8.168 128.014 8.776C127.342 9.368 126.942 10.176 126.814 11.2H134.134ZM151.461 8.008H149.013V19H146.253V8.008H144.693V5.776H146.253V4.84C146.253 3.32 146.653 2.216 147.453 1.528C148.269 0.823999 149.541 0.472 151.269 0.472V2.752C150.437 2.752 149.853 2.912 149.517 3.232C149.181 3.536 149.013 4.072 149.013 4.84V5.776H151.461V8.008ZM159.622 19.216C158.374 19.216 157.246 18.936 156.238 18.376C155.23 17.8 154.438 17 153.862 15.976C153.286 14.936 152.998 13.736 152.998 12.376C152.998 11.032 153.294 9.84 153.886 8.8C154.478 7.76 155.286 6.96 156.31 6.4C157.334 5.84 158.478 5.56 159.742 5.56C161.006 5.56 162.15 5.84 163.174 6.4C164.198 6.96 165.006 7.76 165.598 8.8C166.19 9.84 166.486 11.032 166.486 12.376C166.486 13.72 166.182 14.912 165.574 15.952C164.966 16.992 164.134 17.8 163.078 18.376C162.038 18.936 160.886 19.216 159.622 19.216ZM159.622 16.84C160.326 16.84 160.982 16.672 161.59 16.336C162.214 16 162.718 15.496 163.102 14.824C163.486 14.152 163.678 13.336 163.678 12.376C163.678 11.416 163.494 10.608 163.126 9.952C162.758 9.28 162.27 8.776 161.662 8.44C161.054 8.104 160.398 7.936 159.694 7.936C158.99 7.936 158.334 8.104 157.726 8.44C157.134 8.776 156.662 9.28 156.31 9.952C155.958 10.608 155.782 11.416 155.782 12.376C155.782 13.8 156.142 14.904 156.862 15.688C157.598 16.456 158.518 16.84 159.622 16.84ZM171.927 7.696C172.327 7.024 172.855 6.504 173.511 6.136C174.183 5.752 174.975 5.56 175.887 5.56V8.392H175.191C174.119 8.392 173.303 8.664 172.743 9.208C172.199 9.752 171.927 10.696 171.927 12.04V19H169.191V5.776H171.927V7.696ZM194.41 5.56C195.45 5.56 196.378 5.776 197.194 6.208C198.026 6.64 198.674 7.28 199.138 8.128C199.618 8.976 199.858 10 199.858 11.2V19H197.146V11.608C197.146 10.424 196.85 9.52 196.258 8.896C195.666 8.256 194.858 7.936 193.834 7.936C192.81 7.936 191.994 8.256 191.386 8.896C190.794 9.52 190.498 10.424 190.498 11.608V19H187.786V11.608C187.786 10.424 187.49 9.52 186.898 8.896C186.306 8.256 185.498 7.936 184.474 7.936C183.45 7.936 182.634 8.256 182.026 8.896C181.434 9.52 181.138 10.424 181.138 11.608V19H178.402V5.776H181.138V7.288C181.586 6.744 182.154 6.32 182.842 6.016C183.53 5.712 184.266 5.56 185.05 5.56C186.106 5.56 187.05 5.784 187.882 6.232C188.714 6.68 189.354 7.328 189.802 8.176C190.202 7.376 190.826 6.744 191.674 6.28C192.522 5.8 193.434 5.56 194.41 5.56ZM202.427 12.328C202.427 11 202.699 9.824 203.243 8.8C203.803 7.776 204.555 6.984 205.499 6.424C206.459 5.848 207.515 5.56 208.667 5.56C209.707 5.56 210.611 5.768 211.379 6.184C212.163 6.584 212.787 7.088 213.251 7.696V5.776H216.011V19H213.251V17.032C212.787 17.656 212.155 18.176 211.355 18.592C210.555 19.008 209.643 19.216 208.619 19.216C207.483 19.216 206.443 18.928 205.499 18.352C204.555 17.76 203.803 16.944 203.243 15.904C202.699 14.848 202.427 13.656 202.427 12.328ZM213.251 12.376C213.251 11.464 213.059 10.672 212.675 10C212.307 9.328 211.819 8.816 211.211 8.464C210.603 8.112 209.947 7.936 209.243 7.936C208.539 7.936 207.883 8.112 207.275 8.464C206.667 8.8 206.171 9.304 205.787 9.976C205.419 10.632 205.235 11.416 205.235 12.328C205.235 13.24 205.419 14.04 205.787 14.728C206.171 15.416 206.667 15.944 207.275 16.312C207.899 16.664 208.555 16.84 209.243 16.84C209.947 16.84 210.603 16.664 211.211 16.312C211.819 15.96 212.307 15.448 212.675 14.776C213.059 14.088 213.251 13.288 213.251 12.376ZM222.797 8.008V15.328C222.797 15.824 222.909 16.184 223.133 16.408C223.373 16.616 223.773 16.72 224.333 16.72H226.013V19H223.853C222.621 19 221.677 18.712 221.021 18.136C220.365 17.56 220.037 16.624 220.037 15.328V8.008H218.477V5.776H220.037V2.488H222.797V5.776H226.013V8.008H222.797ZM246.673 5.776L238.561 25.216H235.729L238.417 18.784L233.209 5.776H236.257L239.977 15.856L243.841 5.776H246.673ZM254.474 19.216C253.226 19.216 252.098 18.936 251.09 18.376C250.082 17.8 249.29 17 248.714 15.976C248.138 14.936 247.85 13.736 247.85 12.376C247.85 11.032 248.146 9.84 248.738 8.8C249.33 7.76 250.138 6.96 251.162 6.4C252.186 5.84 253.33 5.56 254.594 5.56C255.858 5.56 257.002 5.84 258.026 6.4C259.05 6.96 259.858 7.76 260.45 8.8C261.042 9.84 261.338 11.032 261.338 12.376C261.338 13.72 261.034 14.912 260.426 15.952C259.818 16.992 258.986 17.8 257.93 18.376C256.89 18.936 255.738 19.216 254.474 19.216ZM254.474 16.84C255.178 16.84 255.834 16.672 256.442 16.336C257.066 16 257.57 15.496 257.954 14.824C258.338 14.152 258.53 13.336 258.53 12.376C258.53 11.416 258.346 10.608 257.978 9.952C257.61 9.28 257.122 8.776 256.514 8.44C255.906 8.104 255.25 7.936 254.546 7.936C253.842 7.936 253.186 8.104 252.578 8.44C251.986 8.776 251.514 9.28 251.162 9.952C250.81 10.608 250.634 11.416 250.634 12.376C250.634 13.8 250.994 14.904 251.714 15.688C252.45 16.456 253.37 16.84 254.474 16.84ZM276.018 5.776V19H273.282V17.44C272.85 17.984 272.282 18.416 271.578 18.736C270.89 19.04 270.154 19.192 269.37 19.192C268.33 19.192 267.394 18.976 266.562 18.544C265.746 18.112 265.098 17.472 264.618 16.624C264.154 15.776 263.922 14.752 263.922 13.552V5.776H266.634V13.144C266.634 14.328 266.93 15.24 267.522 15.88C268.114 16.504 268.922 16.816 269.946 16.816C270.97 16.816 271.778 16.504 272.37 15.88C272.978 15.24 273.282 14.328 273.282 13.144V5.776H276.018ZM303.623 5.776L299.519 19H296.639L293.975 9.232L291.311 19H288.431L284.303 5.776H287.087L289.847 16.408L292.655 5.776H295.511L298.199 16.36L300.935 5.776H303.623ZM307.059 4.024C306.563 4.024 306.147 3.856 305.811 3.52C305.475 3.184 305.307 2.768 305.307 2.272C305.307 1.776 305.475 1.36 305.811 1.024C306.147 0.687999 306.563 0.519999 307.059 0.519999C307.539 0.519999 307.947 0.687999 308.283 1.024C308.619 1.36 308.787 1.776 308.787 2.272C308.787 2.768 308.619 3.184 308.283 3.52C307.947 3.856 307.539 4.024 307.059 4.024ZM308.403 5.776V19H305.667V5.776H308.403ZM316.795 19.216C315.755 19.216 314.819 19.032 313.987 18.664C313.171 18.28 312.523 17.768 312.043 17.128C311.563 16.472 311.307 15.744 311.275 14.944H314.107C314.155 15.504 314.419 15.976 314.899 16.36C315.395 16.728 316.011 16.912 316.747 16.912C317.515 16.912 318.107 16.768 318.523 16.48C318.955 16.176 319.171 15.792 319.171 15.328C319.171 14.832 318.931 14.464 318.451 14.224C317.987 13.984 317.243 13.72 316.219 13.432C315.227 13.16 314.419 12.896 313.795 12.64C313.171 12.384 312.627 11.992 312.163 11.464C311.715 10.936 311.491 10.24 311.491 9.376C311.491 8.672 311.699 8.032 312.115 7.456C312.531 6.864 313.123 6.4 313.891 6.064C314.675 5.728 315.571 5.56 316.579 5.56C318.083 5.56 319.291 5.944 320.203 6.712C321.131 7.464 321.627 8.496 321.691 9.808H318.955C318.907 9.216 318.667 8.744 318.235 8.392C317.803 8.04 317.219 7.864 316.483 7.864C315.763 7.864 315.211 8 314.827 8.272C314.443 8.544 314.251 8.904 314.251 9.352C314.251 9.704 314.379 10 314.635 10.24C314.891 10.48 315.203 10.672 315.571 10.816C315.939 10.944 316.483 11.112 317.203 11.32C318.163 11.576 318.947 11.84 319.555 12.112C320.179 12.368 320.715 12.752 321.163 13.264C321.611 13.776 321.843 14.456 321.859 15.304C321.859 16.056 321.651 16.728 321.235 17.32C320.819 17.912 320.227 18.376 319.459 18.712C318.707 19.048 317.819 19.216 316.795 19.216ZM331.656 5.56C332.664 5.56 333.56 5.776 334.344 6.208C335.144 6.64 335.768 7.28 336.216 8.128C336.68 8.976 336.912 10 336.912 11.2V19H334.2V11.608C334.2 10.424 333.904 9.52 333.312 8.896C332.72 8.256 331.912 7.936 330.888 7.936C329.864 7.936 329.048 8.256 328.44 8.896C327.848 9.52 327.552 10.424 327.552 11.608V19H324.816V1.24H327.552V7.312C328.016 6.752 328.6 6.32 329.304 6.016C330.024 5.712 330.808 5.56 331.656 5.56ZM349.828 8.008V15.328C349.828 15.824 349.94 16.184 350.164 16.408C350.404 16.616 350.804 16.72 351.364 16.72H353.044V19H350.884C349.652 19 348.708 18.712 348.052 18.136C347.396 17.56 347.068 16.624 347.068 15.328V8.008H345.508V5.776H347.068V2.488H349.828V5.776H353.044V8.008H349.828ZM361.302 19.216C360.054 19.216 358.926 18.936 357.918 18.376C356.91 17.8 356.118 17 355.542 15.976C354.966 14.936 354.678 13.736 354.678 12.376C354.678 11.032 354.974 9.84 355.566 8.8C356.158 7.76 356.966 6.96 357.99 6.4C359.014 5.84 360.158 5.56 361.422 5.56C362.686 5.56 363.83 5.84 364.854 6.4C365.878 6.96 366.686 7.76 367.278 8.8C367.87 9.84 368.166 11.032 368.166 12.376C368.166 13.72 367.862 14.912 367.254 15.952C366.646 16.992 365.814 17.8 364.758 18.376C363.718 18.936 362.566 19.216 361.302 19.216ZM361.302 16.84C362.006 16.84 362.662 16.672 363.27 16.336C363.894 16 364.398 15.496 364.782 14.824C365.166 14.152 365.358 13.336 365.358 12.376C365.358 11.416 365.174 10.608 364.806 9.952C364.438 9.28 363.95 8.776 363.342 8.44C362.734 8.104 362.078 7.936 361.374 7.936C360.67 7.936 360.014 8.104 359.406 8.44C358.814 8.776 358.342 9.28 357.99 9.952C357.638 10.608 357.462 11.416 357.462 12.376C357.462 13.8 357.822 14.904 358.542 15.688C359.278 16.456 360.198 16.84 361.302 16.84ZM106.24 44.064C106.24 44.56 106.208 45.008 106.144 45.408H96.0403C96.1203 46.464 96.5123 47.312 97.2163 47.952C97.9203 48.592 98.7843 48.912 99.8083 48.912C101.28 48.912 102.32 48.296 102.928 47.064H105.88C105.48 48.28 104.752 49.28 103.696 50.064C102.656 50.832 101.36 51.216 99.8083 51.216C98.5443 51.216 97.4083 50.936 96.4003 50.376C95.4083 49.8 94.6243 49 94.0483 47.976C93.4883 46.936 93.2083 45.736 93.2083 44.376C93.2083 43.016 93.4803 41.824 94.0243 40.8C94.5843 39.76 95.3603 38.96 96.3523 38.4C97.3603 37.84 98.5123 37.56 99.8083 37.56C101.056 37.56 102.168 37.832 103.144 38.376C104.12 38.92 104.88 39.688 105.424 40.68C105.968 41.656 106.24 42.784 106.24 44.064ZM103.384 43.2C103.368 42.192 103.008 41.384 102.304 40.776C101.6 40.168 100.728 39.864 99.6883 39.864C98.7443 39.864 97.9363 40.168 97.2643 40.776C96.5923 41.368 96.1923 42.176 96.0643 43.2H103.384ZM114.597 44.304L118.869 51H115.773L112.917 46.512L110.229 51H107.373L111.645 44.496L107.373 37.776H110.469L113.325 42.264L116.013 37.776H118.869L114.597 44.304ZM123.645 39.72C124.109 39.112 124.741 38.6 125.541 38.184C126.341 37.768 127.245 37.56 128.253 37.56C129.405 37.56 130.453 37.848 131.397 38.424C132.357 38.984 133.109 39.776 133.653 40.8C134.197 41.824 134.469 43 134.469 44.328C134.469 45.656 134.197 46.848 133.653 47.904C133.109 48.944 132.357 49.76 131.397 50.352C130.453 50.928 129.405 51.216 128.253 51.216C127.245 51.216 126.349 51.016 125.565 50.616C124.781 50.2 124.141 49.688 123.645 49.08V57.288H120.909V37.776H123.645V39.72ZM131.685 44.328C131.685 43.416 131.493 42.632 131.109 41.976C130.741 41.304 130.245 40.8 129.621 40.464C129.013 40.112 128.357 39.936 127.653 39.936C126.965 39.936 126.309 40.112 125.685 40.464C125.077 40.816 124.581 41.328 124.197 42C123.829 42.672 123.645 43.464 123.645 44.376C123.645 45.288 123.829 46.088 124.197 46.776C124.581 47.448 125.077 47.96 125.685 48.312C126.309 48.664 126.965 48.84 127.653 48.84C128.357 48.84 129.013 48.664 129.621 48.312C130.245 47.944 130.741 47.416 131.109 46.728C131.493 46.04 131.685 45.24 131.685 44.328ZM142.911 51.216C141.663 51.216 140.535 50.936 139.527 50.376C138.519 49.8 137.727 49 137.151 47.976C136.575 46.936 136.287 45.736 136.287 44.376C136.287 43.032 136.583 41.84 137.175 40.8C137.767 39.76 138.575 38.96 139.599 38.4C140.623 37.84 141.767 37.56 143.031 37.56C144.295 37.56 145.439 37.84 146.463 38.4C147.487 38.96 148.295 39.76 148.887 40.8C149.479 41.84 149.775 43.032 149.775 44.376C149.775 45.72 149.471 46.912 148.863 47.952C148.255 48.992 147.423 49.8 146.367 50.376C145.327 50.936 144.175 51.216 142.911 51.216ZM142.911 48.84C143.615 48.84 144.271 48.672 144.879 48.336C145.503 48 146.007 47.496 146.391 46.824C146.775 46.152 146.967 45.336 146.967 44.376C146.967 43.416 146.783 42.608 146.415 41.952C146.047 41.28 145.559 40.776 144.951 40.44C144.343 40.104 143.687 39.936 142.983 39.936C142.279 39.936 141.623 40.104 141.015 40.44C140.423 40.776 139.951 41.28 139.599 41.952C139.247 42.608 139.071 43.416 139.071 44.376C139.071 45.8 139.431 46.904 140.151 47.688C140.887 48.456 141.807 48.84 142.911 48.84ZM155.216 39.696C155.616 39.024 156.144 38.504 156.8 38.136C157.472 37.752 158.264 37.56 159.176 37.56V40.392H158.48C157.408 40.392 156.592 40.664 156.032 41.208C155.488 41.752 155.216 42.696 155.216 44.04V51H152.48V37.776H155.216V39.696ZM164.883 40.008V47.328C164.883 47.824 164.995 48.184 165.219 48.408C165.459 48.616 165.859 48.72 166.419 48.72H168.099V51H165.939C164.707 51 163.763 50.712 163.107 50.136C162.451 49.56 162.123 48.624 162.123 47.328V40.008H160.563V37.776H162.123V34.488H164.883V37.776H168.099V40.008H164.883ZM188.759 37.776L180.647 57.216H177.815L180.503 50.784L175.295 37.776H178.343L182.063 47.856L185.927 37.776H188.759ZM196.559 51.216C195.311 51.216 194.183 50.936 193.175 50.376C192.167 49.8 191.375 49 190.799 47.976C190.223 46.936 189.935 45.736 189.935 44.376C189.935 43.032 190.231 41.84 190.823 40.8C191.415 39.76 192.223 38.96 193.247 38.4C194.271 37.84 195.415 37.56 196.679 37.56C197.943 37.56 199.087 37.84 200.111 38.4C201.135 38.96 201.943 39.76 202.535 40.8C203.127 41.84 203.423 43.032 203.423 44.376C203.423 45.72 203.119 46.912 202.511 47.952C201.903 48.992 201.071 49.8 200.015 50.376C198.975 50.936 197.823 51.216 196.559 51.216ZM196.559 48.84C197.263 48.84 197.919 48.672 198.527 48.336C199.151 48 199.655 47.496 200.039 46.824C200.423 46.152 200.615 45.336 200.615 44.376C200.615 43.416 200.431 42.608 200.063 41.952C199.695 41.28 199.207 40.776 198.599 40.44C197.991 40.104 197.335 39.936 196.631 39.936C195.927 39.936 195.271 40.104 194.663 40.44C194.071 40.776 193.599 41.28 193.247 41.952C192.895 42.608 192.719 43.416 192.719 44.376C192.719 45.8 193.079 46.904 193.799 47.688C194.535 48.456 195.455 48.84 196.559 48.84ZM218.104 37.776V51H215.368V49.44C214.936 49.984 214.368 50.416 213.664 50.736C212.976 51.04 212.24 51.192 211.456 51.192C210.416 51.192 209.48 50.976 208.648 50.544C207.832 50.112 207.184 49.472 206.704 48.624C206.24 47.776 206.008 46.752 206.008 45.552V37.776H208.72V45.144C208.72 46.328 209.016 47.24 209.608 47.88C210.2 48.504 211.008 48.816 212.032 48.816C213.056 48.816 213.864 48.504 214.456 47.88C215.064 47.24 215.368 46.328 215.368 45.144V37.776H218.104ZM224.45 39.696C224.85 39.024 225.378 38.504 226.034 38.136C226.706 37.752 227.498 37.56 228.41 37.56V40.392H227.714C226.642 40.392 225.826 40.664 225.266 41.208C224.722 41.752 224.45 42.696 224.45 44.04V51H221.714V37.776H224.45V39.696ZM242.703 40.008H240.255V51H237.495V40.008H235.935V37.776H237.495V36.84C237.495 35.32 237.895 34.216 238.695 33.528C239.511 32.824 240.783 32.472 242.511 32.472V34.752C241.679 34.752 241.095 34.912 240.759 35.232C240.423 35.536 240.255 36.072 240.255 36.84V37.776H242.703V40.008ZM246.52 36.024C246.024 36.024 245.608 35.856 245.272 35.52C244.936 35.184 244.768 34.768 244.768 34.272C244.768 33.776 244.936 33.36 245.272 33.024C245.608 32.688 246.024 32.52 246.52 32.52C247 32.52 247.408 32.688 247.744 33.024C248.08 33.36 248.248 33.776 248.248 34.272C248.248 34.768 248.08 35.184 247.744 35.52C247.408 35.856 247 36.024 246.52 36.024ZM247.864 37.776V51H245.128V37.776H247.864ZM254.192 33.24V51H251.456V33.24H254.192ZM269.904 44.064C269.904 44.56 269.872 45.008 269.808 45.408H259.704C259.784 46.464 260.176 47.312 260.88 47.952C261.584 48.592 262.448 48.912 263.472 48.912C264.944 48.912 265.984 48.296 266.592 47.064H269.544C269.144 48.28 268.416 49.28 267.36 50.064C266.32 50.832 265.024 51.216 263.472 51.216C262.208 51.216 261.072 50.936 260.064 50.376C259.072 49.8 258.288 49 257.712 47.976C257.152 46.936 256.872 45.736 256.872 44.376C256.872 43.016 257.144 41.824 257.688 40.8C258.248 39.76 259.024 38.96 260.016 38.4C261.024 37.84 262.176 37.56 263.472 37.56C264.72 37.56 265.832 37.832 266.808 38.376C267.784 38.92 268.544 39.688 269.088 40.68C269.632 41.656 269.904 42.784 269.904 44.064ZM267.048 43.2C267.032 42.192 266.672 41.384 265.968 40.776C265.264 40.168 264.392 39.864 263.352 39.864C262.408 39.864 261.6 40.168 260.928 40.776C260.256 41.368 259.856 42.176 259.728 43.2H267.048ZM273.701 51.168C273.205 51.168 272.789 51 272.453 50.664C272.117 50.328 271.949 49.912 271.949 49.416C271.949 48.92 272.117 48.504 272.453 48.168C272.789 47.832 273.205 47.664 273.701 47.664C274.181 47.664 274.589 47.832 274.925 48.168C275.261 48.504 275.429 48.92 275.429 49.416C275.429 49.912 275.261 50.328 274.925 50.664C274.589 51 274.181 51.168 273.701 51.168ZM273.701 41.088C273.205 41.088 272.789 40.92 272.453 40.584C272.117 40.248 271.949 39.832 271.949 39.336C271.949 38.84 272.117 38.424 272.453 38.088C272.789 37.752 273.205 37.584 273.701 37.584C274.181 37.584 274.589 37.752 274.925 38.088C275.261 38.424 275.429 38.84 275.429 39.336C275.429 39.832 275.261 40.248 274.925 40.584C274.589 40.92 274.181 41.088 273.701 41.088Z" fill="black"/>
</svg>
