<svg width="186" height="56" viewBox="0 0 186 56" fill="none" xmlns="http://www.w3.org/2000/svg">
<rect width="186" height="56" rx="8" fill="#0055CC"/>
<path d="M48.44 24.9004C52.04 25.2104 53.51 27.0604 53.51 31.1104V31.2404C53.51 35.7104 51.72 37.5004 47.25 37.5004H40.74C36.27 37.5004 34.48 35.7104 34.48 31.2404V31.1104C34.48 27.0904 35.93 25.2404 39.47 24.9104" stroke="white" stroke-width="1.5" stroke-linecap="round" stroke-linejoin="round"/>
<path d="M44 18V30.88" stroke="white" stroke-width="1.5" stroke-linecap="round" stroke-linejoin="round"/>
<path d="M47.3499 28.6504L43.9999 32.0004L40.6499 28.6504" stroke="white" stroke-width="1.5" stroke-linecap="round" stroke-linejoin="round"/>
<path d="M76.832 22.88C78.016 22.88 79.0507 23.1093 79.936 23.568C80.832 24.016 81.52 24.6667 82 25.52C82.4907 26.3627 82.736 27.3493 82.736 28.48C82.736 29.6107 82.4907 30.592 82 31.424C81.52 32.256 80.832 32.896 79.936 33.344C79.0507 33.7813 78.016 34 76.832 34H73.2V22.88H76.832ZM76.832 32.512C78.1333 32.512 79.1307 32.16 79.824 31.456C80.5173 30.752 80.864 29.76 80.864 28.48C80.864 27.1893 80.5173 26.1813 79.824 25.456C79.1307 24.7307 78.1333 24.368 76.832 24.368H75.024V32.512H76.832ZM88.3678 34.144C87.5358 34.144 86.7838 33.9573 86.1118 33.584C85.4398 33.2 84.9118 32.6667 84.5278 31.984C84.1438 31.2907 83.9518 30.4907 83.9518 29.584C83.9518 28.688 84.1491 27.8933 84.5438 27.2C84.9384 26.5067 85.4771 25.9733 86.1598 25.6C86.8424 25.2267 87.6051 25.04 88.4478 25.04C89.2904 25.04 90.0531 25.2267 90.7358 25.6C91.4184 25.9733 91.9571 26.5067 92.3518 27.2C92.7464 27.8933 92.9438 28.688 92.9438 29.584C92.9438 30.48 92.7411 31.2747 92.3358 31.968C91.9304 32.6613 91.3758 33.2 90.6718 33.584C89.9784 33.9573 89.2104 34.144 88.3678 34.144ZM88.3678 32.56C88.8371 32.56 89.2744 32.448 89.6798 32.224C90.0958 32 90.4318 31.664 90.6878 31.216C90.9438 30.768 91.0718 30.224 91.0718 29.584C91.0718 28.944 90.9491 28.4053 90.7038 27.968C90.4584 27.52 90.1331 27.184 89.7278 26.96C89.3224 26.736 88.8851 26.624 88.4158 26.624C87.9464 26.624 87.5091 26.736 87.1038 26.96C86.7091 27.184 86.3944 27.52 86.1598 27.968C85.9251 28.4053 85.8078 28.944 85.8078 29.584C85.8078 30.5333 86.0478 31.2693 86.5278 31.792C87.0184 32.304 87.6318 32.56 88.3678 32.56ZM106.587 25.184L103.851 34H101.931L100.155 27.488L98.3789 34H96.4589L93.7069 25.184H95.5629L97.4029 32.272L99.2749 25.184H101.179L102.971 32.24L104.795 25.184H106.587ZM112.398 25.04C113.091 25.04 113.71 25.184 114.254 25.472C114.809 25.76 115.241 26.1867 115.55 26.752C115.859 27.3173 116.014 28 116.014 28.8V34H114.206V29.072C114.206 28.2827 114.009 27.68 113.614 27.264C113.219 26.8373 112.681 26.624 111.998 26.624C111.315 26.624 110.771 26.8373 110.366 27.264C109.971 27.68 109.774 28.2827 109.774 29.072V34H107.95V25.184H109.774V26.192C110.073 25.8293 110.451 25.5467 110.91 25.344C111.379 25.1413 111.875 25.04 112.398 25.04ZM120.165 22.16V34H118.341V22.16H120.165ZM126.383 34.144C125.551 34.144 124.799 33.9573 124.127 33.584C123.455 33.2 122.927 32.6667 122.543 31.984C122.159 31.2907 121.967 30.4907 121.967 29.584C121.967 28.688 122.165 27.8933 122.559 27.2C122.954 26.5067 123.493 25.9733 124.175 25.6C124.858 25.2267 125.621 25.04 126.463 25.04C127.306 25.04 128.069 25.2267 128.751 25.6C129.434 25.9733 129.973 26.5067 130.367 27.2C130.762 27.8933 130.959 28.688 130.959 29.584C130.959 30.48 130.757 31.2747 130.351 31.968C129.946 32.6613 129.391 33.2 128.687 33.584C127.994 33.9573 127.226 34.144 126.383 34.144ZM126.383 32.56C126.853 32.56 127.29 32.448 127.695 32.224C128.111 32 128.447 31.664 128.703 31.216C128.959 30.768 129.087 30.224 129.087 29.584C129.087 28.944 128.965 28.4053 128.719 27.968C128.474 27.52 128.149 27.184 127.743 26.96C127.338 26.736 126.901 26.624 126.431 26.624C125.962 26.624 125.525 26.736 125.119 26.96C124.725 27.184 124.41 27.52 124.175 27.968C123.941 28.4053 123.823 28.944 123.823 29.584C123.823 30.5333 124.063 31.2693 124.543 31.792C125.034 32.304 125.647 32.56 126.383 32.56ZM132.155 29.552C132.155 28.6667 132.336 27.8827 132.699 27.2C133.072 26.5173 133.573 25.9893 134.203 25.616C134.843 25.232 135.547 25.04 136.315 25.04C137.008 25.04 137.611 25.1787 138.123 25.456C138.645 25.7227 139.061 26.0587 139.371 26.464V25.184H141.211V34H139.371V32.688C139.061 33.104 138.64 33.4507 138.107 33.728C137.573 34.0053 136.965 34.144 136.283 34.144C135.525 34.144 134.832 33.952 134.203 33.568C133.573 33.1733 133.072 32.6293 132.699 31.936C132.336 31.232 132.155 30.4373 132.155 29.552ZM139.371 29.584C139.371 28.976 139.243 28.448 138.987 28C138.741 27.552 138.416 27.2107 138.011 26.976C137.605 26.7413 137.168 26.624 136.699 26.624C136.229 26.624 135.792 26.7413 135.387 26.976C134.981 27.2 134.651 27.536 134.395 27.984C134.149 28.4213 134.027 28.944 134.027 29.552C134.027 30.16 134.149 30.6933 134.395 31.152C134.651 31.6107 134.981 31.9627 135.387 32.208C135.803 32.4427 136.24 32.56 136.699 32.56C137.168 32.56 137.605 32.4427 138.011 32.208C138.416 31.9733 138.741 31.632 138.987 31.184C139.243 30.7253 139.371 30.192 139.371 29.584ZM142.998 29.552C142.998 28.6667 143.18 27.8827 143.542 27.2C143.916 26.5173 144.417 25.9893 145.046 25.616C145.686 25.232 146.396 25.04 147.174 25.04C147.75 25.04 148.316 25.168 148.87 25.424C149.436 25.6693 149.884 26 150.214 26.416V22.16H152.054V34H150.214V32.672C149.916 33.0987 149.5 33.4507 148.966 33.728C148.444 34.0053 147.841 34.144 147.158 34.144C146.39 34.144 145.686 33.952 145.046 33.568C144.417 33.1733 143.916 32.6293 143.542 31.936C143.18 31.232 142.998 30.4373 142.998 29.552ZM150.214 29.584C150.214 28.976 150.086 28.448 149.83 28C149.585 27.552 149.26 27.2107 148.854 26.976C148.449 26.7413 148.012 26.624 147.542 26.624C147.073 26.624 146.636 26.7413 146.23 26.976C145.825 27.2 145.494 27.536 145.238 27.984C144.993 28.4213 144.87 28.944 144.87 29.552C144.87 30.16 144.993 30.6933 145.238 31.152C145.494 31.6107 145.825 31.9627 146.23 32.208C146.646 32.4427 147.084 32.56 147.542 32.56C148.012 32.56 148.449 32.4427 148.854 32.208C149.26 31.9733 149.585 31.632 149.83 31.184C150.086 30.7253 150.214 30.192 150.214 29.584Z" fill="#D9D9D9"/>
</svg>
