<svg width="112" height="56" viewBox="0 0 112 56" fill="none" xmlns="http://www.w3.org/2000/svg">
<rect x="0.5" width="111" height="56" rx="8" fill="#0055CC"/>
<path d="M37.332 22.88C38.516 22.88 39.5507 23.1093 40.436 23.568C41.332 24.016 42.02 24.6667 42.5 25.52C42.9907 26.3627 43.236 27.3493 43.236 28.48C43.236 29.6107 42.9907 30.592 42.5 31.424C42.02 32.256 41.332 32.896 40.436 33.344C39.5507 33.7813 38.516 34 37.332 34H33.7V22.88H37.332ZM37.332 32.512C38.6333 32.512 39.6307 32.16 40.324 31.456C41.0173 30.752 41.364 29.76 41.364 28.48C41.364 27.1893 41.0173 26.1813 40.324 25.456C39.6307 24.7307 38.6333 24.368 37.332 24.368H35.524V32.512H37.332ZM50.1158 34.112C49.0811 34.112 48.1264 33.872 47.2518 33.392C46.3878 32.9013 45.6998 32.224 45.1878 31.36C44.6864 30.4853 44.4358 29.504 44.4358 28.416C44.4358 27.328 44.6864 26.352 45.1878 25.488C45.6998 24.624 46.3878 23.952 47.2518 23.472C48.1264 22.9813 49.0811 22.736 50.1158 22.736C51.1611 22.736 52.1158 22.9813 52.9798 23.472C53.8544 23.952 54.5424 24.624 55.0438 25.488C55.5451 26.352 55.7958 27.328 55.7958 28.416C55.7958 29.504 55.5451 30.4853 55.0438 31.36C54.5424 32.224 53.8544 32.9013 52.9798 33.392C52.1158 33.872 51.1611 34.112 50.1158 34.112ZM50.1158 32.528C50.8518 32.528 51.5078 32.3627 52.0838 32.032C52.6598 31.6907 53.1078 31.2107 53.4278 30.592C53.7584 29.9627 53.9238 29.2373 53.9238 28.416C53.9238 27.5947 53.7584 26.8747 53.4278 26.256C53.1078 25.6373 52.6598 25.1627 52.0838 24.832C51.5078 24.5013 50.8518 24.336 50.1158 24.336C49.3798 24.336 48.7238 24.5013 48.1478 24.832C47.5718 25.1627 47.1184 25.6373 46.7878 26.256C46.4678 26.8747 46.3078 27.5947 46.3078 28.416C46.3078 29.2373 46.4678 29.9627 46.7878 30.592C47.1184 31.2107 47.5718 31.6907 48.1478 32.032C48.7238 32.3627 49.3798 32.528 50.1158 32.528ZM56.9826 28.416C56.9826 27.328 57.2333 26.352 57.7346 25.488C58.2466 24.624 58.9346 23.952 59.7986 23.472C60.6733 22.9813 61.628 22.736 62.6626 22.736C63.8466 22.736 64.8973 23.0293 65.8146 23.616C66.7426 24.192 67.4146 25.0133 67.8306 26.08H65.6386C65.3506 25.4933 64.9506 25.056 64.4386 24.768C63.9266 24.48 63.3346 24.336 62.6626 24.336C61.9266 24.336 61.2706 24.5013 60.6946 24.832C60.1186 25.1627 59.6653 25.6373 59.3346 26.256C59.0146 26.8747 58.8546 27.5947 58.8546 28.416C58.8546 29.2373 59.0146 29.9573 59.3346 30.576C59.6653 31.1947 60.1186 31.6747 60.6946 32.016C61.2706 32.3467 61.9266 32.512 62.6626 32.512C63.3346 32.512 63.9266 32.368 64.4386 32.08C64.9506 31.792 65.3506 31.3547 65.6386 30.768H67.8306C67.4146 31.8347 66.7426 32.656 65.8146 33.232C64.8973 33.808 63.8466 34.096 62.6626 34.096C61.6173 34.096 60.6626 33.856 59.7986 33.376C58.9346 32.8853 58.2466 32.208 57.7346 31.344C57.2333 30.48 56.9826 29.504 56.9826 28.416ZM75.0696 28.448L78.5256 34H76.4776L73.9656 29.968L71.6136 34H69.5816L73.0376 28.448L69.5656 22.88H71.6136L74.1416 26.944L76.5096 22.88H78.5416L75.0696 28.448Z" fill="#D9D9D9"/>
</svg>
