<svg width="112" height="56" viewBox="0 0 112 56" fill="none" xmlns="http://www.w3.org/2000/svg">
<rect x="0.5" width="111" height="56" rx="8" fill="#0055CC"/>
<path d="M41.476 26.192C41.476 26.7573 41.3427 27.2907 41.076 27.792C40.8093 28.2933 40.3827 28.704 39.796 29.024C39.2093 29.3333 38.4573 29.488 37.54 29.488H35.524V34H33.7V22.88H37.54C38.3933 22.88 39.1133 23.0293 39.7 23.328C40.2973 23.616 40.74 24.0107 41.028 24.512C41.3267 25.0133 41.476 25.5733 41.476 26.192ZM37.54 28C38.2333 28 38.7507 27.8453 39.092 27.536C39.4333 27.216 39.604 26.768 39.604 26.192C39.604 24.976 38.916 24.368 37.54 24.368H35.524V28H37.54ZM46.8476 22.88C48.0316 22.88 49.0663 23.1093 49.9516 23.568C50.8476 24.016 51.5356 24.6667 52.0156 25.52C52.5063 26.3627 52.7516 27.3493 52.7516 28.48C52.7516 29.6107 52.5063 30.592 52.0156 31.424C51.5356 32.256 50.8476 32.896 49.9516 33.344C49.0663 33.7813 48.0316 34 46.8476 34H43.2156V22.88H46.8476ZM46.8476 32.512C48.149 32.512 49.1463 32.16 49.8396 31.456C50.533 30.752 50.8796 29.76 50.8796 28.48C50.8796 27.1893 50.533 26.1813 49.8396 25.456C49.1463 24.7307 48.149 24.368 46.8476 24.368H45.0396V32.512H46.8476ZM61.1034 22.88V24.368H56.3834V27.648H60.0634V29.136H56.3834V34H54.5594V22.88H61.1034Z" fill="#D9D9D9"/>
</svg>
