<svg width="157" height="58" viewBox="0 0 157 58" fill="none" xmlns="http://www.w3.org/2000/svg">
<path d="M48 39.75H42C36.57 39.75 34.25 37.43 34.25 32V26C34.25 20.57 36.57 18.25 42 18.25H48C53.43 18.25 55.75 20.57 55.75 26V32C55.75 37.43 53.43 39.75 48 39.75ZM42 19.75C37.39 19.75 35.75 21.39 35.75 26V32C35.75 36.61 37.39 38.25 42 38.25H48C52.61 38.25 54.25 36.61 54.25 32V26C54.25 21.39 52.61 19.75 48 19.75H42Z" fill="#2B80F7"/>
<path d="M42.6002 32.7799C42.4102 32.7799 42.2202 32.7099 42.0702 32.5599L39.5802 30.0699C38.9902 29.4799 38.9902 28.5299 39.5802 27.9399L42.0702 25.4499C42.3602 25.1599 42.8402 25.1599 43.1302 25.4499C43.4202 25.7399 43.4202 26.2199 43.1302 26.5099L40.6402 28.9999L43.1302 31.4999C43.4202 31.7899 43.4202 32.2699 43.1302 32.5599C42.9802 32.6999 42.7902 32.7799 42.6002 32.7799Z" fill="#2B80F7"/>
<path d="M47.3998 32.7802C47.2098 32.7802 47.0198 32.7102 46.8698 32.5602C46.5798 32.2702 46.5798 31.7902 46.8698 31.5002L49.3598 29.0002L46.8698 26.5002C46.5798 26.2102 46.5798 25.7302 46.8698 25.4402C47.1598 25.1502 47.6398 25.1502 47.9298 25.4402L50.4198 27.9302C51.0098 28.5202 51.0098 29.4702 50.4198 30.0602L47.9298 32.5502C47.7898 32.7002 47.5898 32.7802 47.3998 32.7802Z" fill="#2B80F7"/>
<path d="M70.024 25.352V28.616H73.864V30.104H70.024V33.512H74.344V35H68.2V23.864H74.344V25.352H70.024ZM87.2626 26.04C87.956 26.04 88.5746 26.184 89.1186 26.472C89.6733 26.76 90.1053 27.1867 90.4146 27.752C90.7346 28.3173 90.8946 29 90.8946 29.8V35H89.0866V30.072C89.0866 29.2827 88.8893 28.68 88.4946 28.264C88.1 27.8373 87.5613 27.624 86.8786 27.624C86.196 27.624 85.652 27.8373 85.2466 28.264C84.852 28.68 84.6546 29.2827 84.6546 30.072V35H82.8466V30.072C82.8466 29.2827 82.6493 28.68 82.2546 28.264C81.86 27.8373 81.3213 27.624 80.6386 27.624C79.956 27.624 79.412 27.8373 79.0066 28.264C78.612 28.68 78.4146 29.2827 78.4146 30.072V35H76.5906V26.184H78.4146V27.192C78.7133 26.8293 79.092 26.5467 79.5506 26.344C80.0093 26.1413 80.5 26.04 81.0226 26.04C81.7266 26.04 82.356 26.1893 82.9106 26.488C83.4653 26.7867 83.892 27.2187 84.1906 27.784C84.4573 27.2507 84.8733 26.8293 85.4386 26.52C86.004 26.2 86.612 26.04 87.2626 26.04ZM95.0396 27.496C95.349 27.0693 95.7703 26.7227 96.3036 26.456C96.8476 26.1787 97.4503 26.04 98.1116 26.04C98.8903 26.04 99.5943 26.2267 100.224 26.6C100.853 26.9733 101.349 27.5067 101.712 28.2C102.074 28.8827 102.256 29.6667 102.256 30.552C102.256 31.4373 102.074 32.232 101.712 32.936C101.349 33.6293 100.848 34.1733 100.208 34.568C99.5783 34.952 98.8796 35.144 98.1116 35.144C97.429 35.144 96.821 35.0107 96.2876 34.744C95.765 34.4773 95.349 34.136 95.0396 33.72V35H93.2156V23.16H95.0396V27.496ZM100.4 30.552C100.4 29.944 100.272 29.4213 100.016 28.984C99.7703 28.536 99.4396 28.2 99.0236 27.976C98.6183 27.7413 98.181 27.624 97.7116 27.624C97.253 27.624 96.8156 27.7413 96.3996 27.976C95.9943 28.2107 95.6636 28.552 95.4076 29C95.1623 29.448 95.0396 29.976 95.0396 30.584C95.0396 31.192 95.1623 31.7253 95.4076 32.184C95.6636 32.632 95.9943 32.9733 96.3996 33.208C96.8156 33.4427 97.253 33.56 97.7116 33.56C98.181 33.56 98.6183 33.4427 99.0236 33.208C99.4396 32.9627 99.7703 32.6107 100.016 32.152C100.272 31.6933 100.4 31.16 100.4 30.552ZM112.139 30.376C112.139 30.7067 112.118 31.0053 112.075 31.272H105.339C105.393 31.976 105.654 32.5413 106.123 32.968C106.593 33.3947 107.169 33.608 107.851 33.608C108.833 33.608 109.526 33.1973 109.931 32.376H111.899C111.633 33.1867 111.147 33.8533 110.443 34.376C109.75 34.888 108.886 35.144 107.851 35.144C107.009 35.144 106.251 34.9573 105.579 34.584C104.918 34.2 104.395 33.6667 104.011 32.984C103.638 32.2907 103.451 31.4907 103.451 30.584C103.451 29.6773 103.633 28.8827 103.995 28.2C104.369 27.5067 104.886 26.9733 105.547 26.6C106.219 26.2267 106.987 26.04 107.851 26.04C108.683 26.04 109.425 26.2213 110.075 26.584C110.726 26.9467 111.233 27.4587 111.595 28.12C111.958 28.7707 112.139 29.5227 112.139 30.376ZM110.235 29.8C110.225 29.128 109.985 28.5893 109.515 28.184C109.046 27.7787 108.465 27.576 107.771 27.576C107.142 27.576 106.603 27.7787 106.155 28.184C105.707 28.5787 105.441 29.1173 105.355 29.8H110.235ZM113.326 30.552C113.326 29.6667 113.508 28.8827 113.87 28.2C114.244 27.5173 114.745 26.9893 115.374 26.616C116.014 26.232 116.724 26.04 117.502 26.04C118.078 26.04 118.644 26.168 119.198 26.424C119.764 26.6693 120.212 27 120.542 27.416V23.16H122.382V35H120.542V33.672C120.244 34.0987 119.828 34.4507 119.294 34.728C118.772 35.0053 118.169 35.144 117.486 35.144C116.718 35.144 116.014 34.952 115.374 34.568C114.745 34.1733 114.244 33.6293 113.87 32.936C113.508 32.232 113.326 31.4373 113.326 30.552ZM120.542 30.584C120.542 29.976 120.414 29.448 120.158 29C119.913 28.552 119.588 28.2107 119.182 27.976C118.777 27.7413 118.34 27.624 117.87 27.624C117.401 27.624 116.964 27.7413 116.558 27.976C116.153 28.2 115.822 28.536 115.566 28.984C115.321 29.4213 115.198 29.944 115.198 30.552C115.198 31.16 115.321 31.6933 115.566 32.152C115.822 32.6107 116.153 32.9627 116.558 33.208C116.974 33.4427 117.412 33.56 117.87 33.56C118.34 33.56 118.777 33.4427 119.182 33.208C119.588 32.9733 119.913 32.632 120.158 32.184C120.414 31.7253 120.542 31.192 120.542 30.584Z" fill="#2B80F7"/>
<rect x="1" y="1" width="155" height="56" rx="8" stroke="#2B80F7"/>
</svg>
