<svg width="150" height="58" viewBox="0 0 150 58" fill="none" xmlns="http://www.w3.org/2000/svg">
<path d="M46 27.9998L54.2 19.7998" stroke="#2B80F7" stroke-width="1.5" stroke-linecap="round" stroke-linejoin="round"/>
<path d="M55.0002 23.8V19H50.2002" stroke="#2B80F7" stroke-width="1.5" stroke-linecap="round" stroke-linejoin="round"/>
<path d="M44 19H42C37 19 35 21 35 26V32C35 37 37 39 42 39H48C53 39 55 37 55 32V30" stroke="#2B80F7" stroke-width="1.5" stroke-linecap="round" stroke-linejoin="round"/>
<path d="M70.024 25.352V28.616H73.864V30.104H70.024V33.512H74.344V35H68.2V23.864H74.344V25.352H70.024ZM80.3666 30.536L83.2146 35H81.1506L79.2466 32.008L77.4546 35H75.5506L78.3986 30.664L75.5506 26.184H77.6146L79.5186 29.176L81.3106 26.184H83.2146L80.3666 30.536ZM86.399 27.48C86.7083 27.0747 87.1297 26.7333 87.663 26.456C88.1963 26.1787 88.799 26.04 89.471 26.04C90.239 26.04 90.9377 26.232 91.567 26.616C92.207 26.9893 92.7083 27.5173 93.071 28.2C93.4337 28.8827 93.615 29.6667 93.615 30.552C93.615 31.4373 93.4337 32.232 93.071 32.936C92.7083 33.6293 92.207 34.1733 91.567 34.568C90.9377 34.952 90.239 35.144 89.471 35.144C88.799 35.144 88.2017 35.0107 87.679 34.744C87.1563 34.4667 86.7297 34.1253 86.399 33.72V39.192H84.575V26.184H86.399V27.48ZM91.759 30.552C91.759 29.944 91.631 29.4213 91.375 28.984C91.1297 28.536 90.799 28.2 90.383 27.976C89.9777 27.7413 89.5403 27.624 89.071 27.624C88.6123 27.624 88.175 27.7413 87.759 27.976C87.3537 28.2107 87.023 28.552 86.767 29C86.5217 29.448 86.399 29.976 86.399 30.584C86.399 31.192 86.5217 31.7253 86.767 32.184C87.023 32.632 87.3537 32.9733 87.759 33.208C88.175 33.4427 88.6123 33.56 89.071 33.56C89.5403 33.56 89.9777 33.4427 90.383 33.208C90.799 32.9627 91.1297 32.6107 91.375 32.152C91.631 31.6933 91.759 31.16 91.759 30.552ZM99.2428 35.144C98.4108 35.144 97.6588 34.9573 96.9868 34.584C96.3148 34.2 95.7868 33.6667 95.4028 32.984C95.0188 32.2907 94.8268 31.4907 94.8268 30.584C94.8268 29.688 95.0241 28.8933 95.4188 28.2C95.8134 27.5067 96.3521 26.9733 97.0348 26.6C97.7174 26.2267 98.4801 26.04 99.3228 26.04C100.165 26.04 100.928 26.2267 101.611 26.6C102.293 26.9733 102.832 27.5067 103.227 28.2C103.621 28.8933 103.819 29.688 103.819 30.584C103.819 31.48 103.616 32.2747 103.211 32.968C102.805 33.6613 102.251 34.2 101.547 34.584C100.853 34.9573 100.085 35.144 99.2428 35.144ZM99.2428 33.56C99.7121 33.56 100.149 33.448 100.555 33.224C100.971 33 101.307 32.664 101.563 32.216C101.819 31.768 101.947 31.224 101.947 30.584C101.947 29.944 101.824 29.4053 101.579 28.968C101.333 28.52 101.008 28.184 100.603 27.96C100.197 27.736 99.7601 27.624 99.2908 27.624C98.8214 27.624 98.3841 27.736 97.9788 27.96C97.5841 28.184 97.2694 28.52 97.0348 28.968C96.8001 29.4053 96.6828 29.944 96.6828 30.584C96.6828 31.5333 96.9228 32.2693 97.4028 32.792C97.8934 33.304 98.5068 33.56 99.2428 33.56ZM107.446 27.464C107.713 27.016 108.065 26.6693 108.502 26.424C108.95 26.168 109.478 26.04 110.086 26.04V27.928H109.622C108.907 27.928 108.363 28.1093 107.99 28.472C107.627 28.8347 107.446 29.464 107.446 30.36V35H105.622V26.184H107.446V27.464ZM113.891 27.672V32.552C113.891 32.8827 113.965 33.1227 114.115 33.272C114.275 33.4107 114.541 33.48 114.915 33.48H116.035V35H114.595C113.773 35 113.144 34.808 112.707 34.424C112.269 34.04 112.051 33.416 112.051 32.552V27.672H111.011V26.184H112.051V23.992H113.891V26.184H116.035V27.672H113.891Z" fill="#2B80F7"/>
<rect x="1" y="1" width="148" height="56" rx="8" stroke="#2B80F7"/>
</svg>
