<svg width="147" height="58" viewBox="0 0 147 58" fill="none" xmlns="http://www.w3.org/2000/svg">
<path d="M38 25.75C35.93 25.75 34.25 24.07 34.25 22C34.25 19.93 35.93 18.25 38 18.25C40.07 18.25 41.75 19.93 41.75 22C41.75 24.07 40.07 25.75 38 25.75ZM38 19.75C36.76 19.75 35.75 20.76 35.75 22C35.75 23.24 36.76 24.25 38 24.25C39.24 24.25 40.25 23.24 40.25 22C40.25 20.76 39.24 19.75 38 19.75Z" fill="#2B80F7"/>
<path d="M52 32.75C49.93 32.75 48.25 31.07 48.25 29C48.25 26.93 49.93 25.25 52 25.25C54.07 25.25 55.75 26.93 55.75 29C55.75 31.07 54.07 32.75 52 32.75ZM52 26.75C50.76 26.75 49.75 27.76 49.75 29C49.75 30.24 50.76 31.25 52 31.25C53.24 31.25 54.25 30.24 54.25 29C54.25 27.76 53.24 26.75 52 26.75Z" fill="#2B80F7"/>
<path d="M38 39.75C35.93 39.75 34.25 38.07 34.25 36C34.25 33.93 35.93 32.25 38 32.25C40.07 32.25 41.75 33.93 41.75 36C41.75 38.07 40.07 39.75 38 39.75ZM38 33.75C36.76 33.75 35.75 34.76 35.75 36C35.75 37.24 36.76 38.25 38 38.25C39.24 38.25 40.25 37.24 40.25 36C40.25 34.76 39.24 33.75 38 33.75Z" fill="#2B80F7"/>
<path d="M38 33.75C37.59 33.75 37.25 33.41 37.25 33V25C37.25 24.59 37.59 24.25 38 24.25C38.41 24.25 38.75 24.59 38.75 25C38.75 27.19 39.81 28.25 42 28.25H49C49.41 28.25 49.75 28.59 49.75 29C49.75 29.41 49.41 29.75 49 29.75H42C40.64 29.75 39.55 29.4 38.75 28.74V33C38.75 33.41 38.41 33.75 38 33.75Z" fill="#2B80F7"/>
<path d="M71.864 35.112C71.1173 35.112 70.4453 34.984 69.848 34.728C69.2507 34.4613 68.7813 34.088 68.44 33.608C68.0987 33.128 67.928 32.568 67.928 31.928H69.88C69.9227 32.408 70.1093 32.8027 70.44 33.112C70.7813 33.4213 71.256 33.576 71.864 33.576C72.4933 33.576 72.984 33.4267 73.336 33.128C73.688 32.8187 73.864 32.424 73.864 31.944C73.864 31.5707 73.752 31.2667 73.528 31.032C73.3147 30.7973 73.0427 30.616 72.712 30.488C72.392 30.36 71.944 30.2213 71.368 30.072C70.6427 29.88 70.0507 29.688 69.592 29.496C69.144 29.2933 68.76 28.984 68.44 28.568C68.12 28.152 67.96 27.5973 67.96 26.904C67.96 26.264 68.12 25.704 68.44 25.224C68.76 24.744 69.208 24.376 69.784 24.12C70.36 23.864 71.0267 23.736 71.784 23.736C72.8613 23.736 73.7413 24.008 74.424 24.552C75.1173 25.0853 75.5013 25.8213 75.576 26.76H73.56C73.528 26.3547 73.336 26.008 72.984 25.72C72.632 25.432 72.168 25.288 71.592 25.288C71.0693 25.288 70.6427 25.4213 70.312 25.688C69.9813 25.9547 69.816 26.3387 69.816 26.84C69.816 27.1813 69.9173 27.464 70.12 27.688C70.3333 27.9013 70.6 28.072 70.92 28.2C71.24 28.328 71.6773 28.4667 72.232 28.616C72.968 28.8187 73.5653 29.0213 74.024 29.224C74.4933 29.4267 74.888 29.7413 75.208 30.168C75.5387 30.584 75.704 31.144 75.704 31.848C75.704 32.4133 75.5493 32.9467 75.24 33.448C74.9413 33.9493 74.4987 34.3547 73.912 34.664C73.336 34.9627 72.6533 35.112 71.864 35.112ZM82.4163 26.04C83.0883 26.04 83.6856 26.184 84.2083 26.472C84.7416 26.76 85.1576 27.1867 85.4563 27.752C85.7656 28.3173 85.9203 29 85.9203 29.8V35H84.1123V30.072C84.1123 29.2827 83.9149 28.68 83.5203 28.264C83.1256 27.8373 82.5869 27.624 81.9043 27.624C81.2216 27.624 80.6776 27.8373 80.2723 28.264C79.8776 28.68 79.6803 29.2827 79.6803 30.072V35H77.8563V23.16H79.6803V27.208C79.9896 26.8347 80.3789 26.5467 80.8483 26.344C81.3283 26.1413 81.8509 26.04 82.4163 26.04ZM87.6389 30.552C87.6389 29.6667 87.8202 28.8827 88.1829 28.2C88.5562 27.5173 89.0575 26.9893 89.6869 26.616C90.3269 26.232 91.0309 26.04 91.7989 26.04C92.4922 26.04 93.0949 26.1787 93.6069 26.456C94.1295 26.7227 94.5455 27.0587 94.8549 27.464V26.184H96.6949V35H94.8549V33.688C94.5455 34.104 94.1242 34.4507 93.5909 34.728C93.0575 35.0053 92.4495 35.144 91.7669 35.144C91.0095 35.144 90.3162 34.952 89.6869 34.568C89.0575 34.1733 88.5562 33.6293 88.1829 32.936C87.8202 32.232 87.6389 31.4373 87.6389 30.552ZM94.8549 30.584C94.8549 29.976 94.7269 29.448 94.4709 29C94.2255 28.552 93.9002 28.2107 93.4949 27.976C93.0895 27.7413 92.6522 27.624 92.1829 27.624C91.7135 27.624 91.2762 27.7413 90.8709 27.976C90.4655 28.2 90.1349 28.536 89.8789 28.984C89.6335 29.4213 89.5109 29.944 89.5109 30.552C89.5109 31.16 89.6335 31.6933 89.8789 32.152C90.1349 32.6107 90.4655 32.9627 90.8709 33.208C91.2869 33.4427 91.7242 33.56 92.1829 33.56C92.6522 33.56 93.0895 33.4427 93.4949 33.208C93.9002 32.9733 94.2255 32.632 94.4709 32.184C94.7269 31.7253 94.8549 31.192 94.8549 30.584ZM100.915 27.464C101.181 27.016 101.533 26.6693 101.971 26.424C102.419 26.168 102.947 26.04 103.555 26.04V27.928H103.091C102.376 27.928 101.832 28.1093 101.459 28.472C101.096 28.8347 100.915 29.464 100.915 30.36V35H99.0906V26.184H100.915V27.464ZM113.311 30.376C113.311 30.7067 113.29 31.0053 113.247 31.272H106.511C106.565 31.976 106.826 32.5413 107.295 32.968C107.765 33.3947 108.341 33.608 109.023 33.608C110.005 33.608 110.698 33.1973 111.103 32.376H113.071C112.805 33.1867 112.319 33.8533 111.615 34.376C110.922 34.888 110.058 35.144 109.023 35.144C108.181 35.144 107.423 34.9573 106.751 34.584C106.09 34.2 105.567 33.6667 105.183 32.984C104.81 32.2907 104.623 31.4907 104.623 30.584C104.623 29.6773 104.805 28.8827 105.167 28.2C105.541 27.5067 106.058 26.9733 106.719 26.6C107.391 26.2267 108.159 26.04 109.023 26.04C109.855 26.04 110.597 26.2213 111.247 26.584C111.898 26.9467 112.405 27.4587 112.767 28.12C113.13 28.7707 113.311 29.5227 113.311 30.376ZM111.407 29.8C111.397 29.128 111.157 28.5893 110.687 28.184C110.218 27.7787 109.637 27.576 108.943 27.576C108.314 27.576 107.775 27.7787 107.327 28.184C106.879 28.5787 106.613 29.1173 106.527 29.8H111.407Z" fill="#2B80F7"/>
<rect x="1" y="1" width="145" height="56" rx="8" stroke="#2B80F7"/>
</svg>
