<svg width="159" height="42" viewBox="0 0 159 42" fill="none" xmlns="http://www.w3.org/2000/svg">
<path d="M113.92 28.2256H119.301C119.335 29.8581 118.925 31.4699 118.111 32.8923C117.347 34.2038 116.219 35.2741 114.862 35.9783C113.445 36.7063 111.867 37.077 110.27 37.0571C108.68 37.08 107.11 36.709 105.703 35.9783C104.369 35.2717 103.266 34.2058 102.523 32.9048C101.722 31.474 101.321 29.8594 101.359 28.2256V28.2256H106.74C106.663 29.368 107.021 30.4975 107.745 31.3931C108.059 31.7527 108.45 32.0389 108.89 32.2309C109.33 32.4229 109.808 32.516 110.289 32.5034C110.774 32.5092 111.256 32.4133 111.701 32.2219C112.146 32.0305 112.545 31.748 112.871 31.3931C113.629 30.5143 114.006 29.3764 113.92 28.2256V28.2256Z" fill="#D9D9D9"/>
<path d="M32.2261 10.2676C30.8546 9.55639 29.3233 9.19825 27.7741 9.22634C26.1904 9.19603 24.6251 9.56523 23.2267 10.2989C21.9172 11.0064 20.847 12.0772 20.1484 13.3787C19.3893 14.8204 19.0109 16.4275 19.0482 18.0516C19.0112 19.6771 19.3943 21.2852 20.1612 22.7245C20.872 24.0234 21.9473 25.0927 23.2585 25.8043C24.646 26.5364 26.2007 26.9057 27.7741 26.8769C29.0874 26.8987 30.3897 26.6375 31.5901 26.1116C32.6835 25.6245 33.651 24.8997 34.4203 23.9916C35.1643 23.1032 35.6968 22.0615 35.9785 20.9432H30.3372C30.1068 21.4639 29.718 21.9011 29.2246 22.1944C28.7313 22.4876 28.1577 22.6225 27.5833 22.5803C26.7528 22.6017 25.9476 22.2971 25.3446 21.7335C24.6926 21.0795 24.3194 20.2042 24.3015 19.2873H36.252C36.3141 18.7773 36.346 18.2642 36.3474 17.7505C36.3822 16.1747 36.0031 14.6168 35.2471 13.2281C34.5453 11.9786 33.4975 10.9517 32.2261 10.2676ZM24.3333 16.3894C24.4185 15.5527 24.8123 14.7759 25.44 14.2066C26.0927 13.7049 26.898 13.435 27.7255 13.4407C28.5531 13.4464 29.3545 13.7273 30.0001 14.238C30.3083 14.5052 30.5517 14.8372 30.7124 15.2096C30.8731 15.5819 30.947 15.9851 30.9286 16.3894H24.3333Z" fill="#D9D9D9"/>
<path d="M46.765 10.0986C47.7037 9.5563 48.7745 9.27656 49.8623 9.28949V14.8531H48.4059C47.3474 14.771 46.294 15.0646 45.4358 15.6811C44.7743 16.2456 44.4436 17.2345 44.4436 18.6479V26.6139H39.1584V9.47139H44.4436V12.3316C45.0307 11.4193 45.8256 10.6547 46.765 10.0986Z" fill="#D9D9D9"/>
<path d="M79.5446 11.2218C80.8166 12.5139 81.4526 14.3078 81.4526 16.6098V26.6456H76.1929V17.3123C76.2516 16.3758 75.934 15.4542 75.3089 14.7469C74.6388 14.1614 73.7746 13.8381 72.8793 13.8381C71.9841 13.8381 71.1199 14.1614 70.4498 14.7469C69.8222 15.4528 69.5043 16.3754 69.5658 17.3123V26.6331H64.3124V17.3123C64.3711 16.3758 64.0535 15.4542 63.4284 14.7469C62.7584 14.1614 61.8941 13.8381 60.9989 13.8381C60.1036 13.8381 59.2394 14.1614 58.5693 14.7469C57.9417 15.4528 57.6238 16.3754 57.6853 17.3123V26.6331H52.4001V9.4718H57.6853V11.6232C58.2358 10.8965 58.9557 10.3113 59.7841 9.91714C60.7011 9.48667 61.707 9.27196 62.7224 9.2899C63.9367 9.2689 65.1363 9.55387 66.2077 10.1179C67.219 10.6626 68.0494 11.4837 68.5991 12.4826C69.2144 11.5312 70.0547 10.7413 71.0477 10.1806C72.0689 9.58856 73.2339 9.28075 74.4185 9.2899C75.3622 9.24256 76.3055 9.38992 77.1882 9.72258C78.0708 10.0552 78.8734 10.5658 79.5446 11.2218V11.2218Z" fill="#D9D9D9"/>
<path d="M98.2367 18.817C98.8791 19.628 99.2123 20.6359 99.1779 21.6646C99.1896 22.6279 98.8912 23.57 98.3257 24.3555C97.7087 25.1982 96.8618 25.8507 95.8834 26.2372C94.7094 26.7099 93.4497 26.9405 92.1819 26.9146C90.8024 26.9411 89.4328 26.6803 88.1624 26.1494C87.0651 25.6955 86.1055 24.9695 85.3767 24.0419C84.705 23.175 84.3068 22.1322 84.2319 21.0437H89.4599C89.4867 21.3294 89.5755 21.6062 89.7204 21.8551C89.8653 22.104 90.0627 22.3193 90.2994 22.4863C90.8271 22.8691 91.47 23.0657 92.1247 23.0446C92.6624 23.0776 93.1969 22.9414 93.6511 22.6557C93.8195 22.5483 93.9575 22.4004 94.0521 22.2259C94.1467 22.0515 94.1947 21.8562 94.1917 21.6584C94.1941 21.4202 94.1213 21.1872 93.9834 20.9916C93.8455 20.7961 93.6494 20.6477 93.4221 20.567C92.6234 20.2223 91.7955 19.9474 90.9481 19.7453C89.8861 19.5094 88.8425 19.1992 87.8253 18.817C86.9967 18.4991 86.262 17.9815 85.6884 17.3116C85.0556 16.5219 84.7368 15.5317 84.7916 14.5266C84.7836 13.5686 85.0696 12.6306 85.6121 11.8358C86.2129 10.9804 87.0493 10.3122 88.0225 9.91016C89.2294 9.41106 90.5303 9.17157 91.8385 9.20765C94.0009 9.20765 95.7117 9.7408 96.9265 10.8071C98.185 11.8866 98.96 13.413 99.0825 15.0535H94.1917C94.1622 14.7783 94.0773 14.5117 93.9419 14.2693C93.8064 14.027 93.6232 13.8138 93.403 13.6422C92.902 13.272 92.2858 13.0857 91.6604 13.1154C91.1592 13.0832 90.6605 13.2083 90.2358 13.4729C90.0791 13.5784 89.9516 13.7209 89.865 13.8874C89.7783 14.054 89.7353 14.2392 89.7397 14.4263C89.7394 14.6689 89.815 14.9056 89.9561 15.1043C90.0972 15.303 90.297 15.4539 90.5283 15.5365C91.319 15.8784 92.144 16.137 92.9897 16.308C94.0488 16.5722 95.0914 16.8968 96.1124 17.2802C96.9383 17.6117 97.6681 18.1396 98.2367 18.817Z" fill="#D9D9D9"/>
<path d="M134.26 10.2675C132.888 9.55529 131.357 9.19708 129.808 9.22626C128.235 9.20075 126.681 9.56982 125.292 10.2988C123.983 11.0064 122.912 12.0771 122.214 13.3786C121.455 14.8203 121.076 16.4274 121.113 18.0515C121.073 19.6774 121.457 21.2862 122.226 22.7245C122.927 24.0203 123.991 25.0895 125.292 25.8042C126.68 26.5364 128.234 26.9056 129.808 26.8768C131.121 26.8994 132.423 26.6382 133.624 26.1116C134.704 25.6342 135.661 24.9209 136.421 24.0255C137.181 23.1301 137.725 22.0762 138.012 20.9431H132.377C132.147 21.4654 131.757 21.9039 131.263 22.1974C130.768 22.4909 130.192 22.6247 129.617 22.5802C128.787 22.5968 127.984 22.293 127.378 21.7334C126.728 21.0785 126.358 20.2032 126.341 19.2872H138.317C138.374 18.7768 138.404 18.2639 138.406 17.7505C138.444 16.1743 138.065 14.6156 137.306 13.2281C136.599 11.9735 135.542 10.9458 134.26 10.2675V10.2675ZM126.373 16.3893C126.463 15.5498 126.864 14.7724 127.499 14.2065C128.128 13.6913 128.926 13.4193 129.744 13.4413C130.591 13.4129 131.419 13.6969 132.065 14.2379C132.372 14.506 132.615 14.8381 132.776 15.2103C132.936 15.5824 133.011 15.9852 132.994 16.3893H126.373Z" fill="#D9D9D9"/>
<path d="M158.364 16.6093V26.6451H153.104V17.3118C153.167 16.3403 152.846 15.3825 152.207 14.6398C151.557 14.0281 150.693 13.687 149.794 13.687C148.895 13.687 148.031 14.0281 147.38 14.6398C146.742 15.3825 146.421 16.3403 146.483 17.3118V26.6326H141.192V9.4713H146.483V11.7482C147.034 10.9736 147.779 10.3533 148.646 9.948C149.605 9.50898 150.654 9.29432 151.711 9.32076C152.613 9.28041 153.513 9.43398 154.349 9.77081C155.185 10.1077 155.936 10.6197 156.551 11.2715C157.76 12.5385 158.364 14.3178 158.364 16.6093Z" fill="#D9D9D9"/>
<path d="M116.076 4.91746C115.474 4.89441 114.873 4.98893 114.307 5.19559C113.742 5.40226 113.224 5.717 112.782 6.12176C112.368 6.50428 112.042 6.96845 111.822 7.48398C111.603 7.99951 111.497 8.55483 111.51 9.11369C111.507 9.1701 111.507 9.22664 111.51 9.28305C111.125 9.24497 110.739 9.22613 110.352 9.2266C108.759 9.20321 107.185 9.57185 105.773 10.2992C104.424 11.0071 103.308 12.0798 102.555 13.3915C101.751 14.8147 101.345 16.423 101.378 18.0519C101.339 19.6838 101.741 21.2965 102.542 22.7248C103.282 24.0303 104.385 25.0991 105.722 25.8046C107.127 26.5331 108.695 26.9019 110.282 26.8771C111.881 26.8989 113.461 26.5305 114.881 25.8046C116.237 25.0977 117.362 24.0253 118.124 22.7123C118.94 21.293 119.353 19.6831 119.32 18.0519C119.353 16.423 118.947 14.8147 118.143 13.3915C118.048 13.2347 117.953 13.0779 117.857 12.9336C118.407 12.7394 118.91 12.4339 119.333 12.0366C119.744 11.6676 120.071 11.2157 120.291 10.7115C120.51 10.2072 120.617 9.66231 120.605 9.11369C120.619 8.55461 120.514 7.99882 120.294 7.48305C120.075 6.96728 119.747 6.50329 119.333 6.12176C118.898 5.71871 118.386 5.40475 117.827 5.19804C117.268 4.99132 116.673 4.89596 116.076 4.91746V4.91746ZM112.896 21.2257C112.571 21.5812 112.172 21.8641 111.727 22.0556C111.281 22.247 110.8 22.3426 110.314 22.3359C109.833 22.3494 109.355 22.2568 108.915 22.0647C108.475 21.8726 108.084 21.586 107.77 21.2257C107.051 20.34 106.69 19.2224 106.759 18.0895C106.678 16.9396 107.044 15.8026 107.783 14.9094C108.11 14.5677 108.504 14.2955 108.942 14.1094C109.379 13.9233 109.85 13.8274 110.327 13.8274C110.803 13.8274 111.275 13.9233 111.712 14.1094C112.15 14.2955 112.544 14.5677 112.871 14.9094C113.614 15.7956 113.985 16.9292 113.908 18.077C113.988 19.2185 113.614 20.346 112.865 21.2194L112.896 21.2257Z" fill="#D9D9D9"/>
<path d="M0.635986 5.04297H17.4391V9.25802H11.6769V26.6326H6.39179V9.25802H0.635986V5.04297Z" fill="#D9D9D9"/>
</svg>
