<svg width="143" height="38" viewBox="0 0 143 38" fill="none" xmlns="http://www.w3.org/2000/svg">
<path d="M102.457 25.5381H107.296C107.327 27.0151 106.957 28.4734 106.226 29.7603C105.538 30.947 104.524 31.9153 103.303 32.5524C102.029 33.2111 100.61 33.5465 99.1733 33.5285C97.7436 33.5492 96.3315 33.2136 95.0664 32.5524C93.8667 31.9132 92.8748 30.9488 92.2064 29.7717C91.4862 28.4771 91.125 27.0163 91.1596 25.5381H95.9987C95.9298 26.5717 96.2521 27.5936 96.9025 28.404C97.1849 28.7293 97.5367 28.9882 97.9324 29.1619C98.3282 29.3357 98.7579 29.4199 99.1905 29.4085C99.6272 29.4138 100.06 29.327 100.46 29.1538C100.861 28.9806 101.22 28.7251 101.513 28.404C102.195 27.6088 102.534 26.5793 102.457 25.5381Z" fill="#00337B"/>
<path d="M28.9832 9.2903C27.7498 8.64686 26.3726 8.32283 24.9792 8.34824C23.5549 8.32082 22.1471 8.65486 20.8894 9.31867C19.7118 9.95881 18.7492 10.9276 18.121 12.1051C17.4382 13.4095 17.0979 14.8636 17.1314 16.333C17.0982 17.8037 17.4427 19.2587 18.1324 20.5609C18.7717 21.7361 19.7388 22.7035 20.918 23.3473C22.166 24.0098 23.5642 24.3439 24.9792 24.3178C26.1604 24.3375 27.3317 24.1012 28.4112 23.6254C29.3946 23.1846 30.2648 22.5289 30.9566 21.7073C31.6258 20.9035 32.1047 19.961 32.358 18.9492H27.2844C27.0772 19.4203 26.7275 19.8159 26.2838 20.0812C25.8401 20.3466 25.3243 20.4686 24.8076 20.4304C24.0607 20.4497 23.3365 20.1742 22.7942 19.6643C22.2079 19.0726 21.8722 18.2806 21.8561 17.451H32.604C32.6599 16.9896 32.6886 16.5253 32.6898 16.0606C32.7211 14.6349 32.3802 13.2253 31.7002 11.9689C31.0691 10.8383 30.1267 9.90929 28.9832 9.2903ZM21.8847 14.8291C21.9613 14.0721 22.3155 13.3693 22.88 12.8542C23.467 12.4002 24.1913 12.1561 24.9356 12.1612C25.6799 12.1664 26.4006 12.4205 26.9812 12.8826C27.2584 13.1243 27.4773 13.4247 27.6219 13.7616C27.7664 14.0985 27.8329 14.4633 27.8164 14.8291H21.8847Z" fill="#00337B"/>
<path d="M42.0591 9.13676C42.9034 8.64608 43.8664 8.39298 44.8448 8.40469V13.4384H43.5349C42.5829 13.3641 41.6356 13.6298 40.8637 14.1875C40.2688 14.6983 39.9713 15.5931 39.9713 16.8718V24.0791H35.218V8.56926H39.9713V11.1571C40.4993 10.3316 41.2142 9.63985 42.0591 9.13676Z" fill="#00337B"/>
<path d="M71.54 10.1522C72.684 11.3213 73.256 12.9443 73.256 15.0271V24.1071H68.5256V15.6627C68.5784 14.8154 68.2928 13.9815 67.7305 13.3416C67.1279 12.8118 66.3506 12.5193 65.5455 12.5193C64.7403 12.5193 63.963 12.8118 63.3604 13.3416C62.796 13.9803 62.51 14.815 62.5654 15.6627V24.0958H57.8406V15.6627C57.8934 14.8154 57.6078 13.9815 57.0456 13.3416C56.4429 12.8118 55.6657 12.5193 54.8605 12.5193C54.0554 12.5193 53.2781 12.8118 52.6755 13.3416C52.111 13.9803 51.8251 14.815 51.8804 15.6627V24.0958H47.1271V8.56889H51.8804V10.5154C52.3755 9.85789 53.0229 9.32841 53.768 8.97181C54.5928 8.58234 55.4974 8.38808 56.4106 8.40431C57.5027 8.38531 58.5816 8.64314 59.5452 9.15341C60.4548 9.64628 61.2016 10.3892 61.6959 11.2929C62.2494 10.4321 63.005 9.71744 63.8981 9.21016C64.8166 8.67453 65.8643 8.39603 66.9297 8.40431C67.7785 8.36148 68.6269 8.49481 69.4207 8.79578C70.2146 9.09675 70.9364 9.55874 71.54 10.1522Z" fill="#00337B"/>
<path d="M88.3511 17.0255C88.929 17.7593 89.2286 18.6712 89.1977 19.6019C89.2082 20.4735 88.9398 21.3259 88.4312 22.0365C87.8763 22.7989 87.1146 23.3893 86.2347 23.739C85.1789 24.1667 84.0459 24.3753 82.9057 24.3519C81.665 24.3759 80.4332 24.1399 79.2906 23.6596C78.3038 23.2489 77.4407 22.5921 76.7853 21.7528C76.1811 20.9684 75.823 20.025 75.7557 19.0401H80.4575C80.4817 19.2987 80.5616 19.5491 80.6918 19.7743C80.8221 19.9995 80.9997 20.1943 81.2126 20.3454C81.6871 20.6917 82.2654 20.8696 82.8542 20.8505C83.3378 20.8803 83.8185 20.7571 84.227 20.4986C84.3785 20.4014 84.5026 20.2676 84.5877 20.1098C84.6727 19.9519 84.7159 19.7752 84.7132 19.5963C84.7154 19.3808 84.6499 19.17 84.5259 18.993C84.4019 18.8161 84.2254 18.6818 84.0211 18.6088C83.3027 18.297 82.5582 18.0482 81.796 17.8654C80.8409 17.652 79.9023 17.3713 78.9875 17.0255C78.2422 16.7378 77.5815 16.2696 77.0656 15.6635C76.4965 14.949 76.2097 14.0531 76.259 13.1438C76.2518 12.277 76.509 11.4283 76.9969 10.7092C77.5373 9.93523 78.2895 9.33073 79.1648 8.96694C80.2502 8.51538 81.4203 8.29869 82.5968 8.33133C84.5416 8.33133 86.0803 8.81371 87.1728 9.77847C88.3047 10.7552 89.0017 12.1362 89.1119 13.6205H84.7132C84.6867 13.3715 84.6103 13.1302 84.4885 12.911C84.3667 12.6917 84.2019 12.4988 84.0039 12.3436C83.5533 12.0086 82.9991 11.84 82.4366 11.8669C81.9858 11.8378 81.5373 11.951 81.1554 12.1904C81.0144 12.2859 80.8998 12.4148 80.8219 12.5654C80.7439 12.7161 80.7052 12.8837 80.7092 13.053C80.7089 13.2724 80.7769 13.4867 80.9038 13.6664C81.0307 13.8462 81.2105 13.9827 81.4185 14.0574C82.1295 14.3667 82.8715 14.6007 83.6321 14.7555C84.5847 14.9945 85.5224 15.2882 86.4406 15.6351C87.1834 15.935 87.8398 16.4126 88.3511 17.0255Z" fill="#00337B"/>
<path d="M120.749 9.29023C119.516 8.64587 118.139 8.32178 116.745 8.34817C115.33 8.32509 113.933 8.65901 112.684 9.3186C111.506 9.95874 110.544 10.9275 109.916 12.105C109.233 13.4094 108.892 14.8635 108.926 16.3329C108.89 17.804 109.235 19.2596 109.927 20.5608C110.557 21.7332 111.514 22.7007 112.684 23.3473C113.932 24.0097 115.33 24.3438 116.745 24.3177C117.926 24.3382 119.098 24.1019 120.177 23.6254C121.149 23.1934 122.009 22.548 122.693 21.738C123.377 20.9279 123.866 19.9743 124.124 18.9491H119.056C118.849 19.4217 118.499 19.8185 118.054 20.084C117.609 20.3495 117.091 20.4706 116.574 20.4303C115.827 20.4454 115.105 20.1704 114.56 19.6642C113.976 19.0716 113.642 18.2797 113.628 17.4509H124.399C124.45 16.9892 124.476 16.5251 124.479 16.0605C124.513 14.6345 124.172 13.2242 123.489 11.9688C122.854 10.8338 121.902 9.90396 120.749 9.29023ZM113.656 14.8291C113.737 14.0694 114.098 13.3661 114.669 12.8541C115.235 12.3879 115.953 12.1419 116.688 12.1618C117.45 12.1361 118.194 12.3931 118.776 12.8825C119.052 13.125 119.27 13.4256 119.415 13.7623C119.559 14.099 119.626 14.4634 119.611 14.8291H113.656Z" fill="#00337B"/>
<path d="M142.428 15.0278V24.1079H137.698V15.6634C137.754 14.7844 137.465 13.9179 136.891 13.2459C136.306 12.6925 135.529 12.3838 134.72 12.3838C133.912 12.3838 133.135 12.6925 132.55 13.2459C131.976 13.9179 131.687 14.7844 131.743 15.6634V24.0965H126.984V8.56964H131.743V10.6297C132.238 9.92888 132.908 9.36765 133.688 9.00095C134.551 8.60373 135.494 8.40952 136.445 8.43344C137.256 8.39693 138.065 8.53587 138.817 8.84063C139.569 9.14539 140.245 9.60868 140.798 10.1984C141.885 11.3447 142.428 12.9546 142.428 15.0278Z" fill="#00337B"/>
<path d="M104.396 4.44936C103.854 4.4285 103.313 4.51402 102.805 4.70101C102.296 4.88799 101.83 5.17276 101.433 5.53897C101.061 5.88506 100.767 6.30502 100.57 6.77145C100.373 7.23789 100.277 7.74031 100.289 8.24596C100.286 8.29699 100.286 8.34815 100.289 8.39918C99.9428 8.36473 99.5954 8.34768 99.2477 8.34811C97.815 8.32694 96.3995 8.66048 95.1293 9.31854C93.9159 9.95899 92.9119 10.9296 92.235 12.1163C91.512 13.404 91.1468 14.8592 91.1768 16.3329C91.1416 17.8093 91.5028 19.2685 92.2236 20.5608C92.8886 21.7419 93.8812 22.709 95.0836 23.3472C96.3471 24.0064 97.7574 24.3401 99.1848 24.3176C100.623 24.3374 102.044 24.004 103.32 23.3472C104.54 22.7077 105.552 21.7374 106.238 20.5494C106.971 19.2653 107.343 17.8087 107.313 16.3329C107.343 14.8592 106.978 13.404 106.255 12.1163C106.169 11.9745 106.083 11.8326 105.997 11.702C106.492 11.5264 106.944 11.2499 107.324 10.8905C107.695 10.5567 107.989 10.1478 108.186 9.69155C108.383 9.2353 108.48 8.74232 108.468 8.24596C108.482 7.74012 108.386 7.23726 108.189 6.77061C107.992 6.30396 107.697 5.88416 107.324 5.53897C106.933 5.17431 106.473 4.89025 105.97 4.70322C105.467 4.51619 104.932 4.42991 104.396 4.44936ZM101.536 19.2044C101.243 19.5261 100.884 19.7821 100.484 19.9553C100.083 20.1285 99.6502 20.215 99.2134 20.2089C98.7807 20.2211 98.3507 20.1373 97.9548 19.9635C97.559 19.7897 97.2073 19.5304 96.9254 19.2044C96.2783 18.4031 95.9542 17.3919 96.0159 16.3669C95.9432 15.3266 96.2725 14.2978 96.9368 13.4897C97.2309 13.1805 97.5855 12.9342 97.979 12.7659C98.3724 12.5975 98.7964 12.5107 99.2248 12.5107C99.6533 12.5107 100.077 12.5975 100.471 12.7659C100.864 12.9342 101.219 13.1805 101.513 13.4897C102.182 14.2915 102.515 15.3171 102.445 16.3556C102.518 17.3884 102.181 18.4085 101.507 19.1988L101.536 19.2044Z" fill="#00337B"/>
<path d="M0.572021 4.5625H15.6843V8.37612H10.5019V24.096H5.74862V8.37612H0.572021V4.5625Z" fill="#00337B"/>
</svg>
