<svg width="144" height="754" viewBox="0 0 144 754" fill="none" xmlns="http://www.w3.org/2000/svg">
<circle cx="71.875" cy="22" r="19.5" stroke="#F9F6EE"/>
<path d="M75.8828 31H71.1836V22.5273C71.1836 22.3711 71.1836 22.0859 71.1836 21.6719C71.1836 21.25 71.1875 20.7852 71.1953 20.2773C71.2109 19.7695 71.2305 19.3125 71.2539 18.9062C71.0508 19.1484 70.8594 19.3555 70.6797 19.5273C70.5078 19.6992 70.3398 19.8594 70.1758 20.0078L68.2305 21.6133L65.8281 18.6602L71.7109 13.8672H75.8828V31Z" fill="#F9F6EE"/>
<path d="M39.5156 57.5781H42.9141C44.388 57.5781 45.5 57.7917 46.25 58.2188C47 58.6458 47.375 59.3828 47.375 60.4297C47.375 60.8672 47.2969 61.263 47.1406 61.6172C46.9896 61.9661 46.7682 62.2552 46.4766 62.4844C46.1849 62.7083 45.8255 62.8594 45.3984 62.9375V63.0156C45.8411 63.0938 46.2344 63.2318 46.5781 63.4297C46.9271 63.6276 47.2005 63.9115 47.3984 64.2812C47.6016 64.651 47.7031 65.1302 47.7031 65.7188C47.7031 66.4167 47.5365 67.0104 47.2031 67.5C46.875 67.9896 46.4036 68.362 45.7891 68.6172C45.1797 68.8724 44.4557 69 43.6172 69H39.5156V57.5781ZM41.3906 62.2891H43.1875C44.0365 62.2891 44.625 62.151 44.9531 61.875C45.2812 61.599 45.4453 61.1953 45.4453 60.6641C45.4453 60.1224 45.25 59.7318 44.8594 59.4922C44.474 59.2526 43.8594 59.1328 43.0156 59.1328H41.3906V62.2891ZM41.3906 63.8047V67.4297H43.3672C44.2422 67.4297 44.8568 67.2604 45.2109 66.9219C45.5651 66.5833 45.7422 66.125 45.7422 65.5469C45.7422 65.1927 45.6615 64.8854 45.5 64.625C45.3438 64.3646 45.0859 64.1641 44.7266 64.0234C44.3672 63.8776 43.8828 63.8047 43.2734 63.8047H41.3906ZM57.4141 60.3516V69H55.9688L55.7188 67.8359H55.6172C55.4349 68.1328 55.2031 68.3802 54.9219 68.5781C54.6406 68.7708 54.3281 68.9141 53.9844 69.0078C53.6406 69.1068 53.2786 69.1562 52.8984 69.1562C52.2474 69.1562 51.6901 69.0469 51.2266 68.8281C50.7682 68.6042 50.4167 68.2604 50.1719 67.7969C49.9271 67.3333 49.8047 66.7344 49.8047 66V60.3516H51.6484V65.6562C51.6484 66.3281 51.7839 66.8307 52.0547 67.1641C52.3307 67.4974 52.7578 67.6641 53.3359 67.6641C53.8932 67.6641 54.3359 67.5495 54.6641 67.3203C54.9922 67.0911 55.224 66.7526 55.3594 66.3047C55.5 65.8568 55.5703 65.3073 55.5703 64.6562V60.3516H57.4141ZM65.8594 66.5312C65.8594 67.099 65.7214 67.5781 65.4453 67.9688C65.1693 68.3594 64.7656 68.6562 64.2344 68.8594C63.7083 69.0573 63.0625 69.1562 62.2969 69.1562C61.6927 69.1562 61.1719 69.112 60.7344 69.0234C60.3021 68.9401 59.8932 68.8099 59.5078 68.6328V67.0469C59.9193 67.2396 60.3802 67.4062 60.8906 67.5469C61.4062 67.6875 61.8932 67.7578 62.3516 67.7578C62.9557 67.7578 63.3906 67.6641 63.6562 67.4766C63.9219 67.2839 64.0547 67.0286 64.0547 66.7109C64.0547 66.5234 64 66.3568 63.8906 66.2109C63.7865 66.0599 63.5885 65.9062 63.2969 65.75C63.0104 65.5885 62.5885 65.3958 62.0312 65.1719C61.4844 64.9531 61.0234 64.7344 60.6484 64.5156C60.2734 64.2969 59.9896 64.0339 59.7969 63.7266C59.6042 63.4141 59.5078 63.0156 59.5078 62.5312C59.5078 61.7656 59.8099 61.1849 60.4141 60.7891C61.0234 60.388 61.8281 60.1875 62.8281 60.1875C63.3594 60.1875 63.8594 60.2422 64.3281 60.3516C64.8021 60.4557 65.2656 60.6094 65.7188 60.8125L65.1406 62.1953C64.75 62.0234 64.3568 61.8828 63.9609 61.7734C63.5703 61.6589 63.1719 61.6016 62.7656 61.6016C62.2917 61.6016 61.9297 61.6745 61.6797 61.8203C61.4349 61.9661 61.3125 62.1745 61.3125 62.4453C61.3125 62.6484 61.3724 62.8203 61.4922 62.9609C61.612 63.1016 61.8177 63.2422 62.1094 63.3828C62.4062 63.5234 62.8177 63.6979 63.3438 63.9062C63.8594 64.1042 64.3047 64.3125 64.6797 64.5312C65.0599 64.7448 65.3516 65.0078 65.5547 65.3203C65.7578 65.6328 65.8594 66.0365 65.8594 66.5312ZM69.6797 60.3516V69H67.8438V60.3516H69.6797ZM68.7734 57.0391C69.0547 57.0391 69.2969 57.1146 69.5 57.2656C69.7083 57.4167 69.8125 57.6771 69.8125 58.0469C69.8125 58.4115 69.7083 58.6719 69.5 58.8281C69.2969 58.9792 69.0547 59.0547 68.7734 59.0547C68.4818 59.0547 68.2344 58.9792 68.0312 58.8281C67.8333 58.6719 67.7344 58.4115 67.7344 58.0469C67.7344 57.6771 67.8333 57.4167 68.0312 57.2656C68.2344 57.1146 68.4818 57.0391 68.7734 57.0391ZM76.8203 60.1875C77.7943 60.1875 78.5521 60.4401 79.0938 60.9453C79.6406 61.4453 79.9141 62.25 79.9141 63.3594V69H78.0781V63.7031C78.0781 63.0312 77.9401 62.5286 77.6641 62.1953C77.388 61.8568 76.9609 61.6875 76.3828 61.6875C75.5443 61.6875 74.9609 61.9453 74.6328 62.4609C74.3099 62.9766 74.1484 63.724 74.1484 64.7031V69H72.3125V60.3516H73.7422L74 61.5234H74.1016C74.2891 61.2214 74.5208 60.974 74.7969 60.7812C75.0781 60.5833 75.3906 60.4349 75.7344 60.3359C76.0833 60.237 76.4453 60.1875 76.8203 60.1875ZM85.9297 60.1875C86.7005 60.1875 87.362 60.3464 87.9141 60.6641C88.4661 60.9818 88.8906 61.4323 89.1875 62.0156C89.4844 62.599 89.6328 63.2969 89.6328 64.1094V65.0938H83.8594C83.8802 65.9323 84.1042 66.5781 84.5312 67.0312C84.9635 67.4844 85.5677 67.7109 86.3438 67.7109C86.8958 67.7109 87.3906 67.6589 87.8281 67.5547C88.2708 67.4453 88.7266 67.2865 89.1953 67.0781V68.5703C88.763 68.7734 88.3229 68.9219 87.875 69.0156C87.4271 69.1094 86.8906 69.1562 86.2656 69.1562C85.4167 69.1562 84.6693 68.9922 84.0234 68.6641C83.3828 68.3307 82.8802 67.8359 82.5156 67.1797C82.1562 66.5234 81.9766 65.7083 81.9766 64.7344C81.9766 63.7656 82.1406 62.9427 82.4688 62.2656C82.7969 61.5885 83.2578 61.0729 83.8516 60.7188C84.4453 60.3646 85.138 60.1875 85.9297 60.1875ZM85.9297 61.5703C85.3516 61.5703 84.8828 61.7578 84.5234 62.1328C84.1693 62.5078 83.9609 63.0573 83.8984 63.7812H87.8359C87.8307 63.349 87.7578 62.9661 87.6172 62.6328C87.4818 62.2995 87.2734 62.0391 86.9922 61.8516C86.7161 61.6641 86.362 61.5703 85.9297 61.5703ZM97.5156 66.5312C97.5156 67.099 97.3776 67.5781 97.1016 67.9688C96.8255 68.3594 96.4219 68.6562 95.8906 68.8594C95.3646 69.0573 94.7188 69.1562 93.9531 69.1562C93.349 69.1562 92.8281 69.112 92.3906 69.0234C91.9583 68.9401 91.5495 68.8099 91.1641 68.6328V67.0469C91.5755 67.2396 92.0365 67.4062 92.5469 67.5469C93.0625 67.6875 93.5495 67.7578 94.0078 67.7578C94.612 67.7578 95.0469 67.6641 95.3125 67.4766C95.5781 67.2839 95.7109 67.0286 95.7109 66.7109C95.7109 66.5234 95.6562 66.3568 95.5469 66.2109C95.4427 66.0599 95.2448 65.9062 94.9531 65.75C94.6667 65.5885 94.2448 65.3958 93.6875 65.1719C93.1406 64.9531 92.6797 64.7344 92.3047 64.5156C91.9297 64.2969 91.6458 64.0339 91.4531 63.7266C91.2604 63.4141 91.1641 63.0156 91.1641 62.5312C91.1641 61.7656 91.4661 61.1849 92.0703 60.7891C92.6797 60.388 93.4844 60.1875 94.4844 60.1875C95.0156 60.1875 95.5156 60.2422 95.9844 60.3516C96.4583 60.4557 96.9219 60.6094 97.375 60.8125L96.7969 62.1953C96.4062 62.0234 96.013 61.8828 95.6172 61.7734C95.2266 61.6589 94.8281 61.6016 94.4219 61.6016C93.9479 61.6016 93.5859 61.6745 93.3359 61.8203C93.0911 61.9661 92.9688 62.1745 92.9688 62.4453C92.9688 62.6484 93.0286 62.8203 93.1484 62.9609C93.2682 63.1016 93.474 63.2422 93.7656 63.3828C94.0625 63.5234 94.474 63.6979 95 63.9062C95.5156 64.1042 95.9609 64.3125 96.3359 64.5312C96.7161 64.7448 97.0078 65.0078 97.2109 65.3203C97.4141 65.6328 97.5156 66.0365 97.5156 66.5312ZM105.312 66.5312C105.312 67.099 105.174 67.5781 104.898 67.9688C104.622 68.3594 104.219 68.6562 103.688 68.8594C103.161 69.0573 102.516 69.1562 101.75 69.1562C101.146 69.1562 100.625 69.112 100.188 69.0234C99.7552 68.9401 99.3464 68.8099 98.9609 68.6328V67.0469C99.3724 67.2396 99.8333 67.4062 100.344 67.5469C100.859 67.6875 101.346 67.7578 101.805 67.7578C102.409 67.7578 102.844 67.6641 103.109 67.4766C103.375 67.2839 103.508 67.0286 103.508 66.7109C103.508 66.5234 103.453 66.3568 103.344 66.2109C103.24 66.0599 103.042 65.9062 102.75 65.75C102.464 65.5885 102.042 65.3958 101.484 65.1719C100.938 64.9531 100.477 64.7344 100.102 64.5156C99.7266 64.2969 99.4427 64.0339 99.25 63.7266C99.0573 63.4141 98.9609 63.0156 98.9609 62.5312C98.9609 61.7656 99.263 61.1849 99.8672 60.7891C100.477 60.388 101.281 60.1875 102.281 60.1875C102.812 60.1875 103.312 60.2422 103.781 60.3516C104.255 60.4557 104.719 60.6094 105.172 60.8125L104.594 62.1953C104.203 62.0234 103.81 61.8828 103.414 61.7734C103.023 61.6589 102.625 61.6016 102.219 61.6016C101.745 61.6016 101.383 61.6745 101.133 61.8203C100.888 61.9661 100.766 62.1745 100.766 62.4453C100.766 62.6484 100.826 62.8203 100.945 62.9609C101.065 63.1016 101.271 63.2422 101.562 63.3828C101.859 63.5234 102.271 63.6979 102.797 63.9062C103.312 64.1042 103.758 64.3125 104.133 64.5312C104.513 64.7448 104.805 65.0078 105.008 65.3203C105.211 65.6328 105.312 66.0365 105.312 66.5312ZM27.0938 91V79.5781H28.9688V91H27.0938ZM36.3047 82.1875C37.2786 82.1875 38.0365 82.4401 38.5781 82.9453C39.125 83.4453 39.3984 84.25 39.3984 85.3594V91H37.5625V85.7031C37.5625 85.0312 37.4245 84.5286 37.1484 84.1953C36.8724 83.8568 36.4453 83.6875 35.8672 83.6875C35.0286 83.6875 34.4453 83.9453 34.1172 84.4609C33.7943 84.9766 33.6328 85.724 33.6328 86.7031V91H31.7969V82.3516H33.2266L33.4844 83.5234H33.5859C33.7734 83.2214 34.0052 82.974 34.2812 82.7812C34.5625 82.5833 34.875 82.4349 35.2188 82.3359C35.5677 82.237 35.9297 82.1875 36.3047 82.1875ZM46.2891 83.75H44.1875V91H42.3516V83.75H40.9375V82.8672L42.3516 82.3281V81.7266C42.3516 80.9922 42.4661 80.4089 42.6953 79.9766C42.9297 79.5443 43.263 79.2344 43.6953 79.0469C44.1328 78.8542 44.6536 78.7578 45.2578 78.7578C45.6536 78.7578 46.0156 78.7917 46.3438 78.8594C46.6719 78.9219 46.9479 78.9948 47.1719 79.0781L46.6953 80.4688C46.5182 80.4115 46.3203 80.3594 46.1016 80.3125C45.8828 80.2604 45.6484 80.2344 45.3984 80.2344C44.9818 80.2344 44.6745 80.3646 44.4766 80.625C44.2839 80.8854 44.1875 81.2656 44.1875 81.7656V82.3516H46.2891V83.75ZM55.4219 86.6562C55.4219 87.375 55.3281 88.013 55.1406 88.5703C54.9531 89.1276 54.6797 89.599 54.3203 89.9844C53.9609 90.3646 53.5286 90.6562 53.0234 90.8594C52.5182 91.0573 51.9479 91.1562 51.3125 91.1562C50.7188 91.1562 50.1745 91.0573 49.6797 90.8594C49.1849 90.6562 48.7552 90.3646 48.3906 89.9844C48.0312 89.599 47.7526 89.1276 47.5547 88.5703C47.3568 88.013 47.2578 87.375 47.2578 86.6562C47.2578 85.7031 47.4219 84.8958 47.75 84.2344C48.0833 83.5677 48.5573 83.0599 49.1719 82.7109C49.7865 82.362 50.5182 82.1875 51.3672 82.1875C52.1641 82.1875 52.8672 82.362 53.4766 82.7109C54.0859 83.0599 54.5625 83.5677 54.9062 84.2344C55.25 84.901 55.4219 85.7083 55.4219 86.6562ZM49.1484 86.6562C49.1484 87.2865 49.224 87.8255 49.375 88.2734C49.5312 88.7214 49.7708 89.0651 50.0938 89.3047C50.4167 89.5391 50.8333 89.6562 51.3438 89.6562C51.8542 89.6562 52.2708 89.5391 52.5938 89.3047C52.9167 89.0651 53.1536 88.7214 53.3047 88.2734C53.4557 87.8255 53.5312 87.2865 53.5312 86.6562C53.5312 86.026 53.4557 85.4922 53.3047 85.0547C53.1536 84.612 52.9167 84.276 52.5938 84.0469C52.2708 83.8125 51.8516 83.6953 51.3359 83.6953C50.5755 83.6953 50.0208 83.9505 49.6719 84.4609C49.3229 84.9714 49.1484 85.7031 49.1484 86.6562ZM61.9141 82.1875C62.0599 82.1875 62.2188 82.1953 62.3906 82.2109C62.5625 82.2266 62.7109 82.2474 62.8359 82.2734L62.6641 83.9922C62.5547 83.9609 62.4193 83.9375 62.2578 83.9219C62.1016 83.9062 61.9609 83.8984 61.8359 83.8984C61.5078 83.8984 61.1953 83.9531 60.8984 84.0625C60.6016 84.1667 60.3385 84.3281 60.1094 84.5469C59.8802 84.7604 59.7005 85.0286 59.5703 85.3516C59.4401 85.6745 59.375 86.0495 59.375 86.4766V91H57.5312V82.3516H58.9688L59.2188 83.875H59.3047C59.4766 83.5677 59.6901 83.2865 59.9453 83.0312C60.2005 82.776 60.4922 82.5729 60.8203 82.4219C61.1536 82.2656 61.5182 82.1875 61.9141 82.1875ZM74.2109 82.1875C75.1797 82.1875 75.9089 82.4375 76.3984 82.9375C76.8932 83.4375 77.1406 84.2396 77.1406 85.3438V91H75.3047V85.6719C75.3047 85.0156 75.1771 84.5208 74.9219 84.1875C74.6667 83.8542 74.2786 83.6875 73.7578 83.6875C73.0286 83.6875 72.5026 83.9219 72.1797 84.3906C71.862 84.8542 71.7031 85.5286 71.7031 86.4141V91H69.8672V85.6719C69.8672 85.2344 69.8099 84.8698 69.6953 84.5781C69.5859 84.2812 69.4167 84.0599 69.1875 83.9141C68.9583 83.763 68.6693 83.6875 68.3203 83.6875C67.8151 83.6875 67.4115 83.8021 67.1094 84.0312C66.8125 84.2604 66.599 84.599 66.4688 85.0469C66.3385 85.4896 66.2734 86.0339 66.2734 86.6797V91H64.4375V82.3516H65.8672L66.125 83.5156H66.2266C66.4036 83.2135 66.6224 82.9661 66.8828 82.7734C67.1484 82.5755 67.4427 82.4297 67.7656 82.3359C68.0885 82.237 68.4245 82.1875 68.7734 82.1875C69.4193 82.1875 69.9635 82.3021 70.4062 82.5312C70.849 82.7552 71.1797 83.099 71.3984 83.5625H71.5391C71.8099 83.0938 72.1875 82.7474 72.6719 82.5234C73.1562 82.2995 73.6693 82.1875 74.2109 82.1875ZM83.0938 82.1875C84.1875 82.1875 85.013 82.4297 85.5703 82.9141C86.1328 83.3984 86.4141 84.1536 86.4141 85.1797V91H85.1094L84.7578 89.7734H84.6953C84.4505 90.0859 84.1979 90.3438 83.9375 90.5469C83.6771 90.75 83.375 90.901 83.0312 91C82.6927 91.1042 82.2786 91.1562 81.7891 91.1562C81.2734 91.1562 80.8125 91.0625 80.4062 90.875C80 90.6823 79.6797 90.3906 79.4453 90C79.2109 89.6094 79.0938 89.1146 79.0938 88.5156C79.0938 87.625 79.4245 86.9557 80.0859 86.5078C80.7526 86.0599 81.7578 85.8125 83.1016 85.7656L84.6016 85.7109V85.2578C84.6016 84.6589 84.4609 84.2318 84.1797 83.9766C83.9036 83.7214 83.513 83.5938 83.0078 83.5938C82.5755 83.5938 82.1562 83.6562 81.75 83.7812C81.3438 83.9062 80.9479 84.0599 80.5625 84.2422L79.9688 82.9453C80.3906 82.7214 80.8698 82.5391 81.4062 82.3984C81.9479 82.2578 82.5104 82.1875 83.0938 82.1875ZM84.5938 86.8672L83.4766 86.9062C82.5599 86.9375 81.9167 87.0938 81.5469 87.375C81.1771 87.6562 80.9922 88.0417 80.9922 88.5312C80.9922 88.9583 81.1198 89.2708 81.375 89.4688C81.6302 89.6615 81.9661 89.7578 82.3828 89.7578C83.0182 89.7578 83.5443 89.5781 83.9609 89.2188C84.3828 88.8542 84.5938 88.3203 84.5938 87.6172V86.8672ZM92.2031 89.6719C92.4427 89.6719 92.6797 89.651 92.9141 89.6094C93.1484 89.5625 93.362 89.5078 93.5547 89.4453V90.8359C93.3516 90.9245 93.0885 91 92.7656 91.0625C92.4427 91.125 92.1068 91.1562 91.7578 91.1562C91.2682 91.1562 90.8281 91.0755 90.4375 90.9141C90.0469 90.7474 89.737 90.4635 89.5078 90.0625C89.2786 89.6615 89.1641 89.1068 89.1641 88.3984V83.75H87.9844V82.9297L89.25 82.2812L89.8516 80.4297H91.0078V82.3516H93.4844V83.75H91.0078V88.375C91.0078 88.8125 91.1172 89.138 91.3359 89.3516C91.5547 89.5651 91.8438 89.6719 92.2031 89.6719ZM97.1484 82.3516V91H95.3125V82.3516H97.1484ZM96.2422 79.0391C96.5234 79.0391 96.7656 79.1146 96.9688 79.2656C97.1771 79.4167 97.2812 79.6771 97.2812 80.0469C97.2812 80.4115 97.1771 80.6719 96.9688 80.8281C96.7656 80.9792 96.5234 81.0547 96.2422 81.0547C95.9505 81.0547 95.7031 80.9792 95.5 80.8281C95.3021 80.6719 95.2031 80.4115 95.2031 80.0469C95.2031 79.6771 95.3021 79.4167 95.5 79.2656C95.7031 79.1146 95.9505 79.0391 96.2422 79.0391ZM107.438 86.6562C107.438 87.375 107.344 88.013 107.156 88.5703C106.969 89.1276 106.695 89.599 106.336 89.9844C105.977 90.3646 105.544 90.6562 105.039 90.8594C104.534 91.0573 103.964 91.1562 103.328 91.1562C102.734 91.1562 102.19 91.0573 101.695 90.8594C101.201 90.6562 100.771 90.3646 100.406 89.9844C100.047 89.599 99.7682 89.1276 99.5703 88.5703C99.3724 88.013 99.2734 87.375 99.2734 86.6562C99.2734 85.7031 99.4375 84.8958 99.7656 84.2344C100.099 83.5677 100.573 83.0599 101.188 82.7109C101.802 82.362 102.534 82.1875 103.383 82.1875C104.18 82.1875 104.883 82.362 105.492 82.7109C106.102 83.0599 106.578 83.5677 106.922 84.2344C107.266 84.901 107.438 85.7083 107.438 86.6562ZM101.164 86.6562C101.164 87.2865 101.24 87.8255 101.391 88.2734C101.547 88.7214 101.786 89.0651 102.109 89.3047C102.432 89.5391 102.849 89.6562 103.359 89.6562C103.87 89.6562 104.286 89.5391 104.609 89.3047C104.932 89.0651 105.169 88.7214 105.32 88.2734C105.471 87.8255 105.547 87.2865 105.547 86.6562C105.547 86.026 105.471 85.4922 105.32 85.0547C105.169 84.612 104.932 84.276 104.609 84.0469C104.286 83.8125 103.867 83.6953 103.352 83.6953C102.591 83.6953 102.036 83.9505 101.688 84.4609C101.339 84.9714 101.164 85.7031 101.164 86.6562ZM114.055 82.1875C115.029 82.1875 115.786 82.4401 116.328 82.9453C116.875 83.4453 117.148 84.25 117.148 85.3594V91H115.312V85.7031C115.312 85.0312 115.174 84.5286 114.898 84.1953C114.622 83.8568 114.195 83.6875 113.617 83.6875C112.779 83.6875 112.195 83.9453 111.867 84.4609C111.544 84.9766 111.383 85.724 111.383 86.7031V91H109.547V82.3516H110.977L111.234 83.5234H111.336C111.523 83.2214 111.755 82.974 112.031 82.7812C112.312 82.5833 112.625 82.4349 112.969 82.3359C113.318 82.237 113.68 82.1875 114.055 82.1875Z" fill="#F9F6EE"/>
<line x1="73.5" y1="104" x2="73.5" y2="154" stroke="#F9F6EE" stroke-width="3"/>
<circle cx="71.875" cy="184" r="19.5" fill="#F9F6EE" stroke="#F9F6EE"/>
<path d="M77.9922 193H65.5586V189.953L69.7422 185.723C70.6094 184.816 71.2812 184.09 71.7578 183.543C72.2422 182.996 72.582 182.531 72.7773 182.148C72.9727 181.766 73.0703 181.367 73.0703 180.953C73.0703 180.445 72.9062 180.078 72.5781 179.852C72.25 179.625 71.8633 179.512 71.418 179.512C70.8789 179.512 70.332 179.668 69.7773 179.98C69.2305 180.285 68.6094 180.738 67.9141 181.34L65.3711 178.363C65.8867 177.902 66.4336 177.465 67.0117 177.051C67.5898 176.629 68.2734 176.285 69.0625 176.02C69.8516 175.754 70.8125 175.621 71.9453 175.621C73.1094 175.621 74.1172 175.824 74.9688 176.23C75.8281 176.637 76.4922 177.195 76.9609 177.906C77.4297 178.609 77.6641 179.41 77.6641 180.309C77.6641 181.301 77.4805 182.188 77.1133 182.969C76.7539 183.742 76.2109 184.52 75.4844 185.301C74.7578 186.074 73.8516 186.953 72.7656 187.938L71.5117 189.062V189.18H77.9922V193Z" fill="#0055CC"/>
<path d="M77.9922 193V194H78.9922V193H77.9922ZM65.5586 193H64.5586V194H65.5586V193ZM65.5586 189.953L64.8476 189.25L64.5586 189.542V189.953H65.5586ZM69.7422 185.723L70.4532 186.426L70.459 186.42L70.4647 186.414L69.7422 185.723ZM71.7578 183.543L71.0092 182.88L71.0039 182.886L71.7578 183.543ZM69.7773 179.98L70.2641 180.854L70.2682 180.852L69.7773 179.98ZM67.9141 181.34L67.1538 181.989L67.8074 182.754L68.5683 182.096L67.9141 181.34ZM65.3711 178.363L64.7046 177.618L63.9756 178.269L64.6108 179.013L65.3711 178.363ZM67.0117 177.051L67.594 177.864L67.6012 177.859L67.0117 177.051ZM74.9688 176.23L74.5382 177.133L74.5414 177.135L74.9688 176.23ZM76.9609 177.906L76.1261 178.457L76.1289 178.461L76.9609 177.906ZM77.1133 182.969L76.2082 182.543L76.2064 182.547L77.1133 182.969ZM75.4844 185.301L76.2132 185.985L76.2166 185.982L75.4844 185.301ZM72.7656 187.938L73.4334 188.682L73.4372 188.678L72.7656 187.938ZM71.5117 189.062L70.8439 188.318L70.5117 188.616V189.062H71.5117ZM71.5117 189.18H70.5117V190.18H71.5117V189.18ZM77.9922 189.18H78.9922V188.18H77.9922V189.18ZM77.9922 192H65.5586V194H77.9922V192ZM66.5586 193V189.953H64.5586V193H66.5586ZM66.2696 190.656L70.4532 186.426L69.0312 185.019L64.8476 189.25L66.2696 190.656ZM70.4647 186.414C71.3361 185.503 72.0202 184.764 72.5117 184.2L71.0039 182.886C70.5423 183.416 69.8826 184.129 69.0197 185.031L70.4647 186.414ZM72.5064 184.206C73.0136 183.633 73.4169 183.095 73.6681 182.603L71.8866 181.694C71.7472 181.967 71.4708 182.359 71.0092 182.88L72.5064 184.206ZM73.6681 182.603C73.9324 182.085 74.0703 181.531 74.0703 180.953H72.0703C72.0703 181.203 72.0129 181.446 71.8866 181.694L73.6681 182.603ZM74.0703 180.953C74.0703 180.217 73.8182 179.493 73.1463 179.029L72.0099 180.674C72.0218 180.683 72.0263 180.687 72.0343 180.705C72.046 180.731 72.0703 180.804 72.0703 180.953H74.0703ZM73.1463 179.029C72.6319 178.674 72.0416 178.512 71.418 178.512V180.512C71.685 180.512 71.8681 180.576 72.0099 180.674L73.1463 179.029ZM71.418 178.512C70.6782 178.512 69.9638 178.728 69.2865 179.109L70.2682 180.852C70.7003 180.608 71.0796 180.512 71.418 180.512V178.512ZM69.2906 179.107C68.6634 179.456 67.9851 179.956 67.2598 180.584L68.5683 182.096C69.2336 181.521 69.7976 181.114 70.264 180.854L69.2906 179.107ZM68.6744 180.69L66.1314 177.714L64.6108 179.013L67.1538 181.989L68.6744 180.69ZM66.0376 179.109C66.5256 178.673 67.0443 178.257 67.594 177.864L66.4294 176.238C65.8229 176.672 65.2478 177.132 64.7046 177.618L66.0376 179.109ZM67.6012 177.859C68.0846 177.506 68.6738 177.206 69.3815 176.967L68.7435 175.072C67.8731 175.365 67.095 175.752 66.4222 176.243L67.6012 177.859ZM69.3815 176.967C70.0382 176.746 70.8846 176.621 71.9453 176.621V174.621C70.7404 174.621 69.6649 174.762 68.7435 175.072L69.3815 176.967ZM71.9453 176.621C72.9944 176.621 73.8488 176.804 74.5382 177.133L75.3993 175.328C74.3856 174.844 73.2243 174.621 71.9453 174.621V176.621ZM74.5414 177.135C75.2549 177.472 75.7696 177.916 76.1261 178.457L77.7958 177.356C77.2148 176.475 76.4014 175.802 75.3961 175.326L74.5414 177.135ZM76.1289 178.461C76.4811 178.989 76.6641 179.594 76.6641 180.309H78.6641C78.6641 179.226 78.3783 178.23 77.793 177.352L76.1289 178.461ZM76.6641 180.309C76.6641 181.176 76.5042 181.914 76.2083 182.543L78.0183 183.394C78.4567 182.461 78.6641 181.426 78.6641 180.309H76.6641ZM76.2064 182.547C75.9007 183.205 75.4243 183.897 74.7521 184.62L76.2166 185.982C76.9975 185.142 77.6071 184.279 78.0202 183.39L76.2064 182.547ZM74.7555 184.616C74.0527 185.364 73.167 186.224 72.094 187.197L73.4372 188.678C74.5361 187.682 75.4629 186.784 76.2132 185.985L74.7555 184.616ZM72.0978 187.193L70.8439 188.318L72.1795 189.807L73.4334 188.682L72.0978 187.193ZM70.5117 189.062V189.18H72.5117V189.062H70.5117ZM71.5117 190.18H77.9922V188.18H71.5117V190.18ZM76.9922 189.18V193H78.9922V189.18H76.9922Z" fill="#F9F6EE"/>
<path d="M94 184C94 195.864 84.1609 205.5 72 205.5C59.8391 205.5 50 195.864 50 184C50 172.136 59.8391 162.5 72 162.5C84.1609 162.5 94 172.136 94 184Z" stroke="#F9F6EE"/>
<path d="M32.1484 219.578C33.1328 219.578 33.9453 219.698 34.5859 219.938C35.2318 220.177 35.7109 220.542 36.0234 221.031C36.3411 221.521 36.5 222.143 36.5 222.898C36.5 223.461 36.3958 223.94 36.1875 224.336C35.9792 224.732 35.7057 225.06 35.3672 225.32C35.0286 225.581 34.6667 225.789 34.2812 225.945L37.5234 231H35.4062L32.6484 226.422H30.8125V231H28.9375V219.578H32.1484ZM32.0234 221.141H30.8125V224.875H32.1094C32.9792 224.875 33.6094 224.714 34 224.391C34.3958 224.068 34.5938 223.591 34.5938 222.961C34.5938 222.299 34.3828 221.831 33.9609 221.555C33.5443 221.279 32.8984 221.141 32.0234 221.141ZM42.4141 222.188C43.1849 222.188 43.8464 222.346 44.3984 222.664C44.9505 222.982 45.375 223.432 45.6719 224.016C45.9688 224.599 46.1172 225.297 46.1172 226.109V227.094H40.3438C40.3646 227.932 40.5885 228.578 41.0156 229.031C41.4479 229.484 42.0521 229.711 42.8281 229.711C43.3802 229.711 43.875 229.659 44.3125 229.555C44.7552 229.445 45.2109 229.286 45.6797 229.078V230.57C45.2474 230.773 44.8073 230.922 44.3594 231.016C43.9115 231.109 43.375 231.156 42.75 231.156C41.901 231.156 41.1536 230.992 40.5078 230.664C39.8672 230.331 39.3646 229.836 39 229.18C38.6406 228.523 38.4609 227.708 38.4609 226.734C38.4609 225.766 38.625 224.943 38.9531 224.266C39.2812 223.589 39.7422 223.073 40.3359 222.719C40.9297 222.365 41.6224 222.188 42.4141 222.188ZM42.4141 223.57C41.8359 223.57 41.3672 223.758 41.0078 224.133C40.6536 224.508 40.4453 225.057 40.3828 225.781H44.3203C44.3151 225.349 44.2422 224.966 44.1016 224.633C43.9661 224.299 43.7578 224.039 43.4766 223.852C43.2005 223.664 42.8464 223.57 42.4141 223.57ZM52.5078 223.75H50.4062V231H48.5703V223.75H47.1562V222.867L48.5703 222.328V221.727C48.5703 220.992 48.6849 220.409 48.9141 219.977C49.1484 219.544 49.4818 219.234 49.9141 219.047C50.3516 218.854 50.8724 218.758 51.4766 218.758C51.8724 218.758 52.2344 218.792 52.5625 218.859C52.8906 218.922 53.1667 218.995 53.3906 219.078L52.9141 220.469C52.737 220.411 52.5391 220.359 52.3203 220.312C52.1016 220.26 51.8672 220.234 51.6172 220.234C51.2005 220.234 50.8932 220.365 50.6953 220.625C50.5026 220.885 50.4062 221.266 50.4062 221.766V222.352H52.5078V223.75ZM61.5234 222.352V231H60.0781L59.8281 229.836H59.7266C59.5443 230.133 59.3125 230.38 59.0312 230.578C58.75 230.771 58.4375 230.914 58.0938 231.008C57.75 231.107 57.388 231.156 57.0078 231.156C56.3568 231.156 55.7995 231.047 55.3359 230.828C54.8776 230.604 54.526 230.26 54.2812 229.797C54.0365 229.333 53.9141 228.734 53.9141 228V222.352H55.7578V227.656C55.7578 228.328 55.8932 228.831 56.1641 229.164C56.4401 229.497 56.8672 229.664 57.4453 229.664C58.0026 229.664 58.4453 229.549 58.7734 229.32C59.1016 229.091 59.3333 228.753 59.4688 228.305C59.6094 227.857 59.6797 227.307 59.6797 226.656V222.352H61.5234ZM68.6641 222.188C69.638 222.188 70.3958 222.44 70.9375 222.945C71.4844 223.445 71.7578 224.25 71.7578 225.359V231H69.9219V225.703C69.9219 225.031 69.7839 224.529 69.5078 224.195C69.2318 223.857 68.8047 223.688 68.2266 223.688C67.388 223.688 66.8047 223.945 66.4766 224.461C66.1536 224.977 65.9922 225.724 65.9922 226.703V231H64.1562V222.352H65.5859L65.8438 223.523H65.9453C66.1328 223.221 66.3646 222.974 66.6406 222.781C66.9219 222.583 67.2344 222.435 67.5781 222.336C67.9271 222.237 68.2891 222.188 68.6641 222.188ZM77.2344 231.156C76.2031 231.156 75.375 230.781 74.75 230.031C74.1302 229.276 73.8203 228.164 73.8203 226.695C73.8203 225.211 74.1354 224.089 74.7656 223.328C75.401 222.568 76.237 222.188 77.2734 222.188C77.7109 222.188 78.0938 222.247 78.4219 222.367C78.75 222.482 79.0312 222.638 79.2656 222.836C79.5052 223.034 79.7083 223.255 79.875 223.5H79.9609C79.9349 223.339 79.9036 223.107 79.8672 222.805C79.8359 222.497 79.8203 222.214 79.8203 221.953V218.844H81.6641V231H80.2266L79.8984 229.82H79.8203C79.6641 230.07 79.4661 230.297 79.2266 230.5C78.9922 230.698 78.7109 230.857 78.3828 230.977C78.0599 231.096 77.6771 231.156 77.2344 231.156ZM77.75 229.664C78.5365 229.664 79.0911 229.438 79.4141 228.984C79.737 228.531 79.9036 227.852 79.9141 226.945V226.703C79.9141 225.734 79.7578 224.992 79.4453 224.477C79.1328 223.956 78.5625 223.695 77.7344 223.695C77.0729 223.695 76.5677 223.964 76.2188 224.5C75.875 225.031 75.7031 225.773 75.7031 226.727C75.7031 227.68 75.875 228.409 76.2188 228.914C76.5677 229.414 77.0781 229.664 77.75 229.664ZM91.8438 222.188C92.9375 222.188 93.763 222.43 94.3203 222.914C94.8828 223.398 95.1641 224.154 95.1641 225.18V231H93.8594L93.5078 229.773H93.4453C93.2005 230.086 92.9479 230.344 92.6875 230.547C92.4271 230.75 92.125 230.901 91.7812 231C91.4427 231.104 91.0286 231.156 90.5391 231.156C90.0234 231.156 89.5625 231.062 89.1562 230.875C88.75 230.682 88.4297 230.391 88.1953 230C87.9609 229.609 87.8438 229.115 87.8438 228.516C87.8438 227.625 88.1745 226.956 88.8359 226.508C89.5026 226.06 90.5078 225.812 91.8516 225.766L93.3516 225.711V225.258C93.3516 224.659 93.2109 224.232 92.9297 223.977C92.6536 223.721 92.263 223.594 91.7578 223.594C91.3255 223.594 90.9062 223.656 90.5 223.781C90.0938 223.906 89.6979 224.06 89.3125 224.242L88.7188 222.945C89.1406 222.721 89.6198 222.539 90.1562 222.398C90.6979 222.258 91.2604 222.188 91.8438 222.188ZM93.3438 226.867L92.2266 226.906C91.3099 226.938 90.6667 227.094 90.2969 227.375C89.9271 227.656 89.7422 228.042 89.7422 228.531C89.7422 228.958 89.8698 229.271 90.125 229.469C90.3802 229.661 90.7161 229.758 91.1328 229.758C91.7682 229.758 92.2943 229.578 92.7109 229.219C93.1328 228.854 93.3438 228.32 93.3438 227.617V226.867ZM102.242 222.188C103.216 222.188 103.974 222.44 104.516 222.945C105.062 223.445 105.336 224.25 105.336 225.359V231H103.5V225.703C103.5 225.031 103.362 224.529 103.086 224.195C102.81 223.857 102.383 223.688 101.805 223.688C100.966 223.688 100.383 223.945 100.055 224.461C99.7318 224.977 99.5703 225.724 99.5703 226.703V231H97.7344V222.352H99.1641L99.4219 223.523H99.5234C99.7109 223.221 99.9427 222.974 100.219 222.781C100.5 222.583 100.812 222.435 101.156 222.336C101.505 222.237 101.867 222.188 102.242 222.188ZM110.812 231.156C109.781 231.156 108.953 230.781 108.328 230.031C107.708 229.276 107.398 228.164 107.398 226.695C107.398 225.211 107.714 224.089 108.344 223.328C108.979 222.568 109.815 222.188 110.852 222.188C111.289 222.188 111.672 222.247 112 222.367C112.328 222.482 112.609 222.638 112.844 222.836C113.083 223.034 113.286 223.255 113.453 223.5H113.539C113.513 223.339 113.482 223.107 113.445 222.805C113.414 222.497 113.398 222.214 113.398 221.953V218.844H115.242V231H113.805L113.477 229.82H113.398C113.242 230.07 113.044 230.297 112.805 230.5C112.57 230.698 112.289 230.857 111.961 230.977C111.638 231.096 111.255 231.156 110.812 231.156ZM111.328 229.664C112.115 229.664 112.669 229.438 112.992 228.984C113.315 228.531 113.482 227.852 113.492 226.945V226.703C113.492 225.734 113.336 224.992 113.023 224.477C112.711 223.956 112.141 223.695 111.312 223.695C110.651 223.695 110.146 223.964 109.797 224.5C109.453 225.031 109.281 225.773 109.281 226.727C109.281 227.68 109.453 228.409 109.797 228.914C110.146 229.414 110.656 229.664 111.328 229.664ZM46.6484 249.891C46.6484 250.568 46.4818 251.151 46.1484 251.641C45.8203 252.13 45.3464 252.505 44.7266 252.766C44.112 253.026 43.3776 253.156 42.5234 253.156C42.1068 253.156 41.7083 253.133 41.3281 253.086C40.9479 253.039 40.5885 252.971 40.25 252.883C39.9167 252.789 39.612 252.677 39.3359 252.547V250.781C39.7995 250.984 40.3177 251.169 40.8906 251.336C41.4635 251.497 42.0469 251.578 42.6406 251.578C43.125 251.578 43.526 251.516 43.8438 251.391C44.1667 251.26 44.4062 251.078 44.5625 250.844C44.7188 250.604 44.7969 250.326 44.7969 250.008C44.7969 249.669 44.7057 249.383 44.5234 249.148C44.3411 248.914 44.0651 248.701 43.6953 248.508C43.3307 248.31 42.8724 248.099 42.3203 247.875C41.9453 247.724 41.5859 247.552 41.2422 247.359C40.9036 247.167 40.6016 246.94 40.3359 246.68C40.0703 246.419 39.8594 246.112 39.7031 245.758C39.5521 245.398 39.4766 244.977 39.4766 244.492C39.4766 243.846 39.6302 243.294 39.9375 242.836C40.25 242.378 40.6875 242.026 41.25 241.781C41.8177 241.536 42.4792 241.414 43.2344 241.414C43.8333 241.414 44.3958 241.477 44.9219 241.602C45.4531 241.727 45.974 241.904 46.4844 242.133L45.8906 243.641C45.4219 243.448 44.9661 243.294 44.5234 243.18C44.0859 243.065 43.638 243.008 43.1797 243.008C42.7839 243.008 42.4479 243.068 42.1719 243.188C41.8958 243.307 41.6849 243.477 41.5391 243.695C41.3984 243.909 41.3281 244.164 41.3281 244.461C41.3281 244.794 41.4089 245.076 41.5703 245.305C41.737 245.529 41.9922 245.734 42.3359 245.922C42.6849 246.109 43.1328 246.318 43.6797 246.547C44.3099 246.807 44.8438 247.081 45.2812 247.367C45.724 247.654 46.0625 247.997 46.2969 248.398C46.5312 248.794 46.6484 249.292 46.6484 249.891ZM50.5 240.844V243.898C50.5 244.216 50.4896 244.526 50.4688 244.828C50.4531 245.13 50.4349 245.365 50.4141 245.531H50.5156C50.6979 245.229 50.9219 244.982 51.1875 244.789C51.4531 244.591 51.75 244.443 52.0781 244.344C52.4115 244.245 52.7656 244.195 53.1406 244.195C53.8021 244.195 54.3646 244.307 54.8281 244.531C55.2917 244.75 55.6458 245.091 55.8906 245.555C56.1406 246.018 56.2656 246.62 56.2656 247.359V253H54.4297V247.703C54.4297 247.031 54.2917 246.529 54.0156 246.195C53.7396 245.857 53.3125 245.688 52.7344 245.688C52.1771 245.688 51.7344 245.805 51.4062 246.039C51.0833 246.268 50.8516 246.609 50.7109 247.062C50.5703 247.51 50.5 248.057 50.5 248.703V253H48.6641V240.844H50.5ZM60.6719 244.352V253H58.8359V244.352H60.6719ZM59.7656 241.039C60.0469 241.039 60.2891 241.115 60.4922 241.266C60.7005 241.417 60.8047 241.677 60.8047 242.047C60.8047 242.411 60.7005 242.672 60.4922 242.828C60.2891 242.979 60.0469 243.055 59.7656 243.055C59.474 243.055 59.2266 242.979 59.0234 242.828C58.8255 242.672 58.7266 242.411 58.7266 242.047C58.7266 241.677 58.8255 241.417 59.0234 241.266C59.2266 241.115 59.474 241.039 59.7656 241.039ZM67.7422 244.188C68.7682 244.188 69.5911 244.562 70.2109 245.312C70.8359 246.062 71.1484 247.177 71.1484 248.656C71.1484 249.635 71.0026 250.461 70.7109 251.133C70.4245 251.799 70.0208 252.305 69.5 252.648C68.9844 252.987 68.3828 253.156 67.6953 253.156C67.2578 253.156 66.8776 253.099 66.5547 252.984C66.2318 252.87 65.9557 252.721 65.7266 252.539C65.4974 252.352 65.3047 252.148 65.1484 251.93H65.0391C65.0651 252.138 65.0885 252.37 65.1094 252.625C65.1354 252.875 65.1484 253.104 65.1484 253.312V256.836H63.3047V244.352H64.8047L65.0625 245.547H65.1484C65.3099 245.302 65.5052 245.076 65.7344 244.867C65.9688 244.659 66.25 244.495 66.5781 244.375C66.9115 244.25 67.2995 244.188 67.7422 244.188ZM67.25 245.688C66.7448 245.688 66.3385 245.789 66.0312 245.992C65.7292 246.19 65.5078 246.49 65.3672 246.891C65.2318 247.292 65.1589 247.794 65.1484 248.398V248.656C65.1484 249.297 65.2135 249.841 65.3438 250.289C65.4792 250.732 65.7005 251.07 66.0078 251.305C66.3203 251.534 66.7422 251.648 67.2734 251.648C67.7214 251.648 68.0911 251.526 68.3828 251.281C68.6797 251.036 68.901 250.688 69.0469 250.234C69.1927 249.781 69.2656 249.247 69.2656 248.633C69.2656 247.701 69.099 246.977 68.7656 246.461C68.4375 245.945 67.9323 245.688 67.25 245.688ZM77.7109 244.188C78.737 244.188 79.5599 244.562 80.1797 245.312C80.8047 246.062 81.1172 247.177 81.1172 248.656C81.1172 249.635 80.9714 250.461 80.6797 251.133C80.3932 251.799 79.9896 252.305 79.4688 252.648C78.9531 252.987 78.3516 253.156 77.6641 253.156C77.2266 253.156 76.8464 253.099 76.5234 252.984C76.2005 252.87 75.9245 252.721 75.6953 252.539C75.4661 252.352 75.2734 252.148 75.1172 251.93H75.0078C75.0339 252.138 75.0573 252.37 75.0781 252.625C75.1042 252.875 75.1172 253.104 75.1172 253.312V256.836H73.2734V244.352H74.7734L75.0312 245.547H75.1172C75.2786 245.302 75.474 245.076 75.7031 244.867C75.9375 244.659 76.2188 244.495 76.5469 244.375C76.8802 244.25 77.2682 244.188 77.7109 244.188ZM77.2188 245.688C76.7135 245.688 76.3073 245.789 76 245.992C75.6979 246.19 75.4766 246.49 75.3359 246.891C75.2005 247.292 75.1276 247.794 75.1172 248.398V248.656C75.1172 249.297 75.1823 249.841 75.3125 250.289C75.4479 250.732 75.6693 251.07 75.9766 251.305C76.2891 251.534 76.7109 251.648 77.2422 251.648C77.6901 251.648 78.0599 251.526 78.3516 251.281C78.6484 251.036 78.8698 250.688 79.0156 250.234C79.1615 249.781 79.2344 249.247 79.2344 248.633C79.2344 247.701 79.0677 246.977 78.7344 246.461C78.4062 245.945 77.901 245.688 77.2188 245.688ZM85.0781 244.352V253H83.2422V244.352H85.0781ZM84.1719 241.039C84.4531 241.039 84.6953 241.115 84.8984 241.266C85.1068 241.417 85.2109 241.677 85.2109 242.047C85.2109 242.411 85.1068 242.672 84.8984 242.828C84.6953 242.979 84.4531 243.055 84.1719 243.055C83.8802 243.055 83.6328 242.979 83.4297 242.828C83.2318 242.672 83.1328 242.411 83.1328 242.047C83.1328 241.677 83.2318 241.417 83.4297 241.266C83.6328 241.115 83.8802 241.039 84.1719 241.039ZM92.2188 244.188C93.1927 244.188 93.9505 244.44 94.4922 244.945C95.0391 245.445 95.3125 246.25 95.3125 247.359V253H93.4766V247.703C93.4766 247.031 93.3385 246.529 93.0625 246.195C92.7865 245.857 92.3594 245.688 91.7812 245.688C90.9427 245.688 90.3594 245.945 90.0312 246.461C89.7083 246.977 89.5469 247.724 89.5469 248.703V253H87.7109V244.352H89.1406L89.3984 245.523H89.5C89.6875 245.221 89.9193 244.974 90.1953 244.781C90.4766 244.583 90.7891 244.435 91.1328 244.336C91.4818 244.237 91.8438 244.188 92.2188 244.188ZM100.352 256.844C99.1797 256.844 98.2812 256.633 97.6562 256.211C97.0312 255.789 96.7188 255.198 96.7188 254.438C96.7188 253.906 96.8854 253.456 97.2188 253.086C97.5521 252.721 98.0286 252.469 98.6484 252.328C98.4141 252.224 98.2109 252.062 98.0391 251.844C97.8724 251.62 97.7891 251.372 97.7891 251.102C97.7891 250.779 97.8802 250.503 98.0625 250.273C98.2448 250.044 98.5182 249.823 98.8828 249.609C98.4297 249.417 98.0651 249.104 97.7891 248.672C97.5182 248.234 97.3828 247.721 97.3828 247.133C97.3828 246.508 97.5156 245.977 97.7812 245.539C98.0469 245.096 98.4349 244.76 98.9453 244.531C99.4557 244.297 100.073 244.18 100.797 244.18C100.953 244.18 101.122 244.19 101.305 244.211C101.492 244.227 101.664 244.247 101.82 244.273C101.982 244.294 102.104 244.318 102.188 244.344H105.18V245.367L103.711 245.641C103.852 245.839 103.964 246.065 104.047 246.32C104.13 246.57 104.172 246.844 104.172 247.141C104.172 248.036 103.862 248.742 103.242 249.258C102.628 249.768 101.779 250.023 100.695 250.023C100.435 250.013 100.182 249.992 99.9375 249.961C99.75 250.076 99.6068 250.203 99.5078 250.344C99.4089 250.479 99.3594 250.633 99.3594 250.805C99.3594 250.945 99.4089 251.06 99.5078 251.148C99.6068 251.232 99.7526 251.294 99.9453 251.336C100.143 251.378 100.383 251.398 100.664 251.398H102.156C103.104 251.398 103.828 251.599 104.328 252C104.828 252.401 105.078 252.99 105.078 253.766C105.078 254.75 104.672 255.508 103.859 256.039C103.047 256.576 101.878 256.844 100.352 256.844ZM100.422 255.555C101.062 255.555 101.602 255.492 102.039 255.367C102.477 255.242 102.807 255.062 103.031 254.828C103.255 254.599 103.367 254.326 103.367 254.008C103.367 253.727 103.297 253.51 103.156 253.359C103.016 253.208 102.805 253.104 102.523 253.047C102.242 252.99 101.893 252.961 101.477 252.961H100.117C99.7786 252.961 99.4792 253.013 99.2188 253.117C98.9583 253.227 98.7552 253.383 98.6094 253.586C98.4688 253.789 98.3984 254.034 98.3984 254.32C98.3984 254.716 98.5729 255.021 98.9219 255.234C99.276 255.448 99.776 255.555 100.422 255.555ZM100.781 248.82C101.318 248.82 101.716 248.674 101.977 248.383C102.237 248.086 102.367 247.669 102.367 247.133C102.367 246.549 102.232 246.112 101.961 245.82C101.695 245.529 101.299 245.383 100.773 245.383C100.258 245.383 99.8646 245.531 99.5938 245.828C99.3281 246.125 99.1953 246.565 99.1953 247.148C99.1953 247.674 99.3281 248.086 99.5938 248.383C99.8646 248.674 100.26 248.82 100.781 248.82ZM27.0938 275V263.578H28.9688V275H27.0938ZM36.3047 266.188C37.2786 266.188 38.0365 266.44 38.5781 266.945C39.125 267.445 39.3984 268.25 39.3984 269.359V275H37.5625V269.703C37.5625 269.031 37.4245 268.529 37.1484 268.195C36.8724 267.857 36.4453 267.688 35.8672 267.688C35.0286 267.688 34.4453 267.945 34.1172 268.461C33.7943 268.977 33.6328 269.724 33.6328 270.703V275H31.7969V266.352H33.2266L33.4844 267.523H33.5859C33.7734 267.221 34.0052 266.974 34.2812 266.781C34.5625 266.583 34.875 266.435 35.2188 266.336C35.5677 266.237 35.9297 266.188 36.3047 266.188ZM46.2891 267.75H44.1875V275H42.3516V267.75H40.9375V266.867L42.3516 266.328V265.727C42.3516 264.992 42.4661 264.409 42.6953 263.977C42.9297 263.544 43.263 263.234 43.6953 263.047C44.1328 262.854 44.6536 262.758 45.2578 262.758C45.6536 262.758 46.0156 262.792 46.3438 262.859C46.6719 262.922 46.9479 262.995 47.1719 263.078L46.6953 264.469C46.5182 264.411 46.3203 264.359 46.1016 264.312C45.8828 264.26 45.6484 264.234 45.3984 264.234C44.9818 264.234 44.6745 264.365 44.4766 264.625C44.2839 264.885 44.1875 265.266 44.1875 265.766V266.352H46.2891V267.75ZM55.4219 270.656C55.4219 271.375 55.3281 272.013 55.1406 272.57C54.9531 273.128 54.6797 273.599 54.3203 273.984C53.9609 274.365 53.5286 274.656 53.0234 274.859C52.5182 275.057 51.9479 275.156 51.3125 275.156C50.7188 275.156 50.1745 275.057 49.6797 274.859C49.1849 274.656 48.7552 274.365 48.3906 273.984C48.0312 273.599 47.7526 273.128 47.5547 272.57C47.3568 272.013 47.2578 271.375 47.2578 270.656C47.2578 269.703 47.4219 268.896 47.75 268.234C48.0833 267.568 48.5573 267.06 49.1719 266.711C49.7865 266.362 50.5182 266.188 51.3672 266.188C52.1641 266.188 52.8672 266.362 53.4766 266.711C54.0859 267.06 54.5625 267.568 54.9062 268.234C55.25 268.901 55.4219 269.708 55.4219 270.656ZM49.1484 270.656C49.1484 271.286 49.224 271.826 49.375 272.273C49.5312 272.721 49.7708 273.065 50.0938 273.305C50.4167 273.539 50.8333 273.656 51.3438 273.656C51.8542 273.656 52.2708 273.539 52.5938 273.305C52.9167 273.065 53.1536 272.721 53.3047 272.273C53.4557 271.826 53.5312 271.286 53.5312 270.656C53.5312 270.026 53.4557 269.492 53.3047 269.055C53.1536 268.612 52.9167 268.276 52.5938 268.047C52.2708 267.812 51.8516 267.695 51.3359 267.695C50.5755 267.695 50.0208 267.951 49.6719 268.461C49.3229 268.971 49.1484 269.703 49.1484 270.656ZM61.9141 266.188C62.0599 266.188 62.2188 266.195 62.3906 266.211C62.5625 266.227 62.7109 266.247 62.8359 266.273L62.6641 267.992C62.5547 267.961 62.4193 267.938 62.2578 267.922C62.1016 267.906 61.9609 267.898 61.8359 267.898C61.5078 267.898 61.1953 267.953 60.8984 268.062C60.6016 268.167 60.3385 268.328 60.1094 268.547C59.8802 268.76 59.7005 269.029 59.5703 269.352C59.4401 269.674 59.375 270.049 59.375 270.477V275H57.5312V266.352H58.9688L59.2188 267.875H59.3047C59.4766 267.568 59.6901 267.286 59.9453 267.031C60.2005 266.776 60.4922 266.573 60.8203 266.422C61.1536 266.266 61.5182 266.188 61.9141 266.188ZM74.2109 266.188C75.1797 266.188 75.9089 266.438 76.3984 266.938C76.8932 267.438 77.1406 268.24 77.1406 269.344V275H75.3047V269.672C75.3047 269.016 75.1771 268.521 74.9219 268.188C74.6667 267.854 74.2786 267.688 73.7578 267.688C73.0286 267.688 72.5026 267.922 72.1797 268.391C71.862 268.854 71.7031 269.529 71.7031 270.414V275H69.8672V269.672C69.8672 269.234 69.8099 268.87 69.6953 268.578C69.5859 268.281 69.4167 268.06 69.1875 267.914C68.9583 267.763 68.6693 267.688 68.3203 267.688C67.8151 267.688 67.4115 267.802 67.1094 268.031C66.8125 268.26 66.599 268.599 66.4688 269.047C66.3385 269.49 66.2734 270.034 66.2734 270.68V275H64.4375V266.352H65.8672L66.125 267.516H66.2266C66.4036 267.214 66.6224 266.966 66.8828 266.773C67.1484 266.576 67.4427 266.43 67.7656 266.336C68.0885 266.237 68.4245 266.188 68.7734 266.188C69.4193 266.188 69.9635 266.302 70.4062 266.531C70.849 266.755 71.1797 267.099 71.3984 267.562H71.5391C71.8099 267.094 72.1875 266.747 72.6719 266.523C73.1562 266.299 73.6693 266.188 74.2109 266.188ZM83.0938 266.188C84.1875 266.188 85.013 266.43 85.5703 266.914C86.1328 267.398 86.4141 268.154 86.4141 269.18V275H85.1094L84.7578 273.773H84.6953C84.4505 274.086 84.1979 274.344 83.9375 274.547C83.6771 274.75 83.375 274.901 83.0312 275C82.6927 275.104 82.2786 275.156 81.7891 275.156C81.2734 275.156 80.8125 275.062 80.4062 274.875C80 274.682 79.6797 274.391 79.4453 274C79.2109 273.609 79.0938 273.115 79.0938 272.516C79.0938 271.625 79.4245 270.956 80.0859 270.508C80.7526 270.06 81.7578 269.812 83.1016 269.766L84.6016 269.711V269.258C84.6016 268.659 84.4609 268.232 84.1797 267.977C83.9036 267.721 83.513 267.594 83.0078 267.594C82.5755 267.594 82.1562 267.656 81.75 267.781C81.3438 267.906 80.9479 268.06 80.5625 268.242L79.9688 266.945C80.3906 266.721 80.8698 266.539 81.4062 266.398C81.9479 266.258 82.5104 266.188 83.0938 266.188ZM84.5938 270.867L83.4766 270.906C82.5599 270.938 81.9167 271.094 81.5469 271.375C81.1771 271.656 80.9922 272.042 80.9922 272.531C80.9922 272.958 81.1198 273.271 81.375 273.469C81.6302 273.661 81.9661 273.758 82.3828 273.758C83.0182 273.758 83.5443 273.578 83.9609 273.219C84.3828 272.854 84.5938 272.32 84.5938 271.617V270.867ZM92.2031 273.672C92.4427 273.672 92.6797 273.651 92.9141 273.609C93.1484 273.562 93.362 273.508 93.5547 273.445V274.836C93.3516 274.924 93.0885 275 92.7656 275.062C92.4427 275.125 92.1068 275.156 91.7578 275.156C91.2682 275.156 90.8281 275.076 90.4375 274.914C90.0469 274.747 89.737 274.464 89.5078 274.062C89.2786 273.661 89.1641 273.107 89.1641 272.398V267.75H87.9844V266.93L89.25 266.281L89.8516 264.43H91.0078V266.352H93.4844V267.75H91.0078V272.375C91.0078 272.812 91.1172 273.138 91.3359 273.352C91.5547 273.565 91.8438 273.672 92.2031 273.672ZM97.1484 266.352V275H95.3125V266.352H97.1484ZM96.2422 263.039C96.5234 263.039 96.7656 263.115 96.9688 263.266C97.1771 263.417 97.2812 263.677 97.2812 264.047C97.2812 264.411 97.1771 264.672 96.9688 264.828C96.7656 264.979 96.5234 265.055 96.2422 265.055C95.9505 265.055 95.7031 264.979 95.5 264.828C95.3021 264.672 95.2031 264.411 95.2031 264.047C95.2031 263.677 95.3021 263.417 95.5 263.266C95.7031 263.115 95.9505 263.039 96.2422 263.039ZM107.438 270.656C107.438 271.375 107.344 272.013 107.156 272.57C106.969 273.128 106.695 273.599 106.336 273.984C105.977 274.365 105.544 274.656 105.039 274.859C104.534 275.057 103.964 275.156 103.328 275.156C102.734 275.156 102.19 275.057 101.695 274.859C101.201 274.656 100.771 274.365 100.406 273.984C100.047 273.599 99.7682 273.128 99.5703 272.57C99.3724 272.013 99.2734 271.375 99.2734 270.656C99.2734 269.703 99.4375 268.896 99.7656 268.234C100.099 267.568 100.573 267.06 101.188 266.711C101.802 266.362 102.534 266.188 103.383 266.188C104.18 266.188 104.883 266.362 105.492 266.711C106.102 267.06 106.578 267.568 106.922 268.234C107.266 268.901 107.438 269.708 107.438 270.656ZM101.164 270.656C101.164 271.286 101.24 271.826 101.391 272.273C101.547 272.721 101.786 273.065 102.109 273.305C102.432 273.539 102.849 273.656 103.359 273.656C103.87 273.656 104.286 273.539 104.609 273.305C104.932 273.065 105.169 272.721 105.32 272.273C105.471 271.826 105.547 271.286 105.547 270.656C105.547 270.026 105.471 269.492 105.32 269.055C105.169 268.612 104.932 268.276 104.609 268.047C104.286 267.812 103.867 267.695 103.352 267.695C102.591 267.695 102.036 267.951 101.688 268.461C101.339 268.971 101.164 269.703 101.164 270.656ZM114.055 266.188C115.029 266.188 115.786 266.44 116.328 266.945C116.875 267.445 117.148 268.25 117.148 269.359V275H115.312V269.703C115.312 269.031 115.174 268.529 114.898 268.195C114.622 267.857 114.195 267.688 113.617 267.688C112.779 267.688 112.195 267.945 111.867 268.461C111.544 268.977 111.383 269.724 111.383 270.703V275H109.547V266.352H110.977L111.234 267.523H111.336C111.523 267.221 111.755 266.974 112.031 266.781C112.312 266.583 112.625 266.435 112.969 266.336C113.318 266.237 113.68 266.188 114.055 266.188Z" fill="#F9F6EE"/>
<line x1="73.5" y1="288" x2="73.5" y2="338" stroke="#F9F6EE" stroke-width="3"/>
<circle cx="72" cy="366" r="19.5" stroke="#F9F6EE"/>
<path d="M77.543 361.582C77.543 362.395 77.3672 363.098 77.0156 363.691C76.6719 364.277 76.2109 364.758 75.6328 365.133C75.0625 365.508 74.4375 365.789 73.7578 365.977V366.047C75.125 366.219 76.1797 366.637 76.9219 367.301C77.6719 367.957 78.0469 368.891 78.0469 370.102C78.0469 371.039 77.7969 371.898 77.2969 372.68C76.7969 373.453 76.0195 374.074 74.9648 374.543C73.9102 375.004 72.5547 375.234 70.8984 375.234C69.7891 375.234 68.8438 375.152 68.0625 374.988C67.2812 374.824 66.5234 374.598 65.7891 374.309V370.465C66.5312 370.848 67.293 371.133 68.0742 371.32C68.8633 371.5 69.582 371.59 70.2305 371.59C71.3555 371.59 72.1211 371.43 72.5273 371.109C72.9414 370.789 73.1484 370.359 73.1484 369.82C73.1484 369.43 73.0508 369.098 72.8555 368.824C72.6602 368.551 72.2969 368.34 71.7656 368.191C71.2422 368.043 70.4883 367.969 69.5039 367.969H68.4492V364.488H69.5273C70.4023 364.488 71.0938 364.41 71.6016 364.254C72.1172 364.098 72.4883 363.887 72.7148 363.621C72.9414 363.348 73.0547 363.035 73.0547 362.684C73.0547 362.23 72.8789 361.895 72.5273 361.676C72.1758 361.457 71.7109 361.348 71.1328 361.348C70.6172 361.348 70.1328 361.418 69.6797 361.559C69.2266 361.699 68.832 361.855 68.4961 362.027C68.1602 362.199 67.9062 362.34 67.7344 362.449L65.8125 359.355C66.5234 358.871 67.3359 358.461 68.25 358.125C69.1719 357.789 70.375 357.621 71.8594 357.621C73.625 357.621 75.0117 357.973 76.0195 358.676C77.0352 359.379 77.543 360.348 77.543 361.582Z" fill="#F9F6EE"/>
<path d="M40.8438 411L39.7266 407.828H35.3594L34.2422 411H32.2656L36.5156 399.531H38.5938L42.8359 411H40.8438ZM39.2422 406.219L38.1562 403.094C38.1146 402.958 38.0547 402.768 37.9766 402.523C37.8984 402.273 37.8203 402.021 37.7422 401.766C37.6641 401.505 37.599 401.286 37.5469 401.109C37.4948 401.323 37.4297 401.562 37.3516 401.828C37.2786 402.089 37.2057 402.333 37.1328 402.562C37.0651 402.792 37.013 402.969 36.9766 403.094L35.8828 406.219H39.2422ZM47.0625 411.156C46.0312 411.156 45.2031 410.781 44.5781 410.031C43.9583 409.276 43.6484 408.164 43.6484 406.695C43.6484 405.211 43.9635 404.089 44.5938 403.328C45.2292 402.568 46.0651 402.188 47.1016 402.188C47.5391 402.188 47.9219 402.247 48.25 402.367C48.5781 402.482 48.8594 402.638 49.0938 402.836C49.3333 403.034 49.5365 403.255 49.7031 403.5H49.7891C49.763 403.339 49.7318 403.107 49.6953 402.805C49.6641 402.497 49.6484 402.214 49.6484 401.953V398.844H51.4922V411H50.0547L49.7266 409.82H49.6484C49.4922 410.07 49.2943 410.297 49.0547 410.5C48.8203 410.698 48.5391 410.857 48.2109 410.977C47.888 411.096 47.5052 411.156 47.0625 411.156ZM47.5781 409.664C48.3646 409.664 48.9193 409.438 49.2422 408.984C49.5651 408.531 49.7318 407.852 49.7422 406.945V406.703C49.7422 405.734 49.5859 404.992 49.2734 404.477C48.9609 403.956 48.3906 403.695 47.5625 403.695C46.901 403.695 46.3958 403.964 46.0469 404.5C45.7031 405.031 45.5312 405.773 45.5312 406.727C45.5312 407.68 45.7031 408.409 46.0469 408.914C46.3958 409.414 46.9062 409.664 47.5781 409.664ZM57.0312 411.156C56 411.156 55.1719 410.781 54.5469 410.031C53.9271 409.276 53.6172 408.164 53.6172 406.695C53.6172 405.211 53.9323 404.089 54.5625 403.328C55.1979 402.568 56.0339 402.188 57.0703 402.188C57.5078 402.188 57.8906 402.247 58.2188 402.367C58.5469 402.482 58.8281 402.638 59.0625 402.836C59.3021 403.034 59.5052 403.255 59.6719 403.5H59.7578C59.7318 403.339 59.7005 403.107 59.6641 402.805C59.6328 402.497 59.6172 402.214 59.6172 401.953V398.844H61.4609V411H60.0234L59.6953 409.82H59.6172C59.4609 410.07 59.263 410.297 59.0234 410.5C58.7891 410.698 58.5078 410.857 58.1797 410.977C57.8568 411.096 57.474 411.156 57.0312 411.156ZM57.5469 409.664C58.3333 409.664 58.888 409.438 59.2109 408.984C59.5339 408.531 59.7005 407.852 59.7109 406.945V406.703C59.7109 405.734 59.5547 404.992 59.2422 404.477C58.9297 403.956 58.3594 403.695 57.5312 403.695C56.8698 403.695 56.3646 403.964 56.0156 404.5C55.6719 405.031 55.5 405.773 55.5 406.727C55.5 407.68 55.6719 408.409 56.0156 408.914C56.3646 409.414 56.875 409.664 57.5469 409.664ZM65.9297 402.352V411H64.0938V402.352H65.9297ZM65.0234 399.039C65.3047 399.039 65.5469 399.115 65.75 399.266C65.9583 399.417 66.0625 399.677 66.0625 400.047C66.0625 400.411 65.9583 400.672 65.75 400.828C65.5469 400.979 65.3047 401.055 65.0234 401.055C64.7318 401.055 64.4844 400.979 64.2812 400.828C64.0833 400.672 63.9844 400.411 63.9844 400.047C63.9844 399.677 64.0833 399.417 64.2812 399.266C64.4844 399.115 64.7318 399.039 65.0234 399.039ZM71.7812 409.672C72.0208 409.672 72.2578 409.651 72.4922 409.609C72.7266 409.562 72.9401 409.508 73.1328 409.445V410.836C72.9297 410.924 72.6667 411 72.3438 411.062C72.0208 411.125 71.6849 411.156 71.3359 411.156C70.8464 411.156 70.4062 411.076 70.0156 410.914C69.625 410.747 69.3151 410.464 69.0859 410.062C68.8568 409.661 68.7422 409.107 68.7422 408.398V403.75H67.5625V402.93L68.8281 402.281L69.4297 400.43H70.5859V402.352H73.0625V403.75H70.5859V408.375C70.5859 408.812 70.6953 409.138 70.9141 409.352C71.1328 409.565 71.4219 409.672 71.7812 409.672ZM76.7266 402.352V411H74.8906V402.352H76.7266ZM75.8203 399.039C76.1016 399.039 76.3438 399.115 76.5469 399.266C76.7552 399.417 76.8594 399.677 76.8594 400.047C76.8594 400.411 76.7552 400.672 76.5469 400.828C76.3438 400.979 76.1016 401.055 75.8203 401.055C75.5286 401.055 75.2812 400.979 75.0781 400.828C74.8802 400.672 74.7812 400.411 74.7812 400.047C74.7812 399.677 74.8802 399.417 75.0781 399.266C75.2812 399.115 75.5286 399.039 75.8203 399.039ZM87.0156 406.656C87.0156 407.375 86.9219 408.013 86.7344 408.57C86.5469 409.128 86.2734 409.599 85.9141 409.984C85.5547 410.365 85.1224 410.656 84.6172 410.859C84.112 411.057 83.5417 411.156 82.9062 411.156C82.3125 411.156 81.7682 411.057 81.2734 410.859C80.7786 410.656 80.349 410.365 79.9844 409.984C79.625 409.599 79.3464 409.128 79.1484 408.57C78.9505 408.013 78.8516 407.375 78.8516 406.656C78.8516 405.703 79.0156 404.896 79.3438 404.234C79.6771 403.568 80.151 403.06 80.7656 402.711C81.3802 402.362 82.112 402.188 82.9609 402.188C83.7578 402.188 84.4609 402.362 85.0703 402.711C85.6797 403.06 86.1562 403.568 86.5 404.234C86.8438 404.901 87.0156 405.708 87.0156 406.656ZM80.7422 406.656C80.7422 407.286 80.8177 407.826 80.9688 408.273C81.125 408.721 81.3646 409.065 81.6875 409.305C82.0104 409.539 82.4271 409.656 82.9375 409.656C83.4479 409.656 83.8646 409.539 84.1875 409.305C84.5104 409.065 84.7474 408.721 84.8984 408.273C85.0495 407.826 85.125 407.286 85.125 406.656C85.125 406.026 85.0495 405.492 84.8984 405.055C84.7474 404.612 84.5104 404.276 84.1875 404.047C83.8646 403.812 83.4453 403.695 82.9297 403.695C82.1693 403.695 81.6146 403.951 81.2656 404.461C80.9167 404.971 80.7422 405.703 80.7422 406.656ZM93.6328 402.188C94.6068 402.188 95.3646 402.44 95.9062 402.945C96.4531 403.445 96.7266 404.25 96.7266 405.359V411H94.8906V405.703C94.8906 405.031 94.7526 404.529 94.4766 404.195C94.2005 403.857 93.7734 403.688 93.1953 403.688C92.3568 403.688 91.7734 403.945 91.4453 404.461C91.1224 404.977 90.9609 405.724 90.9609 406.703V411H89.125V402.352H90.5547L90.8125 403.523H90.9141C91.1016 403.221 91.3333 402.974 91.6094 402.781C91.8906 402.583 92.2031 402.435 92.5469 402.336C92.8958 402.237 93.2578 402.188 93.6328 402.188ZM102.688 402.188C103.781 402.188 104.607 402.43 105.164 402.914C105.727 403.398 106.008 404.154 106.008 405.18V411H104.703L104.352 409.773H104.289C104.044 410.086 103.792 410.344 103.531 410.547C103.271 410.75 102.969 410.901 102.625 411C102.286 411.104 101.872 411.156 101.383 411.156C100.867 411.156 100.406 411.062 100 410.875C99.5938 410.682 99.2734 410.391 99.0391 410C98.8047 409.609 98.6875 409.115 98.6875 408.516C98.6875 407.625 99.0182 406.956 99.6797 406.508C100.346 406.06 101.352 405.812 102.695 405.766L104.195 405.711V405.258C104.195 404.659 104.055 404.232 103.773 403.977C103.497 403.721 103.107 403.594 102.602 403.594C102.169 403.594 101.75 403.656 101.344 403.781C100.938 403.906 100.542 404.06 100.156 404.242L99.5625 402.945C99.9844 402.721 100.464 402.539 101 402.398C101.542 402.258 102.104 402.188 102.688 402.188ZM104.188 406.867L103.07 406.906C102.154 406.938 101.51 407.094 101.141 407.375C100.771 407.656 100.586 408.042 100.586 408.531C100.586 408.958 100.714 409.271 100.969 409.469C101.224 409.661 101.56 409.758 101.977 409.758C102.612 409.758 103.138 409.578 103.555 409.219C103.977 408.854 104.188 408.32 104.188 407.617V406.867ZM110.422 411H108.578V398.844H110.422V411ZM27.0938 433V421.578H28.9688V433H27.0938ZM36.3047 424.188C37.2786 424.188 38.0365 424.44 38.5781 424.945C39.125 425.445 39.3984 426.25 39.3984 427.359V433H37.5625V427.703C37.5625 427.031 37.4245 426.529 37.1484 426.195C36.8724 425.857 36.4453 425.688 35.8672 425.688C35.0286 425.688 34.4453 425.945 34.1172 426.461C33.7943 426.977 33.6328 427.724 33.6328 428.703V433H31.7969V424.352H33.2266L33.4844 425.523H33.5859C33.7734 425.221 34.0052 424.974 34.2812 424.781C34.5625 424.583 34.875 424.435 35.2188 424.336C35.5677 424.237 35.9297 424.188 36.3047 424.188ZM46.2891 425.75H44.1875V433H42.3516V425.75H40.9375V424.867L42.3516 424.328V423.727C42.3516 422.992 42.4661 422.409 42.6953 421.977C42.9297 421.544 43.263 421.234 43.6953 421.047C44.1328 420.854 44.6536 420.758 45.2578 420.758C45.6536 420.758 46.0156 420.792 46.3438 420.859C46.6719 420.922 46.9479 420.995 47.1719 421.078L46.6953 422.469C46.5182 422.411 46.3203 422.359 46.1016 422.312C45.8828 422.26 45.6484 422.234 45.3984 422.234C44.9818 422.234 44.6745 422.365 44.4766 422.625C44.2839 422.885 44.1875 423.266 44.1875 423.766V424.352H46.2891V425.75ZM55.4219 428.656C55.4219 429.375 55.3281 430.013 55.1406 430.57C54.9531 431.128 54.6797 431.599 54.3203 431.984C53.9609 432.365 53.5286 432.656 53.0234 432.859C52.5182 433.057 51.9479 433.156 51.3125 433.156C50.7188 433.156 50.1745 433.057 49.6797 432.859C49.1849 432.656 48.7552 432.365 48.3906 431.984C48.0312 431.599 47.7526 431.128 47.5547 430.57C47.3568 430.013 47.2578 429.375 47.2578 428.656C47.2578 427.703 47.4219 426.896 47.75 426.234C48.0833 425.568 48.5573 425.06 49.1719 424.711C49.7865 424.362 50.5182 424.188 51.3672 424.188C52.1641 424.188 52.8672 424.362 53.4766 424.711C54.0859 425.06 54.5625 425.568 54.9062 426.234C55.25 426.901 55.4219 427.708 55.4219 428.656ZM49.1484 428.656C49.1484 429.286 49.224 429.826 49.375 430.273C49.5312 430.721 49.7708 431.065 50.0938 431.305C50.4167 431.539 50.8333 431.656 51.3438 431.656C51.8542 431.656 52.2708 431.539 52.5938 431.305C52.9167 431.065 53.1536 430.721 53.3047 430.273C53.4557 429.826 53.5312 429.286 53.5312 428.656C53.5312 428.026 53.4557 427.492 53.3047 427.055C53.1536 426.612 52.9167 426.276 52.5938 426.047C52.2708 425.812 51.8516 425.695 51.3359 425.695C50.5755 425.695 50.0208 425.951 49.6719 426.461C49.3229 426.971 49.1484 427.703 49.1484 428.656ZM61.9141 424.188C62.0599 424.188 62.2188 424.195 62.3906 424.211C62.5625 424.227 62.7109 424.247 62.8359 424.273L62.6641 425.992C62.5547 425.961 62.4193 425.938 62.2578 425.922C62.1016 425.906 61.9609 425.898 61.8359 425.898C61.5078 425.898 61.1953 425.953 60.8984 426.062C60.6016 426.167 60.3385 426.328 60.1094 426.547C59.8802 426.76 59.7005 427.029 59.5703 427.352C59.4401 427.674 59.375 428.049 59.375 428.477V433H57.5312V424.352H58.9688L59.2188 425.875H59.3047C59.4766 425.568 59.6901 425.286 59.9453 425.031C60.2005 424.776 60.4922 424.573 60.8203 424.422C61.1536 424.266 61.5182 424.188 61.9141 424.188ZM74.2109 424.188C75.1797 424.188 75.9089 424.438 76.3984 424.938C76.8932 425.438 77.1406 426.24 77.1406 427.344V433H75.3047V427.672C75.3047 427.016 75.1771 426.521 74.9219 426.188C74.6667 425.854 74.2786 425.688 73.7578 425.688C73.0286 425.688 72.5026 425.922 72.1797 426.391C71.862 426.854 71.7031 427.529 71.7031 428.414V433H69.8672V427.672C69.8672 427.234 69.8099 426.87 69.6953 426.578C69.5859 426.281 69.4167 426.06 69.1875 425.914C68.9583 425.763 68.6693 425.688 68.3203 425.688C67.8151 425.688 67.4115 425.802 67.1094 426.031C66.8125 426.26 66.599 426.599 66.4688 427.047C66.3385 427.49 66.2734 428.034 66.2734 428.68V433H64.4375V424.352H65.8672L66.125 425.516H66.2266C66.4036 425.214 66.6224 424.966 66.8828 424.773C67.1484 424.576 67.4427 424.43 67.7656 424.336C68.0885 424.237 68.4245 424.188 68.7734 424.188C69.4193 424.188 69.9635 424.302 70.4062 424.531C70.849 424.755 71.1797 425.099 71.3984 425.562H71.5391C71.8099 425.094 72.1875 424.747 72.6719 424.523C73.1562 424.299 73.6693 424.188 74.2109 424.188ZM83.0938 424.188C84.1875 424.188 85.013 424.43 85.5703 424.914C86.1328 425.398 86.4141 426.154 86.4141 427.18V433H85.1094L84.7578 431.773H84.6953C84.4505 432.086 84.1979 432.344 83.9375 432.547C83.6771 432.75 83.375 432.901 83.0312 433C82.6927 433.104 82.2786 433.156 81.7891 433.156C81.2734 433.156 80.8125 433.062 80.4062 432.875C80 432.682 79.6797 432.391 79.4453 432C79.2109 431.609 79.0938 431.115 79.0938 430.516C79.0938 429.625 79.4245 428.956 80.0859 428.508C80.7526 428.06 81.7578 427.812 83.1016 427.766L84.6016 427.711V427.258C84.6016 426.659 84.4609 426.232 84.1797 425.977C83.9036 425.721 83.513 425.594 83.0078 425.594C82.5755 425.594 82.1562 425.656 81.75 425.781C81.3438 425.906 80.9479 426.06 80.5625 426.242L79.9688 424.945C80.3906 424.721 80.8698 424.539 81.4062 424.398C81.9479 424.258 82.5104 424.188 83.0938 424.188ZM84.5938 428.867L83.4766 428.906C82.5599 428.938 81.9167 429.094 81.5469 429.375C81.1771 429.656 80.9922 430.042 80.9922 430.531C80.9922 430.958 81.1198 431.271 81.375 431.469C81.6302 431.661 81.9661 431.758 82.3828 431.758C83.0182 431.758 83.5443 431.578 83.9609 431.219C84.3828 430.854 84.5938 430.32 84.5938 429.617V428.867ZM92.2031 431.672C92.4427 431.672 92.6797 431.651 92.9141 431.609C93.1484 431.562 93.362 431.508 93.5547 431.445V432.836C93.3516 432.924 93.0885 433 92.7656 433.062C92.4427 433.125 92.1068 433.156 91.7578 433.156C91.2682 433.156 90.8281 433.076 90.4375 432.914C90.0469 432.747 89.737 432.464 89.5078 432.062C89.2786 431.661 89.1641 431.107 89.1641 430.398V425.75H87.9844V424.93L89.25 424.281L89.8516 422.43H91.0078V424.352H93.4844V425.75H91.0078V430.375C91.0078 430.812 91.1172 431.138 91.3359 431.352C91.5547 431.565 91.8438 431.672 92.2031 431.672ZM97.1484 424.352V433H95.3125V424.352H97.1484ZM96.2422 421.039C96.5234 421.039 96.7656 421.115 96.9688 421.266C97.1771 421.417 97.2812 421.677 97.2812 422.047C97.2812 422.411 97.1771 422.672 96.9688 422.828C96.7656 422.979 96.5234 423.055 96.2422 423.055C95.9505 423.055 95.7031 422.979 95.5 422.828C95.3021 422.672 95.2031 422.411 95.2031 422.047C95.2031 421.677 95.3021 421.417 95.5 421.266C95.7031 421.115 95.9505 421.039 96.2422 421.039ZM107.438 428.656C107.438 429.375 107.344 430.013 107.156 430.57C106.969 431.128 106.695 431.599 106.336 431.984C105.977 432.365 105.544 432.656 105.039 432.859C104.534 433.057 103.964 433.156 103.328 433.156C102.734 433.156 102.19 433.057 101.695 432.859C101.201 432.656 100.771 432.365 100.406 431.984C100.047 431.599 99.7682 431.128 99.5703 430.57C99.3724 430.013 99.2734 429.375 99.2734 428.656C99.2734 427.703 99.4375 426.896 99.7656 426.234C100.099 425.568 100.573 425.06 101.188 424.711C101.802 424.362 102.534 424.188 103.383 424.188C104.18 424.188 104.883 424.362 105.492 424.711C106.102 425.06 106.578 425.568 106.922 426.234C107.266 426.901 107.438 427.708 107.438 428.656ZM101.164 428.656C101.164 429.286 101.24 429.826 101.391 430.273C101.547 430.721 101.786 431.065 102.109 431.305C102.432 431.539 102.849 431.656 103.359 431.656C103.87 431.656 104.286 431.539 104.609 431.305C104.932 431.065 105.169 430.721 105.32 430.273C105.471 429.826 105.547 429.286 105.547 428.656C105.547 428.026 105.471 427.492 105.32 427.055C105.169 426.612 104.932 426.276 104.609 426.047C104.286 425.812 103.867 425.695 103.352 425.695C102.591 425.695 102.036 425.951 101.688 426.461C101.339 426.971 101.164 427.703 101.164 428.656ZM114.055 424.188C115.029 424.188 115.786 424.44 116.328 424.945C116.875 425.445 117.148 426.25 117.148 427.359V433H115.312V427.703C115.312 427.031 115.174 426.529 114.898 426.195C114.622 425.857 114.195 425.688 113.617 425.688C112.779 425.688 112.195 425.945 111.867 426.461C111.544 426.977 111.383 427.724 111.383 428.703V433H109.547V424.352H110.977L111.234 425.523H111.336C111.523 425.221 111.755 424.974 112.031 424.781C112.312 424.583 112.625 424.435 112.969 424.336C113.318 424.237 113.68 424.188 114.055 424.188Z" fill="#F9F6EE"/>
<line x1="73.5" y1="446" x2="73.5" y2="496" stroke="#F9F6EE" stroke-width="3"/>
<circle cx="72" cy="524" r="19.5" stroke="#F9F6EE"/>
<path d="M78.668 529.684H76.7812V533H72.2109V529.684H65.3789V526.285L72.5039 515.867H76.7812V526.227H78.668V529.684ZM72.2109 526.227V524.234C72.2109 524.055 72.2148 523.828 72.2227 523.555C72.2305 523.281 72.2383 523.008 72.2461 522.734C72.2617 522.453 72.2734 522.219 72.2812 522.031C72.2969 521.836 72.3086 521.73 72.3164 521.715H72.1875C72.0391 522.066 71.9023 522.359 71.7773 522.594C71.6523 522.82 71.4883 523.09 71.2852 523.402L69.3867 526.227H72.2109Z" fill="#F9F6EE"/>
<path d="M48.8906 565.891C48.8906 566.568 48.724 567.151 48.3906 567.641C48.0625 568.13 47.5885 568.505 46.9688 568.766C46.3542 569.026 45.6198 569.156 44.7656 569.156C44.349 569.156 43.9505 569.133 43.5703 569.086C43.1901 569.039 42.8307 568.971 42.4922 568.883C42.1589 568.789 41.8542 568.677 41.5781 568.547V566.781C42.0417 566.984 42.5599 567.169 43.1328 567.336C43.7057 567.497 44.2891 567.578 44.8828 567.578C45.3672 567.578 45.7682 567.516 46.0859 567.391C46.4089 567.26 46.6484 567.078 46.8047 566.844C46.9609 566.604 47.0391 566.326 47.0391 566.008C47.0391 565.669 46.9479 565.383 46.7656 565.148C46.5833 564.914 46.3073 564.701 45.9375 564.508C45.5729 564.31 45.1146 564.099 44.5625 563.875C44.1875 563.724 43.8281 563.552 43.4844 563.359C43.1458 563.167 42.8438 562.94 42.5781 562.68C42.3125 562.419 42.1016 562.112 41.9453 561.758C41.7943 561.398 41.7188 560.977 41.7188 560.492C41.7188 559.846 41.8724 559.294 42.1797 558.836C42.4922 558.378 42.9297 558.026 43.4922 557.781C44.0599 557.536 44.7214 557.414 45.4766 557.414C46.0755 557.414 46.638 557.477 47.1641 557.602C47.6953 557.727 48.2161 557.904 48.7266 558.133L48.1328 559.641C47.6641 559.448 47.2083 559.294 46.7656 559.18C46.3281 559.065 45.8802 559.008 45.4219 559.008C45.026 559.008 44.6901 559.068 44.4141 559.188C44.138 559.307 43.9271 559.477 43.7812 559.695C43.6406 559.909 43.5703 560.164 43.5703 560.461C43.5703 560.794 43.651 561.076 43.8125 561.305C43.9792 561.529 44.2344 561.734 44.5781 561.922C44.9271 562.109 45.375 562.318 45.9219 562.547C46.5521 562.807 47.0859 563.081 47.5234 563.367C47.9661 563.654 48.3047 563.997 48.5391 564.398C48.7734 564.794 48.8906 565.292 48.8906 565.891ZM54.3516 560.188C55.1224 560.188 55.7839 560.346 56.3359 560.664C56.888 560.982 57.3125 561.432 57.6094 562.016C57.9062 562.599 58.0547 563.297 58.0547 564.109V565.094H52.2812C52.3021 565.932 52.526 566.578 52.9531 567.031C53.3854 567.484 53.9896 567.711 54.7656 567.711C55.3177 567.711 55.8125 567.659 56.25 567.555C56.6927 567.445 57.1484 567.286 57.6172 567.078V568.57C57.1849 568.773 56.7448 568.922 56.2969 569.016C55.849 569.109 55.3125 569.156 54.6875 569.156C53.8385 569.156 53.0911 568.992 52.4453 568.664C51.8047 568.331 51.3021 567.836 50.9375 567.18C50.5781 566.523 50.3984 565.708 50.3984 564.734C50.3984 563.766 50.5625 562.943 50.8906 562.266C51.2188 561.589 51.6797 561.073 52.2734 560.719C52.8672 560.365 53.5599 560.188 54.3516 560.188ZM54.3516 561.57C53.7734 561.57 53.3047 561.758 52.9453 562.133C52.5911 562.508 52.3828 563.057 52.3203 563.781H56.2578C56.2526 563.349 56.1797 562.966 56.0391 562.633C55.9036 562.299 55.6953 562.039 55.4141 561.852C55.138 561.664 54.7839 561.57 54.3516 561.57ZM63.6094 569.156C62.7917 569.156 62.0833 568.997 61.4844 568.68C60.8854 568.362 60.4245 567.875 60.1016 567.219C59.7786 566.562 59.6172 565.729 59.6172 564.719C59.6172 563.667 59.7943 562.807 60.1484 562.141C60.5026 561.474 60.9922 560.982 61.6172 560.664C62.2474 560.346 62.9688 560.188 63.7812 560.188C64.2969 560.188 64.763 560.24 65.1797 560.344C65.6016 560.443 65.9583 560.565 66.25 560.711L65.7031 562.18C65.3854 562.049 65.0599 561.94 64.7266 561.852C64.3932 561.763 64.0729 561.719 63.7656 561.719C63.2604 561.719 62.8385 561.831 62.5 562.055C62.1667 562.279 61.9167 562.612 61.75 563.055C61.5885 563.497 61.5078 564.047 61.5078 564.703C61.5078 565.339 61.5911 565.875 61.7578 566.312C61.9245 566.745 62.1719 567.073 62.5 567.297C62.8281 567.516 63.2318 567.625 63.7109 567.625C64.1849 567.625 64.6094 567.568 64.9844 567.453C65.3594 567.339 65.7135 567.19 66.0469 567.008V568.602C65.7188 568.789 65.3672 568.927 64.9922 569.016C64.6172 569.109 64.1562 569.156 63.6094 569.156ZM75.6172 560.352V569H74.1719L73.9219 567.836H73.8203C73.638 568.133 73.4062 568.38 73.125 568.578C72.8438 568.771 72.5312 568.914 72.1875 569.008C71.8438 569.107 71.4818 569.156 71.1016 569.156C70.4505 569.156 69.8932 569.047 69.4297 568.828C68.9714 568.604 68.6198 568.26 68.375 567.797C68.1302 567.333 68.0078 566.734 68.0078 566V560.352H69.8516V565.656C69.8516 566.328 69.987 566.831 70.2578 567.164C70.5339 567.497 70.9609 567.664 71.5391 567.664C72.0964 567.664 72.5391 567.549 72.8672 567.32C73.1953 567.091 73.4271 566.753 73.5625 566.305C73.7031 565.857 73.7734 565.307 73.7734 564.656V560.352H75.6172ZM82.6328 560.188C82.7786 560.188 82.9375 560.195 83.1094 560.211C83.2812 560.227 83.4297 560.247 83.5547 560.273L83.3828 561.992C83.2734 561.961 83.138 561.938 82.9766 561.922C82.8203 561.906 82.6797 561.898 82.5547 561.898C82.2266 561.898 81.9141 561.953 81.6172 562.062C81.3203 562.167 81.0573 562.328 80.8281 562.547C80.599 562.76 80.4193 563.029 80.2891 563.352C80.1589 563.674 80.0938 564.049 80.0938 564.477V569H78.25V560.352H79.6875L79.9375 561.875H80.0234C80.1953 561.568 80.4089 561.286 80.6641 561.031C80.9193 560.776 81.2109 560.573 81.5391 560.422C81.8724 560.266 82.237 560.188 82.6328 560.188ZM86.9922 560.352V569H85.1562V560.352H86.9922ZM86.0859 557.039C86.3672 557.039 86.6094 557.115 86.8125 557.266C87.0208 557.417 87.125 557.677 87.125 558.047C87.125 558.411 87.0208 558.672 86.8125 558.828C86.6094 558.979 86.3672 559.055 86.0859 559.055C85.7943 559.055 85.5469 558.979 85.3438 558.828C85.1458 558.672 85.0469 558.411 85.0469 558.047C85.0469 557.677 85.1458 557.417 85.3438 557.266C85.5469 557.115 85.7943 557.039 86.0859 557.039ZM92.8438 567.672C93.0833 567.672 93.3203 567.651 93.5547 567.609C93.7891 567.562 94.0026 567.508 94.1953 567.445V568.836C93.9922 568.924 93.7292 569 93.4062 569.062C93.0833 569.125 92.7474 569.156 92.3984 569.156C91.9089 569.156 91.4688 569.076 91.0781 568.914C90.6875 568.747 90.3776 568.464 90.1484 568.062C89.9193 567.661 89.8047 567.107 89.8047 566.398V561.75H88.625V560.93L89.8906 560.281L90.4922 558.43H91.6484V560.352H94.125V561.75H91.6484V566.375C91.6484 566.812 91.7578 567.138 91.9766 567.352C92.1953 567.565 92.4844 567.672 92.8438 567.672ZM94.6484 560.352H96.6484L98.4219 565.289C98.5 565.513 98.5703 565.734 98.6328 565.953C98.7005 566.167 98.7578 566.378 98.8047 566.586C98.8568 566.794 98.8984 567.003 98.9297 567.211H98.9766C99.0286 566.94 99.1016 566.638 99.1953 566.305C99.2943 565.966 99.4036 565.628 99.5234 565.289L101.227 560.352H103.203L99.4922 570.188C99.2786 570.75 99.0156 571.229 98.7031 571.625C98.3958 572.026 98.0312 572.328 97.6094 572.531C97.1875 572.74 96.7057 572.844 96.1641 572.844C95.9036 572.844 95.6771 572.828 95.4844 572.797C95.2917 572.771 95.1276 572.742 94.9922 572.711V571.242C95.1016 571.268 95.2396 571.292 95.4062 571.312C95.5729 571.333 95.7448 571.344 95.9219 571.344C96.25 571.344 96.5339 571.279 96.7734 571.148C97.013 571.018 97.2161 570.833 97.3828 570.594C97.5495 570.359 97.6875 570.091 97.7969 569.789L98.1016 568.977L94.6484 560.352ZM56.125 585.18C56.125 586.466 55.8854 587.542 55.4062 588.406C54.9271 589.266 54.2318 589.914 53.3203 590.352C52.4089 590.784 51.3099 591 50.0234 591H46.8516V579.578H50.3672C51.5495 579.578 52.5703 579.792 53.4297 580.219C54.2891 580.641 54.9531 581.268 55.4219 582.102C55.8906 582.93 56.125 583.956 56.125 585.18ZM54.1719 585.234C54.1719 584.297 54.0234 583.526 53.7266 582.922C53.4349 582.318 53.0026 581.87 52.4297 581.578C51.862 581.281 51.1615 581.133 50.3281 581.133H48.7266V589.43H50.0547C51.4349 589.43 52.4661 589.078 53.1484 588.375C53.8307 587.672 54.1719 586.625 54.1719 585.234ZM61.8438 582.188C62.6146 582.188 63.276 582.346 63.8281 582.664C64.3802 582.982 64.8047 583.432 65.1016 584.016C65.3984 584.599 65.5469 585.297 65.5469 586.109V587.094H59.7734C59.7943 587.932 60.0182 588.578 60.4453 589.031C60.8776 589.484 61.4818 589.711 62.2578 589.711C62.8099 589.711 63.3047 589.659 63.7422 589.555C64.1849 589.445 64.6406 589.286 65.1094 589.078V590.57C64.6771 590.773 64.237 590.922 63.7891 591.016C63.3411 591.109 62.8047 591.156 62.1797 591.156C61.3307 591.156 60.5833 590.992 59.9375 590.664C59.2969 590.331 58.7943 589.836 58.4297 589.18C58.0703 588.523 57.8906 587.708 57.8906 586.734C57.8906 585.766 58.0547 584.943 58.3828 584.266C58.7109 583.589 59.1719 583.073 59.7656 582.719C60.3594 582.365 61.0521 582.188 61.8438 582.188ZM61.8438 583.57C61.2656 583.57 60.7969 583.758 60.4375 584.133C60.0833 584.508 59.875 585.057 59.8125 585.781H63.75C63.7448 585.349 63.6719 584.966 63.5312 584.633C63.3958 584.299 63.1875 584.039 62.9062 583.852C62.6302 583.664 62.276 583.57 61.8438 583.57ZM70.8359 589.672C71.0755 589.672 71.3125 589.651 71.5469 589.609C71.7812 589.562 71.9948 589.508 72.1875 589.445V590.836C71.9844 590.924 71.7214 591 71.3984 591.062C71.0755 591.125 70.7396 591.156 70.3906 591.156C69.901 591.156 69.4609 591.076 69.0703 590.914C68.6797 590.747 68.3698 590.464 68.1406 590.062C67.9115 589.661 67.7969 589.107 67.7969 588.398V583.75H66.6172V582.93L67.8828 582.281L68.4844 580.43H69.6406V582.352H72.1172V583.75H69.6406V588.375C69.6406 588.812 69.75 589.138 69.9688 589.352C70.1875 589.565 70.4766 589.672 70.8359 589.672ZM77.3359 582.188C78.4297 582.188 79.2552 582.43 79.8125 582.914C80.375 583.398 80.6562 584.154 80.6562 585.18V591H79.3516L79 589.773H78.9375C78.6927 590.086 78.4401 590.344 78.1797 590.547C77.9193 590.75 77.6172 590.901 77.2734 591C76.9349 591.104 76.5208 591.156 76.0312 591.156C75.5156 591.156 75.0547 591.062 74.6484 590.875C74.2422 590.682 73.9219 590.391 73.6875 590C73.4531 589.609 73.3359 589.115 73.3359 588.516C73.3359 587.625 73.6667 586.956 74.3281 586.508C74.9948 586.06 76 585.812 77.3438 585.766L78.8438 585.711V585.258C78.8438 584.659 78.7031 584.232 78.4219 583.977C78.1458 583.721 77.7552 583.594 77.25 583.594C76.8177 583.594 76.3984 583.656 75.9922 583.781C75.5859 583.906 75.1901 584.06 74.8047 584.242L74.2109 582.945C74.6328 582.721 75.112 582.539 75.6484 582.398C76.1901 582.258 76.7526 582.188 77.3359 582.188ZM78.8359 586.867L77.7188 586.906C76.8021 586.938 76.1589 587.094 75.7891 587.375C75.4193 587.656 75.2344 588.042 75.2344 588.531C75.2344 588.958 75.362 589.271 75.6172 589.469C75.8724 589.661 76.2083 589.758 76.625 589.758C77.2604 589.758 77.7865 589.578 78.2031 589.219C78.625 588.854 78.8359 588.32 78.8359 587.617V586.867ZM85.0625 582.352V591H83.2266V582.352H85.0625ZM84.1562 579.039C84.4375 579.039 84.6797 579.115 84.8828 579.266C85.0911 579.417 85.1953 579.677 85.1953 580.047C85.1953 580.411 85.0911 580.672 84.8828 580.828C84.6797 580.979 84.4375 581.055 84.1562 581.055C83.8646 581.055 83.6172 580.979 83.4141 580.828C83.2161 580.672 83.1172 580.411 83.1172 580.047C83.1172 579.677 83.2161 579.417 83.4141 579.266C83.6172 579.115 83.8646 579.039 84.1562 579.039ZM89.5391 591H87.6953V578.844H89.5391V591ZM97.9766 588.531C97.9766 589.099 97.8385 589.578 97.5625 589.969C97.2865 590.359 96.8828 590.656 96.3516 590.859C95.8255 591.057 95.1797 591.156 94.4141 591.156C93.8099 591.156 93.2891 591.112 92.8516 591.023C92.4193 590.94 92.0104 590.81 91.625 590.633V589.047C92.0365 589.24 92.4974 589.406 93.0078 589.547C93.5234 589.688 94.0104 589.758 94.4688 589.758C95.0729 589.758 95.5078 589.664 95.7734 589.477C96.0391 589.284 96.1719 589.029 96.1719 588.711C96.1719 588.523 96.1172 588.357 96.0078 588.211C95.9036 588.06 95.7057 587.906 95.4141 587.75C95.1276 587.589 94.7057 587.396 94.1484 587.172C93.6016 586.953 93.1406 586.734 92.7656 586.516C92.3906 586.297 92.1068 586.034 91.9141 585.727C91.7214 585.414 91.625 585.016 91.625 584.531C91.625 583.766 91.9271 583.185 92.5312 582.789C93.1406 582.388 93.9453 582.188 94.9453 582.188C95.4766 582.188 95.9766 582.242 96.4453 582.352C96.9193 582.456 97.3828 582.609 97.8359 582.812L97.2578 584.195C96.8672 584.023 96.474 583.883 96.0781 583.773C95.6875 583.659 95.2891 583.602 94.8828 583.602C94.4089 583.602 94.0469 583.674 93.7969 583.82C93.5521 583.966 93.4297 584.174 93.4297 584.445C93.4297 584.648 93.4896 584.82 93.6094 584.961C93.7292 585.102 93.9349 585.242 94.2266 585.383C94.5234 585.523 94.9349 585.698 95.4609 585.906C95.9766 586.104 96.4219 586.312 96.7969 586.531C97.1771 586.745 97.4688 587.008 97.6719 587.32C97.875 587.633 97.9766 588.036 97.9766 588.531Z" fill="#F9F6EE"/>
<line x1="73.5" y1="604" x2="73.5" y2="654" stroke="#F9F6EE" stroke-width="3"/>
<circle cx="72" cy="682" r="19.5" stroke="#F9F6EE"/>
<path d="M72.75 679.773C73.7031 679.773 74.5703 679.988 75.3516 680.418C76.1328 680.848 76.7578 681.473 77.2266 682.293C77.6953 683.113 77.9297 684.113 77.9297 685.293C77.9297 686.566 77.6719 687.648 77.1562 688.539C76.6484 689.422 75.8789 690.094 74.8477 690.555C73.8242 691.008 72.5312 691.234 70.9688 691.234C69.9766 691.234 69.0703 691.156 68.25 691C67.4375 690.852 66.7109 690.621 66.0703 690.309V686.512C66.6719 686.785 67.3945 687.035 68.2383 687.262C69.0898 687.48 69.8711 687.59 70.582 687.59C71.1523 687.59 71.6367 687.508 72.0352 687.344C72.4336 687.18 72.7344 686.938 72.9375 686.617C73.1484 686.297 73.2539 685.902 73.2539 685.434C73.2539 684.785 73.0195 684.277 72.5508 683.91C72.082 683.535 71.3711 683.348 70.418 683.348C69.9883 683.348 69.5664 683.391 69.1523 683.477C68.7383 683.562 68.375 683.656 68.0625 683.758L66.3633 682.914L67.0078 673.867H76.7812V677.723H70.9453L70.7344 679.984C70.9844 679.938 71.2383 679.891 71.4961 679.844C71.7617 679.797 72.1797 679.773 72.75 679.773Z" fill="#F9F6EE"/>
<path d="M46.1953 715.578C47.6693 715.578 48.7448 715.88 49.4219 716.484C50.099 717.089 50.4375 717.935 50.4375 719.023C50.4375 719.518 50.3594 719.99 50.2031 720.438C50.0521 720.88 49.8021 721.273 49.4531 721.617C49.1042 721.956 48.6432 722.224 48.0703 722.422C47.5026 722.62 46.8021 722.719 45.9688 722.719H44.75V727H42.875V715.578H46.1953ZM46.0703 717.133H44.75V721.156H45.7734C46.362 721.156 46.862 721.089 47.2734 720.953C47.6849 720.812 47.9974 720.591 48.2109 720.289C48.4245 719.987 48.5312 719.589 48.5312 719.094C48.5312 718.432 48.3307 717.94 47.9297 717.617C47.5339 717.294 46.9141 717.133 46.0703 717.133ZM56.9141 718.188C57.0599 718.188 57.2188 718.195 57.3906 718.211C57.5625 718.227 57.7109 718.247 57.8359 718.273L57.6641 719.992C57.5547 719.961 57.4193 719.938 57.2578 719.922C57.1016 719.906 56.9609 719.898 56.8359 719.898C56.5078 719.898 56.1953 719.953 55.8984 720.062C55.6016 720.167 55.3385 720.328 55.1094 720.547C54.8802 720.76 54.7005 721.029 54.5703 721.352C54.4401 721.674 54.375 722.049 54.375 722.477V727H52.5312V718.352H53.9688L54.2188 719.875H54.3047C54.4766 719.568 54.6901 719.286 54.9453 719.031C55.2005 718.776 55.4922 718.573 55.8203 718.422C56.1536 718.266 56.5182 718.188 56.9141 718.188ZM62.8828 718.188C63.6536 718.188 64.3151 718.346 64.8672 718.664C65.4193 718.982 65.8438 719.432 66.1406 720.016C66.4375 720.599 66.5859 721.297 66.5859 722.109V723.094H60.8125C60.8333 723.932 61.0573 724.578 61.4844 725.031C61.9167 725.484 62.5208 725.711 63.2969 725.711C63.849 725.711 64.3438 725.659 64.7812 725.555C65.224 725.445 65.6797 725.286 66.1484 725.078V726.57C65.7161 726.773 65.276 726.922 64.8281 727.016C64.3802 727.109 63.8438 727.156 63.2188 727.156C62.3698 727.156 61.6224 726.992 60.9766 726.664C60.3359 726.331 59.8333 725.836 59.4688 725.18C59.1094 724.523 58.9297 723.708 58.9297 722.734C58.9297 721.766 59.0938 720.943 59.4219 720.266C59.75 719.589 60.2109 719.073 60.8047 718.719C61.3984 718.365 62.0911 718.188 62.8828 718.188ZM62.8828 719.57C62.3047 719.57 61.8359 719.758 61.4766 720.133C61.1224 720.508 60.9141 721.057 60.8516 721.781H64.7891C64.7839 721.349 64.7109 720.966 64.5703 720.633C64.4349 720.299 64.2266 720.039 63.9453 719.852C63.6693 719.664 63.3151 719.57 62.8828 719.57ZM70.6328 727L67.3438 718.352H69.2891L71.0703 723.43C71.1849 723.753 71.2891 724.102 71.3828 724.477C71.4766 724.852 71.5417 725.167 71.5781 725.422H71.6406C71.6771 725.156 71.7474 724.839 71.8516 724.469C71.9557 724.094 72.0625 723.747 72.1719 723.43L73.9531 718.352H75.8906L72.6016 727H70.6328ZM79.0391 718.352V727H77.2031V718.352H79.0391ZM78.1328 715.039C78.4141 715.039 78.6562 715.115 78.8594 715.266C79.0677 715.417 79.1719 715.677 79.1719 716.047C79.1719 716.411 79.0677 716.672 78.8594 716.828C78.6562 716.979 78.4141 717.055 78.1328 717.055C77.8411 717.055 77.5938 716.979 77.3906 716.828C77.1927 716.672 77.0938 716.411 77.0938 716.047C77.0938 715.677 77.1927 715.417 77.3906 715.266C77.5938 715.115 77.8411 715.039 78.1328 715.039ZM85.1172 718.188C85.888 718.188 86.5495 718.346 87.1016 718.664C87.6536 718.982 88.0781 719.432 88.375 720.016C88.6719 720.599 88.8203 721.297 88.8203 722.109V723.094H83.0469C83.0677 723.932 83.2917 724.578 83.7188 725.031C84.151 725.484 84.7552 725.711 85.5312 725.711C86.0833 725.711 86.5781 725.659 87.0156 725.555C87.4583 725.445 87.9141 725.286 88.3828 725.078V726.57C87.9505 726.773 87.5104 726.922 87.0625 727.016C86.6146 727.109 86.0781 727.156 85.4531 727.156C84.6042 727.156 83.8568 726.992 83.2109 726.664C82.5703 726.331 82.0677 725.836 81.7031 725.18C81.3438 724.523 81.1641 723.708 81.1641 722.734C81.1641 721.766 81.3281 720.943 81.6562 720.266C81.9844 719.589 82.4453 719.073 83.0391 718.719C83.6328 718.365 84.3255 718.188 85.1172 718.188ZM85.1172 719.57C84.5391 719.57 84.0703 719.758 83.7109 720.133C83.3568 720.508 83.1484 721.057 83.0859 721.781H87.0234C87.0182 721.349 86.9453 720.966 86.8047 720.633C86.6693 720.299 86.4609 720.039 86.1797 719.852C85.9036 719.664 85.5495 719.57 85.1172 719.57ZM97.9609 726.992L96.8672 722.969C96.8151 722.771 96.7526 722.531 96.6797 722.25C96.6068 721.969 96.5339 721.68 96.4609 721.383C96.388 721.081 96.3203 720.802 96.2578 720.547C96.2005 720.292 96.1562 720.094 96.125 719.953H96.0625C96.0365 720.094 95.9948 720.292 95.9375 720.547C95.8802 720.802 95.8151 721.081 95.7422 721.383C95.6693 721.685 95.5964 721.979 95.5234 722.266C95.4557 722.552 95.3932 722.797 95.3359 723L94.1875 726.992H92.1719L89.75 718.344H91.6094L92.7344 722.641C92.8073 722.932 92.8776 723.247 92.9453 723.586C93.0182 723.924 93.0807 724.247 93.1328 724.555C93.1849 724.862 93.224 725.115 93.25 725.312H93.3125C93.3333 725.172 93.362 724.995 93.3984 724.781C93.4349 724.562 93.4766 724.336 93.5234 724.102C93.5703 723.862 93.6172 723.638 93.6641 723.43C93.7109 723.216 93.7552 723.044 93.7969 722.914L95.125 718.344H97.1328L98.4062 722.914C98.4635 723.112 98.526 723.362 98.5938 723.664C98.6615 723.961 98.7214 724.26 98.7734 724.562C98.8307 724.859 98.8672 725.107 98.8828 725.305H98.9453C98.9661 725.128 99.0026 724.888 99.0547 724.586C99.112 724.279 99.1771 723.953 99.25 723.609C99.3229 723.26 99.3984 722.938 99.4766 722.641L100.625 718.344H102.453L100.016 726.992H97.9609ZM42.4688 743.18C42.4688 744.466 42.2292 745.542 41.75 746.406C41.2708 747.266 40.5755 747.914 39.6641 748.352C38.7526 748.784 37.6536 749 36.3672 749H33.1953V737.578H36.7109C37.8932 737.578 38.9141 737.792 39.7734 738.219C40.6328 738.641 41.2969 739.268 41.7656 740.102C42.2344 740.93 42.4688 741.956 42.4688 743.18ZM40.5156 743.234C40.5156 742.297 40.3672 741.526 40.0703 740.922C39.7786 740.318 39.3464 739.87 38.7734 739.578C38.2057 739.281 37.5052 739.133 36.6719 739.133H35.0703V747.43H36.3984C37.7786 747.43 38.8099 747.078 39.4922 746.375C40.1745 745.672 40.5156 744.625 40.5156 743.234ZM52.3984 744.656C52.3984 745.375 52.3047 746.013 52.1172 746.57C51.9297 747.128 51.6562 747.599 51.2969 747.984C50.9375 748.365 50.5052 748.656 50 748.859C49.4948 749.057 48.9245 749.156 48.2891 749.156C47.6953 749.156 47.151 749.057 46.6562 748.859C46.1615 748.656 45.7318 748.365 45.3672 747.984C45.0078 747.599 44.7292 747.128 44.5312 746.57C44.3333 746.013 44.2344 745.375 44.2344 744.656C44.2344 743.703 44.3984 742.896 44.7266 742.234C45.0599 741.568 45.5339 741.06 46.1484 740.711C46.763 740.362 47.4948 740.188 48.3438 740.188C49.1406 740.188 49.8438 740.362 50.4531 740.711C51.0625 741.06 51.5391 741.568 51.8828 742.234C52.2266 742.901 52.3984 743.708 52.3984 744.656ZM46.125 744.656C46.125 745.286 46.2005 745.826 46.3516 746.273C46.5078 746.721 46.7474 747.065 47.0703 747.305C47.3932 747.539 47.8099 747.656 48.3203 747.656C48.8307 747.656 49.2474 747.539 49.5703 747.305C49.8932 747.065 50.1302 746.721 50.2812 746.273C50.4323 745.826 50.5078 745.286 50.5078 744.656C50.5078 744.026 50.4323 743.492 50.2812 743.055C50.1302 742.612 49.8932 742.276 49.5703 742.047C49.2474 741.812 48.8281 741.695 48.3125 741.695C47.5521 741.695 46.9974 741.951 46.6484 742.461C46.2995 742.971 46.125 743.703 46.125 744.656ZM57.9922 749.156C57.1745 749.156 56.4661 748.997 55.8672 748.68C55.2682 748.362 54.8073 747.875 54.4844 747.219C54.1615 746.562 54 745.729 54 744.719C54 743.667 54.1771 742.807 54.5312 742.141C54.8854 741.474 55.375 740.982 56 740.664C56.6302 740.346 57.3516 740.188 58.1641 740.188C58.6797 740.188 59.1458 740.24 59.5625 740.344C59.9844 740.443 60.3411 740.565 60.6328 740.711L60.0859 742.18C59.7682 742.049 59.4427 741.94 59.1094 741.852C58.776 741.763 58.4557 741.719 58.1484 741.719C57.6432 741.719 57.2214 741.831 56.8828 742.055C56.5495 742.279 56.2995 742.612 56.1328 743.055C55.9714 743.497 55.8906 744.047 55.8906 744.703C55.8906 745.339 55.974 745.875 56.1406 746.312C56.3073 746.745 56.5547 747.073 56.8828 747.297C57.2109 747.516 57.6146 747.625 58.0938 747.625C58.5677 747.625 58.9922 747.568 59.3672 747.453C59.7422 747.339 60.0964 747.19 60.4297 747.008V748.602C60.1016 748.789 59.75 748.927 59.375 749.016C59 749.109 58.5391 749.156 57.9922 749.156ZM70 740.352V749H68.5547L68.3047 747.836H68.2031C68.0208 748.133 67.7891 748.38 67.5078 748.578C67.2266 748.771 66.9141 748.914 66.5703 749.008C66.2266 749.107 65.8646 749.156 65.4844 749.156C64.8333 749.156 64.276 749.047 63.8125 748.828C63.3542 748.604 63.0026 748.26 62.7578 747.797C62.513 747.333 62.3906 746.734 62.3906 746V740.352H64.2344V745.656C64.2344 746.328 64.3698 746.831 64.6406 747.164C64.9167 747.497 65.3438 747.664 65.9219 747.664C66.4792 747.664 66.9219 747.549 67.25 747.32C67.5781 747.091 67.8099 746.753 67.9453 746.305C68.0859 745.857 68.1562 745.307 68.1562 744.656V740.352H70ZM82.4062 740.188C83.375 740.188 84.1042 740.438 84.5938 740.938C85.0885 741.438 85.3359 742.24 85.3359 743.344V749H83.5V743.672C83.5 743.016 83.3724 742.521 83.1172 742.188C82.862 741.854 82.474 741.688 81.9531 741.688C81.224 741.688 80.6979 741.922 80.375 742.391C80.0573 742.854 79.8984 743.529 79.8984 744.414V749H78.0625V743.672C78.0625 743.234 78.0052 742.87 77.8906 742.578C77.7812 742.281 77.612 742.06 77.3828 741.914C77.1536 741.763 76.8646 741.688 76.5156 741.688C76.0104 741.688 75.6068 741.802 75.3047 742.031C75.0078 742.26 74.7943 742.599 74.6641 743.047C74.5339 743.49 74.4688 744.034 74.4688 744.68V749H72.6328V740.352H74.0625L74.3203 741.516H74.4219C74.599 741.214 74.8177 740.966 75.0781 740.773C75.3438 740.576 75.638 740.43 75.9609 740.336C76.2839 740.237 76.6198 740.188 76.9688 740.188C77.6146 740.188 78.1589 740.302 78.6016 740.531C79.0443 740.755 79.375 741.099 79.5938 741.562H79.7344C80.0052 741.094 80.3828 740.747 80.8672 740.523C81.3516 740.299 81.8646 740.188 82.4062 740.188ZM91.3438 740.188C92.1146 740.188 92.776 740.346 93.3281 740.664C93.8802 740.982 94.3047 741.432 94.6016 742.016C94.8984 742.599 95.0469 743.297 95.0469 744.109V745.094H89.2734C89.2943 745.932 89.5182 746.578 89.9453 747.031C90.3776 747.484 90.9818 747.711 91.7578 747.711C92.3099 747.711 92.8047 747.659 93.2422 747.555C93.6849 747.445 94.1406 747.286 94.6094 747.078V748.57C94.1771 748.773 93.737 748.922 93.2891 749.016C92.8411 749.109 92.3047 749.156 91.6797 749.156C90.8307 749.156 90.0833 748.992 89.4375 748.664C88.7969 748.331 88.2943 747.836 87.9297 747.18C87.5703 746.523 87.3906 745.708 87.3906 744.734C87.3906 743.766 87.5547 742.943 87.8828 742.266C88.2109 741.589 88.6719 741.073 89.2656 740.719C89.8594 740.365 90.5521 740.188 91.3438 740.188ZM91.3438 741.57C90.7656 741.57 90.2969 741.758 89.9375 742.133C89.5833 742.508 89.375 743.057 89.3125 743.781H93.25C93.2448 743.349 93.1719 742.966 93.0312 742.633C92.8958 742.299 92.6875 742.039 92.4062 741.852C92.1302 741.664 91.776 741.57 91.3438 741.57ZM101.625 740.188C102.599 740.188 103.357 740.44 103.898 740.945C104.445 741.445 104.719 742.25 104.719 743.359V749H102.883V743.703C102.883 743.031 102.745 742.529 102.469 742.195C102.193 741.857 101.766 741.688 101.188 741.688C100.349 741.688 99.7656 741.945 99.4375 742.461C99.1146 742.977 98.9531 743.724 98.9531 744.703V749H97.1172V740.352H98.5469L98.8047 741.523H98.9062C99.0938 741.221 99.3255 740.974 99.6016 740.781C99.8828 740.583 100.195 740.435 100.539 740.336C100.888 740.237 101.25 740.188 101.625 740.188ZM110.508 747.672C110.747 747.672 110.984 747.651 111.219 747.609C111.453 747.562 111.667 747.508 111.859 747.445V748.836C111.656 748.924 111.393 749 111.07 749.062C110.747 749.125 110.411 749.156 110.062 749.156C109.573 749.156 109.133 749.076 108.742 748.914C108.352 748.747 108.042 748.464 107.812 748.062C107.583 747.661 107.469 747.107 107.469 746.398V741.75H106.289V740.93L107.555 740.281L108.156 738.43H109.312V740.352H111.789V741.75H109.312V746.375C109.312 746.812 109.422 747.138 109.641 747.352C109.859 747.565 110.148 747.672 110.508 747.672Z" fill="#F9F6EE"/>
</svg>
