<svg width="175" height="48" viewBox="0 0 175 48" fill="none" xmlns="http://www.w3.org/2000/svg">
<rect width="175" height="48" rx="8" fill="#0055CC"/>
<path d="M49.536 17.528V22.424H55.296V24.656H49.536V29.768H56.016V32H46.8V15.296H56.016V17.528H49.536ZM75.3939 18.56C76.4339 18.56 77.3619 18.776 78.1779 19.208C79.0099 19.64 79.6579 20.28 80.1219 21.128C80.6019 21.976 80.8419 23 80.8419 24.2V32H78.1299V24.608C78.1299 23.424 77.8339 22.52 77.2419 21.896C76.6499 21.256 75.8419 20.936 74.8179 20.936C73.7939 20.936 72.9779 21.256 72.3699 21.896C71.7779 22.52 71.4819 23.424 71.4819 24.608V32H68.7699V24.608C68.7699 23.424 68.4739 22.52 67.8819 21.896C67.2899 21.256 66.4819 20.936 65.4579 20.936C64.4339 20.936 63.6179 21.256 63.0099 21.896C62.4179 22.52 62.1219 23.424 62.1219 24.608V32H59.3859V18.776H62.1219V20.288C62.5699 19.744 63.1379 19.32 63.8259 19.016C64.5139 18.712 65.2499 18.56 66.0339 18.56C67.0899 18.56 68.0339 18.784 68.8659 19.232C69.6979 19.68 70.3379 20.328 70.7859 21.176C71.1859 20.376 71.8099 19.744 72.6579 19.28C73.5059 18.8 74.4179 18.56 75.3939 18.56ZM87.0594 20.744C87.5234 20.104 88.1554 19.584 88.9554 19.184C89.7714 18.768 90.6754 18.56 91.6674 18.56C92.8354 18.56 93.8914 18.84 94.8354 19.4C95.7794 19.96 96.5234 20.76 97.0674 21.8C97.6114 22.824 97.8834 24 97.8834 25.328C97.8834 26.656 97.6114 27.848 97.0674 28.904C96.5234 29.944 95.7714 30.76 94.8114 31.352C93.8674 31.928 92.8194 32.216 91.6674 32.216C90.6434 32.216 89.7314 32.016 88.9314 31.616C88.1474 31.216 87.5234 30.704 87.0594 30.08V32H84.3234V14.24H87.0594V20.744ZM95.0994 25.328C95.0994 24.416 94.9074 23.632 94.5234 22.976C94.1554 22.304 93.6594 21.8 93.0354 21.464C92.4274 21.112 91.7714 20.936 91.0674 20.936C90.3794 20.936 89.7234 21.112 89.0994 21.464C88.4914 21.816 87.9954 22.328 87.6114 23C87.2434 23.672 87.0594 24.464 87.0594 25.376C87.0594 26.288 87.2434 27.088 87.6114 27.776C87.9954 28.448 88.4914 28.96 89.0994 29.312C89.7234 29.664 90.3794 29.84 91.0674 29.84C91.7714 29.84 92.4274 29.664 93.0354 29.312C93.6594 28.944 94.1554 28.416 94.5234 27.728C94.9074 27.04 95.0994 26.24 95.0994 25.328ZM112.709 25.064C112.709 25.56 112.677 26.008 112.613 26.408H102.509C102.589 27.464 102.981 28.312 103.685 28.952C104.389 29.592 105.253 29.912 106.277 29.912C107.749 29.912 108.789 29.296 109.397 28.064H112.349C111.949 29.28 111.221 30.28 110.165 31.064C109.125 31.832 107.829 32.216 106.277 32.216C105.013 32.216 103.877 31.936 102.869 31.376C101.877 30.8 101.093 30 100.517 28.976C99.9571 27.936 99.6771 26.736 99.6771 25.376C99.6771 24.016 99.9491 22.824 100.493 21.8C101.053 20.76 101.829 19.96 102.821 19.4C103.829 18.84 104.981 18.56 106.277 18.56C107.525 18.56 108.637 18.832 109.613 19.376C110.589 19.92 111.349 20.688 111.893 21.68C112.437 22.656 112.709 23.784 112.709 25.064ZM109.853 24.2C109.837 23.192 109.477 22.384 108.773 21.776C108.069 21.168 107.197 20.864 106.157 20.864C105.213 20.864 104.405 21.168 103.733 21.776C103.061 22.368 102.661 23.176 102.533 24.2H109.853ZM114.49 25.328C114.49 24 114.762 22.824 115.306 21.8C115.866 20.776 116.618 19.984 117.562 19.424C118.522 18.848 119.586 18.56 120.754 18.56C121.618 18.56 122.466 18.752 123.298 19.136C124.146 19.504 124.818 20 125.314 20.624V14.24H128.074V32H125.314V30.008C124.866 30.648 124.242 31.176 123.442 31.592C122.658 32.008 121.754 32.216 120.73 32.216C119.578 32.216 118.522 31.928 117.562 31.352C116.618 30.76 115.866 29.944 115.306 28.904C114.762 27.848 114.49 26.656 114.49 25.328ZM125.314 25.376C125.314 24.464 125.122 23.672 124.738 23C124.37 22.328 123.882 21.816 123.274 21.464C122.666 21.112 122.01 20.936 121.306 20.936C120.602 20.936 119.946 21.112 119.338 21.464C118.73 21.8 118.234 22.304 117.85 22.976C117.482 23.632 117.298 24.416 117.298 25.328C117.298 26.24 117.482 27.04 117.85 27.728C118.234 28.416 118.73 28.944 119.338 29.312C119.962 29.664 120.618 29.84 121.306 29.84C122.01 29.84 122.666 29.664 123.274 29.312C123.882 28.96 124.37 28.448 124.738 27.776C125.122 27.088 125.314 26.288 125.314 25.376Z" fill="#F9F6EE"/>
</svg>
