<svg width="412" height="72" viewBox="0 0 412 72" fill="none" xmlns="http://www.w3.org/2000/svg">
<rect x="0.5" width="411" height="72" rx="8" fill="#0066F5"/>
<path d="M54.782 30.48C54.142 29.3067 53.262 28.4133 52.142 27.8C51.022 27.1867 49.7154 26.88 48.222 26.88C46.5687 26.88 45.102 27.2533 43.822 28C42.542 28.7467 41.542 29.8133 40.822 31.2C40.102 32.5867 39.742 34.1867 39.742 36C39.742 37.8667 40.102 39.4933 40.822 40.88C41.5687 42.2667 42.5954 43.3333 43.902 44.08C45.2087 44.8267 46.7287 45.2 48.462 45.2C50.5954 45.2 52.342 44.64 53.702 43.52C55.062 42.3733 55.9554 40.7867 56.382 38.76H46.782V34.48H61.902V39.36C61.5287 41.3067 60.7287 43.1067 59.502 44.76C58.2754 46.4133 56.6887 47.7467 54.742 48.76C52.822 49.7467 50.662 50.24 48.262 50.24C45.5687 50.24 43.1287 49.64 40.942 48.44C38.782 47.2133 37.0754 45.52 35.822 43.36C34.5954 41.2 33.982 38.7467 33.982 36C33.982 33.2533 34.5954 30.8 35.822 28.64C37.0754 26.4533 38.782 24.76 40.942 23.56C43.1287 22.3333 45.5554 21.72 48.222 21.72C51.3687 21.72 54.102 22.4933 56.422 24.04C58.742 25.56 60.342 27.7067 61.222 30.48H54.782ZM75.8852 50.36C73.7518 50.36 71.8318 49.8933 70.1252 48.96C68.4185 48 67.0718 46.6533 66.0852 44.92C65.1252 43.1867 64.6452 41.1867 64.6452 38.92C64.6452 36.6533 65.1385 34.6533 66.1252 32.92C67.1385 31.1867 68.5118 29.8533 70.2452 28.92C71.9785 27.96 73.9118 27.48 76.0452 27.48C78.1785 27.48 80.1118 27.96 81.8452 28.92C83.5785 29.8533 84.9385 31.1867 85.9252 32.92C86.9385 34.6533 87.4452 36.6533 87.4452 38.92C87.4452 41.1867 86.9252 43.1867 85.8852 44.92C84.8718 46.6533 83.4852 48 81.7252 48.96C79.9918 49.8933 78.0452 50.36 75.8852 50.36ZM75.8852 45.48C76.8985 45.48 77.8452 45.24 78.7252 44.76C79.6318 44.2533 80.3518 43.5067 80.8852 42.52C81.4185 41.5333 81.6852 40.3333 81.6852 38.92C81.6852 36.8133 81.1252 35.2 80.0052 34.08C78.9118 32.9333 77.5652 32.36 75.9652 32.36C74.3652 32.36 73.0185 32.9333 71.9252 34.08C70.8585 35.2 70.3252 36.8133 70.3252 38.92C70.3252 41.0267 70.8452 42.6533 71.8852 43.8C72.9518 44.92 74.2852 45.48 75.8852 45.48ZM116.924 35.68C118.498 35.9733 119.791 36.76 120.804 38.04C121.818 39.32 122.324 40.7867 122.324 42.44C122.324 43.9333 121.951 45.2533 121.204 46.4C120.484 47.52 119.431 48.4 118.044 49.04C116.658 49.68 115.018 50 113.124 50H101.084V22.08H112.604C114.498 22.08 116.124 22.3867 117.484 23C118.871 23.6133 119.911 24.4667 120.604 25.56C121.324 26.6533 121.684 27.8933 121.684 29.28C121.684 30.9067 121.244 32.2667 120.364 33.36C119.511 34.4533 118.364 35.2267 116.924 35.68ZM106.684 33.6H111.804C113.138 33.6 114.164 33.3067 114.884 32.72C115.604 32.1067 115.964 31.24 115.964 30.12C115.964 29 115.604 28.1333 114.884 27.52C114.164 26.9067 113.138 26.6 111.804 26.6H106.684V33.6ZM112.324 45.44C113.684 45.44 114.738 45.12 115.484 44.48C116.258 43.84 116.644 42.9333 116.644 41.76C116.644 40.56 116.244 39.6267 115.444 38.96C114.644 38.2667 113.564 37.92 112.204 37.92H106.684V45.44H112.324ZM125.347 38.84C125.347 36.6 125.787 34.6133 126.667 32.88C127.574 31.1467 128.787 29.8133 130.307 28.88C131.854 27.9467 133.574 27.48 135.467 27.48C137.121 27.48 138.561 27.8133 139.787 28.48C141.041 29.1467 142.041 29.9867 142.787 31V27.84H148.427V50H142.787V46.76C142.067 47.8 141.067 48.6667 139.787 49.36C138.534 50.0267 137.081 50.36 135.427 50.36C133.561 50.36 131.854 49.88 130.307 48.92C128.787 47.96 127.574 46.6133 126.667 44.88C125.787 43.12 125.347 41.1067 125.347 38.84ZM142.787 38.92C142.787 37.56 142.521 36.4 141.987 35.44C141.454 34.4533 140.734 33.7067 139.827 33.2C138.921 32.6667 137.947 32.4 136.907 32.4C135.867 32.4 134.907 32.6533 134.027 33.16C133.147 33.6667 132.427 34.4133 131.867 35.4C131.334 36.36 131.067 37.5067 131.067 38.84C131.067 40.1733 131.334 41.3467 131.867 42.36C132.427 43.3467 133.147 44.1067 134.027 44.64C134.934 45.1733 135.894 45.44 136.907 45.44C137.947 45.44 138.921 45.1867 139.827 44.68C140.734 44.1467 141.454 43.4 141.987 42.44C142.521 41.4533 142.787 40.28 142.787 38.92ZM152.457 38.92C152.457 36.6267 152.923 34.6267 153.857 32.92C154.79 31.1867 156.083 29.8533 157.737 28.92C159.39 27.96 161.283 27.48 163.417 27.48C166.163 27.48 168.43 28.1733 170.217 29.56C172.03 30.92 173.243 32.84 173.857 35.32H167.817C167.497 34.36 166.95 33.6133 166.177 33.08C165.43 32.52 164.497 32.24 163.377 32.24C161.777 32.24 160.51 32.8267 159.577 34C158.643 35.1467 158.177 36.7867 158.177 38.92C158.177 41.0267 158.643 42.6667 159.577 43.84C160.51 44.9867 161.777 45.56 163.377 45.56C165.643 45.56 167.123 44.5467 167.817 42.52H173.857C173.243 44.92 172.03 46.8267 170.217 48.24C168.403 49.6533 166.137 50.36 163.417 50.36C161.283 50.36 159.39 49.8933 157.737 48.96C156.083 48 154.79 46.6667 153.857 44.96C152.923 43.2267 152.457 41.2133 152.457 38.92ZM191.079 50L183.559 40.56V50H177.959V20.4H183.559V37.24L190.999 27.84H198.279L188.519 38.96L198.359 50H191.079ZM217.37 32.44V43.16C217.37 43.9067 217.543 44.4533 217.89 44.8C218.263 45.12 218.877 45.28 219.73 45.28H222.33V50H218.81C214.09 50 211.73 47.7067 211.73 43.12V32.44H209.09V27.84H211.73V22.36H217.37V27.84H222.33V32.44H217.37ZM236.198 50.36C234.064 50.36 232.144 49.8933 230.438 48.96C228.731 48 227.384 46.6533 226.398 44.92C225.438 43.1867 224.958 41.1867 224.958 38.92C224.958 36.6533 225.451 34.6533 226.438 32.92C227.451 31.1867 228.824 29.8533 230.558 28.92C232.291 27.96 234.224 27.48 236.358 27.48C238.491 27.48 240.424 27.96 242.158 28.92C243.891 29.8533 245.251 31.1867 246.238 32.92C247.251 34.6533 247.758 36.6533 247.758 38.92C247.758 41.1867 247.238 43.1867 246.198 44.92C245.184 46.6533 243.798 48 242.038 48.96C240.304 49.8933 238.358 50.36 236.198 50.36ZM236.198 45.48C237.211 45.48 238.158 45.24 239.038 44.76C239.944 44.2533 240.664 43.5067 241.198 42.52C241.731 41.5333 241.998 40.3333 241.998 38.92C241.998 36.8133 241.438 35.2 240.318 34.08C239.224 32.9333 237.878 32.36 236.278 32.36C234.678 32.36 233.331 32.9333 232.238 34.08C231.171 35.2 230.638 36.8133 230.638 38.92C230.638 41.0267 231.158 42.6533 232.198 43.8C233.264 44.92 234.598 45.48 236.198 45.48ZM284.557 22.08V50H278.957V38.12H266.997V50H261.397V22.08H266.997V33.56H278.957V22.08H284.557ZM299.909 50.36C297.775 50.36 295.855 49.8933 294.149 48.96C292.442 48 291.095 46.6533 290.109 44.92C289.149 43.1867 288.669 41.1867 288.669 38.92C288.669 36.6533 289.162 34.6533 290.149 32.92C291.162 31.1867 292.535 29.8533 294.269 28.92C296.002 27.96 297.935 27.48 300.069 27.48C302.202 27.48 304.135 27.96 305.869 28.92C307.602 29.8533 308.962 31.1867 309.949 32.92C310.962 34.6533 311.469 36.6533 311.469 38.92C311.469 41.1867 310.949 43.1867 309.909 44.92C308.895 46.6533 307.509 48 305.749 48.96C304.015 49.8933 302.069 50.36 299.909 50.36ZM299.909 45.48C300.922 45.48 301.869 45.24 302.749 44.76C303.655 44.2533 304.375 43.5067 304.909 42.52C305.442 41.5333 305.709 40.3333 305.709 38.92C305.709 36.8133 305.149 35.2 304.029 34.08C302.935 32.9333 301.589 32.36 299.989 32.36C298.389 32.36 297.042 32.9333 295.949 34.08C294.882 35.2 294.349 36.8133 294.349 38.92C294.349 41.0267 294.869 42.6533 295.909 43.8C296.975 44.92 298.309 45.48 299.909 45.48ZM343.096 27.52C345.816 27.52 348.003 28.36 349.656 30.04C351.336 31.6933 352.176 34.0133 352.176 37V50H346.576V37.76C346.576 36.0267 346.136 34.7067 345.256 33.8C344.376 32.8667 343.176 32.4 341.656 32.4C340.136 32.4 338.923 32.8667 338.016 33.8C337.136 34.7067 336.696 36.0267 336.696 37.76V50H331.096V37.76C331.096 36.0267 330.656 34.7067 329.776 33.8C328.896 32.8667 327.696 32.4 326.176 32.4C324.63 32.4 323.403 32.8667 322.496 33.8C321.616 34.7067 321.176 36.0267 321.176 37.76V50H315.576V27.84H321.176V30.52C321.896 29.5867 322.816 28.8533 323.936 28.32C325.083 27.7867 326.336 27.52 327.696 27.52C329.43 27.52 330.976 27.8933 332.336 28.64C333.696 29.36 334.75 30.4 335.496 31.76C336.216 30.48 337.256 29.4533 338.616 28.68C340.003 27.9067 341.496 27.52 343.096 27.52ZM378.09 38.44C378.09 39.24 378.037 39.96 377.93 40.6H361.73C361.864 42.2 362.424 43.4533 363.41 44.36C364.397 45.2667 365.61 45.72 367.05 45.72C369.13 45.72 370.61 44.8267 371.49 43.04H377.53C376.89 45.1733 375.664 46.9333 373.85 48.32C372.037 49.68 369.81 50.36 367.17 50.36C365.037 50.36 363.117 49.8933 361.41 48.96C359.73 48 358.41 46.6533 357.45 44.92C356.517 43.1867 356.05 41.1867 356.05 38.92C356.05 36.6267 356.517 34.6133 357.45 32.88C358.384 31.1467 359.69 29.8133 361.37 28.88C363.05 27.9467 364.984 27.48 367.17 27.48C369.277 27.48 371.157 27.9333 372.81 28.84C374.49 29.7467 375.784 31.04 376.69 32.72C377.624 34.3733 378.09 36.28 378.09 38.44ZM372.29 36.84C372.264 35.4 371.744 34.2533 370.73 33.4C369.717 32.52 368.477 32.08 367.01 32.08C365.624 32.08 364.45 32.5067 363.49 33.36C362.557 34.1867 361.984 35.3467 361.77 36.84H372.29Z" fill="#F9F6EE"/>
</svg>
