<svg width="175" height="48" viewBox="0 0 175 48" fill="none" xmlns="http://www.w3.org/2000/svg">
<rect width="175" height="48" rx="8" fill="#0055CC"/>
<path d="M59.296 32.168C58.176 32.168 57.168 31.976 56.272 31.592C55.376 31.192 54.672 30.632 54.16 29.912C53.648 29.192 53.392 28.352 53.392 27.392H56.32C56.384 28.112 56.664 28.704 57.16 29.168C57.672 29.632 58.384 29.864 59.296 29.864C60.24 29.864 60.976 29.64 61.504 29.192C62.032 28.728 62.296 28.136 62.296 27.416C62.296 26.856 62.128 26.4 61.792 26.048C61.472 25.696 61.064 25.424 60.568 25.232C60.088 25.04 59.416 24.832 58.552 24.608C57.464 24.32 56.576 24.032 55.888 23.744C55.216 23.44 54.64 22.976 54.16 22.352C53.68 21.728 53.44 20.896 53.44 19.856C53.44 18.896 53.68 18.056 54.16 17.336C54.64 16.616 55.312 16.064 56.176 15.68C57.04 15.296 58.04 15.104 59.176 15.104C60.792 15.104 62.112 15.512 63.136 16.328C64.176 17.128 64.752 18.232 64.864 19.64H61.84C61.792 19.032 61.504 18.512 60.976 18.08C60.448 17.648 59.752 17.432 58.888 17.432C58.104 17.432 57.464 17.632 56.968 18.032C56.472 18.432 56.224 19.008 56.224 19.76C56.224 20.272 56.376 20.696 56.68 21.032C57 21.352 57.4 21.608 57.88 21.8C58.36 21.992 59.016 22.2 59.848 22.424C60.952 22.728 61.848 23.032 62.536 23.336C63.24 23.64 63.832 24.112 64.312 24.752C64.808 25.376 65.056 26.216 65.056 27.272C65.056 28.12 64.824 28.92 64.36 29.672C63.912 30.424 63.248 31.032 62.368 31.496C61.504 31.944 60.48 32.168 59.296 32.168ZM75.1244 18.56C76.1324 18.56 77.0284 18.776 77.8124 19.208C78.6124 19.64 79.2364 20.28 79.6844 21.128C80.1484 21.976 80.3804 23 80.3804 24.2V32H77.6684V24.608C77.6684 23.424 77.3724 22.52 76.7804 21.896C76.1884 21.256 75.3804 20.936 74.3564 20.936C73.3324 20.936 72.5164 21.256 71.9084 21.896C71.3164 22.52 71.0204 23.424 71.0204 24.608V32H68.2844V14.24H71.0204V20.312C71.4844 19.752 72.0684 19.32 72.7724 19.016C73.4924 18.712 74.2764 18.56 75.1244 18.56ZM82.9583 25.328C82.9583 24 83.2303 22.824 83.7743 21.8C84.3343 20.776 85.0863 19.984 86.0303 19.424C86.9903 18.848 88.0463 18.56 89.1983 18.56C90.2383 18.56 91.1423 18.768 91.9103 19.184C92.6943 19.584 93.3183 20.088 93.7823 20.696V18.776H96.5423V32H93.7823V30.032C93.3183 30.656 92.6863 31.176 91.8863 31.592C91.0863 32.008 90.1743 32.216 89.1503 32.216C88.0143 32.216 86.9743 31.928 86.0303 31.352C85.0863 30.76 84.3343 29.944 83.7743 28.904C83.2303 27.848 82.9583 26.656 82.9583 25.328ZM93.7823 25.376C93.7823 24.464 93.5903 23.672 93.2063 23C92.8383 22.328 92.3503 21.816 91.7423 21.464C91.1343 21.112 90.4783 20.936 89.7743 20.936C89.0703 20.936 88.4143 21.112 87.8063 21.464C87.1983 21.8 86.7023 22.304 86.3183 22.976C85.9503 23.632 85.7663 24.416 85.7663 25.328C85.7663 26.24 85.9503 27.04 86.3183 27.728C86.7023 28.416 87.1983 28.944 87.8063 29.312C88.4303 29.664 89.0863 29.84 89.7743 29.84C90.4783 29.84 91.1343 29.664 91.7423 29.312C92.3503 28.96 92.8383 28.448 93.2063 27.776C93.5903 27.088 93.7823 26.288 93.7823 25.376ZM102.872 20.696C103.272 20.024 103.8 19.504 104.456 19.136C105.128 18.752 105.92 18.56 106.832 18.56V21.392H106.136C105.064 21.392 104.248 21.664 103.688 22.208C103.144 22.752 102.872 23.696 102.872 25.04V32H100.136V18.776H102.872V20.696ZM121.467 25.064C121.467 25.56 121.435 26.008 121.371 26.408H111.267C111.347 27.464 111.739 28.312 112.443 28.952C113.147 29.592 114.011 29.912 115.035 29.912C116.507 29.912 117.547 29.296 118.155 28.064H121.107C120.707 29.28 119.979 30.28 118.923 31.064C117.883 31.832 116.587 32.216 115.035 32.216C113.771 32.216 112.635 31.936 111.627 31.376C110.635 30.8 109.851 30 109.275 28.976C108.715 27.936 108.435 26.736 108.435 25.376C108.435 24.016 108.707 22.824 109.251 21.8C109.811 20.76 110.587 19.96 111.579 19.4C112.587 18.84 113.739 18.56 115.035 18.56C116.283 18.56 117.395 18.832 118.371 19.376C119.347 19.92 120.107 20.688 120.651 21.68C121.195 22.656 121.467 23.784 121.467 25.064ZM118.611 24.2C118.595 23.192 118.235 22.384 117.531 21.776C116.827 21.168 115.955 20.864 114.915 20.864C113.971 20.864 113.163 21.168 112.491 21.776C111.819 22.368 111.419 23.176 111.291 24.2H118.611Z" fill="#F9F6EE"/>
</svg>
