<svg width="175" height="48" viewBox="0 0 175 48" fill="none" xmlns="http://www.w3.org/2000/svg">
<rect width="175" height="48" rx="8" fill="#0055CC"/>
<path d="M54.536 17.528V22.424H60.296V24.656H54.536V29.768H61.016V32H51.8V15.296H61.016V17.528H54.536ZM70.0499 25.304L74.3219 32H71.2259L68.3699 27.512L65.6819 32H62.8259L67.0979 25.496L62.8259 18.776H65.9219L68.7779 23.264L71.4659 18.776H74.3219L70.0499 25.304ZM79.0985 20.72C79.5625 20.112 80.1945 19.6 80.9945 19.184C81.7945 18.768 82.6985 18.56 83.7065 18.56C84.8585 18.56 85.9065 18.848 86.8505 19.424C87.8105 19.984 88.5625 20.776 89.1065 21.8C89.6505 22.824 89.9225 24 89.9225 25.328C89.9225 26.656 89.6505 27.848 89.1065 28.904C88.5625 29.944 87.8105 30.76 86.8505 31.352C85.9065 31.928 84.8585 32.216 83.7065 32.216C82.6985 32.216 81.8025 32.016 81.0185 31.616C80.2345 31.2 79.5945 30.688 79.0985 30.08V38.288H76.3625V18.776H79.0985V20.72ZM87.1385 25.328C87.1385 24.416 86.9465 23.632 86.5625 22.976C86.1945 22.304 85.6985 21.8 85.0745 21.464C84.4665 21.112 83.8105 20.936 83.1065 20.936C82.4185 20.936 81.7625 21.112 81.1385 21.464C80.5305 21.816 80.0345 22.328 79.6505 23C79.2825 23.672 79.0985 24.464 79.0985 25.376C79.0985 26.288 79.2825 27.088 79.6505 27.776C80.0345 28.448 80.5305 28.96 81.1385 29.312C81.7625 29.664 82.4185 29.84 83.1065 29.84C83.8105 29.84 84.4665 29.664 85.0745 29.312C85.6985 28.944 86.1945 28.416 86.5625 27.728C86.9465 27.04 87.1385 26.24 87.1385 25.328ZM98.3641 32.216C97.1161 32.216 95.9881 31.936 94.9801 31.376C93.9721 30.8 93.1801 30 92.6041 28.976C92.0281 27.936 91.7401 26.736 91.7401 25.376C91.7401 24.032 92.0361 22.84 92.6281 21.8C93.2201 20.76 94.0281 19.96 95.0521 19.4C96.0761 18.84 97.2201 18.56 98.4841 18.56C99.7481 18.56 100.892 18.84 101.916 19.4C102.94 19.96 103.748 20.76 104.34 21.8C104.932 22.84 105.228 24.032 105.228 25.376C105.228 26.72 104.924 27.912 104.316 28.952C103.708 29.992 102.876 30.8 101.82 31.376C100.78 31.936 99.6281 32.216 98.3641 32.216ZM98.3641 29.84C99.0681 29.84 99.7241 29.672 100.332 29.336C100.956 29 101.46 28.496 101.844 27.824C102.228 27.152 102.42 26.336 102.42 25.376C102.42 24.416 102.236 23.608 101.868 22.952C101.5 22.28 101.012 21.776 100.404 21.44C99.7961 21.104 99.1401 20.936 98.4361 20.936C97.7321 20.936 97.0761 21.104 96.4681 21.44C95.8761 21.776 95.4041 22.28 95.0521 22.952C94.7001 23.608 94.5241 24.416 94.5241 25.376C94.5241 26.8 94.8841 27.904 95.6041 28.688C96.3401 29.456 97.2601 29.84 98.3641 29.84ZM110.669 20.696C111.069 20.024 111.597 19.504 112.253 19.136C112.925 18.752 113.717 18.56 114.629 18.56V21.392H113.933C112.861 21.392 112.045 21.664 111.485 22.208C110.941 22.752 110.669 23.696 110.669 25.04V32H107.933V18.776H110.669V20.696ZM120.336 21.008V28.328C120.336 28.824 120.448 29.184 120.672 29.408C120.912 29.616 121.312 29.72 121.872 29.72H123.552V32H121.392C120.16 32 119.216 31.712 118.56 31.136C117.904 30.56 117.576 29.624 117.576 28.328V21.008H116.016V18.776H117.576V15.488H120.336V18.776H123.552V21.008H120.336Z" fill="#F9F6EE"/>
</svg>
