<svg id="Layer_1" data-name="Layer 1" xmlns="http://www.w3.org/2000/svg" viewBox="0 0 250 66.96"><defs><style>.cls-1{fill:#0066f5;}</style></defs><title>Primary</title><path class="cls-1" d="M179.12,45h8.46v0a14.53,14.53,0,0,1-1.87,7.44,12.73,12.73,0,0,1-5.11,4.92,15.21,15.21,0,0,1-7.22,1.72,14.94,14.94,0,0,1-7.18-1.72,12.56,12.56,0,0,1-5-4.9A14.73,14.73,0,0,1,159.37,45v0h8.46v0a7.33,7.33,0,0,0,1.58,5.05,5.1,5.1,0,0,0,4,1.77,5.39,5.39,0,0,0,4.06-1.77A7,7,0,0,0,179.12,45Z"/><path class="cls-1" d="M50.67,16.37a14.47,14.47,0,0,0-7-1.66,14.62,14.62,0,0,0-7.15,1.71,12,12,0,0,0-4.84,4.91,15.41,15.41,0,0,0-1.73,7.45,15.28,15.28,0,0,0,1.75,7.45,12.24,12.24,0,0,0,4.87,4.91,14.48,14.48,0,0,0,7.1,1.71,14.19,14.19,0,0,0,6-1.22,12.51,12.51,0,0,0,4.45-3.38,12.28,12.28,0,0,0,2.45-4.86H47.7A4.37,4.37,0,0,1,43.37,36a4.93,4.93,0,0,1-3.52-1.35,5.72,5.72,0,0,1-1.64-3.9H57a21,21,0,0,0,.15-2.45,14.57,14.57,0,0,0-1.73-7.21A12,12,0,0,0,50.67,16.37ZM38.26,26.13A5.47,5.47,0,0,1,40,22.65a5.78,5.78,0,0,1,7.17.05,4.31,4.31,0,0,1,1.46,3.43Z"/><path class="cls-1" d="M73.53,16.1a9.41,9.41,0,0,1,4.87-1.29v8.87H76.11A7,7,0,0,0,71.44,25q-1.56,1.35-1.56,4.73v12.7H61.57V15.1h8.31v4.56A11.07,11.07,0,0,1,73.53,16.1Z"/><path class="cls-1" d="M125.07,17.89c2,2.06,3,4.92,3,8.59v16H119.8V27.6a5.69,5.69,0,0,0-1.39-4.09,5.76,5.76,0,0,0-7.64,0,5.65,5.65,0,0,0-1.39,4.09V42.46h-8.26V27.6a5.69,5.69,0,0,0-1.39-4.09,5.76,5.76,0,0,0-7.64,0A5.65,5.65,0,0,0,90.7,27.6V42.46H82.39V15.1H90.7v3.43A9,9,0,0,1,94,15.81a10.32,10.32,0,0,1,4.62-1,11.22,11.22,0,0,1,5.48,1.32,9.41,9.41,0,0,1,3.76,3.77,11.12,11.12,0,0,1,3.85-3.67,10.3,10.3,0,0,1,5.3-1.42A10.68,10.68,0,0,1,125.07,17.89Z"/><path class="cls-1" d="M154.46,30a7,7,0,0,1,1.48,4.54,7.26,7.26,0,0,1-1.34,4.29,8.75,8.75,0,0,1-3.84,3,14.6,14.6,0,0,1-5.82,1.08,15.43,15.43,0,0,1-6.32-1.22,10.85,10.85,0,0,1-4.38-3.36,8.86,8.86,0,0,1-1.8-4.78h8.22a3.19,3.19,0,0,0,1.32,2.3,4.59,4.59,0,0,0,2.87.89,4,4,0,0,0,2.4-.62,1.86,1.86,0,0,0,.85-1.59,1.83,1.83,0,0,0-1.21-1.74A23.46,23.46,0,0,0,143,31.48,36,36,0,0,1,138.09,30a8.37,8.37,0,0,1-3.36-2.4,6.59,6.59,0,0,1-1.41-4.44,7.57,7.57,0,0,1,1.29-4.29,8.7,8.7,0,0,1,3.79-3.07,14.47,14.47,0,0,1,6-1.12c3.4,0,6.09.85,8,2.55A9.94,9.94,0,0,1,155.79,24H148.1a3.31,3.31,0,0,0-1.24-2.25,4.23,4.23,0,0,0-2.74-.84,3.74,3.74,0,0,0-2.24.57A1.79,1.79,0,0,0,141.1,23a1.88,1.88,0,0,0,1.24,1.77A19.29,19.29,0,0,0,146.21,26a44.36,44.36,0,0,1,4.91,1.55A8.49,8.49,0,0,1,154.46,30Z"/><path class="cls-1" d="M211.1,16.37a14.43,14.43,0,0,0-7-1.66A14.6,14.6,0,0,0,197,16.42a12,12,0,0,0-4.84,4.91,15.41,15.41,0,0,0-1.73,7.45,15.17,15.17,0,0,0,1.75,7.45A12.18,12.18,0,0,0,197,41.14a14.48,14.48,0,0,0,7.1,1.71,14.15,14.15,0,0,0,6-1.22A12.29,12.29,0,0,0,217,33.39h-8.86A4.36,4.36,0,0,1,203.8,36a5,5,0,0,1-3.52-1.35,5.72,5.72,0,0,1-1.63-3.9h18.83a23.38,23.38,0,0,0,.14-2.45,14.46,14.46,0,0,0-1.73-7.21A11.93,11.93,0,0,0,211.1,16.37Zm-12.4,9.76a5.46,5.46,0,0,1,1.77-3.48A5.3,5.3,0,0,1,204,21.43a5.36,5.36,0,0,1,3.65,1.27,4.34,4.34,0,0,1,1.46,3.43Z"/><path class="cls-1" d="M249,26.48v16h-8.27V27.6a6,6,0,0,0-1.41-4.26,5.5,5.5,0,0,0-7.59,0,6,6,0,0,0-1.41,4.26V42.46H222V15.1h8.32v3.63a8.71,8.71,0,0,1,3.4-2.87,10.8,10.8,0,0,1,4.82-1,9.79,9.79,0,0,1,7.61,3.11Q249,21,249,26.48Z"/><path class="cls-1" d="M182.51,7.84a7.2,7.2,0,0,0-5.18,1.92,6.34,6.34,0,0,0-2,4.77,2.44,2.44,0,0,0,0,.27,18,18,0,0,0-1.82-.09,15.07,15.07,0,0,0-7.2,1.71,12.63,12.63,0,0,0-5.06,4.93,14.66,14.66,0,0,0-1.85,7.43,14.67,14.67,0,0,0,1.83,7.45,12.46,12.46,0,0,0,5,4.91,14.9,14.9,0,0,0,7.17,1.71,15.25,15.25,0,0,0,7.23-1.71,12.73,12.73,0,0,0,5.1-4.93,14.47,14.47,0,0,0,1.88-7.43,14.66,14.66,0,0,0-1.85-7.43c-.15-.25-.3-.5-.45-.73a6.58,6.58,0,0,0,2.32-1.43,6.11,6.11,0,0,0,2-4.66,6.3,6.3,0,0,0-2-4.77A7.1,7.1,0,0,0,182.51,7.84Zm-5,26a5.37,5.37,0,0,1-4.06,1.77,5.08,5.08,0,0,1-4-1.77,7.3,7.3,0,0,1-1.59-5,7.23,7.23,0,0,1,1.61-5.07,5.5,5.5,0,0,1,8,0,7.17,7.17,0,0,1,1.63,5.05A7,7,0,0,1,177.46,33.83Z"/><polygon class="cls-1" points="1 8.04 27.42 8.04 27.42 14.76 18.36 14.76 18.36 42.46 10.05 42.46 10.05 14.76 1 14.76 1 8.04"/></svg>