<svg width="56" height="56" viewBox="0 0 56 56" fill="none" xmlns="http://www.w3.org/2000/svg">
<rect width="56" height="56" rx="8" fill="#E3EFFF"/>
<path d="M27.554 22.24L24.171 18.335C23.781 17.885 23.066 17.887 22.613 18.341L19.831 21.128C19.003 21.957 18.766 23.188 19.245 24.175C22.1066 30.1 26.885 34.8851 32.806 37.755C33.792 38.234 35.022 37.997 35.85 37.168L38.658 34.355C39.113 33.9 39.114 33.181 38.66 32.791L34.74 29.426C34.33 29.074 33.693 29.12 33.282 29.532L31.918 30.898C31.8482 30.9712 31.7562 31.0195 31.6563 31.0354C31.5564 31.0513 31.4541 31.0339 31.365 30.986C29.1354 29.7021 27.286 27.8503 26.005 25.619C25.957 25.5298 25.9396 25.4273 25.9555 25.3272C25.9714 25.2271 26.0197 25.135 26.093 25.065L27.453 23.704C27.865 23.29 27.91 22.65 27.554 22.239V22.24Z" stroke="#0066F5" stroke-width="2" stroke-linecap="round" stroke-linejoin="round"/>
</svg>
