<svg width="21" height="21" viewBox="0 0 21 21" fill="none" xmlns="http://www.w3.org/2000/svg">
<path d="M15.793 2.53223H19.793C20.0582 2.53223 20.3125 2.63758 20.5001 2.82512C20.6876 3.01266 20.793 3.26701 20.793 3.53223V19.5322C20.793 19.7974 20.6876 20.0518 20.5001 20.2393C20.3125 20.4269 20.0582 20.5322 19.793 20.5322H1.79297C1.52775 20.5322 1.2734 20.4269 1.08586 20.2393C0.898326 20.0518 0.792969 19.7974 0.792969 19.5322V3.53223C0.792969 3.26701 0.898326 3.01266 1.08586 2.82512C1.2734 2.63758 1.52775 2.53223 1.79297 2.53223H5.79297V0.532227H7.79297V2.53223H13.793V0.532227H15.793V2.53223ZM2.79297 8.53223V18.5322H18.793V8.53223H2.79297ZM4.79297 10.5322H6.79297V12.5322H4.79297V10.5322ZM9.79297 10.5322H11.793V12.5322H9.79297V10.5322ZM14.793 10.5322H16.793V12.5322H14.793V10.5322Z" fill="#333333"/>
</svg>
