<svg width="48" height="48" viewBox="0 0 48 48" fill="none" xmlns="http://www.w3.org/2000/svg">
<circle cx="24" cy="24" r="23.5" fill="#CCE0FD" stroke="#00337B"/>
<path d="M25.728 23.432C26.624 23.592 27.384 24.064 28.008 24.848C28.632 25.632 28.944 26.52 28.944 27.512C28.944 28.36 28.72 29.128 28.272 29.816C27.84 30.488 27.208 31.024 26.376 31.424C25.544 31.808 24.576 32 23.472 32H16.8V15.32H23.16C24.296 15.32 25.272 15.512 26.088 15.896C26.904 16.28 27.52 16.8 27.936 17.456C28.352 18.096 28.56 18.816 28.56 19.616C28.56 20.576 28.304 21.376 27.792 22.016C27.28 22.656 26.592 23.128 25.728 23.432ZM19.536 22.328H22.92C23.816 22.328 24.512 22.128 25.008 21.728C25.52 21.312 25.776 20.72 25.776 19.952C25.776 19.2 25.52 18.616 25.008 18.2C24.512 17.768 23.816 17.552 22.92 17.552H19.536V22.328ZM23.232 29.768C24.16 29.768 24.888 29.544 25.416 29.096C25.944 28.648 26.208 28.024 26.208 27.224C26.208 26.408 25.928 25.76 25.368 25.28C24.808 24.8 24.064 24.56 23.136 24.56H19.536V29.768H23.232Z" fill="#0066F5"/>
</svg>
