<svg width="48" height="48" viewBox="0 0 48 48" fill="none" xmlns="http://www.w3.org/2000/svg">
<circle cx="24" cy="24" r="23.5" fill="#CCE0FD" stroke="#00337B"/>
<path d="M15.888 23.624C15.888 21.992 16.264 20.528 17.016 19.232C17.784 17.936 18.816 16.928 20.112 16.208C21.424 15.472 22.856 15.104 24.408 15.104C26.184 15.104 27.76 15.544 29.136 16.424C30.528 17.288 31.536 18.52 32.16 20.12H28.872C28.44 19.24 27.84 18.584 27.072 18.152C26.304 17.72 25.416 17.504 24.408 17.504C23.304 17.504 22.32 17.752 21.456 18.248C20.592 18.744 19.912 19.456 19.416 20.384C18.936 21.312 18.696 22.392 18.696 23.624C18.696 24.856 18.936 25.936 19.416 26.864C19.912 27.792 20.592 28.512 21.456 29.024C22.32 29.52 23.304 29.768 24.408 29.768C25.416 29.768 26.304 29.552 27.072 29.12C27.84 28.688 28.44 28.032 28.872 27.152H32.16C31.536 28.752 30.528 29.984 29.136 30.848C27.76 31.712 26.184 32.144 24.408 32.144C22.84 32.144 21.408 31.784 20.112 31.064C18.816 30.328 17.784 29.312 17.016 28.016C16.264 26.72 15.888 25.256 15.888 23.624Z" fill="#0066F5"/>
</svg>
