<svg width="83" height="83" viewBox="0 0 83 83" fill="none" xmlns="http://www.w3.org/2000/svg">
<path d="M66.1853 0.770752H16.8145C7.95378 0.770752 0.770752 7.95378 0.770752 16.8145V66.1853C0.770752 75.0461 7.95378 82.2291 16.8145 82.2291H66.1853C75.0461 82.2291 82.2291 75.0461 82.2291 66.1853V16.8145C82.2291 7.95378 75.0461 0.770752 66.1853 0.770752Z" fill="white"/>
<path d="M47.3437 55.9854H57.9687C58.0781 59.2771 57.2818 62.5358 55.6666 65.4062C54.1585 68.0613 51.9052 70.2161 49.1853 71.6041C46.3552 73.0767 43.2022 73.8193 40.0124 73.7645C36.8332 73.8255 33.6902 73.0823 30.8749 71.6041C28.2123 70.2034 26.0109 68.0635 24.5353 65.4416C22.943 62.5751 22.1481 59.3342 22.2332 56.0562H32.8582C32.7041 58.343 33.4117 60.6046 34.8416 62.3958C35.468 63.1101 36.2422 63.6796 37.1106 64.0649C37.979 64.4501 38.9208 64.642 39.8707 64.627C40.8394 64.6284 41.7981 64.4311 42.6874 64.0474C43.5768 63.6636 44.378 63.1015 45.0416 62.3958C46.5614 60.6473 47.3256 58.3674 47.1666 56.0562L47.3437 55.9854Z" fill="#0066F5"/>
<path d="M60.6959 17.6292C60.7203 16.5076 60.5055 15.3937 60.0658 14.3617C59.6262 13.3296 58.9716 12.4031 58.1459 11.6437C57.2789 10.8331 56.2595 10.2027 55.1469 9.78926C54.0343 9.37582 52.8506 9.18757 51.6646 9.23542C50.4561 9.17647 49.2478 9.35909 48.1107 9.77261C46.9735 10.1861 45.9302 10.8222 45.0417 11.6437C44.216 12.4031 43.5615 13.3296 43.1218 14.3617C42.6821 15.3937 42.4673 16.5076 42.4917 17.6292V17.9833C41.748 17.9833 40.9688 17.9833 40.1897 17.9833C37.0111 17.9285 33.8696 18.6713 31.0521 20.1437C28.3874 21.5215 26.1746 23.636 24.6771 26.2354C23.0498 29.078 22.2294 32.3109 22.3042 35.5854C22.2188 38.8904 23.0263 42.1572 24.6417 45.0417C26.0994 47.6226 28.2614 49.7354 30.8751 51.1333C33.6798 52.6058 36.8099 53.3487 39.9771 53.2937C43.167 53.3485 46.32 52.6059 49.1501 51.1333C51.8545 49.7596 54.114 47.6474 55.6667 45.0417C57.2941 42.1991 58.1145 38.9662 58.0396 35.6917C58.1178 32.3831 57.2978 29.1151 55.6667 26.2354C55.4988 25.916 55.3095 25.6084 55.1001 25.3146C56.1977 24.9293 57.2 24.3134 58.0396 23.5083C58.8802 22.7779 59.5528 21.8743 60.0113 20.8595C60.4698 19.8447 60.7033 18.7427 60.6959 17.6292ZM45.2542 41.9604C44.5876 42.6597 43.7851 43.2152 42.8958 43.5929C42.0066 43.9705 41.0495 44.1622 40.0834 44.1562C39.1366 44.1732 38.1972 43.9859 37.3293 43.6069C36.4614 43.228 35.6854 42.6664 35.0542 41.9604C33.6031 40.1651 32.8823 37.8887 33.0355 35.5854C32.8814 33.2761 33.6164 30.9953 35.0896 29.2104C35.7341 28.4925 36.5275 27.924 37.4146 27.5447C38.3016 27.1654 39.2608 26.9845 40.2251 27.0146C41.1821 26.9989 42.1316 27.1866 43.0108 27.5651C43.8899 27.9436 44.6787 28.5044 45.3251 29.2104C46.7888 31.0005 47.5225 33.2775 47.3792 35.5854C47.5323 37.9066 46.7694 40.1953 45.2542 41.9604Z" fill="#0066F5"/>
</svg>
