<svg width="480" height="482" viewBox="0 0 480 482" fill="none" xmlns="http://www.w3.org/2000/svg">
<path d="M480 324.31H295.858V215.299H480V324.31ZM296.982 323.161H478.877V216.448H296.982V323.161Z" fill="#E0E0E0"/>
<path d="M442.012 273.425H320.521V277.069H442.012V273.425Z" fill="#4F759B"/>
<path d="M450.383 287.011H320.521V290.988H450.383V287.011Z" fill="#4F759B"/>
<path d="M450.383 300.759H320.521V304.736H450.383V300.759Z" fill="#4F759B"/>
<path d="M362.98 253.69H320.521V263.149H362.98V253.69Z" fill="#4F759B"/>
<path d="M479.438 215.874H296.454V233.23H479.438V215.874Z" fill="#E0E0E0"/>
<path d="M465.36 230.632C465.124 230.402 467.484 227.494 470.618 224.138C473.753 220.782 476.506 218.241 476.731 218.46C476.955 218.678 474.607 221.598 471.472 224.965C468.337 228.333 465.585 230.862 465.36 230.632Z" fill="white"/>
<path d="M476.753 230.632C476.528 230.862 473.787 228.333 470.641 224.966C467.495 221.598 465.146 218.69 465.382 218.46C465.618 218.23 468.349 220.759 471.495 224.138C474.641 227.517 476.966 230.402 476.753 230.632Z" fill="white"/>
<path d="M253.41 0H70.4253V107.874H253.41V0Z" fill="#E6E6E6"/>
<path d="M215.995 57.5632H94.5034V61.2069H215.995V57.5632Z" fill="#4F759B"/>
<path d="M224.366 71.1494H94.5034V75.1264H224.366V71.1494Z" fill="#4F759B"/>
<path d="M224.366 84.8966H94.5034V88.8736H224.366V84.8966Z" fill="#4F759B"/>
<path d="M136.963 37.8275H94.5034V47.2873H136.963V37.8275Z" fill="#4F759B"/>
<path d="M253.41 0H70.4253V17.3563H253.41V0Z" fill="#E0E0E0"/>
<path d="M238.714 14.6782C238.478 14.4598 240.837 11.5403 243.972 8.18398C247.107 4.82766 249.859 2.28743 250.084 2.51732C250.309 2.7472 247.96 5.65525 244.826 9.01157C241.691 12.3679 238.938 14.8851 238.714 14.6782Z" fill="white"/>
<path d="M250.084 14.6782C249.859 14.9081 247.118 12.3794 243.972 9.01157C240.826 5.64375 238.478 2.7472 238.714 2.51732C238.95 2.28743 241.68 4.81616 244.826 8.18398C247.972 11.5518 250.32 14.4598 250.084 14.6782Z" fill="white"/>
<path d="M184.108 200.391H0V91.3678H184.108V200.391ZM1.12357 199.241H182.984V92.5172H1.12357V199.241Z" fill="#E0E0E0"/>
<path d="M146.131 149.506H24.6399V153.149H146.131V149.506Z" fill="#4F759B"/>
<path d="M154.502 163.092H24.6399V167.069H154.502V163.092Z" fill="#4F759B"/>
<path d="M154.502 176.839H24.6399V180.816H154.502V176.839Z" fill="#4F759B"/>
<path d="M67.0996 129.77H24.6399V139.23H67.0996V129.77Z" fill="#4F759B"/>
<path d="M183.546 91.9425H0.561768V109.299H183.546V91.9425Z" fill="#E0E0E0"/>
<path d="M396.586 225.368H180.524V423.253H396.586V225.368Z" fill="#E6E6E6"/>
<path d="M191.389 163.034H22.1343V342.931H191.389V163.034Z" fill="#4F759B"/>
<path d="M191.389 163.034H22.1343V182.632H191.389V163.034Z" fill="#E0E0E0"/>
<path d="M36.1116 172.632C36.0808 173.343 35.8467 174.029 35.4383 174.604C35.0299 175.18 34.4653 175.621 33.8144 175.871C33.1635 176.121 32.4551 176.171 31.7771 176.013C31.099 175.855 30.4812 175.497 30.0003 174.983C29.5193 174.47 29.1965 173.823 29.0717 173.123C28.947 172.423 29.0259 171.701 29.2987 171.047C29.5714 170.392 30.026 169.834 30.6059 169.442C31.1859 169.049 31.8658 168.84 32.5612 168.839C33.5228 168.863 34.4359 169.276 35.1012 169.986C35.7665 170.697 36.1297 171.648 36.1116 172.632V172.632Z" fill="white"/>
<path d="M50.5269 172.632C50.4983 173.346 50.265 174.036 49.8561 174.615C49.4473 175.195 48.8809 175.638 48.2274 175.891C47.574 176.144 46.8623 176.194 46.181 176.036C45.4997 175.878 44.8789 175.519 44.3957 175.003C43.9126 174.487 43.5885 173.837 43.4637 173.133C43.339 172.43 43.4191 171.705 43.6942 171.048C43.9692 170.391 44.4271 169.832 45.0107 169.439C45.5943 169.046 46.2779 168.837 46.9764 168.839C47.9381 168.863 48.8512 169.276 49.5165 169.986C50.1818 170.697 50.545 171.648 50.5269 172.632V172.632Z" fill="white"/>
<path d="M64.9422 172.632C64.9136 173.346 64.6803 174.036 64.2714 174.615C63.8626 175.195 63.2962 175.638 62.6427 175.891C61.9892 176.144 61.2776 176.194 60.5963 176.036C59.915 175.878 59.2942 175.519 58.811 175.003C58.3279 174.487 58.0038 173.837 57.879 173.133C57.7543 172.43 57.8344 171.705 58.1095 171.048C58.3845 170.391 58.8423 169.832 59.4259 169.439C60.0095 169.046 60.6932 168.837 61.3917 168.839C62.3533 168.863 63.2665 169.276 63.9318 169.986C64.5971 170.697 64.9603 171.648 64.9422 172.632V172.632Z" fill="white"/>
<path d="M455.832 39.3448H239.77V259.644H455.832V39.3448Z" fill="#4F759B"/>
<path d="M455.832 39.3448H239.77V65.1494H455.832V39.3448Z" fill="#E0E0E0"/>
<path d="M258.174 51.9885C258.134 52.9266 257.826 53.8321 257.288 54.5927C256.749 55.3532 256.005 55.9352 255.146 56.2665C254.287 56.5978 253.352 56.6636 252.457 56.456C251.562 56.2483 250.746 55.7763 250.111 55.0985C249.476 54.4206 249.049 53.5669 248.884 52.6432C248.719 51.7195 248.823 50.7665 249.183 49.9027C249.542 49.0389 250.142 48.3022 250.908 47.7841C251.673 47.266 252.571 46.9893 253.489 46.9885C254.757 47.0186 255.962 47.5617 256.84 48.4988C257.718 49.4358 258.198 50.6906 258.174 51.9885V51.9885Z" fill="white"/>
<path d="M275.78 48.6091C276.403 49.3011 276.813 50.1653 276.959 51.094C277.105 52.0228 276.981 52.975 276.602 53.832C276.223 54.689 275.606 55.413 274.827 55.9137C274.049 56.4144 273.143 56.6696 272.224 56.6477C271.305 56.6258 270.412 56.3276 269.657 55.7903C268.903 55.253 268.319 54.5004 267.979 53.6262C267.64 52.752 267.559 51.7949 267.748 50.8742C267.936 49.9534 268.385 49.1097 269.039 48.4482C269.954 47.5567 271.178 47.0731 272.442 47.1033C273.706 47.1334 274.906 47.6749 275.78 48.6091V48.6091Z" fill="white"/>
<path d="M296.128 51.9885C296.088 52.9266 295.78 53.8321 295.242 54.5927C294.703 55.3532 293.959 55.9352 293.1 56.2665C292.241 56.5978 291.306 56.6636 290.411 56.456C289.515 56.2483 288.7 55.7763 288.065 55.0985C287.429 54.4206 287.003 53.5669 286.838 52.6432C286.673 51.7195 286.777 50.7665 287.136 49.9027C287.496 49.0389 288.096 48.3022 288.862 47.7841C289.627 47.266 290.525 46.9893 291.442 46.9885C292.711 47.0186 293.916 47.5617 294.794 48.4988C295.672 49.4358 296.152 50.6906 296.128 51.9885V51.9885Z" fill="white"/>
<path d="M409.159 481.701C409.159 481.862 331.138 482 234.927 482C138.716 482 60.6614 481.862 60.6614 481.701C60.6614 481.54 138.671 481.402 234.927 481.402C331.183 481.402 409.159 481.552 409.159 481.701Z" fill="#263238"/>
<path d="M333.138 340.988C315.779 328.586 311.847 305.563 312.532 284.862C312.644 281.414 312.274 277.759 313.88 274.736C315.487 271.713 319.24 269.632 322.262 271.08C324.768 272.287 325.858 275.276 327.262 277.747C329.136 281.039 331.882 283.72 335.183 285.483C337.329 286.632 339.992 287.322 342.116 286.126C345.037 284.483 345.374 280.379 345.351 276.931C345.351 270.517 345.314 264.111 345.239 257.713C345.037 254.277 345.379 250.83 346.25 247.506C347.295 244.241 349.621 241.218 352.801 240.299C355.98 239.379 359.947 241.276 360.666 244.632C360.789 246.054 360.823 247.482 360.767 248.908C360.857 250.345 361.508 251.919 362.823 252.356C364.138 252.793 365.508 251.793 366.52 250.782C369.98 247.333 372.34 242.839 374.531 238.402C376.722 233.965 378.868 229.402 382.014 225.621C385.16 221.839 389.508 218.839 394.373 218.552C399.238 218.264 404.305 221.322 405.519 226.149C406.732 230.977 403.979 235.908 401.024 239.828C396.565 245.646 391.309 250.775 385.418 255.057C384.268 255.7 383.35 256.703 382.8 257.919C382.07 260.218 384.193 262.517 386.407 263.241C388.912 264.092 391.631 263.828 394.272 264.149C396.912 264.471 399.721 265.644 400.721 268.172C402.092 271.69 399.215 275.368 396.395 277.782C390.732 282.609 384.302 286.407 377.384 289.011C374.913 289.931 372.317 290.747 370.317 292.517C368.317 294.287 367.126 297.379 368.328 299.805C369.531 302.23 372.62 303 375.216 302.506C377.811 302.011 380.115 300.586 382.587 299.632C387.204 297.851 393.159 298.172 396.069 302.253C396.971 303.658 397.542 305.259 397.737 306.928C397.931 308.597 397.745 310.29 397.193 311.874C396.068 315.024 394.338 317.913 392.103 320.368C384.744 329.362 375.183 336.197 364.396 340.172C353.688 343.965 343.767 345 333.127 341.011" fill="#00337B"/>
<path d="M400.575 221.391C400.575 221.391 400.474 221.506 400.249 221.713L399.249 222.621C398.373 223.425 397.081 224.598 395.451 226.149C390.832 230.537 386.543 235.274 382.62 240.322C380.115 243.506 377.519 247.115 374.755 251.034C371.991 254.954 369.137 259.184 366.306 263.678C363.287 268.417 360.523 273.321 358.025 278.368C356.722 281 355.576 283.747 354.396 286.552L350.913 295.115C346.322 305.901 342.323 316.941 338.936 328.184C336.207 337.382 334.326 346.822 333.318 356.379C332.665 362.829 332.559 369.325 333.003 375.793C333.183 378.092 333.352 379.851 333.509 381.046C333.576 381.621 333.621 382.08 333.666 382.414V382.885C333.618 382.736 333.584 382.582 333.565 382.425C333.509 382.092 333.442 381.644 333.352 381.069C333.149 379.919 332.936 378.103 332.734 375.805C332.192 369.324 332.229 362.807 332.846 356.333C333.792 346.735 335.632 337.252 338.34 328.011C341.699 316.737 345.687 305.669 350.284 294.862L353.857 286.333C355.037 283.54 356.194 280.77 357.508 278.126C360.024 273.065 362.811 268.149 365.857 263.402C368.733 258.805 371.632 254.644 374.362 250.759C377.092 246.874 379.733 243.241 382.227 240.069C386.19 235.035 390.537 230.331 395.227 226C396.89 224.471 398.215 223.322 399.114 222.552L400.159 221.69C400.287 221.576 400.427 221.475 400.575 221.391Z" fill="#263238"/>
<path d="M357.654 278.103C357.496 277.63 357.387 277.141 357.329 276.644C357.149 275.69 356.947 274.345 356.711 272.598C356.227 269.149 355.733 264.425 355.205 259.195C354.677 253.965 354.081 249.23 353.587 245.816C353.329 244.115 353.104 242.747 352.947 241.793C352.824 241.305 352.76 240.803 352.756 240.299C352.949 240.759 353.089 241.242 353.171 241.736C353.419 242.678 353.699 244.034 354.014 245.747C354.654 249.195 355.284 253.885 355.812 259.126C356.34 264.368 356.789 268.965 357.138 272.54C357.306 274.149 357.452 275.517 357.564 276.609C357.652 277.102 357.682 277.603 357.654 278.103Z" fill="#263238"/>
<path d="M400.889 269.851C400.343 269.972 399.786 270.042 399.227 270.057C398.103 270.161 396.507 270.299 394.53 270.529C390.575 270.965 385.137 271.77 379.171 272.919C373.205 274.069 367.845 275.368 363.991 276.368C362.07 276.873 360.52 277.333 359.497 277.644C358.951 277.842 358.386 277.981 357.812 278.057C358.331 277.79 358.872 277.571 359.43 277.402C360.486 277.023 362.014 276.494 363.924 275.931C367.755 274.782 373.115 273.414 379.103 272.241C384.176 271.249 389.295 270.52 394.44 270.057C396.429 269.885 398.036 269.816 399.159 269.793C399.736 269.753 400.316 269.772 400.889 269.851Z" fill="#263238"/>
<path d="M338.891 327.207C338.771 327.04 338.673 326.859 338.599 326.667L337.857 325.069C337.217 323.678 336.352 321.621 335.318 319.103C333.228 314.046 330.565 306.965 327.734 299.103C324.903 291.241 322.296 284.161 320.318 279.046C319.352 276.563 318.554 274.529 317.959 273.011L317.33 271.368C317.242 271.178 317.182 270.977 317.15 270.77C317.27 270.936 317.368 271.118 317.442 271.31L318.184 272.908C318.813 274.299 319.689 276.356 320.723 278.874C322.813 283.931 325.476 291.011 328.307 298.874C331.138 306.736 333.745 313.816 335.722 318.931C336.689 321.414 337.486 323.448 338.071 324.965C338.329 325.621 338.543 326.115 338.711 326.609C338.798 326.799 338.859 327 338.891 327.207Z" fill="#263238"/>
<path d="M396.283 308.276C396.103 308.381 395.91 308.463 395.71 308.517L394.047 309.092L387.901 311.126C382.71 312.851 375.542 315.31 367.677 318.023C359.812 320.736 352.61 323.149 347.385 324.759C344.778 325.575 342.655 326.195 341.183 326.609L339.486 327.057C339.289 327.121 339.086 327.164 338.88 327.184C339.06 327.078 339.252 326.997 339.453 326.942L341.116 326.368L347.261 324.333C352.452 322.609 359.621 320.149 367.486 317.437C375.351 314.724 382.542 312.31 387.766 310.701C390.384 309.885 392.496 309.264 393.979 308.85L395.676 308.402C395.873 308.338 396.077 308.296 396.283 308.276Z" fill="#263238"/>
<path d="M372.868 29.4598L367.081 31.5747L364.598 23.8391C360.036 9.57475 345.497 2.00004 332.138 6.81613C318.779 11.6322 311.667 27.2759 316.229 41.5403L318.712 49.2759L312.903 51.4023C310.688 52.2812 308.889 53.9996 307.88 56.2002C306.872 58.4008 306.731 60.9143 307.487 63.2184L323.588 113.552C323.922 114.692 324.477 115.753 325.22 116.669C325.962 117.586 326.878 118.341 327.911 118.889C328.944 119.437 330.075 119.767 331.235 119.859C332.396 119.951 333.563 119.804 334.666 119.425L394.631 97.4828C396.875 96.6054 398.7 94.8718 399.72 92.6467C400.741 90.4215 400.878 87.8783 400.103 85.5517L383.991 35.2184C383.648 34.081 383.085 33.0259 382.335 32.1161C381.584 31.2063 380.663 30.4604 379.625 29.923C378.586 29.3855 377.453 29.0675 376.292 28.9879C375.131 28.9084 373.967 29.0688 372.868 29.4598ZM327.161 37.5058C325.931 33.7968 326.152 29.7448 327.777 26.1987C329.402 22.6526 332.306 19.8875 335.88 18.4828C337.644 17.8651 339.513 17.6174 341.373 17.7545C343.233 17.8916 345.047 18.4106 346.707 19.2806C348.367 20.1506 349.839 21.3537 351.035 22.8182C352.23 24.2827 353.125 25.9786 353.666 27.8046L356.138 35.5403L329.633 45.2414L327.161 37.5058ZM360.868 82.1724L364.98 95.023C365.056 95.2807 365.031 95.5582 364.912 95.7979C364.793 96.0377 364.588 96.2212 364.34 96.3104L358.576 98.4138C358.346 98.4789 358.101 98.4506 357.892 98.3349C357.682 98.2192 357.525 98.025 357.452 97.7931L353.306 85C351.02 84.8726 348.827 84.0338 347.02 82.5958C345.212 81.1579 343.878 79.1894 343.194 76.954C342.217 73.9988 342.395 70.7714 343.692 67.9476C344.988 65.1237 347.302 62.9225 350.149 61.8046C351.555 61.3133 353.043 61.1165 354.524 61.226C356.006 61.3354 357.451 61.749 358.773 62.4419C360.095 63.1348 361.268 64.0929 362.22 65.2591C363.173 66.4253 363.886 67.7757 364.317 69.2299C365.04 71.5006 365.1 73.9378 364.489 76.2428C363.879 78.5477 362.624 80.6204 360.879 82.2069L360.868 82.1724Z" fill="#00337B"/>
<path d="M366.823 31.4367C366.823 31.5976 356.093 35.7241 342.745 40.6321C329.397 45.5402 318.51 49.4827 318.453 49.3677C318.397 49.2528 329.183 45.0919 342.543 40.1723C355.902 35.2528 366.767 31.2873 366.823 31.4367Z" fill="#263238"/>
<path d="M379.564 33.5517C379.614 33.6514 379.655 33.7553 379.688 33.862C379.778 34.0919 379.879 34.3908 380.013 34.7586C380.306 35.5977 380.71 36.7586 381.216 38.2069L385.53 51.0574C387.328 56.5057 389.474 62.9655 391.856 70.1379C392.979 73.7356 394.305 77.4827 395.541 81.4253C396.203 83.4569 396.488 85.5969 396.384 87.7356C396.289 88.8479 395.979 89.9299 395.474 90.9195C394.934 91.9058 394.213 92.7761 393.35 93.4827C391.614 94.779 389.688 95.784 387.643 96.4597L381.856 98.5862L370.901 102.598L352.351 109.356L339.823 113.862L336.453 115.011L335.554 115.31C335.458 115.354 335.355 115.381 335.25 115.391C335.25 115.391 335.34 115.391 335.531 115.253L336.408 114.896L339.778 113.598L352.239 108.908L370.755 102.011L381.688 97.9655L387.474 95.8275C389.461 95.1792 391.332 94.2049 393.013 92.9425C393.816 92.2868 394.487 91.479 394.991 90.5632C395.466 89.648 395.753 88.6425 395.833 87.6092C395.937 85.5485 395.662 83.4862 395.024 81.5287C393.811 77.6207 392.53 73.8391 391.373 70.2413C389.036 63.0574 386.878 56.5747 385.171 51.1264C383.463 45.6781 382.025 41.2988 381.036 38.2184C380.564 36.7126 380.204 35.5402 379.912 34.6896L379.643 33.7701C379.609 33.7004 379.582 33.6272 379.564 33.5517Z" fill="#263238"/>
<path d="M347.924 17.7011C347.924 17.7011 347.329 17.4022 346.228 16.9425C344.658 16.3255 342.998 15.9836 341.318 15.931C338.827 15.8436 336.348 16.3225 334.06 17.3333C331.277 18.5919 328.898 20.6276 327.195 23.2068C325.48 25.7787 324.56 28.818 324.554 31.931C324.578 34.4824 324.956 37.0174 325.678 39.4597C326.262 41.5517 326.869 43.2183 327.273 44.3792C327.512 44.9689 327.707 45.576 327.857 46.1953C327.538 45.644 327.271 45.0628 327.06 44.4597C326.599 43.3103 325.936 41.6781 325.284 39.5746C324.485 37.1067 324.049 34.5304 323.992 31.931C323.962 28.7004 324.904 25.5385 326.689 22.8735C328.451 20.2001 330.928 18.1014 333.824 16.8275C336.183 15.8112 338.74 15.3629 341.295 15.5172C343.012 15.6067 344.699 16.0157 346.273 16.7241C346.693 16.9226 347.099 17.1532 347.486 17.4137C347.646 17.4856 347.794 17.5825 347.924 17.7011Z" fill="#263238"/>
<path d="M348.441 62.6782C348.621 62.567 348.808 62.4709 349.003 62.3908C349.565 62.1312 350.148 61.9197 350.745 61.7586C351.692 61.4727 352.668 61.3029 353.655 61.2529C354.996 61.1791 356.338 61.3864 357.598 61.8621C360.475 62.8966 363.115 65.8966 364.418 69.9081C365.043 72.0608 365.043 74.353 364.418 76.5058C363.725 78.8423 362.483 80.9694 360.8 82.7012L360.868 82.3908C362.362 86.5862 363.991 91.1379 365.677 95.8851L365.778 96.1724L365.497 96.2759L362.924 97.1494L357.306 99.069L357.025 99.1609L356.935 98.8736C355.396 94.115 353.711 89.6782 352.441 85.3219L352.688 85.5173C350.492 85.3306 348.397 84.4872 346.666 83.092C345.099 81.8577 343.815 80.2886 342.902 78.4943C342.078 76.903 341.668 75.1219 341.711 73.3218C341.763 71.4821 342.212 69.6769 343.026 68.0356C343.84 66.3942 344.998 64.9572 346.419 63.8276C347.003 63.3421 347.66 62.9541 348.363 62.6782C347.728 63.0634 347.113 63.4816 346.52 63.931C344.96 65.2815 343.764 67.0189 343.048 68.977C342.433 70.4536 342.146 72.0511 342.206 73.6549C342.266 75.2586 342.673 76.8289 343.396 78.2529C344.294 79.9791 345.548 81.4851 347.07 82.6667C348.722 83.9929 350.719 84.7924 352.812 84.9655H353.003L353.059 85.1379C354.295 89.4138 355.992 93.8851 357.553 98.6667L357.183 98.4828L362.8 96.5632L365.362 95.6782L365.182 96.069C363.508 91.3218 361.89 86.7586 360.407 82.5632V82.3908L360.542 82.2529C362.176 80.593 363.393 78.5545 364.093 76.3104C364.688 74.2511 364.688 72.0593 364.093 70C362.868 66.1379 360.34 63.2069 357.598 62.1724C356.385 61.6937 355.089 61.4709 353.789 61.5173C352.819 61.54 351.854 61.675 350.913 61.9196C349.239 62.3448 348.452 62.7356 348.441 62.6782Z" fill="#263238"/>
<path d="M313.712 394.563L201.478 394.034C194.997 393.998 188.795 391.331 184.234 386.62C179.673 381.909 177.126 375.539 177.153 368.908L178.344 81.0805C178.357 77.7955 179.003 74.5453 180.245 71.5159C181.487 68.4864 183.3 65.737 185.581 63.4249C187.862 61.1127 190.566 59.2831 193.539 58.0407C196.511 56.7982 199.694 56.1673 202.905 56.1839L315.127 56.7126C321.609 56.7461 327.812 59.4098 332.375 64.1188C336.938 68.8278 339.488 75.197 339.464 81.8276L338.273 369.644C338.26 372.93 337.614 376.181 336.372 379.212C335.131 382.242 333.318 384.993 331.037 387.307C328.756 389.621 326.053 391.453 323.08 392.698C320.107 393.943 316.924 394.577 313.712 394.563Z" fill="#455A64"/>
<path d="M314.959 66.6092H293.206C292.497 66.6226 291.796 66.779 291.146 67.0694C290.495 67.3597 289.907 67.7784 289.414 68.3014C288.922 68.8244 288.535 69.4416 288.276 70.1176C288.016 70.7936 287.89 71.5153 287.903 72.2414V76.2759C287.917 77.0014 287.79 77.7225 287.531 78.3978C287.271 79.0732 286.884 79.6896 286.391 80.2117C285.899 80.7338 285.31 81.1514 284.66 81.4405C284.009 81.7296 283.309 81.8846 282.6 81.8965L240.196 81.7011C238.762 81.662 237.401 81.0421 236.413 79.9774C235.425 78.9128 234.891 77.4905 234.927 76.023V71.9885C234.963 70.5229 234.43 69.1023 233.444 68.038C232.459 66.9737 231.101 66.3525 229.669 66.3103H222.017L202.973 66.2184C198.443 66.1908 194.087 68.0006 190.859 71.2514C187.63 74.5023 185.793 78.9293 185.748 83.5632L184.625 364.506C184.614 366.805 185.047 369.083 185.897 371.211C186.748 373.339 187.999 375.275 189.581 376.908C191.163 378.541 193.043 379.839 195.115 380.729C197.188 381.618 199.411 382.081 201.658 382.092L313.655 382.621C315.904 382.631 318.133 382.189 320.214 381.318C322.296 380.448 324.189 379.166 325.786 377.547C327.384 375.928 328.654 374.003 329.524 371.881C330.394 369.76 330.847 367.484 330.857 365.184L331.981 84.2414C332.008 79.5944 330.23 75.1267 327.038 71.8203C323.846 68.514 319.501 66.6396 314.959 66.6092Z" fill="white"/>
<path d="M299.892 345.138L216.613 344.77C215.748 344.77 215.051 343.805 215.062 342.632L215.152 320.345C215.152 319.195 215.86 318.207 216.725 318.207L300.004 318.598C300.484 318.683 300.913 318.953 301.201 319.354C301.49 319.754 301.617 320.254 301.555 320.747L301.476 343.012C301.476 344.195 300.757 345.149 299.892 345.138Z" fill="#00337B"/>
<path d="M243.169 328.394C243.134 328.101 242.994 327.874 242.748 327.712C242.501 327.55 242.199 327.47 241.841 327.47C241.579 327.47 241.35 327.512 241.154 327.597C240.959 327.681 240.807 327.798 240.697 327.946C240.59 328.094 240.536 328.263 240.536 328.451C240.536 328.609 240.573 328.745 240.648 328.858C240.725 328.97 240.823 329.063 240.943 329.139C241.062 329.212 241.187 329.272 241.318 329.32C241.449 329.367 241.569 329.404 241.679 329.433L242.28 329.595C242.434 329.635 242.605 329.691 242.794 329.762C242.984 329.833 243.166 329.931 243.34 330.054C243.515 330.175 243.659 330.331 243.773 330.522C243.886 330.712 243.943 330.946 243.943 331.223C243.943 331.543 243.859 331.832 243.692 332.09C243.526 332.348 243.284 332.553 242.964 332.705C242.646 332.857 242.261 332.933 241.806 332.933C241.383 332.933 241.016 332.864 240.706 332.728C240.398 332.591 240.156 332.4 239.978 332.156C239.803 331.911 239.704 331.628 239.681 331.304H240.42C240.439 331.527 240.515 331.712 240.645 331.859C240.778 332.003 240.946 332.111 241.148 332.182C241.352 332.251 241.571 332.286 241.806 332.286C242.08 332.286 242.325 332.242 242.543 332.153C242.76 332.063 242.932 331.937 243.059 331.778C243.186 331.616 243.25 331.427 243.25 331.212C243.25 331.015 243.195 330.856 243.085 330.732C242.976 330.609 242.831 330.509 242.652 330.432C242.473 330.355 242.28 330.288 242.072 330.23L241.344 330.022C240.882 329.889 240.516 329.7 240.247 329.453C239.977 329.207 239.843 328.884 239.843 328.486C239.843 328.155 239.932 327.866 240.111 327.62C240.292 327.371 240.535 327.179 240.839 327.042C241.145 326.904 241.487 326.834 241.864 326.834C242.245 326.834 242.584 326.903 242.88 327.039C243.177 327.174 243.412 327.359 243.585 327.594C243.76 327.829 243.853 328.095 243.862 328.394H243.169ZM245.836 326.915V332.829H245.12V326.915H245.836ZM251.962 326.915V332.829H251.269L248.046 328.186H247.988V332.829H247.272V326.915H247.965L251.199 331.57H251.257V326.915H251.962ZM257.437 328.763C257.374 328.569 257.29 328.394 257.186 328.24C257.084 328.085 256.962 327.952 256.819 327.842C256.679 327.732 256.519 327.649 256.34 327.591C256.161 327.533 255.965 327.504 255.751 327.504C255.4 327.504 255.082 327.595 254.795 327.776C254.508 327.957 254.28 328.223 254.111 328.575C253.941 328.928 253.857 329.36 253.857 329.872C253.857 330.384 253.942 330.816 254.114 331.168C254.285 331.521 254.517 331.787 254.809 331.968C255.102 332.149 255.431 332.24 255.797 332.24C256.136 332.24 256.434 332.168 256.692 332.023C256.952 331.877 257.154 331.671 257.299 331.405C257.445 331.138 257.518 330.823 257.518 330.461L257.737 330.507H255.959V329.872H258.211V330.507C258.211 330.994 258.107 331.418 257.899 331.778C257.693 332.138 257.408 332.417 257.044 332.615C256.683 332.811 256.267 332.91 255.797 332.91C255.273 332.91 254.813 332.786 254.417 332.54C254.022 332.294 253.714 331.943 253.493 331.489C253.273 331.035 253.164 330.496 253.164 329.872C253.164 329.404 253.226 328.984 253.351 328.61C253.478 328.235 253.657 327.915 253.888 327.651C254.119 327.388 254.393 327.186 254.708 327.045C255.024 326.905 255.372 326.834 255.751 326.834C256.063 326.834 256.353 326.881 256.623 326.976C256.894 327.068 257.136 327.2 257.348 327.371C257.561 327.541 257.739 327.744 257.882 327.981C258.024 328.215 258.122 328.476 258.176 328.763H257.437ZM265.605 326.915H266.321V330.831C266.321 331.235 266.226 331.596 266.035 331.913C265.847 332.229 265.58 332.478 265.236 332.661C264.891 332.842 264.487 332.933 264.023 332.933C263.559 332.933 263.155 332.842 262.81 332.661C262.466 332.478 262.198 332.229 262.007 331.913C261.819 331.596 261.724 331.235 261.724 330.831V326.915H262.441V330.773C262.441 331.062 262.504 331.319 262.631 331.544C262.758 331.767 262.939 331.943 263.174 332.072C263.411 332.199 263.694 332.263 264.023 332.263C264.352 332.263 264.635 332.199 264.872 332.072C265.109 331.943 265.29 331.767 265.415 331.544C265.542 331.319 265.605 331.062 265.605 330.773V326.915ZM267.751 332.829V326.915H269.75C270.214 326.915 270.593 326.999 270.887 327.166C271.184 327.332 271.403 327.556 271.546 327.839C271.688 328.122 271.759 328.438 271.759 328.786C271.759 329.135 271.688 329.451 271.546 329.736C271.405 330.021 271.188 330.248 270.893 330.418C270.599 330.585 270.221 330.669 269.761 330.669H268.329V330.034H269.738C270.056 330.034 270.311 329.979 270.503 329.869C270.696 329.759 270.835 329.611 270.922 329.424C271.01 329.236 271.055 329.023 271.055 328.786C271.055 328.549 271.01 328.338 270.922 328.151C270.835 327.964 270.695 327.818 270.5 327.712C270.306 327.604 270.048 327.55 269.726 327.55H268.468V332.829H267.751Z" fill="#E8E8E3"/>
<path d="M233.224 149.196L204.326 149.062L204.302 154.487L233.2 154.621L233.224 149.196Z" fill="#00337B"/>
<path opacity="0.1" d="M233.224 149.196L204.326 149.062L204.302 154.487L233.2 154.621L233.224 149.196Z" fill="black"/>
<path d="M317.936 182.506C318.163 182.482 318.386 182.428 318.599 182.345C318.91 182.22 319.181 182.009 319.379 181.734C319.578 181.46 319.697 181.134 319.723 180.793C319.723 178.965 319.723 176.299 319.723 172.874C319.723 171.161 319.723 169.241 319.723 167.126C319.723 166.609 319.723 166.069 319.723 165.529C319.796 165.004 319.684 164.471 319.408 164.023C319.253 163.808 319.052 163.633 318.82 163.512C318.588 163.39 318.332 163.325 318.071 163.322H316.318H300.083L206.107 162.965C205.867 162.961 205.629 163.017 205.414 163.127C205.199 163.237 205.013 163.398 204.871 163.598C204.6 164.047 204.496 164.582 204.579 165.103C204.579 166.253 204.579 167.402 204.579 168.552C204.579 170.851 204.579 173.149 204.579 175.448C204.579 176.598 204.579 177.747 204.579 178.897C204.533 179.432 204.533 179.97 204.579 180.506C204.638 180.735 204.748 180.948 204.9 181.127C205.052 181.307 205.242 181.448 205.456 181.54C205.677 181.63 205.914 181.673 206.152 181.667H211.871L236.826 181.805L279.072 182.069L307.554 182.299L315.296 182.391H317.307C317.768 182.391 317.992 182.391 317.992 182.391H317.307H315.296H307.554H279.072L236.826 182.253L211.871 182.149H206.152C205.838 182.162 205.524 182.108 205.231 181.988C204.935 181.859 204.672 181.663 204.462 181.414C204.251 181.165 204.1 180.87 204.018 180.552C203.953 180.25 203.93 179.94 203.95 179.632V178.782C203.95 177.632 203.95 176.483 203.95 175.333C203.95 173.034 203.95 170.736 203.95 168.437C203.95 167.287 203.95 166.138 203.95 164.988C203.929 164.682 203.929 164.375 203.95 164.069C203.992 163.731 204.12 163.41 204.321 163.138C204.515 162.86 204.771 162.635 205.069 162.481C205.366 162.327 205.695 162.249 206.029 162.253L300.004 162.782L316.24 162.897H317.992C318.301 162.897 318.605 162.973 318.879 163.119C319.153 163.265 319.388 163.477 319.565 163.736C319.882 164.235 320.01 164.836 319.925 165.425C319.925 165.965 319.925 166.506 319.925 167.023C319.925 169.115 319.925 171.034 319.925 172.77C319.925 176.218 319.846 178.862 319.824 180.701C319.796 181.055 319.671 181.393 319.462 181.676C319.253 181.959 318.969 182.175 318.644 182.299C318.431 182.434 318.186 182.505 317.936 182.506Z" fill="#E0E0E0"/>
<path d="M265.859 168.736H213.006V173.805H265.859V168.736Z" fill="#00337B"/>
<path opacity="0.2" d="M265.859 168.736H213.006V173.805H265.859V168.736Z" fill="white"/>
<path d="M233.027 198.688L204.129 198.554L204.105 203.979L233.003 204.114L233.027 198.688Z" fill="#00337B"/>
<path opacity="0.1" d="M233.027 198.688L204.129 198.554L204.105 203.979L233.003 204.114L233.027 198.688Z" fill="black"/>
<path d="M317.206 232C317.433 231.971 317.658 231.929 317.88 231.874C318.194 231.771 318.483 231.602 318.727 231.375C318.971 231.149 319.165 230.872 319.296 230.563C319.473 230.099 319.542 229.599 319.498 229.103C319.498 228.552 319.498 227.954 319.498 227.287C319.498 225.954 319.498 224.437 319.498 222.69V215.391C319.552 214.862 319.437 214.33 319.172 213.874C318.895 213.405 318.459 213.057 317.948 212.897C317.388 212.794 316.818 212.763 316.251 212.805H300.083L206.433 212.448C205.93 212.449 205.443 212.638 205.065 212.978C204.687 213.319 204.443 213.788 204.377 214.299C204.377 215.391 204.377 216.598 204.377 217.747C204.377 220.046 204.377 222.345 204.377 224.644C204.377 225.793 204.377 226.942 204.377 228.092C204.335 228.629 204.358 229.17 204.445 229.701C204.585 230.167 204.874 230.572 205.265 230.851C205.68 231.12 206.167 231.249 206.658 231.218H208.22H211.467L236.331 231.345L278.432 231.609L306.813 231.839L314.532 231.931H316.543H317.217H316.543H314.532H306.813H278.432L236.309 231.885L211.444 231.793H206.557C205.949 231.83 205.346 231.665 204.838 231.322C204.327 230.96 203.953 230.428 203.782 229.816C203.681 229.232 203.651 228.638 203.692 228.046C203.692 226.897 203.692 225.747 203.692 224.598C203.692 222.299 203.692 220 203.692 217.701C203.692 216.552 203.692 215.402 203.692 214.253C203.774 213.596 204.087 212.991 204.573 212.553C205.059 212.116 205.685 211.874 206.332 211.874L299.982 212.402L316.15 212.529C316.752 212.491 317.356 212.533 317.948 212.655C318.531 212.85 319.024 213.26 319.33 213.805C319.62 214.311 319.746 214.898 319.689 215.483C319.689 216.023 319.689 216.552 319.689 217.08C319.689 219.161 319.689 221.069 319.689 222.828C319.689 224.586 319.689 226.069 319.689 227.425C319.689 228.08 319.689 228.69 319.689 229.253C319.73 229.767 319.649 230.283 319.453 230.759C319.307 231.076 319.096 231.357 318.835 231.583C318.573 231.809 318.266 231.975 317.936 232.069C317.691 232.09 317.444 232.066 317.206 232Z" fill="#E0E0E0"/>
<path d="M232.809 250.331L203.911 250.196L203.887 255.622L232.785 255.756L232.809 250.331Z" fill="#00337B"/>
<path opacity="0.1" d="M232.809 250.331L203.911 250.196L203.887 255.622L232.785 255.756L232.809 250.331Z" fill="black"/>
<path d="M316.981 283.621C317.208 283.593 317.434 283.551 317.655 283.494C317.968 283.393 318.256 283.224 318.5 283C318.744 282.777 318.939 282.502 319.071 282.195C319.247 281.731 319.316 281.232 319.273 280.736C319.273 280.172 319.273 279.586 319.273 278.908C319.273 277.586 319.273 276.058 319.273 274.31V267.012C319.327 266.483 319.213 265.951 318.948 265.494C318.664 265.034 318.23 264.692 317.723 264.529C317.164 264.423 316.594 264.388 316.026 264.425H299.858L206.209 264.069C205.705 264.07 205.219 264.259 204.841 264.599C204.462 264.939 204.218 265.409 204.153 265.92C204.153 267.069 204.153 268.218 204.153 269.368C204.153 271.667 204.153 273.966 204.153 276.264C204.153 277.414 204.153 278.563 204.153 279.713C204.111 280.246 204.133 280.783 204.22 281.31C204.354 281.779 204.645 282.186 205.04 282.46C205.453 282.735 205.942 282.865 206.433 282.828H211.321L236.185 282.966L278.286 283.23L306.667 283.46L314.386 283.552H316.397C316.847 283.552 317.071 283.552 317.071 283.552C317.071 283.552 316.847 283.552 316.397 283.552H314.386H306.667H278.286L236.185 283.425L211.321 283.322H206.433C205.825 283.364 205.221 283.198 204.714 282.851C204.203 282.488 203.83 281.956 203.658 281.345C203.557 280.761 203.527 280.166 203.568 279.575C203.568 278.425 203.568 277.276 203.568 276.126C203.568 273.828 203.568 271.529 203.568 269.23C203.568 268.08 203.568 266.931 203.568 265.724C203.648 265.068 203.959 264.464 204.443 264.026C204.927 263.588 205.551 263.345 206.197 263.345L299.847 263.874L316.015 264C316.617 263.962 317.221 264.005 317.813 264.126C318.397 264.322 318.889 264.731 319.195 265.276C319.485 265.782 319.611 266.37 319.554 266.954C319.554 267.494 319.554 268.035 319.554 268.552C319.554 270.632 319.554 272.54 319.554 274.299C319.554 276.057 319.554 277.54 319.554 278.897C319.554 279.552 319.554 280.161 319.554 280.724C319.597 281.238 319.516 281.755 319.318 282.23C319.173 282.547 318.962 282.828 318.7 283.054C318.438 283.281 318.132 283.446 317.802 283.54C317.538 283.633 317.257 283.66 316.981 283.621Z" fill="#E0E0E0"/>
<path d="M264.731 219.663L211.879 219.418L211.856 224.487L264.708 224.732L264.731 219.663Z" fill="#00337B"/>
<path opacity="0.2" d="M264.731 219.663L211.879 219.418L211.856 224.487L264.708 224.732L264.731 219.663Z" fill="white"/>
<path d="M216.658 274.241C216.625 274.704 216.46 275.146 216.183 275.513C215.906 275.88 215.531 276.157 215.102 276.307C214.673 276.458 214.211 276.477 213.772 276.361C213.333 276.246 212.937 276.001 212.633 275.657C212.329 275.313 212.131 274.886 212.062 274.427C211.993 273.969 212.057 273.5 212.246 273.079C212.436 272.658 212.742 272.303 213.126 272.058C213.511 271.813 213.958 271.689 214.411 271.701C215.037 271.737 215.624 272.024 216.044 272.499C216.465 272.975 216.685 273.601 216.658 274.241Z" fill="#00337B"/>
<path d="M223.815 274.276C223.837 274.6 223.794 274.925 223.688 275.231C223.582 275.537 223.415 275.818 223.199 276.056C222.982 276.293 222.72 276.483 222.429 276.612C222.138 276.742 221.823 276.808 221.506 276.808C221.188 276.808 220.874 276.742 220.583 276.612C220.292 276.483 220.03 276.293 219.813 276.056C219.597 275.818 219.43 275.537 219.324 275.231C219.218 274.925 219.175 274.6 219.197 274.276C219.175 273.952 219.218 273.627 219.324 273.32C219.43 273.014 219.597 272.734 219.813 272.496C220.03 272.258 220.292 272.069 220.583 271.939C220.874 271.81 221.188 271.743 221.506 271.743C221.823 271.743 222.138 271.81 222.429 271.939C222.72 272.069 222.982 272.258 223.199 272.496C223.415 272.734 223.582 273.014 223.688 273.32C223.794 273.627 223.837 273.952 223.815 274.276Z" fill="#00337B"/>
<path d="M230.983 274.31C230.95 274.773 230.785 275.215 230.508 275.582C230.232 275.949 229.856 276.226 229.427 276.376C228.999 276.527 228.537 276.546 228.098 276.43C227.659 276.314 227.263 276.07 226.959 275.726C226.655 275.382 226.456 274.955 226.387 274.496C226.318 274.038 226.383 273.569 226.572 273.148C226.761 272.727 227.067 272.372 227.452 272.127C227.837 271.882 228.283 271.758 228.736 271.77C229.361 271.809 229.946 272.096 230.366 272.571C230.786 273.046 231.008 273.67 230.983 274.31Z" fill="#00337B"/>
<path d="M238.14 274.345C238.107 274.807 237.942 275.249 237.666 275.617C237.389 275.984 237.013 276.26 236.585 276.411C236.156 276.561 235.694 276.58 235.255 276.465C234.816 276.349 234.42 276.104 234.116 275.76C233.812 275.417 233.613 274.989 233.544 274.531C233.476 274.073 233.54 273.604 233.729 273.183C233.918 272.761 234.224 272.406 234.609 272.161C234.994 271.916 235.44 271.792 235.893 271.805C236.518 271.843 237.104 272.131 237.524 272.606C237.944 273.081 238.165 273.705 238.14 274.345Z" fill="#00337B"/>
<path d="M245.298 274.368C245.267 274.831 245.103 275.274 244.828 275.643C244.552 276.012 244.177 276.29 243.749 276.442C243.32 276.595 242.857 276.615 242.418 276.501C241.978 276.386 241.581 276.142 241.276 275.799C240.971 275.455 240.771 275.028 240.701 274.569C240.632 274.111 240.695 273.641 240.884 273.219C241.074 272.797 241.38 272.442 241.765 272.196C242.15 271.951 242.597 271.827 243.05 271.839C243.673 271.878 244.257 272.164 244.677 272.636C245.096 273.108 245.319 273.73 245.298 274.368Z" fill="#00337B"/>
<path d="M252.466 274.402C252.435 274.863 252.274 275.304 252.001 275.672C251.728 276.04 251.356 276.318 250.931 276.473C250.506 276.627 250.046 276.651 249.607 276.541C249.169 276.432 248.771 276.193 248.464 275.856C248.156 275.518 247.951 275.095 247.875 274.64C247.799 274.185 247.855 273.717 248.036 273.294C248.216 272.871 248.514 272.511 248.892 272.259C249.27 272.006 249.711 271.872 250.163 271.874C250.796 271.898 251.393 272.177 251.825 272.651C252.257 273.125 252.487 273.755 252.466 274.402Z" fill="#00337B"/>
<path d="M259.623 274.437C259.645 274.761 259.602 275.086 259.496 275.392C259.39 275.698 259.223 275.979 259.007 276.217C258.79 276.454 258.528 276.644 258.237 276.773C257.946 276.903 257.632 276.969 257.314 276.969C256.997 276.969 256.682 276.903 256.391 276.773C256.1 276.644 255.838 276.454 255.621 276.217C255.405 275.979 255.238 275.698 255.132 275.392C255.026 275.086 254.983 274.761 255.005 274.437C254.983 274.113 255.026 273.788 255.132 273.481C255.238 273.175 255.405 272.895 255.621 272.657C255.838 272.419 256.1 272.23 256.391 272.1C256.682 271.971 256.997 271.904 257.314 271.904C257.632 271.904 257.946 271.971 258.237 272.1C258.528 272.23 258.79 272.419 259.007 272.657C259.223 272.895 259.39 273.175 259.496 273.481C259.602 273.788 259.645 274.113 259.623 274.437Z" fill="#00337B"/>
<path d="M266.78 274.471C266.75 274.932 266.588 275.373 266.315 275.741C266.042 276.109 265.671 276.387 265.245 276.542C264.82 276.696 264.36 276.72 263.921 276.61C263.483 276.501 263.085 276.262 262.778 275.925C262.47 275.587 262.266 275.164 262.19 274.709C262.114 274.254 262.169 273.786 262.35 273.363C262.53 272.94 262.828 272.58 263.206 272.328C263.584 272.075 264.026 271.941 264.477 271.943C265.11 271.967 265.708 272.246 266.139 272.72C266.571 273.194 266.801 273.824 266.78 274.471Z" fill="#00337B"/>
<path d="M273.937 274.506C273.906 274.969 273.743 275.412 273.468 275.781C273.192 276.15 272.817 276.428 272.389 276.58C271.96 276.733 271.497 276.753 271.058 276.639C270.618 276.524 270.221 276.28 269.916 275.937C269.61 275.593 269.411 275.166 269.341 274.707C269.272 274.249 269.335 273.779 269.524 273.357C269.713 272.935 270.02 272.58 270.405 272.334C270.79 272.089 271.237 271.965 271.69 271.977C272.313 272.016 272.897 272.302 273.316 272.774C273.736 273.246 273.959 273.868 273.937 274.506Z" fill="#00337B"/>
<g opacity="0.2">
<path d="M216.658 274.241C216.625 274.704 216.46 275.146 216.183 275.513C215.906 275.88 215.531 276.157 215.102 276.307C214.673 276.458 214.211 276.477 213.772 276.361C213.333 276.246 212.937 276.001 212.633 275.657C212.329 275.313 212.131 274.886 212.062 274.427C211.993 273.969 212.057 273.5 212.246 273.079C212.436 272.658 212.742 272.303 213.126 272.058C213.511 271.813 213.958 271.689 214.411 271.701C215.037 271.737 215.624 272.024 216.044 272.499C216.465 272.975 216.685 273.601 216.658 274.241Z" fill="white"/>
<path d="M223.815 274.276C223.837 274.6 223.794 274.925 223.688 275.231C223.582 275.537 223.415 275.818 223.199 276.055C222.982 276.293 222.72 276.482 222.429 276.612C222.138 276.741 221.823 276.808 221.506 276.808C221.188 276.808 220.874 276.741 220.583 276.612C220.292 276.482 220.03 276.293 219.813 276.055C219.597 275.818 219.43 275.537 219.324 275.231C219.218 274.925 219.175 274.6 219.197 274.276C219.175 273.952 219.218 273.626 219.324 273.32C219.43 273.014 219.597 272.733 219.813 272.496C220.03 272.258 220.292 272.069 220.583 271.939C220.874 271.81 221.188 271.743 221.506 271.743C221.823 271.743 222.138 271.81 222.429 271.939C222.72 272.069 222.982 272.258 223.199 272.496C223.415 272.733 223.582 273.014 223.688 273.32C223.794 273.626 223.837 273.952 223.815 274.276Z" fill="white"/>
<path d="M230.983 274.31C230.95 274.772 230.785 275.215 230.508 275.582C230.232 275.949 229.856 276.225 229.427 276.376C228.999 276.527 228.537 276.545 228.098 276.43C227.659 276.314 227.263 276.069 226.959 275.726C226.655 275.382 226.456 274.954 226.387 274.496C226.318 274.038 226.383 273.569 226.572 273.148C226.761 272.727 227.067 272.372 227.452 272.127C227.837 271.882 228.283 271.758 228.736 271.77C229.361 271.808 229.946 272.096 230.366 272.571C230.786 273.046 231.008 273.67 230.983 274.31Z" fill="white"/>
<path d="M238.14 274.344C238.107 274.807 237.942 275.249 237.666 275.616C237.389 275.983 237.013 276.26 236.585 276.41C236.156 276.561 235.694 276.58 235.255 276.464C234.816 276.349 234.42 276.104 234.116 275.76C233.812 275.416 233.613 274.989 233.544 274.531C233.476 274.072 233.54 273.603 233.729 273.182C233.918 272.761 234.224 272.406 234.609 272.161C234.994 271.916 235.44 271.792 235.893 271.804C236.518 271.843 237.104 272.13 237.524 272.605C237.944 273.08 238.165 273.704 238.14 274.344Z" fill="white"/>
<path d="M245.298 274.368C245.267 274.831 245.103 275.274 244.828 275.643C244.552 276.012 244.177 276.29 243.749 276.442C243.32 276.595 242.857 276.615 242.418 276.501C241.978 276.386 241.581 276.142 241.276 275.799C240.971 275.455 240.771 275.028 240.701 274.569C240.632 274.11 240.695 273.641 240.884 273.219C241.074 272.797 241.38 272.441 241.765 272.196C242.15 271.951 242.597 271.826 243.05 271.839C243.673 271.877 244.257 272.163 244.677 272.636C245.096 273.108 245.319 273.73 245.298 274.368Z" fill="white"/>
<path d="M252.466 274.402C252.435 274.863 252.274 275.304 252.001 275.672C251.728 276.04 251.356 276.318 250.931 276.473C250.506 276.627 250.046 276.651 249.607 276.541C249.169 276.432 248.771 276.193 248.464 275.856C248.156 275.518 247.951 275.095 247.875 274.64C247.799 274.185 247.855 273.717 248.036 273.294C248.216 272.871 248.514 272.511 248.892 272.259C249.27 272.006 249.711 271.872 250.163 271.874C250.796 271.898 251.393 272.177 251.825 272.651C252.257 273.125 252.487 273.755 252.466 274.402Z" fill="white"/>
<path d="M259.623 274.437C259.645 274.761 259.602 275.086 259.496 275.392C259.39 275.698 259.223 275.979 259.007 276.217C258.79 276.454 258.528 276.644 258.237 276.773C257.946 276.903 257.632 276.97 257.314 276.97C256.997 276.97 256.682 276.903 256.391 276.773C256.1 276.644 255.838 276.454 255.621 276.217C255.405 275.979 255.238 275.698 255.132 275.392C255.026 275.086 254.983 274.761 255.005 274.437C254.983 274.113 255.026 273.788 255.132 273.481C255.238 273.175 255.405 272.895 255.621 272.657C255.838 272.419 256.1 272.23 256.391 272.101C256.682 271.971 256.997 271.904 257.314 271.904C257.632 271.904 257.946 271.971 258.237 272.101C258.528 272.23 258.79 272.419 259.007 272.657C259.223 272.895 259.39 273.175 259.496 273.481C259.602 273.788 259.645 274.113 259.623 274.437Z" fill="white"/>
<path d="M266.78 274.471C266.75 274.932 266.588 275.373 266.315 275.741C266.042 276.109 265.671 276.387 265.245 276.542C264.82 276.696 264.36 276.72 263.921 276.61C263.483 276.501 263.085 276.262 262.778 275.925C262.47 275.587 262.266 275.164 262.19 274.709C262.114 274.254 262.169 273.786 262.35 273.363C262.53 272.94 262.828 272.58 263.206 272.328C263.584 272.075 264.026 271.941 264.477 271.943C265.11 271.967 265.708 272.246 266.139 272.72C266.571 273.194 266.801 273.824 266.78 274.471Z" fill="white"/>
<path d="M273.937 274.506C273.906 274.969 273.743 275.412 273.468 275.781C273.192 276.15 272.817 276.428 272.389 276.58C271.96 276.733 271.497 276.753 271.058 276.639C270.618 276.524 270.221 276.28 269.916 275.937C269.61 275.593 269.411 275.166 269.341 274.707C269.272 274.249 269.335 273.779 269.524 273.357C269.713 272.935 270.02 272.58 270.405 272.334C270.79 272.089 271.237 271.965 271.69 271.977C272.313 272.016 272.897 272.302 273.316 272.774C273.736 273.246 273.959 273.868 273.937 274.506Z" fill="white"/>
</g>
<path d="M263.769 108.575C264.55 108.223 265.212 107.644 265.673 106.911C266.135 106.177 266.375 105.321 266.364 104.448C266.394 103.881 266.309 103.314 266.117 102.781C265.925 102.248 265.629 101.761 265.247 101.349C264.865 100.937 264.405 100.609 263.895 100.385C263.385 100.161 262.835 100.045 262.28 100.045C261.725 100.045 261.176 100.161 260.666 100.385C260.156 100.609 259.696 100.937 259.314 101.349C258.931 101.761 258.635 102.248 258.443 102.781C258.251 103.314 258.167 103.881 258.196 104.448C258.179 105.329 258.417 106.196 258.881 106.939C259.345 107.681 260.014 108.267 260.803 108.621C254.511 109.586 254.792 116.575 254.792 116.575L269.668 116.644C269.668 116.644 270.016 109.529 263.769 108.575Z" fill="#00337B"/>
<path opacity="0.1" d="M263.769 108.575C264.55 108.223 265.212 107.644 265.673 106.911C266.135 106.177 266.375 105.321 266.364 104.448C266.394 103.881 266.309 103.314 266.117 102.781C265.925 102.248 265.629 101.761 265.247 101.349C264.865 100.937 264.405 100.609 263.895 100.385C263.385 100.161 262.835 100.045 262.28 100.045C261.725 100.045 261.176 100.161 260.666 100.385C260.156 100.609 259.696 100.937 259.314 101.349C258.931 101.761 258.635 102.248 258.443 102.781C258.251 103.314 258.167 103.881 258.196 104.448C258.179 105.329 258.417 106.196 258.881 106.939C259.345 107.681 260.014 108.267 260.803 108.621C254.511 109.586 254.792 116.575 254.792 116.575L269.668 116.644C269.668 116.644 270.016 109.529 263.769 108.575Z" fill="black"/>
<path d="M287.942 121.151L234.921 120.905L234.893 127.388L287.913 127.634L287.942 121.151Z" fill="#00337B"/>
<path opacity="0.2" d="M287.942 121.151L234.921 120.905L234.893 127.388L287.913 127.634L287.942 121.151Z" fill="white"/>
<path d="M93.0204 154.747H92.4923L90.9643 154.862C90.1373 154.913 89.315 155.024 88.5036 155.195C87.9781 155.271 87.4568 155.374 86.9419 155.506L85.2004 156C82.2362 156.93 79.4395 158.347 76.9197 160.195C73.5904 162.668 70.8104 165.833 68.7625 169.483C67.5589 171.587 66.601 173.828 65.9087 176.161C65.1811 178.696 64.7623 181.314 64.6615 183.954C64.5946 185.341 64.6171 186.731 64.7289 188.115C64.7289 188.816 64.9199 189.517 65.0098 190.23C65.0854 190.948 65.2169 191.659 65.4031 192.356C66.4134 196.969 68.4634 201.276 71.3896 204.934C74.3157 208.592 78.037 211.5 82.2566 213.425C85.3106 214.773 88.5839 215.526 91.9081 215.644C95.3414 215.837 98.7781 215.333 102.02 214.161L103.009 213.782H103.144L103.256 213.851L117.424 221.207L117.009 221.575C115.492 216.77 114.031 212.115 112.615 207.644V207.471L112.739 207.345C116.176 203.803 118.727 199.466 120.177 194.701C121.49 190.345 121.873 185.751 121.301 181.23C120.791 177.212 119.529 173.333 117.582 169.805C115.903 166.774 113.738 164.054 111.177 161.759C109.064 159.942 106.726 158.419 104.222 157.23C102.328 156.394 100.355 155.759 98.3349 155.333L96.0877 154.954L94.4586 154.828L93.4698 154.759H93.1328C93.2448 154.746 93.3578 154.746 93.4698 154.759H94.4698L96.099 154.828L98.3461 155.161C100.392 155.555 102.391 156.168 104.312 156.988C106.859 158.164 109.239 159.683 111.391 161.506C113.999 163.791 116.21 166.511 117.93 169.552C119.932 173.118 121.234 177.05 121.761 181.126C122.381 185.717 122.025 190.391 120.716 194.828C119.257 199.692 116.666 204.121 113.166 207.736L113.233 207.437C114.649 211.908 116.121 216.563 117.649 221.356L117.863 222.057L117.222 221.724L103.054 214.379H103.301L102.29 214.759C98.9854 215.948 95.485 216.464 91.9867 216.276C88.5909 216.144 85.2491 215.364 82.133 213.977C76.189 211.373 71.2436 206.847 68.0547 201.092C66.5872 198.434 65.5155 195.567 64.875 192.586C64.6996 191.871 64.5682 191.146 64.4817 190.414C64.3919 189.69 64.2458 188.977 64.2121 188.264C63.908 184.175 64.3305 180.062 65.4592 176.126C66.1689 173.762 67.1534 171.492 68.3918 169.368C70.4885 165.685 73.3264 162.499 76.7174 160.023C79.2787 158.17 82.1224 156.764 85.1329 155.862L86.8969 155.402C87.4161 155.279 87.9412 155.183 88.4699 155.115C89.2897 154.96 90.1198 154.867 90.953 154.839L92.4923 154.782C92.6673 154.757 92.8438 154.746 93.0204 154.747Z" fill="#00337B"/>
<path d="M99.4244 181.552H97.3458L92.8516 175.092V170.851C92.8516 170.851 89.6382 170.644 90.0202 176.195C90.4022 181.747 90.0202 180.333 90.0202 180.333C90.0202 180.333 83.2001 180.333 82.6383 180.966C82.0765 181.598 82.0428 188.333 81.9642 192.092C81.9211 192.998 82.1752 193.893 82.6862 194.634C83.1972 195.376 83.9356 195.921 84.7843 196.184C85.0222 196.251 85.2678 196.286 85.5146 196.287C87.2225 196.287 95.9077 194.874 95.9077 194.874H99.4918L99.4244 181.552Z" fill="#00337B"/>
<path d="M105.368 180.414L104.087 194.943H100.537V180.713L105.368 180.414Z" fill="#00337B"/>
<path d="M147.716 476.195V466.368L130.492 466.241L130.345 481.103L131.413 481.184C136.166 481.494 155.592 481.954 158.783 480.943C162.333 479.816 147.716 476.195 147.716 476.195Z" fill="#00337B"/>
<path d="M159.187 480.023C159.187 480.184 152.738 480.322 144.795 480.322C136.851 480.322 130.402 480.184 130.402 480.023C130.402 479.862 136.851 479.724 144.795 479.724C152.738 479.724 159.187 479.862 159.187 480.023Z" fill="#263238"/>
<path d="M148.019 478.207C147.873 478.126 148.019 477.609 148.367 477.057C148.716 476.506 149.188 476.276 149.3 476.391C149.412 476.506 149.176 476.943 148.839 477.414C148.502 477.885 148.165 478.287 148.019 478.207Z" fill="#263238"/>
<path d="M149.12 478.851C148.963 478.851 149.042 478.207 149.379 477.598C149.716 476.988 150.165 476.621 150.289 476.713C150.412 476.805 150.21 477.322 149.896 477.862C149.581 478.402 149.266 478.908 149.12 478.851Z" fill="#263238"/>
<path d="M135.593 479.977C135.525 479.977 135.267 479.77 134.896 479.333C134.443 478.772 133.939 478.256 133.39 477.793C132.851 477.352 132.208 477.063 131.525 476.954C130.997 476.885 130.66 476.954 130.626 476.885C130.593 476.816 130.919 476.575 131.536 476.529C132.352 476.511 133.148 476.788 133.784 477.31C134.38 477.807 134.882 478.411 135.267 479.092C135.525 479.598 135.66 479.931 135.593 479.977Z" fill="#263238"/>
<path d="M148.076 476.356C148.154 476.494 147.862 476.839 147.368 477.023C146.873 477.207 146.435 477.138 146.413 477.023C146.39 476.908 146.738 476.667 147.165 476.506C147.592 476.345 147.986 476.218 148.076 476.356Z" fill="#263238"/>
<path d="M147.806 475.402C147.806 475.575 147.356 475.713 146.772 475.724C146.188 475.736 145.727 475.598 145.738 475.437C145.749 475.276 146.21 475.126 146.772 475.115C147.334 475.103 147.783 475.241 147.806 475.402Z" fill="#263238"/>
<path d="M190.13 476.195V466.368L172.906 466.241L172.76 480.954L173.827 481.035C178.58 481.345 198.018 481.954 201.198 480.943C204.748 479.816 190.13 476.195 190.13 476.195Z" fill="#00337B"/>
<path d="M201.602 480.046C201.602 480.207 195.164 480.345 187.209 480.345C179.254 480.345 172.828 480.207 172.828 480.046C172.828 479.885 179.266 479.747 187.209 479.747C195.153 479.747 201.602 479.885 201.602 480.046Z" fill="#263238"/>
<path d="M190.434 478.207C190.299 478.126 190.434 477.609 190.782 477.057C191.13 476.506 191.602 476.276 191.715 476.391C191.827 476.506 191.591 476.943 191.254 477.414C190.917 477.885 190.58 478.287 190.434 478.207Z" fill="#263238"/>
<path d="M191.535 478.851C191.389 478.851 191.456 478.207 191.805 477.598C192.153 476.988 192.591 476.621 192.715 476.713C192.838 476.805 192.625 477.322 192.31 477.862C191.996 478.402 191.692 478.908 191.535 478.851Z" fill="#263238"/>
<path d="M178.007 479.977C177.94 479.977 177.693 479.77 177.311 479.333C176.858 478.772 176.354 478.256 175.805 477.793C175.265 477.352 174.622 477.063 173.94 476.954C173.423 476.885 173.075 476.954 173.041 476.885C173.007 476.816 173.333 476.575 173.951 476.529C174.767 476.511 175.562 476.788 176.198 477.31C176.797 477.804 177.3 478.408 177.681 479.092C177.94 479.598 178.075 479.931 178.007 479.977Z" fill="#263238"/>
<path d="M190.49 476.356C190.569 476.494 190.277 476.839 189.782 477.023C189.288 477.207 188.85 477.138 188.827 477.023C188.805 476.908 189.153 476.667 189.58 476.506C190.007 476.345 190.4 476.218 190.49 476.356Z" fill="#263238"/>
<path d="M190.243 475.402C190.243 475.575 189.793 475.713 189.209 475.724C188.625 475.736 188.175 475.598 188.187 475.437C188.198 475.276 188.647 475.126 189.209 475.115C189.771 475.103 190.243 475.241 190.243 475.402Z" fill="#263238"/>
<path d="M253.59 184.356C253.14 183.885 252.028 184.115 252.028 184.115C252.14 183.453 252.14 182.777 252.028 182.115C251.826 181.471 250.41 181.598 250.41 181.598C250.345 181.056 250.345 180.508 250.41 179.966C250.421 179.845 250.396 179.725 250.338 179.62C250.279 179.515 250.191 179.431 250.084 179.379C249.414 179.1 248.695 178.967 247.972 178.989C247.107 178.356 250.612 173.333 251.916 171.724C253.219 170.115 252.983 168.862 251.826 168.862C251.028 168.862 246.938 173.69 245.68 175.31C244.421 176.931 241.084 181.437 240.972 177.839C240.86 174.241 239.444 171.529 238.556 171.069C237.669 170.609 236.725 171.69 237.208 172.69C237.633 173.826 237.897 175.018 237.995 176.23C238.117 177.196 238.075 178.175 237.871 179.126C237.499 180.896 236.991 182.633 236.354 184.322H236.264C236.264 184.322 211.748 208.379 209.973 210.092C208.389 211.632 176.524 208.264 170.131 207.575C167.959 207.25 165.765 207.096 163.569 207.115C160.794 207.241 160.3 207.644 157.536 207.678C150.556 207.757 143.592 208.384 136.705 209.552C133.587 210.094 130.674 211.502 128.284 213.622C125.895 215.743 124.12 218.493 123.155 221.575C116.717 242.149 102.133 290.851 99.5597 318.207C97.6154 321.814 95.8602 325.524 94.3014 329.322C92.4924 334.356 92.9306 334.529 93.5373 334.644C95.1778 334.954 97.0429 325.92 97.7395 328.104C98.4361 330.287 94.2003 338.874 95.9193 339.126C98.1665 339.448 99.9529 329.931 100.166 329.172C100.38 328.414 101.492 328.655 101.29 329.368C100.964 330.379 97.8069 341.103 100.009 341.448C101.223 341.632 101.357 339.368 101.357 339.368C101.357 339.368 103.605 329.104 104.627 329.31C105.649 329.517 104.56 335.575 104.043 337.598C103.526 339.621 104.245 340.644 105.301 340.149C106.02 339.805 107.739 333.655 108.211 331.655C108.683 329.655 109.863 324.115 111.447 327.322C113.031 330.529 115.436 332.391 116.424 332.437C116.647 332.411 116.857 332.317 117.027 332.167C117.198 332.018 117.32 331.82 117.379 331.598C117.439 331.377 117.432 331.143 117.36 330.926C117.288 330.708 117.154 330.518 116.975 330.379C116.125 329.53 115.395 328.563 114.807 327.506C114.282 326.683 113.902 325.773 113.683 324.816C113.23 322.909 112.967 320.961 112.896 319L112.717 317.851C115.233 305.103 122.48 267.69 132.941 243.793L137.233 252.828L139.098 259.517L127.66 288.402L176.446 287.747L169.165 259.081L178.007 229.195C187.569 229.414 212.119 229.782 216.209 227.885C221.355 225.586 247.972 191.195 247.972 191.195C249.707 189.816 251.368 188.343 252.949 186.782C252.949 186.782 254.567 185.391 253.59 184.356Z" fill="#FFBE9D"/>
<path d="M125.514 267.057C126.93 262.115 134.199 237.678 134.199 237.678C134.199 237.678 137.772 257.598 136.828 260C135.96 262.057 134.934 264.04 133.761 265.931C125.514 278.77 126.593 285.195 126.593 285.195L176.423 283.644C176.535 276.517 172.412 259.943 171.558 257.299C170.704 254.655 173.546 246 173.546 246C173.546 246 179.164 240.149 178.962 237.138C178.855 234.433 178.528 231.742 177.985 229.092L208.321 230.241L207.366 209.207L163.794 204.747C162.277 209.126 148.558 206.977 148.558 206.977C133.75 207.483 132.828 210.264 126.671 215.161C120.514 220.057 110.323 262.08 110.323 262.08L125.514 267.057Z" fill="#00337B"/>
<path d="M154.974 262.08C154.111 262.238 153.231 262.285 152.356 262.218C150.727 262.218 148.491 262.103 146.03 261.851C143.57 261.598 141.345 261.241 139.761 260.92C138.887 260.804 138.031 260.581 137.21 260.253C138.089 260.253 138.965 260.338 139.828 260.506C141.424 260.713 143.637 261 146.087 261.253C148.536 261.506 150.761 261.678 152.367 261.793C153.243 261.804 154.116 261.901 154.974 262.08Z" fill="#263238"/>
<path d="M158.39 257.747C157.526 258.18 156.612 258.501 155.671 258.701C151.188 259.906 146.563 260.467 141.929 260.368C140.97 260.4 140.011 260.307 139.075 260.092C140.022 259.97 140.976 259.92 141.929 259.943C143.693 259.885 146.12 259.759 148.794 259.437C151.468 259.115 153.85 258.655 155.536 258.287C156.472 258.032 157.426 257.851 158.39 257.747Z" fill="#263238"/>
<path d="M175.153 238.414C175.131 239.29 175.014 240.161 174.805 241.012C174.513 242.609 174.063 244.793 173.49 247.184C172.917 249.575 172.367 251.782 171.872 253.276C171.674 254.131 171.38 254.96 170.996 255.747C171.059 254.874 171.217 254.01 171.468 253.172C171.895 251.379 172.378 249.31 172.917 247.046C173.457 244.782 173.974 242.713 174.401 240.92C174.553 240.057 174.805 239.215 175.153 238.414Z" fill="#263238"/>
<path d="M126.042 264.126C123.443 263.716 120.877 263.105 118.368 262.299C115.804 261.686 113.288 260.879 110.84 259.885C113.438 260.302 116.003 260.913 118.514 261.713C121.079 262.324 123.595 263.131 126.042 264.126Z" fill="#263238"/>
<path d="M178.524 228.839C178.1 228.914 177.667 228.914 177.243 228.839C176.07 228.716 174.917 228.434 173.816 228C171.978 227.294 170.305 226.201 168.904 224.794C167.503 223.387 166.405 221.695 165.682 219.828C164.882 217.774 164.54 215.563 164.682 213.356C164.732 211.537 165.264 209.765 166.221 208.23C166.894 207.196 167.9 206.436 169.064 206.081C169.375 205.993 169.696 205.95 170.019 205.954C170.243 205.954 170.356 205.954 170.356 205.954C170.356 205.954 169.884 205.954 169.131 206.264C168.063 206.668 167.158 207.424 166.558 208.414C165.03 210.874 164.603 215.368 166.232 219.563C166.99 221.541 168.177 223.318 169.704 224.759C170.955 225.938 172.395 226.887 173.962 227.563C175.433 228.158 176.962 228.586 178.524 228.839Z" fill="#263238"/>
<path d="M204.714 229.828C204.433 226.303 204.343 222.765 204.445 219.23C204.357 215.698 204.462 212.164 204.759 208.644C205.04 212.165 205.131 215.699 205.029 219.23C205.123 222.766 205.018 226.304 204.714 229.828Z" fill="#263238"/>
<path d="M163.502 206.035C163.626 203.471 163.884 200.575 163.884 200.575C163.884 200.575 170.086 199.874 170.457 193.322C170.828 186.77 170.457 171.655 170.457 171.655L159.221 165.77L146.75 175.805L148.671 208.563L160.109 209.31C160.983 209.335 161.831 209.004 162.467 208.39C163.103 207.776 163.475 206.929 163.502 206.035Z" fill="#FFBE9D"/>
<path d="M164.614 188.138C164.614 188.138 164.614 188.264 164.513 188.414C164.429 188.522 164.321 188.608 164.198 188.664C164.075 188.72 163.94 188.745 163.805 188.736C163.086 188.736 162.389 187.885 162.142 186.897C162.025 186.417 162.025 185.916 162.142 185.437C162.165 185.228 162.239 185.028 162.357 184.855C162.475 184.683 162.633 184.543 162.816 184.448C162.968 184.384 163.137 184.384 163.288 184.448C163.4 184.505 163.491 184.598 163.547 184.713C163.625 184.908 163.547 185.035 163.547 185.023C163.547 185.012 163.547 184.908 163.434 184.793C163.376 184.711 163.289 184.654 163.192 184.632C163.094 184.611 162.993 184.627 162.906 184.678C162.769 184.763 162.654 184.883 162.573 185.026C162.493 185.168 162.449 185.33 162.446 185.494C162.351 185.922 162.351 186.366 162.446 186.793C162.67 187.69 163.277 188.414 163.816 188.483C163.922 188.497 164.029 188.49 164.132 188.46C164.234 188.43 164.33 188.379 164.412 188.31C164.547 188.218 164.592 188.126 164.614 188.138Z" fill="#EB996E"/>
<path d="M174.311 168.115C173.445 165.103 170.311 163.609 167.457 162.782C163.109 161.517 158.412 160.965 154.165 162.563C149.918 164.161 144.817 166.965 144.817 171.759C142.311 171.552 140.873 173.793 139.884 176.575C139.252 178.269 138.873 180.052 138.761 181.862C138.446 188.138 136.727 196.805 132.75 201.402C130.503 203.965 127.39 205.736 126.109 208.931C124.986 211.701 125.57 214.988 124.525 217.793C123.593 220.264 121.537 222.023 120.031 224.172C118.497 226.611 117.594 229.408 117.408 232.301C117.221 235.195 117.756 238.089 118.964 240.713C120.179 243.269 121.891 245.545 123.995 247.403C126.098 249.26 128.55 250.66 131.199 251.517C136.447 253.151 142.044 253.206 147.322 251.678C151.284 250.709 154.979 248.835 158.131 246.195C161.356 243.501 163.571 239.749 164.401 235.575C165.198 230.885 163.918 226.115 162.963 221.448C159.974 206.701 160.828 205.931 164.603 192.241C164.693 192 164.738 191.747 164.805 191.506C164.873 191.264 164.906 191.149 164.951 190.965C165.058 190.424 165.115 189.874 165.12 189.322C164.568 189.532 163.97 189.576 163.395 189.45C162.819 189.323 162.291 189.032 161.873 188.609C161.453 188.158 161.16 187.6 161.026 186.993C160.891 186.386 160.92 185.753 161.109 185.161C161.374 184.514 161.769 183.931 162.268 183.449C162.767 182.968 163.36 182.6 164.007 182.368C165.255 181.839 166.592 181.563 167.816 180.977C170.412 179.713 172.209 177.092 173.434 174.345C174.441 172.441 174.752 170.232 174.311 168.115Z" fill="#263238"/>
<path d="M165.064 188.448C165.301 188.807 165.497 189.193 165.648 189.598C165.985 190.322 166.435 191.345 166.929 192.529L167.019 192.747H166.783L165.659 192.851C164.884 192.851 164.232 193 163.468 192.989C163.402 192.973 163.34 192.941 163.289 192.895C163.238 192.849 163.199 192.79 163.176 192.724C163.143 192.62 163.143 192.507 163.176 192.402C163.202 192.247 163.236 192.094 163.277 191.943L163.48 191.126C163.581 190.582 163.739 190.05 163.951 189.54C163.931 190.095 163.851 190.646 163.716 191.184L163.558 192C163.502 192.276 163.401 192.701 163.558 192.667C164.12 192.667 164.918 192.54 165.659 192.494L166.783 192.391L166.637 192.644C166.154 191.494 165.749 190.414 165.513 189.667C165.306 189.285 165.155 188.875 165.064 188.448Z" fill="#00337B"/>
<path d="M126.593 285.195L176.423 283.644L198.108 370.241L194.119 469.575H167.771L170.996 372.356L151.727 312.069L154.693 473.425L128.064 473.828L125.267 322.161C125.143 317.943 123.795 308.437 124.3 304.253L126.593 285.195Z" fill="#263238"/>
<path d="M158.356 313.299C157.541 313.351 156.722 313.301 155.918 313.149C154.412 312.966 152.356 312.644 150.098 312.184C147.84 311.724 145.817 311.195 144.357 310.77C143.576 310.595 142.82 310.316 142.109 309.943C142.109 309.77 145.772 310.667 150.266 311.598C154.761 312.529 158.379 313.126 158.356 313.299Z" fill="#455A64"/>
<path d="M193.85 464.126C193.85 464.287 187.883 464.425 180.524 464.425C173.165 464.425 167.187 464.287 167.187 464.126C167.187 463.966 173.153 463.828 180.524 463.828C187.895 463.828 193.85 463.954 193.85 464.126Z" fill="#455A64"/>
<path d="M154.457 469.23C154.457 469.402 148.66 469.529 141.514 469.529C134.368 469.529 128.582 469.402 128.582 469.23C128.582 469.057 134.379 468.931 141.514 468.931C148.649 468.931 154.457 469.069 154.457 469.23Z" fill="#455A64"/>
<path d="M151.019 468.816C150.862 468.816 150.165 433.563 149.457 390.08C148.749 346.598 148.334 311.322 148.48 311.322C148.626 311.322 149.345 346.563 150.042 390.069C150.738 433.575 151.188 468.816 151.019 468.816Z" fill="#455A64"/>
<path d="M190.31 464.126C190.298 463.97 190.298 463.812 190.31 463.655V462.276C190.31 461.034 190.4 459.253 190.467 456.988C190.625 452.391 190.849 445.713 191.13 437.529C191.737 421.069 192.591 398.379 193.524 373.333C193.524 373.092 193.524 372.862 193.524 372.655V372.736C187.625 348.598 182.288 326.69 178.412 310.839L173.917 292.092C173.4 289.897 173.007 288.184 172.726 286.989C172.591 286.425 172.502 285.989 172.423 285.655C172.379 285.506 172.353 285.351 172.344 285.195C172.403 285.34 172.448 285.49 172.479 285.644C172.569 285.966 172.681 286.402 172.839 286.954C173.142 288.103 173.58 289.851 174.142 292.034C175.266 296.471 176.85 302.862 178.827 310.736C182.737 326.575 188.13 348.425 194.108 372.598V372.678C194.108 372.885 194.108 373.126 194.108 373.356C193.108 398.402 192.198 421.08 191.535 437.54C191.186 445.736 190.894 452.368 190.692 456.988C190.58 459.287 190.49 461.034 190.434 462.276C190.434 462.862 190.366 463.322 190.355 463.655C190.357 463.813 190.342 463.971 190.31 464.126Z" fill="#455A64"/>
<path d="M181.715 370.632C179.823 371.269 177.873 371.712 175.895 371.954C173.468 372.379 171.401 372.678 170.468 372.724V372.494C170.771 372.586 170.929 372.644 170.929 372.69C170.929 372.736 170.738 372.69 170.423 372.69H169.749L170.423 372.483C171.3 372.218 173.367 371.782 175.794 371.333C177.74 370.901 179.724 370.666 181.715 370.632Z" fill="#455A64"/>
<path d="M181.254 373.931C179.502 374.013 177.746 373.932 176.007 373.69C174.252 373.653 172.504 373.457 170.783 373.103C174.294 372.81 177.829 373.09 181.254 373.931Z" fill="#455A64"/>
<path opacity="0.2" d="M126.379 287.023C126.97 287.798 127.713 288.437 128.561 288.899C129.409 289.36 130.342 289.634 131.301 289.701C133.308 289.944 135.338 289.906 137.334 289.586C150.199 288.126 163.828 286.782 176.423 283.644C160.12 284.575 142.896 284.264 126.593 285.195L126.424 286.621" fill="black"/>
<g opacity="0.2">
<path d="M143.177 310.529L152.368 347.012L151.727 312.069L143.177 310.529Z" fill="black"/>
</g>
</svg>
