<svg width="475" height="468" viewBox="0 0 475 468" fill="none" xmlns="http://www.w3.org/2000/svg">
<path d="M466.073 302.548H461.002H231.408H226.336V315.637H231.408V448.664H461.002V315.637H466.073V302.548Z" fill="#00337B"/>
<path opacity="0.5" d="M466.073 302.548H461.002H231.408H226.336V315.637H231.408V448.664H461.002V315.637H466.073V302.548Z" fill="white"/>
<path d="M237.56 372.018H300.174V328.987H237.56V372.018ZM238.831 330.577H298.903V370.474H238.831V330.577Z" fill="white"/>
<path d="M315.317 372.018H377.943V328.987H315.317V372.018ZM316.612 330.623H376.696V370.474H316.612V330.623Z" fill="white"/>
<path d="M393.088 328.987V372.018H455.702V328.987H393.088ZM454.431 370.474H394.359V330.623H454.431V370.474Z" fill="white"/>
<path d="M237.56 429.865H300.174V386.788H237.56V429.865ZM238.831 388.424H298.903V428.229H238.831V388.424Z" fill="white"/>
<path d="M315.317 429.865H377.943V386.788H315.317V429.865ZM316.612 388.424H376.696V428.229H316.612V388.424Z" fill="white"/>
<path d="M393.088 429.865H455.702V386.788H393.088V429.865ZM394.359 388.424H454.431V428.229H394.359V388.424Z" fill="white"/>
<path d="M269.538 355.982C275.154 355.982 279.706 353.784 279.706 351.074C279.706 348.363 275.154 346.166 269.538 346.166C263.922 346.166 259.37 348.363 259.37 351.074C259.37 353.784 263.922 355.982 269.538 355.982Z" fill="white"/>
<path d="M346.925 355.982C352.54 355.982 357.093 353.784 357.093 351.074C357.093 348.363 352.54 346.166 346.925 346.166C341.309 346.166 336.757 348.363 336.757 351.074C336.757 353.784 341.309 355.982 346.925 355.982Z" fill="white"/>
<path d="M426.553 355.982C432.169 355.982 436.721 353.784 436.721 351.074C436.721 348.363 432.169 346.166 426.553 346.166C420.938 346.166 416.385 348.363 416.385 351.074C416.385 353.784 420.938 355.982 426.553 355.982Z" fill="white"/>
<path d="M269.538 403.967C263.926 403.967 259.37 406.158 259.37 408.875C259.37 411.591 263.926 413.767 269.538 413.767C275.15 413.767 279.706 411.576 279.706 408.875C279.706 406.174 275.15 403.967 269.538 403.967Z" fill="white"/>
<path d="M346.925 403.967C341.313 403.967 336.757 406.158 336.757 408.875C336.757 411.591 341.313 413.767 346.925 413.767C352.536 413.767 357.093 411.576 357.093 408.875C357.093 406.174 352.584 403.967 346.925 403.967Z" fill="white"/>
<path d="M426.553 403.967C420.942 403.967 416.397 406.158 416.397 408.875C416.397 411.591 420.942 413.767 426.553 413.767C432.165 413.767 436.721 411.576 436.721 408.875C436.721 406.174 432.177 403.967 426.553 403.967Z" fill="white"/>
<path d="M198.123 291.112C193.495 299.955 187.044 311.454 183.603 320.684C184.91 314.603 186.192 308.846 187.356 303.706C189.118 299.246 193.842 287.994 199.346 280.555C206.264 271.016 209.226 264.889 205.497 264.364C202.919 263.994 195.365 276.943 190.629 289.8C191.66 285.401 192.475 282.083 193.027 280.092C193.255 279.197 193.471 278.224 193.687 277.19C198.586 268.368 203.047 259.156 207.044 249.609C214.034 232.801 216.289 216.935 211.624 223.757C207.332 230.039 199.862 261.277 193.926 275.971C194.43 273.44 194.91 270.646 195.329 267.883C196.169 265.213 197.272 262.497 197.895 260.027C198.866 256.23 199.718 252.403 200.401 248.498C201.528 242.431 202.1 236.215 202.104 229.977C202.224 222.65 200.673 215.438 197.643 209.233C196.84 207.69 191.924 198.229 190.449 203.06C190.257 203.864 190.22 204.717 190.341 205.544C191.061 213.586 193.327 220.979 194.73 228.804C196.828 240.518 195.437 260.182 194.73 268.547C194.466 269.874 194.13 271.51 193.734 273.409C194.706 258.839 189.802 241.568 185.257 238.543C179.634 234.808 185.149 249.47 189.49 262.281C191.546 267.887 192.513 274.052 192.308 280.246C191.42 284.444 190.401 289.182 189.346 293.967C189.13 294.615 188.938 295.279 188.746 295.927C189.234 292.804 189.432 289.618 189.334 286.435C188.926 278.07 181.564 261.324 176.672 263.685C171.78 266.047 180.065 274.875 184.49 285.154C186.811 290.838 187.704 297.31 187.044 303.675C187.044 304.061 186.948 304.431 186.912 304.786C186.396 306.978 185.893 309.077 185.413 311.084C184.214 315.714 183.195 320.159 182.176 324.45C183.428 318.224 183.977 311.8 183.806 305.373C183.195 293.118 177.619 281.543 173.015 279.953C168.411 278.363 177.2 298.366 180.149 309.602C181.753 316.164 182.026 323.146 180.941 329.882C179.514 335.964 178.171 341.967 176.792 348.311C177.177 340.001 177.037 331.665 176.372 323.385C175.473 309.741 169.178 301.036 164.837 301.391C160.497 301.746 165.029 309.494 171.288 326.086C174.593 334.797 176.065 344.472 175.557 354.145C174.993 356.815 174.358 359.562 173.83 362.433C173.159 365.705 172.631 369.271 172.152 372.913C171.528 369.656 170.593 364.903 169.502 359.655C168.231 353.854 167.309 347.935 166.744 341.952C166.156 334.991 164.73 326.302 159.43 322.69C159.07 322.367 158.659 322.15 158.226 322.053C157.794 321.955 157.35 321.981 156.926 322.128C156.503 322.275 156.109 322.54 155.773 322.904C155.437 323.267 155.167 323.721 154.981 324.234C154.495 325.727 154.386 327.379 154.67 328.956C155.373 333.691 156.584 338.278 158.267 342.585C157.226 345.154 156.753 348.043 156.9 350.935C156.9 352.015 156.972 353.096 157.032 354.176C156.564 353.065 156.12 352.046 155.701 351.089C154.939 349.452 154.002 347.961 152.919 346.659C153.191 344.102 153.327 341.524 153.327 338.942C153.327 335.562 150.245 326.935 147.463 333.324C146.348 335.886 146.564 340.902 146.456 344.236C145.701 345.162 145.473 347.045 146.108 350.009C145.677 357.726 145.593 365.628 147.044 373.16L146.084 371.015C144.733 362.086 143.931 353.034 143.686 343.943C143.339 328.926 145.197 316.609 142.02 311.979C138.842 307.349 137.068 323.632 138.423 341.381C139.061 349.48 140.738 357.387 143.387 364.779C140.269 357.571 137.188 350.225 134.274 343.171C133.075 339.39 130.101 329.157 130.833 318.785C131.756 305.712 132.427 295.001 128.566 287.639C124.705 280.277 123.902 285.062 125.797 300.403C127.092 310.929 128.47 325.005 130.845 334.775C128.59 329.172 126.468 323.848 124.574 319.032C123.494 314.217 120.976 301.854 120.976 291.59C120.976 278.533 119.897 271.526 116.9 274.35C114.813 276.341 116.156 292.455 119.514 306.006C117.943 301.885 116.756 298.721 116.072 296.853C115.761 296.004 115.413 295.094 115.017 294.152C113.92 283.403 112.298 272.752 110.161 262.265C106.36 243.837 99.5855 230.255 99.8013 239.345C99.9931 247.711 111.096 277.097 114.562 293.056C113.578 290.757 112.439 288.303 111.288 285.91C110.485 283.209 109.849 280.261 108.998 277.915C107.691 274.288 106.288 270.739 104.717 267.281C102.319 261.845 99.4332 256.789 96.1202 252.218C92.2824 246.592 87.2258 242.572 81.5998 240.673C80.1849 240.241 71.5998 237.586 73.0626 242.525C73.3361 243.278 73.7475 243.935 74.2616 244.439C79.0578 249.686 84.6214 253.097 89.8492 257.589C97.595 264.318 107.008 279.906 110.892 286.682L112.739 291.112C105.725 279.598 92.9787 271.294 88.0626 273.085C81.9715 275.292 93.7701 281.157 103.734 286.698C108.211 288.988 112.187 292.648 115.317 297.363C116.9 301.221 118.662 305.558 120.425 309.988C120.629 310.651 120.821 311.3 121.024 311.948C119.729 309.237 118.187 306.735 116.432 304.493C111.696 298.752 97.4272 292.964 95.113 298.983C92.7989 305.002 103.506 304.2 112.211 307.812C116.9 309.929 120.966 313.859 123.854 319.063C124.022 319.372 124.178 319.696 124.346 319.989C125.137 322.026 125.881 324.017 126.588 325.9C128.219 330.33 129.777 334.482 131.3 338.51C128.923 332.84 125.923 327.642 122.391 323.076C115.437 314.649 105.221 311.099 100.988 314.032C96.7557 316.964 113.806 323.801 121.924 329.466C126.577 332.856 130.477 337.723 133.255 343.603C135.437 349.299 137.631 354.87 139.993 360.72C135.869 354.31 131.35 348.338 126.48 342.863C118.578 333.679 109.358 332.846 106.372 336.92C103.386 340.995 110.809 342.677 124.166 349.268C131.195 352.731 137.396 358.504 142.152 366.014C143.159 368.468 144.19 370.984 145.293 373.608C146.492 376.571 148.015 379.658 149.622 382.729C147.439 380.908 144.226 378.253 140.653 375.382C136.643 372.259 132.83 368.734 129.25 364.841C125.125 360.288 119.478 355.179 113.662 357.201C113.229 357.282 112.816 357.485 112.45 357.795C112.085 358.105 111.777 358.514 111.548 358.994C111.319 359.474 111.175 360.013 111.126 360.573C111.077 361.132 111.124 361.699 111.264 362.233C111.688 363.759 112.482 365.069 113.53 365.968C118.998 371.416 126.348 374.04 132.715 377.265C138.55 380.221 144.53 382.675 150.617 384.612C152.128 387.406 153.698 390.168 155.281 392.792L152.427 392.9C149.046 393.039 133.794 384.134 126.048 381.278C118.303 378.423 111.06 383.825 119.178 389.443C127.295 395.061 149.37 393.811 149.37 393.811L155.737 393.564C157.236 396.033 158.698 398.379 160.089 400.525H129.837V411.329H135.833L140.629 449.745H180.833L185.689 411.329H191.684V400.525H171.648C171.486 395.856 171.582 391.178 171.936 386.526C173.273 384.776 174.757 383.223 176.36 381.896C185.161 374.071 200.077 373.422 204.046 358.343C205.005 354.716 203.914 350.055 200.545 350.256C198.147 350.395 195.545 353.142 194.034 355.38C188.998 362.865 185.209 370.629 178.662 376.309C176.413 378.534 174.252 380.904 172.188 383.408C172.415 380.954 172.703 378.33 173.075 375.521C174.657 371.91 176.461 368.467 178.471 365.227C183.83 356.661 191.984 351.645 197.775 343.48C199.55 340.98 201.888 331.997 196.468 334.219C194.07 335.207 191.216 339.915 189.274 342.06C183.938 348.234 178.483 354.809 175.005 362.927C175.149 362.124 175.305 361.384 175.449 360.519C179.19 352.799 183.404 345.475 188.051 338.618C195.749 327.351 203.639 319.974 203.77 313.8C203.902 307.626 193.974 317.967 185.545 332.105C181.721 338.591 178.756 345.845 176.768 353.574C178.315 345.579 179.957 337.492 181.564 329.744C182.667 325.885 185.941 315.853 191.972 308.892C199.586 300.141 205.749 292.918 206.84 284.197C207.931 275.477 204.874 278.24 198.123 291.112ZM155.545 390.385C154.406 388.394 153.219 386.233 151.948 383.84C151.191 379.783 150.685 375.654 150.437 371.493C150.283 367.951 150.412 364.398 150.821 360.89C152.867 364.152 155.04 367.279 157.331 370.258C157.277 373.344 156.984 376.415 156.456 379.426C156.007 383.057 155.703 386.714 155.545 390.385ZM162.068 400.556C160.521 398.441 158.83 395.925 156.996 392.839C157.042 390.39 157.303 387.957 157.775 385.585C158.507 381.844 159.561 378.221 160.917 374.781C163.758 378.253 165.845 380.553 165.845 380.553L170.641 385.97C170.269 391.357 170.053 396.419 169.921 400.525L162.068 400.556ZM170.701 385.029L168.555 382.606C167.355 381.217 165.197 375.846 162.847 369.656C163.85 367.052 164.738 364.378 165.509 361.646C168.051 367.712 170.305 372.45 171.636 374.966C171.252 378.315 170.953 381.726 170.701 385.029Z" fill="#00337B"/>
<path opacity="0.5" d="M198.123 291.112C193.495 299.955 187.044 311.454 183.603 320.684C184.91 314.603 186.192 308.846 187.356 303.706C189.118 299.246 193.842 287.994 199.346 280.555C206.264 271.016 209.226 264.889 205.497 264.364C202.919 263.994 195.365 276.943 190.629 289.8C191.66 285.401 192.475 282.083 193.027 280.092C193.255 279.197 193.471 278.224 193.687 277.19C198.586 268.368 203.047 259.156 207.044 249.609C214.034 232.801 216.289 216.935 211.624 223.757C207.332 230.039 199.862 261.277 193.926 275.971C194.43 273.44 194.91 270.646 195.329 267.883C196.169 265.213 197.272 262.497 197.895 260.027C198.866 256.23 199.718 252.403 200.401 248.498C201.528 242.431 202.1 236.215 202.104 229.977C202.224 222.65 200.673 215.438 197.643 209.233C196.84 207.69 191.924 198.229 190.449 203.06C190.257 203.864 190.22 204.717 190.341 205.544C191.061 213.586 193.327 220.979 194.73 228.804C196.828 240.518 195.437 260.182 194.73 268.547C194.466 269.874 194.13 271.51 193.734 273.409C194.706 258.839 189.802 241.568 185.257 238.543C179.634 234.808 185.149 249.47 189.49 262.281C191.546 267.887 192.513 274.052 192.308 280.246C191.42 284.444 190.401 289.182 189.346 293.967C189.13 294.615 188.938 295.279 188.746 295.927C189.234 292.804 189.432 289.618 189.334 286.435C188.926 278.07 181.564 261.324 176.672 263.685C171.78 266.047 180.065 274.875 184.49 285.154C186.811 290.838 187.704 297.31 187.044 303.675C187.044 304.061 186.948 304.431 186.912 304.786C186.396 306.978 185.893 309.077 185.413 311.084C184.214 315.714 183.195 320.159 182.176 324.45C183.428 318.224 183.977 311.8 183.806 305.373C183.195 293.118 177.619 281.543 173.015 279.953C168.411 278.363 177.2 298.366 180.149 309.602C181.753 316.164 182.026 323.146 180.941 329.882C179.514 335.964 178.171 341.967 176.792 348.311C177.177 340.001 177.037 331.665 176.372 323.385C175.473 309.741 169.178 301.036 164.837 301.391C160.497 301.746 165.029 309.494 171.288 326.086C174.593 334.797 176.065 344.472 175.557 354.145C174.993 356.815 174.358 359.562 173.83 362.433C173.159 365.705 172.631 369.271 172.152 372.913C171.528 369.656 170.593 364.903 169.502 359.655C168.231 353.854 167.309 347.935 166.744 341.952C166.156 334.991 164.73 326.302 159.43 322.69C159.07 322.367 158.659 322.15 158.226 322.053C157.794 321.955 157.35 321.981 156.926 322.128C156.503 322.275 156.109 322.54 155.773 322.904C155.437 323.267 155.167 323.721 154.981 324.234C154.495 325.727 154.386 327.379 154.67 328.956C155.373 333.691 156.584 338.278 158.267 342.585C157.226 345.154 156.753 348.043 156.9 350.935C156.9 352.015 156.972 353.096 157.032 354.176C156.564 353.065 156.12 352.046 155.701 351.089C154.939 349.452 154.002 347.961 152.919 346.659C153.191 344.102 153.327 341.524 153.327 338.942C153.327 335.562 150.245 326.935 147.463 333.324C146.348 335.886 146.564 340.902 146.456 344.236C145.701 345.162 145.473 347.045 146.108 350.009C145.677 357.726 145.593 365.628 147.044 373.16L146.084 371.015C144.733 362.086 143.931 353.034 143.686 343.943C143.339 328.926 145.197 316.609 142.02 311.979C138.842 307.349 137.068 323.632 138.423 341.381C139.061 349.48 140.738 357.387 143.387 364.779C140.269 357.571 137.188 350.225 134.274 343.171C133.075 339.39 130.101 329.157 130.833 318.785C131.756 305.712 132.427 295.001 128.566 287.639C124.705 280.277 123.902 285.062 125.797 300.403C127.092 310.929 128.47 325.005 130.845 334.775C128.59 329.172 126.468 323.848 124.574 319.032C123.494 314.217 120.976 301.854 120.976 291.59C120.976 278.533 119.897 271.526 116.9 274.35C114.813 276.341 116.156 292.455 119.514 306.006C117.943 301.885 116.756 298.721 116.072 296.853C115.761 296.004 115.413 295.094 115.017 294.152C113.92 283.403 112.298 272.752 110.161 262.265C106.36 243.837 99.5855 230.255 99.8013 239.345C99.9931 247.711 111.096 277.097 114.562 293.056C113.578 290.757 112.439 288.303 111.288 285.91C110.485 283.209 109.849 280.261 108.998 277.915C107.691 274.288 106.288 270.739 104.717 267.281C102.319 261.845 99.4332 256.789 96.1202 252.218C92.2824 246.592 87.2258 242.572 81.5998 240.673C80.1849 240.241 71.5998 237.586 73.0626 242.525C73.3361 243.278 73.7475 243.935 74.2616 244.439C79.0578 249.686 84.6214 253.097 89.8492 257.589C97.595 264.318 107.008 279.906 110.892 286.682L112.739 291.112C105.725 279.598 92.9787 271.294 88.0626 273.085C81.9715 275.292 93.7701 281.157 103.734 286.698C108.211 288.988 112.187 292.648 115.317 297.363C116.9 301.221 118.662 305.558 120.425 309.988C120.629 310.651 120.821 311.3 121.024 311.948C119.729 309.237 118.187 306.735 116.432 304.493C111.696 298.752 97.4272 292.964 95.113 298.983C92.7989 305.002 103.506 304.2 112.211 307.812C116.9 309.929 120.966 313.859 123.854 319.063C124.022 319.372 124.178 319.696 124.346 319.989C125.137 322.026 125.881 324.017 126.588 325.9C128.219 330.33 129.777 334.482 131.3 338.51C128.923 332.84 125.923 327.642 122.391 323.076C115.437 314.649 105.221 311.099 100.988 314.032C96.7557 316.964 113.806 323.801 121.924 329.466C126.577 332.856 130.477 337.723 133.255 343.603C135.437 349.299 137.631 354.87 139.993 360.72C135.869 354.31 131.35 348.338 126.48 342.863C118.578 333.679 109.358 332.846 106.372 336.92C103.386 340.995 110.809 342.677 124.166 349.268C131.195 352.731 137.396 358.504 142.152 366.014C143.159 368.468 144.19 370.984 145.293 373.608C146.492 376.571 148.015 379.658 149.622 382.729C147.439 380.908 144.226 378.253 140.653 375.382C136.643 372.259 132.83 368.734 129.25 364.841C125.125 360.288 119.478 355.179 113.662 357.201C113.229 357.282 112.816 357.485 112.45 357.795C112.085 358.105 111.777 358.514 111.548 358.994C111.319 359.474 111.175 360.013 111.126 360.573C111.077 361.132 111.124 361.699 111.264 362.233C111.688 363.759 112.482 365.069 113.53 365.968C118.998 371.416 126.348 374.04 132.715 377.265C138.55 380.221 144.53 382.675 150.617 384.612C152.128 387.406 153.698 390.168 155.281 392.792L152.427 392.9C149.046 393.039 133.794 384.134 126.048 381.278C118.303 378.423 111.06 383.825 119.178 389.443C127.295 395.061 149.37 393.811 149.37 393.811L155.737 393.564C157.236 396.033 158.698 398.379 160.089 400.525H129.837V411.329H135.833L140.629 449.745H180.833L185.689 411.329H191.684V400.525H171.648C171.486 395.856 171.582 391.178 171.936 386.526C173.273 384.776 174.757 383.223 176.36 381.896C185.161 374.071 200.077 373.422 204.046 358.343C205.005 354.716 203.914 350.055 200.545 350.256C198.147 350.395 195.545 353.142 194.034 355.38C188.998 362.865 185.209 370.629 178.662 376.309C176.413 378.534 174.252 380.904 172.188 383.408C172.415 380.954 172.703 378.33 173.075 375.521C174.657 371.91 176.461 368.467 178.471 365.227C183.83 356.661 191.984 351.645 197.775 343.48C199.55 340.98 201.888 331.997 196.468 334.219C194.07 335.207 191.216 339.915 189.274 342.06C183.938 348.234 178.483 354.809 175.005 362.927C175.149 362.124 175.305 361.384 175.449 360.519C179.19 352.799 183.404 345.475 188.051 338.618C195.749 327.351 203.639 319.974 203.77 313.8C203.902 307.626 193.974 317.967 185.545 332.105C181.721 338.591 178.756 345.845 176.768 353.574C178.315 345.579 179.957 337.492 181.564 329.744C182.667 325.885 185.941 315.853 191.972 308.892C199.586 300.141 205.749 292.918 206.84 284.197C207.931 275.477 204.874 278.24 198.123 291.112ZM155.545 390.385C154.406 388.394 153.219 386.233 151.948 383.84C151.191 379.783 150.685 375.654 150.437 371.493C150.283 367.951 150.412 364.398 150.821 360.89C152.867 364.152 155.04 367.279 157.331 370.258C157.277 373.344 156.984 376.415 156.456 379.426C156.007 383.057 155.703 386.714 155.545 390.385ZM162.068 400.556C160.521 398.441 158.83 395.925 156.996 392.839C157.042 390.39 157.303 387.957 157.775 385.585C158.507 381.844 159.561 378.221 160.917 374.781C163.758 378.253 165.845 380.553 165.845 380.553L170.641 385.97C170.269 391.357 170.053 396.419 169.921 400.525L162.068 400.556ZM170.701 385.029L168.555 382.606C167.355 381.217 165.197 375.846 162.847 369.656C163.85 367.052 164.738 364.378 165.509 361.646C168.051 367.712 170.305 372.45 171.636 374.966C171.252 378.315 170.953 381.726 170.701 385.029Z" fill="white"/>
<path d="M79.8613 0.454727V156.958H172.188V0.454727H79.8613ZM165.785 146.046H86.3122V11.3821H165.785V146.046Z" fill="#00337B"/>
<path opacity="0.5" d="M79.8613 0.454727V156.958H172.188V0.454727H79.8613ZM165.785 146.046H86.3122V11.3821H165.785V146.046Z" fill="white"/>
<path d="M402.944 76.8077V192.379H471.146V76.8077H402.944ZM466.385 184.307H407.74V84.9416H466.421L466.385 184.307Z" fill="#00337B"/>
<path opacity="0.5" d="M402.944 76.8077V192.379H471.146V76.8077H402.944ZM466.385 184.307H407.74V84.9416H466.421L466.385 184.307Z" fill="white"/>
<path d="M12.9905 465.889C16.4317 450.887 52.0793 294.939 51.9594 293.766C51.8395 292.593 54.8731 271.649 61.9715 254.193C69.0698 236.737 78.926 217.29 80.161 214.913C82.0404 211.04 83.2963 206.72 83.854 202.211C84.7773 195.867 94.6454 178.396 97.727 173.642C100.809 168.888 110.053 143.885 110.677 139.918C111.3 135.952 114.981 132.772 119.921 131.584C124.861 130.395 131.636 129.207 131.636 129.207C132.89 131.106 133.645 133.467 133.794 135.952C133.794 139.517 122.691 224.822 122.08 239.114C121.468 253.406 123.003 261.324 118.075 276.017C113.147 290.71 98.6502 299.817 91.5639 305.774C84.4775 311.732 85.0171 312.967 85.0171 312.967C85.0171 312.967 89.0219 455.779 88.926 467" fill="white"/>
<g style="mix-blend-mode:multiply" opacity="0.7">
<path d="M138.303 222.785C137.02 215.392 128.71 219.497 128.71 219.497C123.052 227.401 116.085 233.567 108.326 237.54C95.3392 243.861 82.7887 251.58 70.8083 260.614C72.1752 257.079 73.662 253.514 75.2688 249.81C83.5542 230.949 98.2065 205.529 106.444 202.242C111.528 200.235 116.6 204.387 119.765 207.906L120.125 131.507H119.921C114.981 132.695 111.288 135.874 110.677 139.841C110.065 143.808 100.808 168.796 97.7269 173.565C94.6453 178.334 84.7772 195.79 83.8539 202.134C83.2962 206.643 82.0403 210.963 80.1609 214.836C78.9618 217.213 69.0577 236.644 61.9714 254.116C54.885 271.587 51.8394 292.501 51.9593 293.689C52.0433 294.554 38.3262 358.513 29.6091 398.765C36.8034 380.553 47.9905 351.089 54.7891 329.311C57.4629 328.972 62.6428 319.65 66.9354 312.056C72.0313 303.042 79.6693 300.573 94.9691 285.818C110.269 271.063 127.451 250.551 130.005 242.355C132.559 234.16 139.574 230.162 138.303 222.785Z" fill="#00337B"/>
</g>
<path d="M12.9905 465.889C16.4317 450.887 52.0793 294.939 51.9594 293.766C51.8395 292.593 54.8731 271.649 61.9715 254.193C69.0698 236.737 78.926 217.29 80.161 214.913C82.0404 211.04 83.2963 206.72 83.854 202.211C84.7773 195.867 94.6454 178.396 97.727 173.642C100.809 168.888 110.053 143.885 110.677 139.918C111.3 135.952 114.981 132.772 119.921 131.584C124.861 130.395 131.636 129.207 131.636 129.207C132.89 131.106 133.645 133.467 133.794 135.952C133.794 139.517 122.691 224.822 122.08 239.114C121.468 253.406 123.003 261.324 118.075 276.017C113.147 290.71 98.6502 299.817 91.5639 305.774C84.4775 311.732 85.0171 312.967 85.0171 312.967C85.0171 312.967 89.0219 455.779 88.926 467" stroke="#2E353A" stroke-linecap="round" stroke-linejoin="round"/>
<path d="M119.298 226.412C119.298 226.412 115.916 226.01 112.523 218.077" stroke="#2E353A" stroke-linecap="round" stroke-linejoin="round"/>
<path d="M115.605 175.232C115.605 175.232 125.197 177.609 126.396 187.919" stroke="#2E353A" stroke-linecap="round" stroke-linejoin="round"/>
<path d="M118.686 143.082C120.808 145.16 122.564 147.793 123.839 150.807C125.114 153.821 125.879 157.148 126.084 160.569" stroke="#2E353A" stroke-linecap="round" stroke-linejoin="round"/>
<path d="M429.503 226.442L428.747 61.6514C428.744 56.8484 427.26 52.2435 424.62 48.8487C421.98 45.454 418.402 43.547 414.67 43.547H134.514C130.783 43.547 127.206 45.4544 124.568 48.8496C121.931 52.2449 120.449 56.8498 120.449 61.6514L119.681 226.442C119.68 228.845 120.046 231.224 120.76 233.444C121.473 235.664 122.52 237.681 123.84 239.38C125.159 241.078 126.726 242.425 128.451 243.344C130.175 244.262 132.024 244.734 133.89 244.732H415.294C417.16 244.734 419.009 244.262 420.733 243.344C422.458 242.425 424.025 241.078 425.345 239.38C426.664 237.681 427.711 235.664 428.424 233.444C429.138 231.224 429.504 228.845 429.503 226.442V226.442Z" fill="#2E353A" stroke="#4F759B" stroke-width="0.868674" stroke-linecap="round" stroke-linejoin="round"/>
<path d="M413.759 235.78L413.148 52.4063H136.037L135.437 235.78H413.759Z" fill="white" stroke="#4F759B" stroke-width="0.651505" stroke-linecap="round" stroke-linejoin="round"/>
<path d="M413.148 52.4063H136.036L136.012 61.5588H162.631L169.442 74.0913H413.22L413.148 52.4063Z" fill="#00337B" stroke="#2E353A" stroke-linecap="round" stroke-linejoin="round"/>
<g style="mix-blend-mode:multiply" opacity="0.5">
<path d="M413.148 88.8927L218.363 235.78H413.759L413.148 88.8927Z" fill="#00337B"/>
</g>
<path d="M423.044 144.044C423.059 142.518 422.11 141.265 420.925 141.246C419.74 141.226 418.767 142.447 418.751 143.972C418.736 145.498 419.684 146.751 420.87 146.771C422.055 146.79 423.028 145.569 423.044 144.044Z" fill="white"/>
<path d="M157.379 119.406C163.717 119.406 168.854 112.793 168.854 104.636C168.854 96.4781 163.717 89.8651 157.379 89.8651C151.042 89.8651 145.905 96.4781 145.905 104.636C145.905 112.793 151.042 119.406 157.379 119.406Z" fill="#00337B" stroke="#2E353A" stroke-linecap="round" stroke-linejoin="round"/>
<path d="M157.379 180.14C163.717 180.14 168.854 173.527 168.854 165.369C168.854 157.212 163.717 150.599 157.379 150.599C151.042 150.599 145.905 157.212 145.905 165.369C145.905 173.527 151.042 180.14 157.379 180.14Z" fill="white" stroke="#2E353A" stroke-linecap="round" stroke-linejoin="round"/>
<path d="M235.797 119.406C242.135 119.406 247.272 112.793 247.272 104.636C247.272 96.4781 242.135 89.8651 235.797 89.8651C229.46 89.8651 224.322 96.4781 224.322 104.636C224.322 112.793 229.46 119.406 235.797 119.406Z" fill="white" stroke="#2E353A" stroke-linecap="round" stroke-linejoin="round"/>
<path d="M235.797 180.14C242.135 180.14 247.272 173.527 247.272 165.369C247.272 157.212 242.135 150.599 235.797 150.599C229.46 150.599 224.322 157.212 224.322 165.369C224.322 173.527 229.46 180.14 235.797 180.14Z" fill="#00337B" stroke="#2E353A" stroke-linecap="round" stroke-linejoin="round"/>
<path d="M314.227 119.406C320.564 119.406 325.702 112.793 325.702 104.636C325.702 96.4781 320.564 89.8651 314.227 89.8651C307.889 89.8651 302.752 96.4781 302.752 104.636C302.752 112.793 307.889 119.406 314.227 119.406Z" fill="#00337B" stroke="#2E353A" stroke-linecap="round" stroke-linejoin="round"/>
<path d="M314.227 180.14C320.564 180.14 325.702 173.527 325.702 165.369C325.702 157.212 320.564 150.599 314.227 150.599C307.889 150.599 302.752 157.212 302.752 165.369C302.752 173.527 307.889 180.14 314.227 180.14Z" fill="#00337B" stroke="#2E353A" stroke-width="2" stroke-linecap="round" stroke-linejoin="round"/>
<path d="M392.644 119.406C398.981 119.406 404.119 112.793 404.119 104.636C404.119 96.4781 398.981 89.8651 392.644 89.8651C386.306 89.8651 381.169 96.4781 381.169 104.636C381.169 112.793 386.306 119.406 392.644 119.406Z" fill="#00337B" stroke="#2E353A" stroke-linecap="round" stroke-linejoin="round"/>
<path d="M392.644 180.14C398.981 180.14 404.119 173.527 404.119 165.369C404.119 157.212 398.981 150.599 392.644 150.599C386.306 150.599 381.169 157.212 381.169 165.369C381.169 173.527 386.306 180.14 392.644 180.14Z" fill="white" stroke="#2E353A" stroke-linecap="round" stroke-linejoin="round"/>
<path d="M177.319 124.638H214.909" stroke="#2E353A" stroke-linecap="round" stroke-linejoin="round"/>
<path d="M177.319 135.797H214.909" stroke="#2E353A" stroke-linecap="round" stroke-linejoin="round"/>
<path d="M177.319 146.972H214.909" stroke="#2E353A" stroke-linecap="round" stroke-linejoin="round"/>
<path d="M254.67 124.638H292.26" stroke="#2E353A" stroke-linecap="round" stroke-linejoin="round"/>
<path d="M254.67 135.797H292.26" stroke="#2E353A" stroke-linecap="round" stroke-linejoin="round"/>
<path d="M254.67 146.972H292.26" stroke="#2E353A" stroke-linecap="round" stroke-linejoin="round"/>
<path d="M337.08 124.638H374.67" stroke="#2E353A" stroke-linecap="round" stroke-linejoin="round"/>
<path d="M337.08 135.797H374.67" stroke="#2E353A" stroke-linecap="round" stroke-linejoin="round"/>
<path d="M337.08 146.972H374.67" stroke="#2E353A" stroke-linecap="round" stroke-linejoin="round"/>
<path d="M177.319 187.826H214.909" stroke="#2E353A" stroke-linecap="round" stroke-linejoin="round"/>
<path d="M177.319 199H214.909" stroke="#2E353A" stroke-linecap="round" stroke-linejoin="round"/>
<path d="M177.319 210.159H214.909" stroke="#2E353A" stroke-linecap="round" stroke-linejoin="round"/>
<path d="M254.67 187.826H292.26" stroke="#2E353A" stroke-linecap="round" stroke-linejoin="round"/>
<path d="M254.67 199H292.26" stroke="#2E353A" stroke-linecap="round" stroke-linejoin="round"/>
<path d="M254.67 210.159H292.26" stroke="#2E353A" stroke-linecap="round" stroke-linejoin="round"/>
<path d="M337.08 187.826H374.67" stroke="#2E353A" stroke-linecap="round" stroke-linejoin="round"/>
<path d="M337.08 199H374.67" stroke="#2E353A" stroke-linecap="round" stroke-linejoin="round"/>
<path d="M337.08 210.159H374.67" stroke="#2E353A" stroke-linecap="round" stroke-linejoin="round"/>
<path d="M291.588 166.126H298.711" stroke="#2E353A" stroke-linecap="round" stroke-linejoin="round"/>
<path d="M314.982 147.805V136.353" stroke="#2E353A" stroke-linecap="round" stroke-linejoin="round"/>
<path d="M299.214 149.117L303.795 153.701" stroke="#2E353A" stroke-linecap="round" stroke-linejoin="round"/>
<path d="M304.814 177.902L299.214 181.838" stroke="#2E353A" stroke-linecap="round" stroke-linejoin="round"/>
<path d="M338.879 166.126H331.757" stroke="#2E353A" stroke-linecap="round" stroke-linejoin="round"/>
<path d="M331.241 149.117L326.673 153.701" stroke="#2E353A" stroke-linecap="round" stroke-linejoin="round"/>
<path d="M309.442 196.469L315.438 224.035" stroke="#2E353A" stroke-linecap="round" stroke-linejoin="round"/>
<path d="M303.435 193.151L306.864 207.489" stroke="#2E353A" stroke-linecap="round" stroke-linejoin="round"/>
<path d="M451.193 455.671C451.193 455.671 422.716 388.069 418.663 376.216C414.611 364.363 411.553 345.687 410.558 340.563C409.118 334.55 408.986 328.145 410.174 322.042C411.673 313.399 410.786 288.735 411.457 283.071C412.129 277.406 409.407 259.688 407.86 249.764C406.313 239.839 402.812 232.786 398.088 232.014C396.714 231.802 395.321 232.031 394.032 232.68C392.743 233.329 391.599 234.378 390.702 235.734C390.702 235.734 388.735 214.604 386.829 210.221C384.922 205.838 378.711 206.471 375.39 207.52C372.069 208.57 370.474 222.244 370.474 222.244C370.474 222.244 367.596 209.11 367.512 203.245C367.428 197.38 361.889 192.333 357.572 193.722C353.256 195.111 350.929 197.658 349.754 209.82C348.579 221.982 350.797 240.796 350.797 240.796L348.555 241.969C348.555 241.969 340.474 205.544 337.908 195.929C335.342 186.313 332.872 175.309 331.145 168.147C329.419 160.986 326.853 149.626 319.79 151.37C312.728 153.114 314.466 172.978 314.466 172.978C314.466 172.978 325.51 233.851 326.085 238.651C326.661 243.451 328.483 260.12 328.124 265.676C327.764 271.232 327.776 285.741 327.776 285.741L317.26 269.596C315.965 265.228 314.33 261.04 312.38 257.095C308.783 249.625 300.785 242.664 295.593 244.747C290.402 246.831 294.502 253.715 296.649 257.558C298.795 261.401 300.534 272.189 300.534 277.622C300.534 283.055 304.131 286.883 308.471 296.853C312.812 306.824 334.598 341.273 337.896 347.477C340.338 351.647 343.409 355.138 346.925 357.741C346.925 357.741 359.515 371.864 365.39 389.489C371.265 407.115 389.287 457.724 389.287 457.724" fill="white"/>
<g style="mix-blend-mode:multiply" opacity="0.7">
<path d="M408.076 439.589C413.963 432.643 415.426 376.54 414.683 355.658C414.683 355.488 414.683 355.287 414.683 355.102C412.584 348.126 410.954 342.461 410.582 340.563C409.142 334.55 409.01 328.145 410.198 322.042C411.697 313.399 410.81 288.735 411.481 283.071C411.877 279.721 411.074 272.097 410.042 264.38C405.774 263.901 397.956 268.856 397.956 268.856C397.956 268.856 391.793 257.311 387.776 256.91C383.759 256.508 376.793 264.627 376.793 264.627C376.793 264.627 372.8 247.309 364.599 249.084C356.397 250.859 354.095 249.084 350.857 249.27C347.62 249.455 344.994 239.315 341.757 229.359C338.519 219.404 333.879 182.177 331.133 174.46C331.133 174.46 326.829 158.933 321.253 164.104C315.678 169.274 320.917 186.175 323.531 196.315C326.145 206.455 327.548 225.717 329.67 234.9C332.068 245.133 330.869 260.336 333.064 271.479C335.258 282.623 340.893 286.235 337.788 300.804C334.682 315.374 327.896 310.729 320.33 302.163C312.764 293.597 309.023 273.98 304.742 275.924C303.259 276.408 301.826 277.118 300.474 278.039C300.57 283.379 304.071 287.299 308.411 297.054C312.752 306.808 334.598 341.273 337.896 347.477C340.338 351.647 343.409 355.138 346.925 357.741C346.925 357.741 359.515 371.864 365.39 389.489C366.445 392.653 368.124 397.33 370.186 402.886C372.584 405.356 367.5 393.626 368.747 395.57C377.057 408.119 402.201 446.55 408.076 439.589Z" fill="#00337B"/>
</g>
<path d="M451.193 455.671C451.193 455.671 422.716 388.069 418.663 376.216C414.611 364.363 411.553 345.687 410.558 340.563C409.118 334.55 408.986 328.145 410.174 322.042C411.673 313.399 410.786 288.735 411.457 283.071C412.129 277.406 409.407 259.688 407.86 249.764C406.313 239.839 402.812 232.786 398.088 232.014C396.714 231.802 395.321 232.031 394.032 232.68C392.743 233.329 391.599 234.378 390.702 235.734C390.702 235.734 388.735 214.604 386.829 210.221C384.922 205.838 378.711 206.471 375.39 207.52C372.069 208.57 370.474 222.244 370.474 222.244C370.474 222.244 367.596 209.11 367.512 203.245C367.428 197.38 361.889 192.333 357.572 193.722C353.256 195.111 350.929 197.658 349.754 209.82C348.579 221.982 350.797 240.796 350.797 240.796L348.555 241.969C348.555 241.969 340.474 205.544 337.908 195.929C335.342 186.313 332.872 175.309 331.145 168.147C329.419 160.986 326.853 149.626 319.79 151.37C312.728 153.114 314.466 172.978 314.466 172.978C314.466 172.978 325.51 233.851 326.085 238.651C326.661 243.451 328.483 260.12 328.124 265.676C327.764 271.232 327.776 285.741 327.776 285.741L317.26 269.596C315.965 265.228 314.33 261.04 312.38 257.095C308.783 249.625 300.785 242.664 295.593 244.747C290.402 246.831 294.502 253.715 296.649 257.558C298.795 261.401 300.534 272.189 300.534 277.622C300.534 283.055 304.131 286.883 308.471 296.853C312.812 306.824 334.598 341.273 337.896 347.477C340.338 351.647 343.409 355.138 346.925 357.741C346.925 357.741 359.515 371.864 365.39 389.489C371.265 407.115 389.287 457.724 389.287 457.724" stroke="#2E353A" stroke-linecap="round" stroke-linejoin="round"/>
<path d="M316.049 155.785C316.049 155.785 317.356 166.218 317.608 167.53C318.171 170.478 327.644 169.073 328.399 166.805C329.07 164.783 328.579 160.399 328.579 160.399" stroke="#2E353A" stroke-linecap="round" stroke-linejoin="round"/>
<path d="M299.826 258.036C300.614 257.006 301.102 255.658 301.209 254.219C301.316 252.78 301.035 251.338 300.414 250.134C298.184 245.859 296.937 244.902 296.937 244.902" stroke="#2E353A" stroke-linecap="round" stroke-linejoin="round"/>
<path d="M327.008 216.24C327.008 216.24 331.241 218.062 335.222 211.348" stroke="#2E353A" stroke-width="0.75" stroke-linecap="round" stroke-linejoin="round"/>
<path d="M327.512 211.502C327.512 211.502 333.159 206.054 337.476 206.501" stroke="#2E353A" stroke-width="0.75" stroke-linecap="round" stroke-linejoin="round"/>
<path d="M321.661 183.026C321.661 183.026 325.893 177.593 329.287 178.766" stroke="#2E353A" stroke-width="0.75" stroke-linecap="round" stroke-linejoin="round"/>
<path d="M325.642 181.745C327.381 182.122 329.164 182.016 330.869 181.436" stroke="#2E353A" stroke-width="0.75" stroke-linecap="round" stroke-linejoin="round"/>
<path d="M370.462 222.291L372.692 239.284" stroke="#2E353A" stroke-linecap="round" stroke-linejoin="round"/>
<path d="M390.689 235.78L393.076 253.622" stroke="#2E353A" stroke-linecap="round" stroke-linejoin="round"/>
<path d="M327.764 285.849C327.764 285.849 327.164 299.199 328.16 304.37" stroke="#2E353A" stroke-linecap="round" stroke-linejoin="round"/>
<path d="M372.704 248.328C372.704 248.328 375.162 256.709 374.563 262.219" stroke="#2E353A" stroke-width="0.75" stroke-linecap="round" stroke-linejoin="round"/>
<path d="M392.812 256.987C392.812 256.987 394.479 261.308 393.483 269.18" stroke="#2E353A" stroke-width="0.75" stroke-linecap="round" stroke-linejoin="round"/>
<path d="M107.895 232.755C107.895 232.755 118.075 230.378 123.614 221.658C129.154 212.937 142.415 201.809 146.732 199.834C151.048 197.858 157.835 197.442 160.305 200.22C162.775 202.998 163.998 209.743 160.305 217.691C156.612 225.64 141.552 233.11 138.41 236.722C135.269 240.333 132.559 242.679 128.818 253.391C125.177 263.767 119.935 273.082 113.41 280.771C107.547 287.516 96.7676 299.029 91.2161 303.382" fill="white"/>
<g style="mix-blend-mode:multiply" opacity="0.7">
<path d="M138.303 222.785C137.02 215.392 128.71 219.497 128.71 219.497C123.052 227.401 116.085 233.567 108.326 237.54C95.3392 243.861 82.7887 251.58 70.8083 260.614C72.1752 257.079 73.662 253.514 75.2688 249.81C83.5542 230.949 98.2065 205.529 106.444 202.242C111.528 200.235 116.6 204.387 119.765 207.906L120.125 131.507H119.921C114.981 132.695 111.288 135.874 110.677 139.841C110.065 143.808 100.808 168.796 97.7269 173.565C94.6453 178.334 84.7772 195.79 83.8539 202.134C83.2962 206.643 82.0403 210.963 80.1609 214.836C78.9618 217.213 69.0577 236.644 61.9714 254.116C54.885 271.587 51.8394 292.501 51.9593 293.689C52.0433 294.554 38.3262 358.513 29.6091 398.765C36.8034 380.553 47.9905 351.089 54.7891 329.311C57.4629 328.972 62.6428 319.65 66.9354 312.056C72.0313 303.042 79.6693 300.573 94.9691 285.818C110.269 271.063 127.451 250.551 130.005 242.355C132.559 234.16 139.574 230.162 138.303 222.785Z" fill="#00337B"/>
</g>
<path d="M107.895 232.755C107.895 232.755 118.075 230.378 123.614 221.658C129.154 212.937 142.415 201.809 146.732 199.834C151.048 197.858 157.835 197.442 160.305 200.22C162.775 202.998 163.998 209.743 160.305 217.691C156.612 225.64 141.552 233.11 138.41 236.722C135.269 240.333 132.559 242.679 128.818 253.391C125.177 263.767 119.935 273.082 113.41 280.771C107.547 287.516 96.7676 299.029 91.2161 303.382" stroke="#2E353A" stroke-linecap="round" stroke-linejoin="round"/>
<path d="M160.605 214.589C158.758 218.154 154.13 218.556 154.13 218.556C154.13 218.556 152.284 213.4 151.049 210.221C150.087 208.082 148.706 206.304 147.044 205.066C147.044 205.066 148.59 199.911 151.672 199.911" stroke="#2E353A" stroke-linecap="round" stroke-linejoin="round"/>
<path d="M39.933 313.244C51.3089 310.073 62.9609 308.853 74.5854 309.617C94.2618 310.837 98.9381 325.299 98.9381 325.299L98.0028 357.849C98.0028 357.849 87.703 348.203 66.1562 344.591C44.6093 340.98 33.3743 343.387 33.3743 343.387L39.933 313.244Z" fill="white" stroke="#2E353A" stroke-linecap="round" stroke-linejoin="round"/>
<path d="M99.1298 465.132L104.202 360.658C71.4199 335.331 33.3742 343.387 33.3742 343.387L1 465.132H99.1298Z" fill="#2E353A" stroke="#2E353A" stroke-linecap="round" stroke-linejoin="round"/>
<path d="M354.982 384.875C354.982 384.875 358.183 368.422 375.761 355.04C393.339 341.659 419.73 346.814 419.73 346.814L423.723 360.18C423.723 360.18 402.14 359.161 386.157 370.474C370.174 381.788 362.176 395.169 362.176 395.169L354.982 384.875Z" fill="white" stroke="#2E353A" stroke-linecap="round" stroke-linejoin="round"/>
<path d="M473.987 465.132L426.553 355.982C426.553 355.982 408.567 349.901 386.984 361.214C365.402 372.527 356.601 394.135 356.601 394.135L365.677 465.132H473.987Z" fill="#2E353A" stroke="#2E353A" stroke-linecap="round" stroke-linejoin="round"/>
<path d="M366.9 397.438C367.5 400.756 366.781 403.812 365.27 404.26C363.759 404.708 362.056 402.392 361.457 399.074C360.857 395.756 361.577 392.7 363.076 392.252C364.574 391.805 366.289 394.12 366.9 397.438Z" fill="white"/>
</svg>
