<svg width="192" height="29" viewBox="0 0 192 29" fill="none" xmlns="http://www.w3.org/2000/svg">
<path d="M16 0L19.5737 11.0812L31.2169 11.0557L21.7824 17.8788L25.4046 28.9443L16 22.08L6.59544 28.9443L10.2176 17.8788L0.783095 11.0557L12.4263 11.0812L16 0Z" fill="#FFC914"/>
<path d="M56 0L59.5737 11.0812L71.2169 11.0557L61.7824 17.8788L65.4046 28.9443L56 22.08L46.5954 28.9443L50.2176 17.8788L40.7831 11.0557L52.4263 11.0812L56 0Z" fill="#FFC914"/>
<path d="M96 0L99.5737 11.0812L111.217 11.0557L101.782 17.8788L105.405 28.9443L96 22.08L86.5954 28.9443L90.2176 17.8788L80.7831 11.0557L92.4263 11.0812L96 0Z" fill="#FFC914"/>
<path d="M136 0L139.574 11.0812L151.217 11.0557L141.782 17.8788L145.405 28.9443L136 22.08L126.595 28.9443L130.218 17.8788L120.783 11.0557L132.426 11.0812L136 0Z" fill="#FFC914"/>
<path d="M176 0L179.574 11.0812L191.217 11.0557L181.782 17.8788L185.405 28.9443L176 22.08L166.595 28.9443L170.218 17.8788L160.783 11.0557L172.426 11.0812L176 0Z" fill="#FFC914"/>
</svg>
