<svg width="480" height="484" viewBox="0 0 480 484" fill="none" xmlns="http://www.w3.org/2000/svg">
<path d="M453.181 72.4544H217.417V418.673H453.181V72.4544Z" fill="#968686"/>
<path d="M422.569 34.117C424.962 32.61 427.538 31.4433 430.227 30.6478L431.805 22.7373L444.622 22.4942L446.465 30.3495C449.185 31.0461 451.804 32.12 454.25 33.5425L460.722 29.1232L469.948 38.4037L465.934 45.3089C467.379 47.8089 468.497 50.499 469.26 53.3078L476.844 54.954L477.066 68.3224L469.546 70.2448C468.875 73.0776 467.845 75.8048 466.485 78.3542L470.721 85.1157L461.813 94.7277L455.193 90.5404C452.8 92.0509 450.225 93.2213 447.535 94.0206L445.957 101.931L433.14 102.163L431.297 94.3189C428.581 93.6193 425.966 92.5455 423.522 91.1259L417.04 95.5452L407.824 86.2537L411.839 79.3485C410.384 76.8522 409.262 74.1612 408.502 71.3496L400.918 69.7034L400.696 56.335L408.216 54.4126C408.891 51.581 409.92 48.8544 411.278 46.3032L407.041 39.5527L415.949 29.9297L422.569 34.117ZM429.401 51.9268C427.504 53.9682 426.231 56.5509 425.742 59.3477C425.254 62.1444 425.572 65.0295 426.657 67.6375C427.741 70.2455 429.543 72.4592 431.835 73.9982C434.127 75.5371 436.804 76.3322 439.529 76.2826C442.255 76.233 444.904 75.3411 447.143 73.7197C449.382 72.0984 451.109 69.8205 452.106 67.1746C453.102 64.5287 453.324 61.6338 452.742 58.8565C452.16 56.0792 450.802 53.5445 448.838 51.5732C446.21 48.9407 442.688 47.502 439.045 47.5725C435.402 47.6429 431.934 49.2166 429.401 51.9489V51.9268Z" fill="#E0E0E0"/>
<path d="M429.401 51.9489C430.123 51.0173 430.989 50.2182 431.964 49.5845C434.615 47.7853 437.783 47.0041 440.925 47.3749C443.098 47.599 445.188 48.3562 447.026 49.5845C449.138 51.0241 450.842 53.0268 451.962 55.3849C453.221 58.0344 453.683 61.0192 453.286 63.9473C452.895 67.0663 451.55 69.9707 449.451 72.2296C447.352 74.4884 444.611 75.9814 441.635 76.487C440.235 76.7462 438.804 76.7686 437.398 76.5533C436.051 76.3988 434.736 76.0261 433.5 75.4485C431.202 74.3692 429.226 72.663 427.78 70.5099C426.244 68.2294 425.372 65.5347 425.269 62.7498C425.165 59.9648 425.835 57.2079 427.198 54.8104C427.756 53.7797 428.472 52.8506 429.316 52.0593C429.39 52.1256 428.49 52.9984 427.431 54.965C425.953 57.7616 425.416 60.994 425.905 64.1461C426.235 66.3032 427.044 68.35 428.267 70.1232C429.672 72.1474 431.565 73.7482 433.754 74.7635C436.177 75.8713 438.858 76.2132 441.465 75.7468C444.266 75.2466 446.841 73.8271 448.815 71.6949C450.788 69.5627 452.058 66.8291 452.439 63.892C452.786 61.1589 452.363 58.3795 451.221 55.8931C450.172 53.6547 448.571 51.7481 446.581 50.369C444.841 49.1652 442.852 48.408 440.777 48.1593C437.741 47.7586 434.664 48.4316 432.038 50.0707C430.269 51.054 429.464 52.0262 429.401 51.9489Z" fill="#E0E0E0"/>
<path d="M422.569 34.117C422.421 34.0535 422.279 33.9759 422.145 33.885L420.874 33.1227L415.832 30.0623H415.991L407.147 39.7406V39.4754L411.383 46.2149L411.595 46.2701L411.532 46.4027C410.188 48.935 409.176 51.6439 408.524 54.4569V54.6115H408.375L400.855 56.556L401.067 56.2688C401.151 60.4818 401.236 64.938 401.321 69.6371L401.003 69.4714L408.587 71.0955H408.788L408.841 71.2944C409.597 74.0705 410.709 76.7276 412.146 79.1939L412.252 79.3817L412.146 79.5695L408.142 86.4747L408.089 86.0217L417.315 95.3022H416.86L423.332 90.8829L423.522 90.7503L423.723 90.8719C426.14 92.2677 428.722 93.3263 431.403 94.0206H431.625L431.689 94.2526C432.261 96.7054 432.896 99.3901 433.532 102.097L433.151 101.799L445.967 101.556L445.586 101.876L447.164 93.9654L447.217 93.7223L447.45 93.656C450.102 92.8696 452.642 91.7178 455.002 90.2311V90.2311L455.214 90.1095L455.416 90.2311L462.036 94.4294H461.549L470.446 84.8174V85.3257L466.209 78.5641L466.071 78.3653L466.188 78.1443C467.535 75.6305 468.553 72.9404 469.217 70.1454L469.27 69.9023H469.493L477.024 67.991L476.738 68.3776C476.667 63.811 476.597 59.3549 476.526 55.0093L476.812 55.3739L469.228 53.7166H469.016L468.963 53.4957C468.208 50.7192 467.104 48.0593 465.68 45.5851L465.574 45.3973L465.616 45.1653L469.641 38.2601L469.694 38.691L460.489 29.3773H460.871L454.378 33.7966L454.24 33.8961L454.092 33.8077C451.672 32.3933 449.082 31.3232 446.391 30.6258H446.232V30.4711C445.565 27.6096 444.972 25.0464 444.41 22.6158L444.643 22.8036L431.827 22.9694L431.996 22.8257C431.339 25.9855 430.81 28.5708 430.365 30.7252V30.8026H430.291C428.268 31.3917 426.303 32.1797 424.423 33.1558L423.046 33.9071C422.9 34.0008 422.748 34.0821 422.59 34.1502C422.726 34.0432 422.868 33.9437 423.014 33.8519C423.31 33.6641 423.755 33.3768 424.37 33.0343C426.233 32.0006 428.192 31.1677 430.217 30.5485L430.132 30.6479C430.545 28.4382 431.043 25.8971 431.657 22.7263V22.5827H431.795L444.611 22.2844H444.792V22.4722C445.364 24.9028 445.978 27.466 446.656 30.3164L446.465 30.1176C449.21 30.812 451.853 31.8858 454.325 33.3105H454.028L460.489 28.8912L460.691 28.7586L460.871 28.9244L470.107 38.1938L470.298 38.3817L470.16 38.6137C468.857 40.8233 467.533 43.1655 466.156 45.5299V45.1653C467.62 47.6895 468.756 50.4054 469.535 53.2415L469.27 52.9764L476.854 54.6226H477.14V54.9319C477.225 59.2702 477.306 63.7227 477.384 68.2893V68.6097L477.098 68.6759L469.577 70.6094L469.853 70.3221C469.174 73.189 468.134 75.9494 466.76 78.531V78.1112L470.997 84.8727L471.166 85.1378L470.944 85.3698L462.046 94.9929L461.835 95.2249L461.559 95.0592L455.024 90.905H455.426C453.004 92.4331 450.396 93.6148 447.673 94.4184L447.948 94.109L446.37 102.02L446.306 102.34H445.988L433.172 102.561H432.865L432.79 102.252C432.155 99.5337 431.53 96.86 430.958 94.3963L431.233 94.6946C428.486 93.9776 425.84 92.8893 423.363 91.4574H423.755L417.273 95.8767L417.029 96.0425L416.817 95.8325C413.64 92.5954 410.462 89.4467 407.602 86.5299L407.401 86.32L407.549 86.0769L411.574 79.1718V79.5474C410.121 77.0175 408.996 74.2981 408.227 71.4601L408.418 71.6811L400.834 70.0238H400.59V69.7697C400.512 65.0779 400.445 60.6218 400.389 56.4013V56.1693L400.6 56.1141L408.132 54.2138L407.952 54.4016C408.644 51.5574 409.699 48.8226 411.087 46.2701V46.5132L406.85 39.7406L406.765 39.597L406.882 39.4865L415.832 29.8635L415.906 29.7861L415.991 29.8414L420.864 33.0122L422.124 33.8408C422.277 33.9248 422.425 34.017 422.569 34.117V34.117Z" fill="#E0E0E0"/>
<path d="M366.642 7.08167C368.08 6.18268 369.626 5.48437 371.239 5.0046L372.181 0.275953L379.85 0.132324L380.909 4.82783C382.538 5.24328 384.106 5.8862 385.57 6.73918L389.447 4.0876L394.965 9.61172L392.561 13.7438C393.465 15.2418 394.167 16.8628 394.648 18.5608L399.192 19.5551L399.329 27.5541L394.817 28.6589C394.419 30.3579 393.802 31.9931 392.985 33.5201L395.527 37.5638L390.231 43.3199L386.174 40.8562C384.744 41.7644 383.206 42.4703 381.598 42.9553L380.655 47.695L372.976 47.8276L371.917 43.1321C370.291 42.7166 368.727 42.0737 367.266 41.2208L363.39 43.8723L357.871 38.3482L360.223 34.1167C359.363 32.619 358.693 31.0108 358.231 29.3328L353.698 28.3495L353.56 20.3396L358.062 19.2347C358.463 17.5402 359.079 15.9091 359.894 14.3846L357.352 10.3409L362.648 4.57372L366.61 7.08167H366.642ZM370.741 17.7432C369.612 18.9651 368.855 20.5086 368.567 22.1787C368.279 23.8488 368.471 25.5706 369.121 27.1266C369.77 28.6825 370.847 30.0028 372.215 30.9207C373.584 31.8385 375.182 32.3127 376.809 32.2834C378.436 32.2541 380.018 31.7226 381.355 30.756C382.692 29.7894 383.725 28.4311 384.322 26.8527C384.92 25.2743 385.055 23.5466 384.712 21.8879C384.368 20.2291 383.561 18.7138 382.392 17.5333C381.615 16.7465 380.697 16.1276 379.69 15.7122C378.683 15.2967 377.607 15.0929 376.525 15.1124C375.442 15.1319 374.374 15.3744 373.381 15.8258C372.388 16.2773 371.491 16.9289 370.741 17.7432V17.7432Z" fill="#4F759B"/>
<path d="M370.741 17.7435C371.171 17.1908 371.686 16.7166 372.266 16.3404C373.855 15.2644 375.753 14.796 377.636 15.0146C379.038 15.1728 380.378 15.6985 381.532 16.5427C382.685 17.3869 383.616 18.5222 384.235 19.8427C384.608 20.5982 384.862 21.4114 384.987 22.2512C385.125 23.1255 385.125 24.0174 384.987 24.8917C384.757 26.7549 383.958 28.4914 382.709 29.8444C381.459 31.1973 379.826 32.095 378.049 32.4045C377.207 32.5424 376.349 32.5424 375.507 32.4045C374.357 32.2421 373.251 31.8334 372.26 31.2041C371.268 30.5748 370.412 29.7384 369.745 28.7476C368.993 27.6305 368.506 26.343 368.326 24.9912C368.04 23.0381 368.415 21.0423 369.385 19.3455C369.728 18.7278 370.164 18.1719 370.677 17.6993C370.677 17.6993 370.179 18.2628 369.544 19.445C368.991 20.4697 368.651 21.6035 368.543 22.7738C368.436 23.944 368.564 25.1247 368.92 26.2401C369.277 27.3554 369.852 28.3807 370.611 29.2502C371.37 30.1197 372.294 30.814 373.325 31.2887C374.03 31.6221 374.781 31.8383 375.55 31.9295C376.345 32.0544 377.154 32.0357 377.943 31.8742C379.622 31.5817 381.166 30.7345 382.349 29.4576C383.531 28.1806 384.289 26.5413 384.511 24.7813C384.643 23.9547 384.643 23.1109 384.511 22.2844C384.389 21.4911 384.157 20.7207 383.822 19.9974C383.19 18.6559 382.229 17.5125 381.036 16.6829C380.009 15.9609 378.833 15.4994 377.604 15.335C375.77 15.0731 373.905 15.4623 372.308 16.4398C371.26 17.2132 370.772 17.7877 370.741 17.7435Z" fill="#4F759B"/>
<path d="M366.642 7.08192L366.387 6.94935L365.635 6.48532L362.648 4.65131H362.733L357.437 10.4406V10.2859L359.99 14.3185V14.3959V14.4732C359.192 15.9946 358.587 17.6175 358.189 19.3013V19.3897H358.104L353.602 20.5608L353.73 20.384C353.73 22.903 353.825 25.5767 353.878 28.3829L353.73 28.1951L358.274 29.1784H358.39V29.3C358.847 30.9605 359.513 32.5506 360.371 34.0286L360.435 34.1391L360.371 34.2496L357.977 38.3816V38.1165L363.506 43.6406H363.231L367.108 40.989L367.224 40.9117L367.341 40.9779C368.786 41.8138 370.332 42.4454 371.938 42.8562H372.075V42.9998C372.425 44.4692 372.806 46.0712 373.188 47.6953L372.955 47.5185L380.623 47.3749L380.401 47.5627C380.698 46.0712 381.026 44.4581 381.344 42.8341V42.6794H381.481C383.068 42.2025 384.589 41.5117 386.004 40.6244V40.6244L386.131 40.5471L386.258 40.6244L390.22 43.1324H389.923C391.724 41.1879 393.504 39.2765 395.22 37.3762V37.6856L392.677 33.6419L392.603 33.5093L392.667 33.3878C393.473 31.8809 394.082 30.2683 394.478 28.5929V28.4492H394.605L399.107 27.3444L398.937 27.5764C398.895 24.8512 398.853 22.1849 398.81 19.5775L398.99 19.7985L394.446 18.8041H394.319V18.6715C393.87 17.0083 393.211 15.4145 392.36 13.9318L392.285 13.8214L392.36 13.7109L394.764 9.58988V9.83294C392.826 7.8774 390.993 6.03234 389.256 4.30882H389.479L385.591 6.94935L385.506 7.01564H385.422C384 6.13069 382.472 5.44706 380.878 4.98276H380.782V4.89437C380.39 3.18189 380.03 1.64619 379.723 0.18782L379.861 0.298301L372.192 0.397735L372.298 0.320398C371.906 2.20965 371.588 3.7564 371.323 5.04905C370.088 5.41137 368.89 5.89602 367.743 6.49637L366.917 6.94935C366.833 7.01198 366.74 7.06045 366.642 7.09298L366.906 6.9162C367.076 6.80572 367.341 6.62895 367.711 6.43008C368.828 5.80896 370.003 5.30917 371.217 4.93857L371.164 5.00486C371.408 3.71221 371.705 2.15441 372.075 0.254109V0.176772H372.16L379.829 0H379.935V0.121529C380.284 1.56885 380.645 3.10456 380.994 4.81703L380.888 4.6955C382.528 5.1098 384.106 5.7527 385.581 6.60685H385.411L389.351 3.93318L389.479 3.84479L389.584 3.95527L395.114 9.4794L395.22 9.58988L395.145 9.73351L392.741 13.8655V13.6446C393.622 15.155 394.302 16.7828 394.764 18.4837L394.605 18.329L399.149 19.3123H399.319V19.4891C399.372 22.0965 399.414 24.7591 399.467 27.4991V27.6759L399.298 27.7311L394.785 28.8359L394.955 28.6592C394.555 30.3769 393.935 32.0306 393.112 33.5756V33.3326L395.707 37.4315L395.802 37.5861L395.675 37.7298L390.379 43.4859L390.252 43.6295L390.093 43.5301L386.121 41.0221H386.364C384.915 41.9354 383.355 42.6414 381.725 43.1213L381.894 42.9445C381.566 44.5686 381.248 46.1817 380.941 47.6732V47.8721H380.751L373.082 48.0046H372.891V47.8168C372.51 46.1927 372.139 44.5907 371.832 43.1103L372.001 43.287C370.297 42.8931 368.651 42.2613 367.108 41.4088H367.341L363.464 44.0604L363.316 44.1598L363.188 44.0604C361.282 42.127 359.407 40.2488 357.681 38.5363L357.553 38.4148L357.649 38.2711L360.053 34.1391V34.3601C359.183 32.8468 358.51 31.2195 358.051 29.5209L358.2 29.6645L353.655 28.5929H353.507V28.4382C353.507 25.6319 353.433 22.9141 353.391 20.4393V20.2956H353.518L358.03 19.1908L357.914 19.3123C358.321 17.6008 358.948 15.9545 359.778 14.418V14.5726L357.257 10.5179L357.204 10.4295L357.267 10.3633C359.449 8.03208 361.25 6.09863 362.627 4.64026H362.68L365.604 6.54056L366.345 7.03773L366.642 7.08192Z" fill="#4F759B"/>
<path d="M161.151 24.715H22.4875V264.131H161.151V24.715Z" fill="#E0E0E0"/>
<path d="M156.544 24.715H17.8799V264.131H156.544V24.715Z" fill="#968686"/>
<path d="M150.644 29.5651H23.7798V259.269H150.644V29.5651Z" fill="#FAFAFA"/>
<path d="M125.942 59.4174H47.9302V229.428H125.942V59.4174Z" fill="#968686"/>
<path d="M47.9302 169.259C47.7502 153.383 61.446 137.882 76.5294 135.661C83.7216 134.557 91.3586 136.092 98.0741 133.22C110.065 128.093 113.878 111.477 125.953 106.549L126.504 229.428H47.9302V169.259Z" fill="#E0E0E0"/>
<path d="M352.141 431.434C353.715 430.439 355.411 429.669 357.182 429.147L358.242 423.943L366.663 423.789L367.881 428.948C369.667 429.41 371.387 430.116 372.997 431.047L377.234 428.142L383.292 434.24L380.655 438.781C381.606 440.425 382.343 442.194 382.848 444.04L387.837 445.145L387.985 453.984L382.996 455.188C382.551 457.051 381.875 458.845 380.983 460.524L383.769 464.943L377.922 471.263L373.558 468.512C371.984 469.508 370.288 470.277 368.516 470.799L367.457 476.003L359.036 476.157L357.818 470.987C356.032 470.529 354.312 469.827 352.702 468.899L348.465 471.804L342.406 465.695L345.044 461.154C344.089 459.512 343.352 457.743 342.851 455.895L337.862 454.79L337.714 446.007L342.745 444.78C343.188 442.917 343.865 441.123 344.758 439.444L341.972 435.025L347.819 428.694L352.183 431.456L352.141 431.434ZM356.632 443.145C355.388 444.487 354.554 446.184 354.235 448.02C353.916 449.857 354.126 451.751 354.839 453.463C355.552 455.175 356.736 456.627 358.241 457.637C359.745 458.647 361.504 459.169 363.293 459.137C365.082 459.104 366.822 458.519 368.292 457.455C369.762 456.391 370.897 454.896 371.552 453.159C372.208 451.423 372.355 449.522 371.975 447.698C371.595 445.875 370.704 444.209 369.417 442.913C368.563 442.052 367.555 441.375 366.45 440.92C365.345 440.466 364.165 440.243 362.978 440.265C361.791 440.286 360.619 440.552 359.53 441.046C358.441 441.54 357.456 442.254 356.632 443.145Z" fill="#4F759B"/>
<path d="M473.878 483.681C473.878 483.681 474.375 483.681 475.392 483.681H480V483.78C456.167 483.901 359.11 484 243.072 484L71.1802 483.912L19.0979 483.78H4.936H1.24989H0H1.24989H4.936L19.0979 483.725L71.1802 483.637L243.072 483.549C359.11 483.549 456.167 483.648 480 483.769V483.78H475.392C474.375 483.703 473.878 483.681 473.878 483.681Z" fill="#263238"/>
<path d="M434.252 54.4127H196.847V403.813H434.252V54.4127Z" fill="white"/>
<path d="M434.252 403.813C434.252 401.482 434.146 260.816 433.998 54.4126L434.252 54.6667H196.868L197.144 54.3795C197.144 185.312 197.144 306.39 197.091 403.78L196.868 403.548L434.273 403.78L196.868 404.012H196.572V403.78C196.572 306.39 196.572 185.312 196.572 54.3795V54.1143H196.868H434.252H434.506V54.3795C434.358 260.816 434.252 401.482 434.252 403.813Z" fill="#00337B"/>
<path d="M307.092 286.393H219.917C216.004 286.393 212.831 289.702 212.831 293.784V303.241C212.831 307.323 216.004 310.633 219.917 310.633H307.092C311.005 310.633 314.178 307.323 314.178 303.241V293.784C314.178 289.702 311.005 286.393 307.092 286.393Z" fill="#4F759B"/>
<path d="M412.845 286.393H327.916C324.003 286.393 320.83 289.702 320.83 293.784V303.241C320.83 307.323 324.003 310.633 327.916 310.633H412.845C416.759 310.633 419.932 307.323 419.932 303.241V293.784C419.932 289.702 416.759 286.393 412.845 286.393Z" fill="#4F759B"/>
<path d="M414.243 336.066H219.441C215.527 336.066 212.354 339.375 212.354 343.457V352.914C212.354 356.996 215.527 360.306 219.441 360.306H414.243C418.157 360.306 421.33 356.996 421.33 352.914V343.457C421.33 339.375 418.157 336.066 414.243 336.066Z" fill="#4F759B"/>
<path d="M259.363 276.637C259.363 276.792 249.576 276.924 237.49 276.924C225.404 276.924 215.617 276.792 215.617 276.637C215.617 276.482 225.404 276.35 237.49 276.35C249.576 276.35 259.363 276.482 259.363 276.637Z" fill="#00337B"/>
<path d="M362.871 276.637C362.871 276.792 355.16 276.924 345.648 276.924C336.136 276.924 328.414 276.792 328.414 276.637C328.414 276.482 336.125 276.35 345.648 276.35C355.17 276.35 362.871 276.482 362.871 276.637Z" fill="#00337B"/>
<path d="M287.136 326.067C287.136 326.222 271.247 326.354 251.652 326.354C232.056 326.354 216.167 326.222 216.167 326.067C216.167 325.912 232.056 325.78 251.652 325.78C271.247 325.78 287.136 325.912 287.136 326.067Z" fill="#00337B"/>
<path d="M414.434 231.361H215.522C211.713 231.361 208.626 234.581 208.626 238.554V250.663C208.626 254.635 211.713 257.855 215.522 257.855H414.434C418.242 257.855 421.33 254.635 421.33 250.663V238.554C421.33 234.581 418.242 231.361 414.434 231.361Z" fill="#E0E0E0"/>
<path d="M360.286 244.608C360.286 244.774 341.411 244.895 318.139 244.895C294.868 244.895 275.982 244.774 275.982 244.608C275.982 244.443 294.858 244.321 318.139 244.321C341.421 244.321 360.286 244.454 360.286 244.608Z" fill="#00337B"/>
<path d="M414.434 70.278H215.522C211.713 70.278 208.626 73.4981 208.626 77.4704V89.5792C208.626 93.5515 211.713 96.7716 215.522 96.7716H414.434C418.242 96.7716 421.33 93.5515 421.33 89.5792V77.4704C421.33 73.4981 418.242 70.278 414.434 70.278Z" fill="#E0E0E0"/>
<path d="M360.286 83.5248C360.286 83.6795 341.411 83.8121 318.139 83.8121C294.868 83.8121 275.982 83.6795 275.982 83.5248C275.982 83.3701 294.858 83.2375 318.139 83.2375C341.421 83.2375 360.286 83.3591 360.286 83.5248Z" fill="#00337B"/>
<path d="M434.252 103.18C434.252 103.345 381.058 103.478 315.449 103.478C249.84 103.478 196.625 103.345 196.625 103.18C196.625 103.014 249.819 102.892 315.449 102.892C381.079 102.892 434.252 103.025 434.252 103.18Z" fill="#968686"/>
<path d="M434.252 220.39C434.252 220.556 381.058 220.678 315.449 220.678C249.84 220.678 196.625 220.556 196.625 220.39C196.625 220.225 249.819 220.103 315.449 220.103C381.079 220.103 434.252 220.236 434.252 220.39Z" fill="#968686"/>
<path d="M307.092 129.751H219.917C216.004 129.751 212.831 133.06 212.831 137.142V146.599C212.831 150.681 216.004 153.99 219.917 153.99H307.092C311.005 153.99 314.178 150.681 314.178 146.599V137.142C314.178 133.06 311.005 129.751 307.092 129.751Z" fill="#4F759B"/>
<path d="M412.845 129.751H327.916C324.003 129.751 320.83 133.06 320.83 137.142V146.599C320.83 150.681 324.003 153.99 327.916 153.99H412.845C416.759 153.99 419.932 150.681 419.932 146.599V137.142C419.932 133.06 416.759 129.751 412.845 129.751Z" fill="#4F759B"/>
<path d="M414.243 179.424H219.441C215.527 179.424 212.354 182.733 212.354 186.815V196.272C212.354 200.354 215.527 203.663 219.441 203.663H414.243C418.157 203.663 421.33 200.354 421.33 196.272V186.815C421.33 182.733 418.157 179.424 414.243 179.424Z" fill="#4F759B"/>
<path d="M259.363 119.995C259.363 120.15 249.576 120.282 237.49 120.282C225.404 120.282 215.617 120.15 215.617 119.995C215.617 119.84 225.404 119.708 237.49 119.708C249.576 119.708 259.363 119.84 259.363 119.995Z" fill="#00337B"/>
<path d="M362.871 119.995C362.871 120.15 355.16 120.282 345.648 120.282C336.136 120.282 328.414 120.15 328.414 119.995C328.414 119.84 336.125 119.708 345.648 119.708C355.17 119.708 362.871 119.84 362.871 119.995Z" fill="#00337B"/>
<path d="M287.136 169.425C287.136 169.58 271.247 169.712 251.652 169.712C232.056 169.712 216.167 169.58 216.167 169.425C216.167 169.27 232.056 169.138 251.652 169.138C271.247 169.138 287.136 169.27 287.136 169.425Z" fill="#00337B"/>
<path d="M413.999 375.033C413.999 375.198 398.503 375.32 379.384 375.32C360.265 375.32 344.779 375.198 344.779 375.033C344.779 374.867 360.265 374.745 379.384 374.745C398.503 374.745 413.999 374.878 413.999 375.033Z" fill="#00337B"/>
<path d="M298.618 144.412C298.081 144.596 297.532 144.74 296.976 144.843C292.816 145.641 288.521 145.001 284.742 143.02C284.039 142.639 283.405 142.135 282.867 141.528C282.277 140.876 281.883 140.058 281.734 139.175C281.636 138.704 281.634 138.217 281.727 137.745C281.82 137.274 282.006 136.827 282.274 136.435C282.588 136.029 283.009 135.729 283.486 135.571C283.963 135.414 284.473 135.407 284.954 135.551C285.207 135.628 285.443 135.759 285.645 135.936C285.847 136.113 286.012 136.332 286.13 136.578C286.363 137.079 286.434 137.645 286.331 138.191C286.11 139.263 285.603 140.247 284.869 141.031C283.424 142.723 281.606 144.023 279.573 144.82C277.384 145.683 275.01 145.905 272.709 145.461C271.486 145.244 270.333 144.717 269.351 143.926C268.822 143.521 268.396 142.987 268.112 142.371C267.827 141.754 267.693 141.074 267.72 140.39C267.789 139.688 268.042 139.019 268.451 138.457C268.852 137.857 269.446 137.426 270.125 137.241C270.483 137.168 270.854 137.192 271.201 137.312C271.549 137.432 271.86 137.644 272.105 137.926C272.57 138.496 272.822 139.222 272.815 139.97C272.828 140.702 272.66 141.425 272.328 142.069C271.971 142.705 271.478 143.245 270.887 143.649C269.712 144.383 268.432 144.916 267.095 145.229C264.521 145.992 261.714 146.82 258.854 146.146C257.421 145.822 256.106 145.079 255.062 144.003C254.522 143.455 254.095 142.796 253.811 142.068C253.527 141.339 253.39 140.558 253.41 139.771C253.421 139.266 253.529 138.768 253.727 138.307C253.926 137.846 254.21 137.431 254.565 137.087C254.955 136.765 255.425 136.566 255.92 136.511C256.415 136.456 256.914 136.548 257.361 136.777C257.821 136.993 258.193 137.373 258.408 137.849C258.624 138.325 258.669 138.866 258.537 139.374C258.252 140.31 257.669 141.117 256.884 141.661C254.041 143.695 250.772 144.99 247.351 145.439C245.686 145.739 243.974 145.583 242.383 144.986C241.6 144.656 240.909 144.124 240.376 143.44C239.843 142.756 239.484 141.942 239.333 141.075C239.207 140.206 239.395 139.318 239.861 138.585C240.327 137.853 241.037 137.326 241.854 137.109C242.269 137.025 242.698 137.059 243.097 137.207C243.495 137.354 243.849 137.61 244.121 137.948C244.619 138.603 244.898 139.41 244.915 140.246C244.951 141.055 244.783 141.859 244.428 142.578C244.05 143.255 243.537 143.839 242.924 144.29C241.738 145.099 240.42 145.676 239.036 145.992C236.441 146.71 233.74 147.218 231.283 146.279C230.123 145.842 229.104 145.077 228.338 144.069C227.597 143.104 227.22 141.89 227.279 140.655C227.391 139.511 227.895 138.448 228.698 137.661C229.062 137.28 229.511 137 230.005 136.846C230.499 136.692 231.022 136.668 231.526 136.777H231.632V136.888C231.665 139.056 230.908 141.157 229.514 142.765C228.523 143.976 227.239 144.888 225.796 145.406C224.905 145.727 223.961 145.855 223.021 145.782C222.385 145.682 222.067 145.594 222.067 145.594C223.301 145.804 224.566 145.682 225.743 145.24C227.14 144.708 228.379 143.801 229.334 142.611C230.643 141.031 231.338 138.997 231.283 136.91L231.399 137.054C230.944 136.966 230.476 136.996 230.035 137.14C229.594 137.285 229.193 137.539 228.868 137.882C228.136 138.616 227.681 139.601 227.586 140.655C227.427 142.865 229.132 145.075 231.357 145.87C233.581 146.666 236.282 146.257 238.856 145.528C240.184 145.219 241.447 144.661 242.585 143.881C243.137 143.472 243.599 142.945 243.94 142.335C244.256 141.694 244.402 140.977 244.364 140.258C244.35 139.539 244.112 138.845 243.686 138.28C243.472 138.009 243.191 137.804 242.874 137.685C242.558 137.567 242.216 137.539 241.886 137.606C241.195 137.801 240.597 138.255 240.206 138.88C239.815 139.506 239.659 140.26 239.767 140.998C239.909 141.77 240.234 142.492 240.714 143.098C241.193 143.704 241.811 144.175 242.51 144.467C244.018 145.025 245.638 145.166 247.213 144.876C250.541 144.435 253.719 143.169 256.482 141.186C257.159 140.719 257.669 140.031 257.933 139.23C258.033 138.848 257.999 138.442 257.835 138.085C257.672 137.728 257.391 137.444 257.043 137.286C256.692 137.111 256.302 137.04 255.916 137.081C255.529 137.122 255.16 137.273 254.85 137.518C254.552 137.811 254.314 138.163 254.148 138.554C253.983 138.945 253.894 139.366 253.887 139.793C253.872 140.498 253.997 141.199 254.254 141.851C254.511 142.503 254.894 143.093 255.38 143.583C256.348 144.58 257.568 145.27 258.897 145.572C261.566 146.213 264.309 145.439 266.873 144.677C268.151 144.375 269.377 143.868 270.506 143.174C271.03 142.823 271.468 142.351 271.788 141.793C272.074 141.233 272.22 140.605 272.211 139.97C272.222 139.353 272.019 138.753 271.639 138.28C271.457 138.065 271.225 137.905 270.964 137.814C270.704 137.722 270.425 137.704 270.156 137.761C269.61 137.956 269.13 138.312 268.774 138.787C268.419 139.262 268.203 139.834 268.154 140.434C268.145 141.034 268.278 141.627 268.54 142.16C268.802 142.694 269.186 143.152 269.659 143.495C270.59 144.239 271.68 144.735 272.836 144.942C275.051 145.368 277.336 145.158 279.446 144.334C281.426 143.583 283.197 142.335 284.604 140.699C285.287 139.981 285.764 139.078 285.981 138.092C286.105 137.652 286.065 137.18 285.869 136.77C285.672 136.36 285.334 136.043 284.922 135.882C284.517 135.755 284.084 135.758 283.68 135.89C283.276 136.022 282.919 136.277 282.655 136.623C282.417 136.97 282.25 137.366 282.164 137.784C282.078 138.202 282.076 138.634 282.157 139.053C282.33 139.842 282.673 140.579 283.162 141.207C283.65 141.836 284.271 142.338 284.975 142.677C287.231 143.904 289.696 144.655 292.231 144.887C293.835 145.022 295.449 144.963 297.04 144.71L298.279 144.467C298.391 144.441 298.504 144.423 298.618 144.412Z" fill="#00337B"/>
<path d="M402.242 143.097C401.822 143.373 401.374 143.603 400.908 143.782C399.581 144.347 398.167 144.658 396.734 144.699C394.456 144.784 392.196 144.235 390.188 143.108C388.9 142.442 387.803 141.432 387.011 140.18C386.573 139.468 386.372 138.626 386.439 137.783C386.485 137.336 386.618 136.904 386.829 136.513C387.04 136.122 387.325 135.78 387.667 135.507C388.036 135.208 388.493 135.051 388.96 135.065C389.439 135.082 389.895 135.282 390.241 135.628C390.571 135.987 390.82 136.418 390.968 136.891C391.117 137.363 391.162 137.864 391.099 138.357C390.929 139.354 390.462 140.27 389.765 140.976C389.078 141.697 388.302 142.317 387.455 142.821C385.687 143.908 383.707 144.568 381.662 144.754C379.473 145.017 377.26 144.59 375.306 143.528C374.284 142.955 373.433 142.099 372.849 141.053C372.557 140.506 372.366 139.906 372.287 139.285C372.229 138.321 372.467 137.362 372.969 136.549C373.47 135.736 374.207 135.111 375.073 134.767C375.387 134.664 375.718 134.629 376.046 134.663C376.373 134.697 376.691 134.8 376.98 134.965C377.549 135.299 377.995 135.82 378.251 136.446C378.501 137.063 378.618 137.731 378.595 138.401C378.571 139.071 378.407 139.727 378.113 140.324C377.513 141.49 376.647 142.484 375.592 143.218C373.491 144.735 371.03 145.622 368.479 145.782C365.928 145.941 363.384 145.368 361.123 144.124C360.008 143.534 358.998 142.749 358.136 141.804C357.228 140.862 356.697 139.594 356.653 138.258C356.666 137.585 356.865 136.929 357.225 136.371C357.586 135.813 358.094 135.374 358.687 135.109C358.998 134.981 359.335 134.935 359.668 134.976C360.001 135.016 360.319 135.142 360.593 135.341C361.117 135.733 361.491 136.304 361.653 136.954C361.802 137.568 361.815 138.209 361.692 138.829C361.569 139.449 361.313 140.032 360.943 140.534C360.258 141.482 359.432 142.31 358.496 142.986C356.803 144.293 354.864 145.211 352.807 145.679C350.749 146.147 348.62 146.156 346.559 145.704C344.643 145.343 342.919 144.267 341.707 142.677C341.146 141.902 340.831 140.963 340.807 139.992C340.782 139.064 341.002 138.147 341.443 137.341C341.647 136.946 341.926 136.598 342.263 136.319C342.599 136.04 342.987 135.835 343.402 135.717C343.801 135.623 344.216 135.623 344.615 135.717C345.014 135.81 345.389 135.995 345.711 136.258C346.287 136.734 346.735 137.358 347.01 138.069C347.284 138.78 347.377 139.553 347.279 140.313C347.061 141.619 346.395 142.797 345.404 143.627C344.6 144.325 343.655 144.824 342.64 145.086C341.25 145.411 339.82 145.505 338.403 145.362L337.343 145.262C337.22 145.278 337.096 145.278 336.973 145.262C337.096 145.248 337.22 145.248 337.343 145.262H338.456C339.878 145.358 341.306 145.231 342.693 144.887C343.668 144.61 344.572 144.112 345.341 143.428C346.251 142.592 346.836 141.436 346.982 140.18C347.062 139.483 346.97 138.776 346.714 138.126C346.458 137.476 346.047 136.906 345.521 136.468C345.235 136.244 344.906 136.087 344.557 136.009C344.208 135.93 343.846 135.933 343.498 136.015C343.135 136.129 342.798 136.316 342.505 136.567C342.213 136.817 341.97 137.125 341.792 137.473C341.375 138.222 341.178 139.081 341.225 139.945C341.272 140.81 341.561 141.64 342.057 142.335C343.218 143.823 344.853 144.827 346.665 145.163C348.661 145.601 350.724 145.594 352.718 145.141C354.712 144.687 356.591 143.799 358.231 142.533C359.115 141.88 359.894 141.086 360.54 140.18C360.865 139.745 361.09 139.238 361.199 138.698C361.307 138.158 361.296 137.599 361.165 137.065C361.042 136.541 360.746 136.08 360.329 135.761C360.125 135.611 359.888 135.516 359.64 135.485C359.393 135.455 359.141 135.488 358.909 135.584C358.417 135.811 357.996 136.18 357.698 136.648C357.4 137.116 357.236 137.663 357.225 138.225C357.279 139.413 357.759 140.537 358.57 141.373C359.395 142.27 360.358 143.017 361.42 143.583C363.596 144.761 366.036 145.307 368.485 145.163C370.933 145.015 373.294 144.162 375.306 142.699C376.299 142.041 377.122 141.138 377.7 140.07C377.957 139.548 378.102 138.975 378.126 138.39C378.149 137.804 378.051 137.22 377.838 136.678C377.657 136.157 377.295 135.727 376.825 135.471C376.354 135.215 375.808 135.153 375.296 135.297C374.548 135.604 373.912 136.15 373.478 136.856C373.045 137.562 372.836 138.393 372.881 139.23C372.95 139.778 373.119 140.306 373.378 140.788C373.913 141.751 374.694 142.539 375.634 143.064C377.485 144.077 379.583 144.492 381.662 144.257C383.628 144.072 385.531 143.434 387.233 142.39C388.046 141.915 388.795 141.328 389.457 140.644C390.093 140.008 390.522 139.182 390.686 138.28C390.743 137.855 390.708 137.422 390.583 137.012C390.459 136.603 390.248 136.228 389.966 135.916C389.692 135.64 389.331 135.479 388.951 135.46C388.571 135.442 388.198 135.568 387.9 135.816C387.607 136.059 387.363 136.359 387.181 136.701C386.999 137.042 386.884 137.417 386.841 137.805C386.781 138.579 386.959 139.353 387.35 140.014C388.112 141.212 389.159 142.183 390.39 142.832C392.331 143.958 394.524 144.53 396.745 144.489C398.154 144.462 399.55 144.193 400.876 143.694C401.787 143.34 402.221 143.064 402.242 143.097Z" fill="#00337B"/>
<path d="M303.766 191.897C303.639 191.982 303.504 192.052 303.363 192.107L302.145 192.681C301.086 193.179 299.486 193.908 297.4 194.725C294.861 195.747 292.227 196.488 289.54 196.935C287.857 197.192 286.156 197.299 284.456 197.255C282.536 197.294 280.624 196.995 278.8 196.371C277.776 196.009 276.852 195.395 276.103 194.582C275.355 193.768 274.805 192.779 274.499 191.698C274.343 191.111 274.3 190.497 274.372 189.892C274.445 189.287 274.632 188.703 274.923 188.174C275.216 187.611 275.634 187.13 276.143 186.773C276.652 186.415 277.236 186.191 277.846 186.119C278.49 186.107 279.123 186.295 279.664 186.659C280.205 187.023 280.631 187.546 280.886 188.163C281.465 189.387 281.56 190.799 281.151 192.096C280.708 193.386 279.944 194.53 278.937 195.41C277.93 196.301 276.811 197.045 275.611 197.62C273.137 198.962 270.277 199.312 267.572 198.603C266.173 198.153 264.915 197.318 263.931 196.187C262.947 195.056 262.273 193.67 261.979 192.173C261.852 191.402 261.852 190.613 261.979 189.842C262.081 189.032 262.396 188.267 262.89 187.632C263.125 187.288 263.428 187 263.779 186.788C264.13 186.577 264.52 186.446 264.924 186.406C265.353 186.398 265.773 186.531 266.125 186.787C266.477 187.043 266.743 187.408 266.883 187.831C267.086 188.626 267.121 189.458 266.985 190.269C266.85 191.079 266.548 191.85 266.1 192.527C265.317 193.916 264.314 195.156 263.134 196.195C260.811 198.268 257.843 199.385 254.787 199.336C251.73 199.288 248.796 198.076 246.536 195.93C245.449 194.876 244.708 193.492 244.417 191.974C244.272 191.209 244.319 190.417 244.555 189.676C244.813 188.95 245.238 188.301 245.794 187.787C246.344 187.262 247.036 186.926 247.775 186.826C248.154 186.769 248.54 186.8 248.906 186.916C249.272 187.033 249.609 187.232 249.893 187.5C250.389 188.041 250.738 188.71 250.904 189.438C251.07 190.166 251.046 190.927 250.836 191.643C250.422 192.986 249.664 194.186 248.643 195.112C247.703 196.026 246.669 196.83 245.561 197.509C243.442 198.816 241.087 199.651 238.644 199.962C236.361 200.276 234.039 200.061 231.844 199.332C230.8 198.967 229.845 198.368 229.048 197.576C228.276 196.809 227.747 195.814 227.533 194.725C227.303 193.686 227.4 192.598 227.808 191.621C228.004 191.15 228.31 190.737 228.699 190.423C229.088 190.108 229.547 189.9 230.033 189.82C230.489 189.747 230.955 189.776 231.4 189.903C231.846 190.031 232.26 190.255 232.617 190.56C232.954 190.853 233.208 191.236 233.351 191.668C233.495 192.101 233.523 192.565 233.433 193.013C233.256 193.829 232.828 194.562 232.215 195.101C231.674 195.595 231.072 196.011 230.425 196.338C229.308 196.915 228.141 197.382 226.94 197.73C225.286 198.225 223.576 198.489 221.856 198.515C221.258 198.537 220.659 198.511 220.065 198.438H220.521C220.828 198.438 221.273 198.438 221.856 198.438C223.557 198.357 225.243 198.061 226.876 197.554C228.058 197.184 229.206 196.707 230.308 196.128C230.93 195.806 231.507 195.397 232.024 194.913C232.564 194.406 232.935 193.733 233.083 192.991C233.159 192.598 233.131 192.191 233.003 191.813C232.874 191.436 232.649 191.102 232.352 190.847C232.028 190.581 231.655 190.387 231.256 190.277C230.857 190.167 230.441 190.143 230.033 190.207C229.605 190.282 229.203 190.47 228.864 190.752C228.525 191.034 228.26 191.402 228.094 191.82C227.725 192.719 227.643 193.718 227.861 194.67C228.12 195.693 228.632 196.626 229.346 197.377C230.06 198.127 230.951 198.668 231.929 198.946C234.06 199.646 236.315 199.842 238.528 199.52C242.165 199.045 245.565 197.382 248.241 194.77C249.198 193.908 249.909 192.788 250.296 191.532C250.478 190.911 250.5 190.251 250.359 189.618C250.217 188.986 249.918 188.403 249.491 187.931C248.993 187.535 248.372 187.348 247.749 187.405C247.126 187.462 246.546 187.76 246.122 188.24C245.647 188.692 245.284 189.257 245.063 189.886C244.86 190.539 244.82 191.235 244.947 191.908C245.233 193.312 245.933 194.586 246.949 195.554C249.116 197.604 251.925 198.759 254.851 198.802C257.776 198.845 260.616 197.772 262.837 195.786C263.976 194.793 264.94 193.6 265.686 192.262C266.073 191.629 266.35 190.929 266.502 190.196C266.673 189.493 266.651 188.754 266.438 188.063C266.341 187.746 266.151 187.469 265.894 187.271C265.637 187.073 265.328 186.963 265.008 186.958C264.684 186.999 264.371 187.111 264.09 187.286C263.809 187.461 263.566 187.696 263.377 187.975C262.98 188.557 262.704 189.22 262.567 189.92C262.43 190.62 262.436 191.343 262.583 192.041C262.859 193.435 263.488 194.726 264.405 195.781C265.321 196.836 266.491 197.616 267.794 198.04C270.374 198.716 273.101 198.386 275.463 197.112C277.772 195.952 279.986 194.272 280.759 191.875C281.131 190.703 281.047 189.426 280.526 188.317C280.315 187.784 279.957 187.329 279.496 187.011C279.036 186.692 278.494 186.523 277.942 186.528C277.405 186.593 276.891 186.792 276.443 187.107C275.996 187.422 275.627 187.845 275.368 188.339C275.102 188.816 274.93 189.342 274.863 189.889C274.795 190.435 274.834 190.991 274.976 191.521C275.259 192.54 275.772 193.473 276.472 194.242C277.173 195.011 278.04 195.594 279.001 195.941C280.782 196.565 282.651 196.872 284.53 196.847C286.212 196.904 287.895 196.811 289.561 196.57C292.232 196.164 294.855 195.471 297.389 194.504C299.508 193.72 301.075 193.024 302.166 192.571L303.406 192.041L303.766 191.897Z" fill="#00337B"/>
<path d="M404.18 434.981C404.18 434.981 379.818 405.725 370.603 376.425C361.388 347.125 365.783 350.528 365.783 350.528C365.783 350.528 378.198 378.944 387.625 392.677C397.052 406.41 413.841 426.551 413.841 426.551L404.18 434.981Z" fill="#455A64"/>
<path d="M409.074 355.113C408.91 354.815 408.652 354.585 408.343 354.464C408.035 354.342 407.696 354.337 407.384 354.448C407.072 354.559 406.807 354.78 406.634 355.072C406.461 355.365 406.391 355.711 406.437 356.052C407.919 366.338 411.129 390.456 411.012 406.101C410.843 426.418 411.012 434.274 411.012 434.274H421.128C421.128 434.274 419.327 392.29 417.029 379.452C415.461 370.481 412.05 360.504 409.074 355.113Z" fill="#455A64"/>
<path d="M414.614 430.86C418.862 420.813 421.674 410.171 422.96 399.273C423.797 391.782 422.304 381.673 420.09 368.183C419.227 363.251 418.798 358.248 418.808 353.235C418.81 352.674 418.991 352.129 419.322 351.688C419.654 351.247 420.117 350.933 420.639 350.797C421.161 350.662 421.711 350.711 422.202 350.939C422.694 351.166 423.099 351.558 423.352 352.052C424.571 354.328 428.119 362.106 429.019 366.99C431.477 380.314 434.252 386.976 432.133 399.604C430.015 412.232 422.187 431.71 422.187 431.71L414.614 430.86Z" fill="#455A64"/>
<path d="M423.744 431.71C423.744 431.71 450.511 371.729 452.344 362.824C454.176 353.92 460.5 333.425 461.241 334.585C461.983 335.745 463.105 346.573 458.275 358.958C453.445 371.343 432.854 433.544 432.854 433.544H423.713" fill="#455A64"/>
<path d="M411.68 429.026C411.415 428.872 411.163 428.695 410.928 428.495C410.451 428.12 409.731 427.589 408.809 426.838C406.307 424.755 403.907 422.543 401.617 420.209C394.085 412.464 387.558 403.725 382.201 394.213C376.869 384.702 372.431 374.675 368.951 364.272C367.605 360.283 366.631 357.024 365.985 354.759C365.667 353.654 365.434 352.748 365.275 352.141C365.184 351.841 365.116 351.535 365.074 351.224C365.205 351.508 365.312 351.804 365.392 352.108L366.197 354.693C366.906 356.903 367.944 360.217 369.374 364.128C372.953 374.474 377.428 384.459 382.742 393.958C388.078 403.426 394.529 412.159 401.946 419.955C404.816 422.927 407.242 425.181 409 426.694C409.847 427.468 410.546 428.02 411.002 428.429C411.241 428.611 411.467 428.81 411.68 429.026Z" fill="#263238"/>
<path d="M414.603 400.256C414.484 399.674 414.406 399.083 414.37 398.488L413.872 393.682C413.449 389.628 412.813 384.026 411.839 377.883C410.864 371.74 409.837 366.194 409.021 362.206L408.047 357.477C407.893 356.907 407.793 356.322 407.75 355.732C407.959 356.281 408.129 356.846 408.258 357.422C408.566 358.527 408.958 360.129 409.413 362.117C410.335 366.095 411.457 371.619 412.411 377.784C413.364 383.949 413.957 389.572 414.275 393.638C414.434 395.682 414.54 397.328 414.593 398.477C414.647 399.069 414.65 399.664 414.603 400.256Z" fill="#263238"/>
<path d="M420.874 351.577C421.006 351.819 421.112 352.075 421.192 352.34C421.393 352.903 421.658 353.643 421.997 354.549C422.336 355.455 422.759 356.704 423.141 358.118C423.522 359.532 424.052 361.112 424.444 362.924L425.111 365.741C425.333 366.725 425.492 367.763 425.693 368.824C426.128 370.956 426.403 373.243 426.753 375.696C427.976 386.259 427.618 396.956 425.693 407.404C425.196 409.791 424.772 412.078 424.189 414.166C423.914 415.215 423.681 416.243 423.395 417.204C423.109 418.165 422.812 419.093 422.537 419.966C422.028 421.745 421.404 423.281 420.906 424.662C420.408 426.043 419.942 427.203 419.518 428.142L418.565 430.351C418.468 430.608 418.344 430.853 418.194 431.081C418.265 430.813 418.353 430.551 418.459 430.296C418.681 429.744 418.957 429.004 419.317 428.087C419.677 427.169 420.154 425.965 420.609 424.584C421.065 423.203 421.668 421.645 422.156 419.878C422.41 418.994 422.685 418.066 422.971 417.116C423.257 416.165 423.469 415.127 423.734 414.077C424.295 411.989 424.698 409.713 425.174 407.338C427.037 396.934 427.394 386.298 426.234 375.784C425.926 373.376 425.672 371.078 425.259 368.956C425.068 367.851 424.92 366.857 424.708 365.874C424.496 364.891 424.285 363.951 424.083 363.057C423.723 361.245 423.236 359.654 422.865 358.251C422.495 356.847 422.134 355.632 421.806 354.649L421.107 352.439C420.997 352.162 420.919 351.873 420.874 351.577Z" fill="#263238"/>
<path d="M460.966 335.789C460.97 335.878 460.97 335.966 460.966 336.055C460.966 336.265 460.892 336.519 460.839 336.839C460.722 337.513 460.574 338.529 460.309 339.822C459.801 342.407 458.932 346.12 457.597 350.616C456.263 355.113 454.42 360.416 452.301 366.216C450.183 372.017 447.63 378.369 445.257 385.087C442.885 391.804 441.02 398.345 439.241 404.333C437.461 410.321 435.862 415.635 434.284 420.055C433.052 423.554 431.637 426.98 430.047 430.318C429.496 431.5 428.988 432.384 428.68 433.003L428.31 433.688C428.27 433.768 428.22 433.842 428.161 433.909L428.257 433.655C428.352 433.467 428.458 433.224 428.585 432.937C428.871 432.318 429.327 431.412 429.846 430.208C430.905 427.832 432.366 424.341 433.892 419.911C435.417 415.481 437.069 410.133 438.722 404.167C440.374 398.201 442.291 391.627 444.707 384.877C447.122 378.126 449.611 371.807 451.803 366.018C453.996 360.228 455.86 354.969 457.237 350.495C458.614 346.02 459.536 342.33 460.118 339.767C460.415 338.496 460.595 337.491 460.754 336.817C460.817 336.508 460.881 336.254 460.923 336.044C460.924 335.957 460.939 335.871 460.966 335.789Z" fill="#263238"/>
<path d="M378.441 322.531C378.071 322.168 377.596 321.942 377.089 321.889C376.583 321.836 376.075 321.959 375.642 322.239C375.21 322.519 374.878 322.939 374.699 323.436C374.519 323.932 374.502 324.476 374.649 324.984C375.561 328.072 376.683 331.089 378.007 334.011C381.683 342.164 392.497 371.42 397.55 387.495C402.602 403.57 409.741 433.544 409.741 433.544L420.546 431.71C420.546 431.71 410.663 382.457 401.003 364.703C393.239 350.45 385.485 329.834 378.441 322.531Z" fill="#455A64"/>
<path d="M400.505 397.538C400.743 397.966 400.931 398.423 401.066 398.897C401.384 399.781 401.818 401.107 402.316 402.675C403.312 405.89 404.519 410.409 405.748 415.37C406.977 420.331 407.994 424.893 408.703 428.186C409.032 429.744 409.296 431.047 409.519 432.086C409.645 432.562 409.72 433.051 409.741 433.544C409.545 433.095 409.396 432.624 409.296 432.141C409.042 431.114 408.703 429.821 408.311 428.285C407.485 424.893 406.394 420.441 405.197 415.514C404 410.586 402.814 406.034 401.924 402.797L400.865 398.963C400.702 398.501 400.581 398.024 400.505 397.538Z" fill="#263238"/>
<path d="M415.165 432.627C415.13 432.531 415.109 432.431 415.101 432.329C415.101 432.097 415.037 431.799 414.985 431.434C414.868 430.661 414.773 429.501 414.54 428.031C414.148 425.07 413.48 420.806 412.273 415.602C410.894 409.51 409.208 403.499 407.22 397.593C405.007 390.964 402.221 383.706 399.075 376.248C392.72 361.333 386.364 348.108 382.201 338.319C380.083 333.447 378.462 329.481 377.382 326.686C376.831 325.305 376.439 324.222 376.164 323.482C376.047 323.139 375.952 322.863 375.867 322.642C375.826 322.547 375.797 322.447 375.782 322.344C375.838 322.43 375.884 322.523 375.92 322.62L376.27 323.437C376.587 324.2 377.032 325.26 377.583 326.597C378.727 329.348 380.411 333.292 382.562 338.154C386.798 347.876 393.228 361.068 399.594 376.005C402.772 383.485 405.526 390.71 407.718 397.417C409.68 403.346 411.328 409.384 412.654 415.503C413.561 419.628 414.268 423.798 414.773 427.998C414.963 429.479 415.037 430.639 415.112 431.423C415.112 431.791 415.133 432.09 415.175 432.318C415.186 432.421 415.182 432.525 415.165 432.627Z" fill="#263238"/>
<path d="M420.545 431.71C420.369 431.093 420.245 430.461 420.175 429.821C419.963 428.495 419.677 426.75 419.338 424.639C418.596 420.22 417.452 414.265 415.821 407.713C414.19 401.162 412.379 395.339 410.981 391.141L409.286 386.191C409.051 385.596 408.86 384.983 408.714 384.357C409.025 384.918 409.287 385.505 409.498 386.114C409.964 387.219 410.61 388.92 411.362 390.997C413.314 396.425 414.986 401.957 416.372 407.57C417.769 413.175 418.893 418.85 419.74 424.573C420.048 426.783 420.281 428.55 420.397 429.788C420.488 430.424 420.537 431.067 420.545 431.71Z" fill="#263238"/>
<path d="M442.715 430.097H400.547V483.681H442.715V430.097Z" fill="#00337B"/>
<g opacity="0.3">
<path d="M442.715 430.097H400.547V483.681H442.715V430.097Z" fill="black"/>
</g>
<path d="M429.263 430.097H391.851V483.681H429.263V430.097Z" fill="#00337B"/>
<path d="M86.6027 145.991L85.4058 246.663C85.2045 263.777 88.2551 288.967 114.217 288.072C136.694 285.52 142.657 263.335 142.816 247.359C142.901 239.78 142.985 233.46 143.038 232.687C143.038 232.687 167.634 230.588 169.71 205.243C170.716 193.002 170.769 167.602 170.653 144.621C170.56 132.719 166.174 121.289 158.368 112.607C150.562 103.925 139.909 98.6261 128.527 97.7658L126.175 97.578C100.775 97.2023 86.2744 119.487 86.6027 145.991Z" fill="#FFBE9D"/>
<path d="M143.049 232.687C143.049 232.687 127.658 232.455 112.077 220.534C112.077 220.534 118.496 239.647 142.922 239.205L143.049 232.687Z" fill="#EB996E"/>
<path d="M129.12 155.007C128.643 155.526 125.836 153.162 121.758 153.051C117.68 152.941 114.651 155.018 114.227 154.476C114.015 154.233 114.513 153.294 115.848 152.322C117.632 151.074 119.749 150.447 121.896 150.532C124.02 150.589 126.068 151.364 127.732 152.742C128.961 153.814 129.364 154.786 129.12 155.007Z" fill="#263238"/>
<path d="M129.003 163.79C128.946 164.683 128.558 165.518 127.922 166.118C127.285 166.718 126.45 167.036 125.593 167.005C124.75 167.005 123.942 166.656 123.346 166.034C122.75 165.413 122.415 164.57 122.415 163.691C122.47 162.799 122.855 161.964 123.49 161.364C124.125 160.764 124.959 160.445 125.815 160.476C126.233 160.474 126.648 160.559 127.034 160.725C127.421 160.891 127.773 161.135 128.069 161.443C128.365 161.751 128.6 162.116 128.761 162.519C128.921 162.922 129.003 163.354 129.003 163.79Z" fill="#263238"/>
<path d="M139.374 184.539C139.374 184.318 141.725 184.075 145.517 183.865C146.481 183.865 147.402 183.699 147.636 183.036C147.79 182.016 147.643 180.972 147.212 180.042L144.829 172.22C141.651 161.172 139.458 152.046 139.882 151.913C140.306 151.781 143.229 160.675 146.386 171.8C147.148 174.54 147.869 177.136 148.504 179.633C148.79 180.793 149.32 182.119 148.727 183.578C148.565 183.919 148.329 184.218 148.039 184.45C147.749 184.681 147.412 184.84 147.053 184.914C146.516 185.023 145.968 185.06 145.422 185.025C141.672 184.925 139.374 184.771 139.374 184.539Z" fill="#263238"/>
<path d="M127.394 139.075C127.002 140.025 123.739 139.307 119.841 139.517C115.943 139.727 112.723 140.622 112.278 139.727C112.077 139.285 112.681 138.423 114.005 137.584C115.751 136.545 117.715 135.968 119.725 135.904C121.721 135.794 123.712 136.204 125.519 137.098C126.896 137.783 127.563 138.6 127.394 139.075Z" fill="#263238"/>
<path d="M166.045 146.908C165.621 147.682 162.443 146.831 158.63 146.71C154.817 146.588 151.586 147.096 151.216 146.29C151.046 145.914 151.682 145.185 153.016 144.61C154.826 143.861 156.77 143.526 158.715 143.627C160.678 143.691 162.606 144.188 164.371 145.086C165.621 145.804 166.235 146.544 166.045 146.908Z" fill="#263238"/>
<path d="M87.2806 164.928C86.8781 164.707 70.9261 158.498 70.2482 175.877C69.5703 193.256 86.412 190.394 86.4862 189.897C86.5603 189.4 87.2806 164.928 87.2806 164.928Z" fill="#FFBE9D"/>
<path d="M81.6562 183.091C81.582 183.036 81.349 183.29 80.8512 183.5C80.1704 183.78 79.4134 183.78 78.7327 183.5C76.9956 182.749 75.6292 179.777 75.6715 176.639C75.6892 175.148 76.0257 173.68 76.6566 172.342C76.8348 171.808 77.1355 171.327 77.5324 170.942C77.9293 170.557 78.4105 170.279 78.934 170.132C79.2693 170.052 79.6209 170.098 79.9271 170.261C80.2332 170.425 80.4741 170.696 80.6075 171.027C80.8194 171.524 80.6923 171.866 80.7876 171.9C80.8829 171.933 81.1583 171.623 81.0418 170.905C80.9682 170.476 80.755 170.085 80.4381 169.8C79.9929 169.419 79.4233 169.233 78.8492 169.281C78.1524 169.39 77.4942 169.684 76.9377 170.135C76.3812 170.586 75.9452 171.178 75.6715 171.855C74.9099 173.331 74.4993 174.975 74.4746 176.65C74.4746 180.164 76.0423 183.511 78.4149 184.384C78.8583 184.536 79.3283 184.584 79.7915 184.524C80.2546 184.465 80.6996 184.3 81.0948 184.042C81.6032 183.511 81.7091 183.125 81.6562 183.091Z" fill="#EB996E"/>
<path d="M135.391 196.581C135.571 196.139 132.308 195.123 130.01 191.919C129.054 190.521 128.277 188.998 127.701 187.389C127.213 186.119 126.843 185.334 126.641 185.389C126.44 185.445 126.504 186.295 126.779 187.676C127.125 189.51 127.848 191.244 128.898 192.759C129.986 194.272 131.451 195.445 133.135 196.15C134.48 196.692 135.338 196.725 135.391 196.581Z" fill="#263238"/>
<path d="M166.235 156.609C165.748 157.117 162.941 154.764 158.821 154.653C154.7 154.543 151.713 156.62 151.279 156.079C151.067 155.835 151.576 154.896 152.9 153.924C154.684 152.676 156.801 152.05 158.948 152.134C161.075 152.191 163.127 152.966 164.795 154.344C166.066 155.416 166.468 156.377 166.235 156.609Z" fill="#263238"/>
<path d="M165.568 165.028C165.511 165.92 165.123 166.755 164.487 167.355C163.85 167.955 163.015 168.273 162.157 168.243C161.315 168.243 160.506 167.893 159.91 167.272C159.315 166.65 158.98 165.807 158.98 164.928C159.037 164.035 159.425 163.201 160.061 162.601C160.698 162.001 161.533 161.682 162.39 161.713C163.233 161.713 164.041 162.062 164.637 162.684C165.233 163.306 165.568 164.149 165.568 165.028Z" fill="#263238"/>
<path d="M187.611 110.969C185.955 108.164 183.388 106.074 180.378 105.08C177.368 104.086 174.115 104.255 171.214 105.555C171.959 101.532 171.422 97.3661 169.686 93.6912C167.95 90.0162 165.11 87.0342 161.598 85.1995C158.086 83.3648 154.095 82.7782 150.234 83.529C146.372 84.2798 142.852 86.3269 140.21 89.3582C140 88.2833 139.571 87.2681 138.951 86.3817C138.332 85.4952 137.536 84.7582 136.619 84.2207C134.782 83.1525 132.743 82.5153 130.645 82.3536C125.673 81.7783 120.644 82.5733 116.058 84.6593C111.473 86.7453 107.493 90.0493 104.514 94.2415C99.6694 93.6418 94.7572 94.2383 90.174 95.9827C85.5907 97.7272 81.4647 100.571 78.1289 104.284C70.3012 113.333 68.8182 134.291 77.398 152.399L79.4105 163.746C82.101 163.746 84.5584 163.945 86.2214 165.492C88.4775 167.602 89.4838 171.579 93.2229 170.077C95.1295 169.303 96.8666 165.138 97.4598 163.116C101.69 149.627 103.091 135.347 101.57 121.243C104.241 118.276 107.434 115.871 110.976 114.161L110.69 114.438C117.479 111.974 125.159 109.554 131.599 112.88C136.598 115.454 139.543 120.868 143.25 125.177C146.7 129.162 150.887 132.377 155.56 134.629C160.233 136.881 165.295 138.123 170.441 138.28C170.801 145.417 170.229 155.504 170.589 162.586L176.446 151.228C176.901 150.412 177.315 149.571 177.686 148.709L177.813 148.444C178.872 147.549 179.656 145.914 181.435 143.793C183.135 141.708 184.254 139.177 184.671 136.475C185.087 133.774 184.785 131.004 183.797 128.469C186.344 126.517 188.13 123.674 188.831 120.46C189.531 117.246 189.098 113.877 187.611 110.969Z" fill="#263238"/>
<path d="M177.643 111.234C177.643 111.234 177.707 111.355 177.77 111.609C177.856 111.971 177.906 112.341 177.919 112.714C177.973 114.137 177.639 115.547 176.955 116.78C176.47 117.631 175.838 118.38 175.091 118.99C174.202 119.699 173.157 120.162 172.051 120.337C170.765 120.549 169.449 120.408 168.231 119.93C167.013 119.451 165.935 118.652 165.102 117.608L165.515 117.244C165.917 117.702 166.227 118.239 166.429 118.823C166.631 119.407 166.72 120.027 166.691 120.647C166.678 121.476 166.507 122.294 166.187 123.053C165.866 123.812 165.404 124.496 164.827 125.066C163.731 126.082 162.348 126.699 160.886 126.823C158.456 127.007 156.04 126.313 154.044 124.856C152.713 123.914 151.485 122.825 150.379 121.608C149.955 121.186 149.565 120.727 149.214 120.238C149.68 120.609 150.119 121.015 150.527 121.453C151.679 122.589 152.927 123.613 154.256 124.514C156.193 125.864 158.511 126.491 160.833 126.292C162.18 126.164 163.453 125.592 164.467 124.657C165.503 123.612 166.104 122.183 166.14 120.68C166.179 119.572 165.799 118.492 165.081 117.675L165.494 117.299C166.266 118.268 167.263 119.015 168.391 119.468C169.518 119.92 170.738 120.064 171.934 119.884C172.9 119.732 173.82 119.355 174.627 118.782C175.434 118.208 176.106 117.452 176.595 116.57C177.27 115.398 177.636 114.06 177.654 112.692C177.739 111.764 177.601 111.245 177.643 111.234Z" fill="#455A64"/>
<path d="M156.798 92.1865C156.798 92.1865 156.925 92.1865 157.158 92.3522C157.479 92.5467 157.787 92.7645 158.079 93.0041C159.186 93.8941 160.054 95.0659 160.6 96.407C161.005 97.4201 161.164 98.5212 161.064 99.6136C160.964 100.706 160.609 101.756 160.028 102.671C159.327 103.79 158.238 104.582 156.988 104.881C156.323 105.031 155.636 105.039 154.968 104.904C154.3 104.77 153.665 104.495 153.101 104.097C152.753 103.822 152.443 103.498 152.18 103.135L152.656 102.848C152.897 103.473 153.01 104.144 152.988 104.818C152.966 105.491 152.81 106.152 152.529 106.759C152.041 107.891 151.186 108.806 150.114 109.344C149.225 109.775 148.256 109.999 147.275 109.999C146.295 109.999 145.326 109.775 144.437 109.344C143.265 108.78 142.222 107.963 141.375 106.947C141.046 106.596 140.77 106.193 140.56 105.754C140.56 105.754 140.899 106.14 141.524 106.792C142.398 107.727 143.438 108.478 144.585 109.002C145.424 109.377 146.33 109.563 147.243 109.545C148.156 109.528 149.055 109.309 149.881 108.903C150.823 108.392 151.57 107.562 151.999 106.549C152.242 106.013 152.376 105.43 152.395 104.837C152.413 104.244 152.314 103.654 152.105 103.102L151.216 100.97L152.582 102.826C152.806 103.139 153.074 103.414 153.376 103.644C153.876 103.999 154.44 104.245 155.034 104.366C155.627 104.488 156.238 104.483 156.83 104.351C157.94 104.099 158.915 103.411 159.552 102.428C160.099 101.585 160.441 100.615 160.55 99.6028C160.659 98.5906 160.531 97.566 160.177 96.6169C159.683 95.3158 158.899 94.1566 157.889 93.2361C157.232 92.5069 156.766 92.2307 156.798 92.1865Z" fill="#455A64"/>
<path d="M298.258 218.91L259.755 249.558C259.215 249.99 258.767 250.532 258.436 251.152C258.105 251.771 257.899 252.455 257.83 253.161C257.762 253.866 257.832 254.579 258.038 255.255C258.243 255.931 258.579 256.557 259.024 257.093V257.093C259.857 258.097 261.029 258.729 262.296 258.859C263.564 258.988 264.83 258.605 265.835 257.789L303.967 226.854L309.125 216.236L298.258 218.91Z" fill="#00337B"/>
<path opacity="0.5" d="M304.189 217.44L306.912 220.755L303.967 226.854C303.613 226.893 303.255 226.847 302.92 226.72C302.585 226.593 302.283 226.388 302.036 226.12C301.789 225.853 301.603 225.53 301.494 225.177C301.384 224.823 301.353 224.448 301.404 224.08C301.055 224.131 300.701 224.09 300.371 223.961C300.042 223.833 299.749 223.621 299.517 223.345C299.286 223.069 299.125 222.737 299.047 222.379C298.97 222.021 298.978 221.649 299.073 221.296C299.073 221.296 297.071 221.108 298.205 218.91L304.189 217.44Z" fill="white"/>
<path d="M259.755 249.525L266.068 257.568L268.186 255.855L262.138 247.635L259.755 249.525Z" fill="#263238"/>
<path d="M256.948 326.299L255.56 326.034L283.884 274.394L279.393 259.501C279.393 259.501 274.202 238.3 278.524 232.886C278.524 232.886 287.983 221.263 291.055 221.429C294.127 221.595 296.573 222.224 297.188 224.633C297.188 224.633 302.41 223.992 303.787 225.738C304.708 226.945 305.53 228.231 306.244 229.582C306.244 229.582 311.922 229.096 313.457 234.223C313.457 234.223 318.828 237.106 319.294 241.26C319.76 245.415 318.235 264.793 316.529 269.754C314.824 274.715 308.543 285.122 306.71 300.49C304.878 315.858 298.374 325.835 292.601 348.285L276.935 354.748L256.948 326.299Z" fill="#FFBE9D"/>
<path d="M296.923 224.301C297.04 224.467 295.091 225.815 293.618 228.301C292.146 230.787 291.796 233.173 291.595 233.14C291.615 231.301 292.119 229.504 293.053 227.945C293.988 226.386 295.315 225.125 296.891 224.301H296.923Z" fill="#EB996E"/>
<path d="M305.937 229.583C306.043 229.759 304.179 230.93 302.707 233.162C301.234 235.394 300.768 237.581 300.588 237.581C300.408 237.581 300.588 235.162 302.188 232.809C303.054 231.324 304.375 230.188 305.937 229.583V229.583Z" fill="#EB996E"/>
<path d="M313.161 234.09C313.278 234.245 311.869 235.538 310.577 237.482C309.284 239.427 308.585 241.249 308.405 241.183C308.566 239.688 309.136 238.273 310.047 237.106C310.781 235.806 311.863 234.757 313.161 234.09V234.09Z" fill="#EB996E"/>
<path d="M286.606 235.77C285.579 235.421 284.508 235.231 283.428 235.206C282.369 235.378 281.34 235.717 280.378 236.211C280.325 236.211 280.526 235.792 281.045 235.394C281.735 234.895 282.542 234.601 283.379 234.542C284.217 234.484 285.054 234.664 285.801 235.062C286.352 235.383 286.606 235.703 286.606 235.77Z" fill="#EB996E"/>
<path d="M297.855 243.139C297.213 242.054 296.425 241.072 295.514 240.222C293.915 238.918 292.178 238.841 292.199 238.642C292.22 238.443 292.633 238.454 293.343 238.543C294.275 238.692 295.156 239.083 295.905 239.679C296.655 240.276 297.249 241.059 297.633 241.957C297.908 242.653 297.929 243.117 297.855 243.139Z" fill="#EB996E"/>
<path d="M309.072 245.636C308.935 245.779 307.695 244.321 305.588 243.746C304.297 243.487 302.977 243.42 301.668 243.547C301.668 243.47 302.039 243.205 302.791 243.017C303.773 242.802 304.789 242.831 305.758 243.104C306.726 243.377 307.619 243.884 308.363 244.586C308.914 245.138 309.125 245.591 309.072 245.636Z" fill="#EB996E"/>
<path d="M23.2925 301.971C23.2925 301.971 5.91057 404.808 6.76854 414.431C7.62652 424.054 12.2236 439.345 22.657 441.963C29.2837 443.508 36.1556 443.508 42.7823 441.963L30.2728 315.648L23.2925 301.971Z" fill="#00337B"/>
<path d="M74.1248 248.917C74.1248 248.917 53.3427 264.385 48.7033 268.859C29.4889 287.807 25.4744 295.563 23.2818 302.004C21.0892 308.445 36.6281 457.265 36.6281 457.265L39.8058 483.283L185.63 483.67V350.771L163.736 257.225L150.252 253.226L147.529 242.078C147.529 242.078 130.783 229.174 103.158 228.82C94.6844 228.699 82.6304 232.19 75.9149 237.659L74.1248 248.917Z" fill="#00337B"/>
<path d="M147.381 257.612C147.381 257.612 162.369 256.916 163.693 257.225C168.312 258.33 180.991 270.483 195.47 285.42C209.24 299.673 236.378 329.337 236.378 329.337C236.378 329.337 241.25 324.211 246.811 331.061L268.218 298.579C268.218 298.579 300.376 302.689 305.376 328C305.376 328 295.525 347.622 287.454 361.642C287.454 361.642 257.594 413.337 234.005 403.968C212.46 395.395 185.439 372.547 181.637 367.663L149.86 344.053C149.86 344.053 128.125 300.833 137.732 279.222L147.381 257.612Z" fill="#00337B"/>
<path d="M150.209 253.226C149.95 253.201 149.694 253.146 149.447 253.06L147.328 252.463C145.453 251.966 142.72 251.281 139.31 250.607C130.413 248.892 121.425 247.737 112.395 247.149C103.37 246.481 94.3098 246.51 85.289 247.238C81.8254 247.547 79.0502 248 77.1436 248.342L74.951 248.795C74.6997 248.871 74.4393 248.908 74.1777 248.906C74.4159 248.798 74.6645 248.716 74.9192 248.663L77.0906 248.088C79.7829 247.482 82.5059 247.036 85.2467 246.752C94.2878 245.887 103.382 245.795 112.437 246.475C121.485 247.058 130.485 248.283 139.373 250.143C142.784 250.884 145.506 251.635 147.381 252.22L149.499 252.939C149.746 253.005 149.984 253.102 150.209 253.226V253.226Z" fill="#263238"/>
<path d="M93.4135 245.492C93.2334 245.492 92.7567 242.973 92.3542 239.802C91.9517 236.631 91.7293 234.057 91.9094 234.024C92.465 235.873 92.8203 237.782 92.9686 239.714C93.3923 242.929 93.5935 245.47 93.4135 245.492Z" fill="#263238"/>
<path d="M98.8578 245.006C97.4098 241.357 97.1421 237.315 98.0952 233.494C98.2858 233.494 97.9998 236.101 98.2117 239.272C98.4235 242.443 99.0379 244.951 98.8578 245.006Z" fill="#263238"/>
<g opacity="0.3">
<path d="M74.6016 248.795C97.4173 253.005 120.551 248.795 144.701 251.812C121.398 246.774 97.0996 244.387 74.6016 248.795" fill="black"/>
</g>
<g opacity="0.3">
<path d="M34.5097 442.162C21.6719 410.796 23.1972 375.353 24.9767 341.313L34.5097 442.162Z" fill="black"/>
</g>
<path d="M23.2925 324.388C23.3273 324.517 23.3486 324.651 23.3561 324.785C23.3561 325.084 23.4408 325.47 23.4938 325.945C23.5997 327.05 23.7586 328.52 23.9492 330.442C24.32 334.386 24.8602 340.021 25.5169 347.014C26.8198 360.957 28.5993 380.236 30.7283 401.504C32.8574 422.772 34.9652 442.007 36.6812 455.906C37.518 462.855 38.2382 468.479 38.7996 472.357C39.0433 474.268 39.2339 475.771 39.361 476.831C39.4246 477.317 39.4669 477.704 39.4987 478.002C39.5102 478.135 39.5102 478.268 39.4987 478.4C39.4557 478.275 39.4273 478.145 39.414 478.013L39.2127 476.853C39.0538 475.749 38.8208 474.301 38.5348 472.434C37.9522 468.556 37.1578 462.944 36.2575 456.005C34.4462 442.118 32.243 422.861 30.114 401.604C27.9849 380.347 26.2796 361.046 25.0932 347.092C24.5212 340.142 24.034 334.497 23.7268 330.519C23.5891 328.597 23.4726 327.094 23.3984 326.023C23.3984 325.537 23.3984 325.15 23.3243 324.84C23.2959 324.691 23.2852 324.539 23.2925 324.388Z" fill="#263238"/>
<path d="M122.013 307.561C121.704 307.611 121.392 307.629 121.081 307.616H118.38C116.049 307.616 112.66 307.616 108.486 307.738C100.129 307.937 88.5941 308.577 75.9363 310.135C63.2785 311.693 51.913 313.947 43.7463 315.847C39.6577 316.764 36.3317 317.56 34.0968 318.145L31.4699 318.786C31.168 318.872 30.8597 318.931 30.5483 318.963C30.8354 318.832 31.1332 318.728 31.4381 318.653L34.0332 317.891C36.2894 317.228 39.573 316.366 43.651 315.383C64.9202 310.284 86.6533 307.584 108.476 307.329C112.713 307.329 116.049 307.329 118.39 307.417L121.081 307.528C121.392 307.513 121.703 307.524 122.013 307.561V307.561Z" fill="#263238"/>
<path d="M66.0218 340.86C65.8417 340.86 66.1807 326.619 66.7632 309.064C67.3458 291.508 67.9814 277.267 68.1614 277.278C68.3415 277.289 68.0025 291.519 67.4094 309.086C66.8162 326.652 66.1913 340.871 66.0218 340.86Z" fill="#263238"/>
<path d="M140.539 339.104C140.34 338.818 140.16 338.519 139.998 338.209C139.624 337.553 139.137 336.68 138.537 335.59L133.156 325.945C130.433 321.195 128.173 316.172 126.408 310.953C125.43 307.835 124.756 304.622 124.396 301.363C124.088 297.857 124.088 294.329 124.396 290.823C124.843 284.028 126.473 277.376 129.205 271.19C130.46 268.512 132.06 266.025 133.961 263.799C135.633 261.88 137.55 260.21 139.659 258.838C142.697 256.801 146.174 255.586 149.775 255.303C151.085 255.189 152.405 255.267 153.694 255.535C152.396 255.462 151.095 255.462 149.796 255.535C146.263 255.906 142.868 257.165 139.903 259.203C137.847 260.578 135.979 262.24 134.353 264.141C132.508 266.344 130.958 268.796 129.745 271.433C127.07 277.56 125.474 284.139 125.031 290.856C124.735 294.315 124.735 297.794 125.031 301.252C125.382 304.468 126.035 307.639 126.98 310.721C128.712 315.914 130.914 320.923 133.558 325.68L138.759 335.425L140.125 338.109C140.292 338.427 140.43 338.76 140.539 339.104Z" fill="#263238"/>
<g opacity="0.3">
<path d="M32.9104 318.841C42.1256 318.343 51.2885 317.084 60.3126 315.074C59.1992 319.232 58.6816 323.54 58.7767 327.857C61.6383 324.494 63.7219 320.491 64.8673 316.157C65.1953 318.515 65.977 320.78 67.1657 322.815C68.3543 324.851 69.9253 326.614 71.7841 328C72.692 323.726 72.8997 319.321 72.3984 314.974C86.0342 313.266 99.5782 310.927 113.03 307.959C85.8027 307.271 58.6277 310.797 32.3914 318.421" fill="black"/>
</g>
<path d="M208.223 389.727C208 389.626 207.79 389.496 207.598 389.34L205.851 388.125C204.346 387.02 202.186 385.506 199.495 383.551C194.199 379.662 186.88 374.193 178.925 368.006C170.97 361.819 163.863 356.074 158.8 351.865C156.257 349.765 154.203 348.042 152.794 346.838L151.184 345.446C150.986 345.293 150.805 345.119 150.644 344.926C150.86 345.051 151.066 345.195 151.258 345.357L152.931 346.661L159.043 351.544C164.202 355.676 171.341 361.355 179.296 367.542C187.25 373.729 194.453 379.242 199.749 383.242L205.978 387.97L207.662 389.263C207.861 389.401 208.048 389.557 208.223 389.727V389.727Z" fill="#263238"/>
<path d="M243.803 355.831C243.707 355.831 243.803 354.152 243.58 351.489C243.1 344.509 241.085 337.738 237.691 331.701C236.388 329.392 235.435 328.056 235.509 327.989C235.796 328.248 236.049 328.545 236.261 328.873C236.89 329.714 237.477 330.588 238.019 331.492C241.65 337.49 243.703 344.379 243.972 351.467C244.029 352.53 244.029 353.596 243.972 354.66C243.966 355.056 243.909 355.45 243.803 355.831V355.831Z" fill="#263238"/>
<path d="M250.37 353.323C250.4 352.184 250.489 351.049 250.635 349.92C250.832 347.196 250.782 344.459 250.486 341.744C250.185 339.029 249.636 336.351 248.845 333.745C248.241 331.735 247.785 330.53 247.849 330.486C248.032 330.731 248.178 331.003 248.283 331.293C248.633 332.048 248.944 332.823 249.215 333.613C251.036 338.841 251.653 344.442 251.016 349.964C250.889 351.014 250.751 351.864 250.624 352.439C250.579 352.745 250.494 353.042 250.37 353.323V353.323Z" fill="#263238"/>
<path d="M300.111 339.104C300.111 339.104 300.111 338.894 299.868 338.684C299.685 338.564 299.535 338.396 299.433 338.198C299.317 337.966 299.232 337.69 299.084 337.424C298.798 336.861 298.088 336.441 297.58 335.624C297.03 334.717 296.602 333.735 296.309 332.707C295.585 330.082 294.344 327.643 292.665 325.548C291.657 324.329 290.563 323.192 289.392 322.145C288.148 320.999 286.828 319.946 285.441 318.996C284.098 317.974 282.681 317.062 281.204 316.267L276.967 314.124C275.633 313.461 274.383 312.776 273.165 312.235L269.775 310.721C269.271 310.52 268.78 310.287 268.303 310.025C267.847 309.749 267.476 309.439 267.095 309.218L266.036 308.611C265.697 308.423 265.411 308.169 265.157 308.003C264.638 307.661 264.182 307.473 263.886 307.307C263.589 307.141 263.441 307.053 263.451 307.031C263.617 307.07 263.777 307.129 263.928 307.208C264.39 307.376 264.84 307.579 265.273 307.815C265.916 308.237 266.589 308.606 267.286 308.92C267.699 309.13 268.091 309.439 268.515 309.682C268.938 309.925 269.468 310.102 269.976 310.334L273.387 311.77C274.605 312.29 275.876 312.975 277.232 313.627L281.469 315.737C282.966 316.539 284.4 317.462 285.759 318.499C287.17 319.458 288.509 320.529 289.763 321.703C290.951 322.77 292.056 323.934 293.067 325.183C294.768 327.34 296.004 329.853 296.69 332.552C296.956 333.557 297.344 334.523 297.845 335.425C298.289 336.198 298.978 336.651 299.275 337.292C299.433 337.601 299.497 337.889 299.592 338.098C299.678 338.285 299.801 338.451 299.952 338.585C300.217 338.872 300.122 339.126 300.111 339.104Z" fill="#263238"/>
<path d="M164.223 481.107C164.075 481.107 163.948 453.155 163.948 418.673C163.948 384.192 164.075 356.24 164.223 356.24C164.371 356.24 164.498 384.192 164.498 418.673C164.498 453.155 164.382 481.107 164.223 481.107Z" fill="#263238"/>
</svg>
