<svg width="39" height="42" viewBox="0 0 39 42" fill="none" xmlns="http://www.w3.org/2000/svg">
<path d="M18 21C23.5228 21 28 16.5228 28 11C28 5.47715 23.5228 1 18 1C12.4772 1 8 5.47715 8 11C8 16.5228 12.4772 21 18 21Z" stroke="#0055CC" stroke-width="1.5" stroke-linecap="round" stroke-linejoin="round"/>
<path d="M32.4201 28.48L25.34 35.5601C25.06 35.8401 24.8001 36.36 24.7401 36.74L24.3601 39.44C24.2201 40.42 24.9001 41.1 25.8801 40.96L28.58 40.58C28.96 40.52 29.5001 40.26 29.7601 39.98L36.84 32.9001C38.06 31.6801 38.64 30.26 36.84 28.46C35.06 26.68 33.6401 27.26 32.4201 28.48Z" stroke="#0055CC" stroke-width="1.5" stroke-miterlimit="10" stroke-linecap="round" stroke-linejoin="round"/>
<path d="M31.4001 29.5C32.0001 31.66 33.6801 33.3399 35.8401 33.9399" stroke="#0055CC" stroke-width="1.5" stroke-miterlimit="10" stroke-linecap="round" stroke-linejoin="round"/>
<path d="M0.819824 41C0.819824 33.26 8.51988 27 17.9999 27C20.0799 27 22.0798 27.3 23.9398 27.86" stroke="#0055CC" stroke-width="1.5" stroke-linecap="round" stroke-linejoin="round"/>
</svg>
