<svg width="16" height="18" viewBox="0 0 16 18" fill="none" xmlns="http://www.w3.org/2000/svg">
<path d="M14.2367 9.81697C14.8791 10.628 15.2123 11.6359 15.1779 12.6646C15.1896 13.6279 14.8912 14.57 14.3257 15.3555C13.7087 16.1982 12.8618 16.8507 11.8834 17.2372C10.7094 17.7099 9.44973 17.9405 8.18193 17.9146C6.80244 17.9411 5.4328 17.6803 4.16241 17.1494C3.06514 16.6955 2.10553 15.9695 1.37674 15.0419C0.704981 14.175 0.306832 13.1322 0.231934 12.0437H5.45985C5.48669 12.3294 5.57555 12.6062 5.7204 12.8551C5.86525 13.104 6.06271 13.3193 6.29937 13.4863C6.82706 13.8691 7.46998 14.0657 8.12469 14.0446C8.66241 14.0776 9.19688 13.9414 9.65109 13.6557C9.81954 13.5483 9.95753 13.4004 10.0521 13.2259C10.1467 13.0515 10.1947 12.8562 10.1917 12.6584C10.1941 12.4202 10.1213 12.1872 9.98341 11.9916C9.84552 11.7961 9.64937 11.6477 9.42213 11.567C8.62337 11.2223 7.79553 10.9474 6.94809 10.7453C5.88612 10.5094 4.84255 10.1992 3.82533 9.81697C2.99672 9.49905 2.26204 8.98151 1.68837 8.31159C1.05562 7.52191 0.736774 6.53168 0.791616 5.52665C0.783566 4.5686 1.06957 3.63056 1.61205 2.83579C2.21293 1.98037 3.04927 1.31224 4.02249 0.910158C5.22937 0.411064 6.53031 0.171567 7.83849 0.207649C10.0009 0.207649 11.7117 0.740803 12.9265 1.80711C14.185 2.88665 14.96 4.41297 15.0825 6.05353H10.1917C10.1622 5.77833 10.0773 5.51171 9.94187 5.26935C9.80643 5.02698 9.62324 4.81377 9.40305 4.64224C8.90203 4.27198 8.28575 4.08565 7.66041 4.11536C7.15916 4.08319 6.66046 4.20834 6.23577 4.47288C6.07906 4.57843 5.95159 4.72094 5.86495 4.88745C5.77831 5.05396 5.73526 5.23919 5.73969 5.42629C5.73939 5.66887 5.81495 5.90564 5.95609 6.10432C6.09722 6.303 6.29705 6.45392 6.52833 6.5365C7.31896 6.87836 8.14398 7.13696 8.98965 7.30801C10.0488 7.57218 11.0914 7.8968 12.1124 8.28023C12.9383 8.61165 13.6681 9.13961 14.2367 9.81697Z" fill="#D9D9D9"/>
</svg>
