<svg width="18" height="18" viewBox="0 0 18 18" fill="none" xmlns="http://www.w3.org/2000/svg">
<path d="M17.3639 7.60929V17.6451H12.1042V8.3118C12.1669 7.34026 11.8455 6.38253 11.2074 5.63976C10.5569 5.02814 9.69257 4.68695 8.79379 4.68695C7.89501 4.68695 7.03072 5.02814 6.38017 5.63976C5.74208 6.38253 5.42066 7.34026 5.48342 8.3118V17.6326H0.191895V0.471301H5.48342V2.74818C6.03404 1.97361 6.77914 1.35331 7.64581 0.948003C8.60507 0.508979 9.65415 0.294323 10.7113 0.320763C11.6132 0.28041 12.5133 0.433975 13.349 0.770814C14.1847 1.10765 14.9362 1.61971 15.5513 2.27148C16.7597 3.5385 17.3639 5.31778 17.3639 7.60929Z" fill="#D9D9D9"/>
</svg>
