<svg width="30" height="18" viewBox="0 0 30 18" fill="none" xmlns="http://www.w3.org/2000/svg">
<path d="M27.5446 2.2218C28.8166 3.51391 29.4526 5.30782 29.4526 7.60979V17.6456H24.1929V8.3123C24.2516 7.3758 23.934 6.45417 23.3089 5.74689C22.6388 5.16135 21.7746 4.83805 20.8793 4.83805C19.9841 4.83805 19.1199 5.16135 18.4498 5.74689C17.8222 6.45279 17.5043 7.37544 17.5658 8.3123V17.6331H12.3124V8.3123C12.3711 7.3758 12.0535 6.45417 11.4284 5.74689C10.7584 5.16135 9.8941 4.83805 8.99887 4.83805C8.10363 4.83805 7.23938 5.16135 6.56934 5.74689C5.94175 6.45279 5.6238 7.37544 5.6853 8.3123V17.6331H0.400146V0.4718H5.6853V2.62323C6.23575 1.89649 6.95568 1.31127 7.78411 0.917141C8.70115 0.486675 9.70697 0.271963 10.7224 0.2899C11.9367 0.268896 13.1363 0.553874 14.2077 1.11786C15.219 1.6626 16.0494 2.48371 16.5991 3.48255C17.2144 2.53118 18.0547 1.74126 19.0477 1.18058C20.0689 0.588564 21.2339 0.280748 22.4185 0.2899C23.3622 0.242558 24.3055 0.389922 25.1882 0.722575C26.0708 1.05523 26.8734 1.56585 27.5446 2.2218V2.2218Z" fill="#D9D9D9"/>
</svg>
