<svg width="18" height="18" viewBox="0 0 18 18" fill="none" xmlns="http://www.w3.org/2000/svg">
<path d="M13.2261 1.26755C11.8546 0.556391 10.3233 0.198249 8.77408 0.226335C7.19039 0.196031 5.6251 0.56523 4.22668 1.29892C2.91723 2.00644 1.84697 3.07722 1.14844 4.37867C0.389338 5.82038 0.0109237 7.42752 0.0481592 9.0516C0.0112398 10.6771 0.394252 12.2852 1.16116 13.7245C1.87196 15.0234 2.94733 16.0927 4.25848 16.8043C5.64604 17.5364 7.20068 17.9057 8.77408 17.8769C10.0874 17.8987 11.3897 17.6375 12.5901 17.1116C13.6835 16.6245 14.651 15.8997 15.4203 14.9916C16.1643 14.1032 16.6968 13.0615 16.9785 11.9432H11.3372C11.1068 12.4639 10.718 12.9011 10.2246 13.1944C9.73129 13.4876 9.15773 13.6225 8.58328 13.5803C7.75276 13.6017 6.94758 13.2971 6.34456 12.7335C5.69265 12.0795 5.31941 11.2042 5.30152 10.2873H17.252C17.3141 9.77729 17.346 9.26417 17.3474 8.75053C17.3822 7.17471 17.0031 5.6168 16.2471 4.22813C15.5453 2.97855 14.4975 1.95171 13.2261 1.26755ZM5.33332 7.38942C5.41848 6.55265 5.8123 5.77588 6.43996 5.20662C7.09268 4.70485 7.89798 4.43498 8.72554 4.44067C9.55311 4.44636 10.3545 4.72729 11.0001 5.23798C11.3083 5.50518 11.5517 5.83721 11.7124 6.20957C11.8731 6.58194 11.947 6.98513 11.9286 7.38942H5.33332Z" fill="#D9D9D9"/>
</svg>
