<svg width="56" height="56" viewBox="0 0 56 56" fill="none" xmlns="http://www.w3.org/2000/svg">
<rect width="56" height="56" rx="8" fill="#E3EFFF"/>
<path d="M19 22C19 21.4696 19.2107 20.9609 19.5858 20.5858C19.9609 20.2107 20.4696 20 21 20H37C37.5304 20 38.0391 20.2107 38.4142 20.5858C38.7893 20.9609 39 21.4696 39 22V34C39 34.5304 38.7893 35.0391 38.4142 35.4142C38.0391 35.7893 37.5304 36 37 36H21C20.4696 36 19.9609 35.7893 19.5858 35.4142C19.2107 35.0391 19 34.5304 19 34V22Z" stroke="#0066F5" stroke-width="2" stroke-linecap="round" stroke-linejoin="round"/>
<path d="M19 24L26.501 30.001C27.2103 30.5685 28.0916 30.8777 29 30.8777C29.9084 30.8777 30.7897 30.5685 31.499 30.001L39 24" stroke="#0066F5" stroke-width="2" stroke-linejoin="round"/>
</svg>
