<svg width="716" height="491" viewBox="0 0 716 491" fill="none" xmlns="http://www.w3.org/2000/svg">
<path d="M38.858 369.996C35.4106 369.996 31.9561 370.138 28.5826 370.425L28.0916 370.466C5.71461 372.444 -10.6531 383.921 -9.97997 397.163L-9.84983 399.557C-9.76401 401.071 -9.67258 402.698 -9.59732 404.504C-9.55655 405.394 -8.34171 406.077 -6.83007 406.077H543.59C582.397 405.842 621.064 405.545 658.509 405.196C665.532 405.21 672.55 404.847 679.534 404.106C689.94 402.875 697.163 400.433 701.617 396.642H701.619C707.157 391.942 707.332 386.022 706.997 379.334C706.315 365.829 705.638 351.642 704.963 337.499C704.366 325.033 703.772 312.601 703.179 300.699C702.812 293.635 701.996 287.401 695.706 282.636C688.888 277.482 676.455 274.87 658.75 274.87C658.536 274.87 658.323 274.87 658.107 274.871C602.622 275.068 547.644 294.148 521.304 322.348C518.271 325.595 515.445 329.072 512.711 332.435C508.672 337.402 504.497 342.537 499.514 347.13C496.816 349.65 493.898 351.925 490.796 353.926C490.582 354.074 490.337 354.233 490.078 354.383C489.486 354.769 488.867 355.141 488.263 355.472C484.73 357.513 481.006 359.206 477.145 360.527L476.756 360.658C476.462 360.763 476.144 360.868 475.826 360.964C473.596 361.679 471.28 362.299 468.96 362.799C458.919 365.012 447.502 365.543 435.027 364.374C423.57 363.273 412.262 360.968 401.288 357.499C389.736 353.847 378.923 349.295 368.466 344.893C363.872 342.959 359.122 340.96 354.377 339.065C353.485 338.708 352.608 338.36 351.717 338.011C345.923 335.753 340.669 333.887 335.656 332.309C323.238 328.382 310.383 326.001 297.382 325.219C283.583 324.464 271.422 325.889 261.246 329.445C258.441 330.422 255.71 331.599 253.073 332.967C241.02 339.226 233.59 348.463 226.406 357.397C217.468 368.509 208.226 380 189.977 385.957C168.919 392.837 138.181 389.979 116.434 385.008C109.597 383.445 102.768 381.647 96.1637 379.908C93.4964 379.205 90.8272 378.507 88.1561 377.814C82.9072 376.459 78.6115 375.42 74.6372 374.544L73.3801 374.264C72.681 374.112 71.9811 373.96 71.2685 373.816C66.5479 372.825 62.1523 372.045 57.8234 371.431L56.7993 371.282C54.746 371.011 52.8264 370.786 50.9427 370.597L50.1907 370.522C46.5013 370.171 42.6832 369.996 38.858 369.996Z" fill="#F2F2F2"/>
<path d="M608.024 384.774C623.512 370.817 646.549 363.799 665.872 371.625C646.05 382.631 630.76 400.294 622.706 421.488C619.63 429.673 617.061 439.097 609.494 443.479C604.786 446.206 598.929 446.339 593.65 445.023C588.371 443.707 583.532 441.068 578.76 438.455L577.402 438.425C583.498 418.486 592.536 398.732 608.024 384.774Z" fill="#E6E6E6"/>
<path d="M665.764 372.049C648.65 374.261 632.668 381.81 620.088 393.622C617.334 396.117 614.991 399.031 613.145 402.255C611.448 405.454 610.639 409.05 610.801 412.667C610.885 416.044 611.361 419.488 610.623 422.826C610.219 424.529 609.461 426.127 608.396 427.516C607.332 428.905 605.986 430.054 604.446 430.886C600.665 433.06 596.327 433.745 592.063 434.268C587.327 434.848 582.4 435.376 578.301 438.032C577.804 438.354 577.334 437.565 577.83 437.243C584.961 432.622 593.985 434.304 601.653 431.22C605.231 429.78 608.397 427.254 609.518 423.435C610.498 420.095 610.01 416.543 609.895 413.125C609.685 409.598 610.342 406.073 611.808 402.859C613.484 399.551 615.711 396.552 618.393 393.991C624.339 388.129 631.17 383.238 638.636 379.499C647.133 375.183 656.305 372.353 665.756 371.13C666.341 371.055 666.345 371.974 665.764 372.049H665.764Z" fill="white"/>
<path d="M623.914 389.58C622.219 387.2 621.425 384.295 621.674 381.384C621.922 378.473 623.198 375.745 625.272 373.687C625.694 373.272 626.358 373.907 625.936 374.323C624.001 376.235 622.813 378.776 622.587 381.488C622.361 384.2 623.112 386.903 624.703 389.109C625.049 389.589 624.258 390.058 623.914 389.58V389.58Z" fill="white"/>
<path d="M610.533 410.961C616.414 412.003 622.472 410.79 627.499 407.564C627.997 407.244 628.467 408.033 627.97 408.353C622.733 411.701 616.426 412.95 610.308 411.852C609.725 411.747 609.953 410.857 610.533 410.961Z" fill="white"/>
<path d="M647.207 376.399C647.671 377.457 648.391 378.382 649.301 379.093C650.211 379.804 651.284 380.277 652.422 380.471C653.006 380.569 652.777 381.459 652.197 381.362C650.94 381.142 649.757 380.618 648.749 379.835C647.742 379.052 646.942 378.034 646.418 376.87C646.36 376.765 646.344 376.641 646.373 376.524C646.403 376.407 646.476 376.306 646.577 376.24C646.682 376.179 646.807 376.161 646.925 376.19C647.043 376.22 647.144 376.295 647.207 376.399Z" fill="white"/>
<path d="M687.151 438.934C686.784 438.883 686.418 438.833 686.046 438.788C681.116 438.134 676.141 437.881 671.17 438.032C670.785 438.038 670.396 438.049 670.012 438.066C658.04 438.558 646.263 441.269 635.28 446.061C630.912 447.972 626.695 450.212 622.666 452.763C617.102 456.286 611.35 460.548 605.131 461.985C604.484 462.142 603.828 462.259 603.166 462.335L577.47 440.084C577.437 440.004 577.398 439.93 577.365 439.85L576.298 439.008C576.497 438.862 576.706 438.715 576.905 438.569C577.02 438.484 577.14 438.403 577.255 438.318C577.333 438.263 577.412 438.208 577.48 438.153C577.506 438.135 577.532 438.117 577.553 438.104C577.62 438.05 577.689 438.007 577.751 437.958C578.918 437.132 580.092 436.313 581.275 435.5C581.28 435.494 581.28 435.494 581.291 435.493C590.24 429.215 599.902 424.021 610.075 420.019C610.38 419.904 610.69 419.783 611.007 419.678C615.589 417.974 620.302 416.648 625.099 415.712C627.728 415.208 630.38 414.838 633.046 414.602C639.936 414.006 646.877 414.498 653.614 416.059C667.043 419.174 679.327 426.548 686.603 438.05C686.789 438.344 686.97 438.634 687.151 438.934Z" fill="#E6E6E6"/>
<path d="M686.811 439.21C671.814 430.672 654.509 427.076 637.353 428.933C633.652 429.267 630.027 430.183 626.612 431.646C623.331 433.178 620.52 435.562 618.472 438.548C616.506 441.294 614.813 444.331 612.214 446.551C610.867 447.668 609.299 448.488 607.612 448.956C605.926 449.424 604.16 449.531 602.43 449.268C598.102 448.727 594.226 446.663 590.506 444.512C586.376 442.125 582.124 439.579 577.252 439.232C576.662 439.19 576.761 438.277 577.351 438.319C585.827 438.923 592.02 445.699 599.999 447.853C603.722 448.858 607.771 448.748 610.965 446.373C613.758 444.296 615.507 441.166 617.473 438.368C619.429 435.426 622.075 433.007 625.181 431.323C628.511 429.691 632.094 428.637 635.778 428.207C644.055 427.107 652.453 427.315 660.665 428.824C670.048 430.494 679.075 433.757 687.357 438.471C687.869 438.763 687.32 439.5 686.811 439.21V439.21Z" fill="white"/>
<path d="M642.842 428.009C642.921 425.089 644.036 422.291 645.987 420.116C647.938 417.941 650.599 416.531 653.494 416.137C654.08 416.059 654.229 416.967 653.642 417.044C650.945 417.406 648.467 418.72 646.654 420.749C644.841 422.778 643.813 425.388 643.755 428.108C643.742 428.7 642.829 428.597 642.842 428.009V428.009Z" fill="white"/>
<path d="M619.285 437.024C623.354 441.397 628.921 444.076 634.877 444.527C635.467 444.571 635.367 445.484 634.778 445.44C628.581 444.96 622.793 442.16 618.57 437.6C618.167 437.165 618.885 436.592 619.285 437.024H619.285Z" fill="white"/>
<path d="M669.375 431.51C669.109 432.634 669.126 433.806 669.425 434.922C669.724 436.037 670.295 437.061 671.087 437.901C671.495 438.331 670.776 438.904 670.371 438.477C669.5 437.545 668.871 436.413 668.538 435.182C668.205 433.95 668.179 432.655 668.462 431.411C668.478 431.292 668.54 431.183 668.634 431.107C668.728 431.032 668.847 430.995 668.968 431.004C669.089 431.018 669.199 431.078 669.276 431.173C669.352 431.268 669.388 431.389 669.375 431.51Z" fill="white"/>
<path d="M202.587 398.655C215.269 379.419 237.955 365.504 260.799 368.498C242.661 385.783 231.221 408.928 228.503 433.837C227.49 443.447 227.364 454.241 220.49 461.033C216.213 465.259 209.986 467.031 203.974 467.092C197.961 467.153 192.052 465.677 186.221 464.211L184.76 464.556C185.734 441.535 189.905 417.892 202.587 398.655Z" fill="#E6E6E6"/>
<path d="M260.802 368.981C243.113 376.108 228.119 388.628 217.95 404.762C215.7 408.197 214.004 411.964 212.927 415.927C212.002 419.821 212.136 423.891 213.316 427.715C214.345 431.303 215.813 434.854 215.951 438.629C215.994 440.563 215.627 442.484 214.875 444.265C214.123 446.047 213.003 447.65 211.588 448.969C208.148 452.346 203.7 454.285 199.284 456.031C194.381 457.969 189.258 459.905 185.613 463.886C185.171 464.368 184.448 463.655 184.889 463.173C191.231 456.246 201.35 455.534 208.693 450.102C212.12 447.568 214.803 443.985 214.939 439.588C215.058 435.743 213.548 432.081 212.475 428.457C211.269 424.743 210.991 420.791 211.665 416.944C212.537 412.94 214.084 409.113 216.24 405.628C220.97 397.704 226.915 390.573 233.859 384.496C241.746 377.516 250.769 371.938 260.537 368.001C261.142 367.757 261.402 368.74 260.802 368.981L260.802 368.981Z" fill="white"/>
<path d="M220.919 399.375C218.444 397.301 216.786 394.415 216.242 391.232C215.698 388.049 216.304 384.776 217.95 381.998C218.285 381.437 219.172 381.932 218.837 382.493C217.299 385.077 216.736 388.126 217.248 391.089C217.761 394.052 219.315 396.734 221.632 398.651C222.134 399.069 221.419 399.79 220.919 399.375Z" fill="white"/>
<path d="M212.555 425.965C219.135 425.443 225.277 422.46 229.755 417.611C230.199 417.131 230.921 417.844 230.479 418.324C225.809 423.361 219.411 426.452 212.563 426.98C211.91 427.03 211.906 426.014 212.555 425.965H212.555Z" fill="white"/>
<path d="M242.164 378.796C242.955 379.798 243.982 380.588 245.153 381.095C246.324 381.602 247.603 381.81 248.875 381.701C249.526 381.642 249.53 382.658 248.882 382.716C247.477 382.831 246.065 382.599 244.77 382.042C243.474 381.485 242.335 380.619 241.452 379.52C241.36 379.423 241.308 379.295 241.307 379.162C241.306 379.028 241.356 378.9 241.446 378.802C241.541 378.706 241.67 378.652 241.804 378.651C241.939 378.65 242.068 378.703 242.164 378.796H242.164Z" fill="white"/>
<path d="M302.282 434.567C301.876 434.615 301.47 434.662 301.059 434.718C295.604 435.389 290.213 436.503 284.939 438.048C284.529 438.161 284.115 438.282 283.71 438.406C271.042 442.264 259.2 448.44 248.787 456.62C244.646 459.879 240.759 463.449 237.16 467.298C232.19 472.613 227.224 478.772 220.972 482.039C220.323 482.387 219.654 482.695 218.967 482.96L185.294 466.311C185.237 466.235 185.175 466.166 185.117 466.09L183.742 465.487C183.914 465.275 184.097 465.06 184.269 464.848C184.368 464.725 184.474 464.606 184.573 464.483C184.642 464.402 184.711 464.321 184.768 464.244C184.791 464.217 184.814 464.19 184.833 464.171C184.89 464.094 184.951 464.029 185.004 463.959C186.022 462.751 187.05 461.548 188.089 460.35C188.093 460.342 188.093 460.342 188.104 460.338C196.039 451.23 204.805 442.705 214.585 435.781C214.88 435.572 215.177 435.356 215.487 435.156C219.913 432.059 224.585 429.329 229.456 426.994C232.127 425.724 234.861 424.589 237.646 423.596C244.849 421.042 252.409 419.637 260.049 419.432C275.279 419.026 290.469 423.496 301.45 433.773C301.731 434.036 302.005 434.296 302.282 434.567Z" fill="#E6E6E6"/>
<path d="M301.994 434.956C283.58 429.996 264.071 430.965 246.239 437.724C242.374 439.111 238.752 441.099 235.506 443.614C232.423 446.166 230.08 449.497 228.72 453.261C227.381 456.745 226.416 460.464 224.253 463.562C223.123 465.131 221.674 466.444 220.001 467.414C218.328 468.384 216.468 468.989 214.545 469.19C209.765 469.815 205.046 468.686 200.469 467.421C195.387 466.016 190.131 464.477 184.824 465.461C184.181 465.58 184.034 464.575 184.676 464.456C193.909 462.744 202.418 468.268 211.551 468.352C215.813 468.392 220.112 467.147 222.868 463.718C225.278 460.72 226.277 456.886 227.602 453.347C228.875 449.655 231.032 446.332 233.886 443.667C236.993 440.995 240.532 438.871 244.352 437.386C252.899 433.907 261.939 431.793 271.142 431.122C281.641 430.298 292.204 431.276 302.373 434.014C303.003 434.184 302.62 435.125 301.994 434.956Z" fill="white"/>
<path d="M251.853 435.21C251.125 432.064 251.539 428.762 253.021 425.893C254.503 423.024 256.957 420.775 259.943 419.548C260.549 419.302 260.96 420.231 260.353 420.478C257.57 421.615 255.285 423.71 253.91 426.384C252.536 429.059 252.162 432.136 252.857 435.062C253.008 435.698 252.002 435.842 251.853 435.21H251.853Z" fill="white"/>
<path d="M229.166 451.405C234.734 454.95 241.434 456.267 247.929 455.092C248.572 454.975 248.72 455.979 248.077 456.096C241.316 457.306 234.347 455.922 228.561 452.22C228.01 451.867 228.618 451.054 229.166 451.405V451.405Z" fill="white"/>
<path d="M281.205 431.572C281.233 432.848 281.577 434.097 282.207 435.207C282.837 436.317 283.733 437.253 284.814 437.931C285.369 438.277 284.76 439.09 284.209 438.746C283.018 437.991 282.03 436.956 281.331 435.732C280.632 434.507 280.244 433.13 280.2 431.72C280.185 431.588 280.221 431.454 280.3 431.347C280.38 431.24 280.497 431.167 280.628 431.144C280.761 431.125 280.897 431.159 281.004 431.239C281.112 431.319 281.184 431.439 281.205 431.572V431.572Z" fill="white"/>
<path d="M292.844 254.433C293.686 253.596 294.334 252.584 294.742 251.47C295.15 250.355 295.309 249.165 295.207 247.982C295.106 246.799 294.746 245.653 294.154 244.624C293.561 243.596 292.75 242.709 291.778 242.028L305.032 177.879L290.733 182.391L280.069 244.45C279.033 246.158 278.659 248.188 279.019 250.154C279.379 252.12 280.448 253.885 282.023 255.116C283.597 256.347 285.569 256.957 287.563 256.831C289.558 256.705 291.437 255.852 292.844 254.433Z" fill="#FFB6B6"/>
<path d="M323.48 82.9611L314.622 76.2744C314.622 76.2744 306.808 75.721 305.424 89.8133C304.041 103.906 295.375 157.992 295.375 157.992L281.821 220.773L300.584 224.891L315.101 157.139L329.634 110.397L323.48 82.9611Z" fill="#E6E6E6"/>
<path d="M316.732 199.129L274.243 166.089C273.581 165.573 273.151 164.816 273.046 163.984C272.942 163.151 273.172 162.311 273.687 161.648L302.596 124.466C303.112 123.804 303.869 123.374 304.702 123.27C305.534 123.165 306.374 123.396 307.037 123.91L349.527 156.95C350.189 157.465 350.619 158.223 350.723 159.055C350.827 159.888 350.597 160.728 350.082 161.391L321.173 198.573C320.657 199.235 319.9 199.665 319.067 199.769C318.235 199.873 317.395 199.643 316.732 199.129Z" fill="#3F3D56"/>
<path d="M316.498 195.71L277.613 165.473C277.026 165.015 276.644 164.343 276.551 163.604C276.459 162.864 276.663 162.119 277.12 161.53L303.328 127.823C303.786 127.235 304.458 126.853 305.197 126.761C305.936 126.668 306.682 126.873 307.271 127.329L346.156 157.566C346.743 158.024 347.125 158.696 347.218 159.436C347.31 160.175 347.106 160.921 346.649 161.509L320.442 195.217C319.984 195.804 319.311 196.186 318.572 196.279C317.833 196.371 317.087 196.167 316.498 195.71Z" fill="white"/>
<path d="M282.711 164.616C282.564 164.501 282.469 164.333 282.446 164.148C282.423 163.964 282.474 163.777 282.588 163.63L295.809 146.626C295.923 146.479 296.091 146.383 296.276 146.36C296.368 146.348 296.461 146.355 296.55 146.38C296.639 146.404 296.722 146.446 296.795 146.502C296.867 146.559 296.928 146.629 296.974 146.71C297.02 146.79 297.049 146.878 297.06 146.97C297.072 147.061 297.065 147.154 297.041 147.243C297.016 147.332 296.975 147.415 296.918 147.488L283.697 164.493C283.582 164.639 283.414 164.735 283.23 164.758C283.045 164.781 282.858 164.73 282.711 164.616Z" fill="#E4E4E4"/>
<path d="M284.902 166.32C284.756 166.205 284.66 166.037 284.637 165.852C284.614 165.667 284.665 165.481 284.779 165.334L298 148.329C298.114 148.182 298.283 148.087 298.467 148.064C298.652 148.04 298.839 148.092 298.986 148.206C299.133 148.32 299.229 148.489 299.252 148.673C299.275 148.858 299.224 149.045 299.109 149.192L285.888 166.196C285.774 166.343 285.606 166.439 285.421 166.462C285.236 166.485 285.05 166.434 284.902 166.32Z" fill="#E4E4E4"/>
<path d="M294.584 158.39C294.437 158.276 294.341 158.108 294.318 157.923C294.295 157.738 294.346 157.552 294.46 157.404L300.191 150.033C300.248 149.96 300.318 149.899 300.398 149.854C300.479 149.808 300.567 149.778 300.659 149.767C300.75 149.755 300.843 149.762 300.932 149.786C301.022 149.811 301.105 149.852 301.178 149.909C301.251 149.966 301.312 150.036 301.357 150.117C301.403 150.197 301.432 150.285 301.444 150.377C301.455 150.469 301.448 150.562 301.424 150.651C301.399 150.74 301.357 150.823 301.3 150.896L295.569 158.267C295.455 158.414 295.287 158.509 295.102 158.532C294.917 158.556 294.731 158.504 294.584 158.39Z" fill="#E4E4E4"/>
<path d="M297.538 172.855C297.391 172.741 297.296 172.572 297.273 172.388C297.25 172.203 297.301 172.016 297.415 171.869L318.287 145.025C318.343 144.952 318.414 144.891 318.494 144.845C318.574 144.8 318.663 144.77 318.754 144.759C318.846 144.747 318.938 144.754 319.027 144.779C319.116 144.803 319.2 144.845 319.272 144.901C319.345 144.958 319.406 145.028 319.452 145.109C319.497 145.189 319.527 145.277 319.538 145.369C319.55 145.46 319.543 145.553 319.519 145.642C319.494 145.731 319.452 145.814 319.396 145.887L298.524 172.732C298.409 172.879 298.241 172.974 298.057 172.997C297.872 173.02 297.685 172.969 297.538 172.855Z" fill="#E4E4E4"/>
<path d="M299.729 174.559C299.582 174.444 299.487 174.276 299.464 174.091C299.441 173.906 299.492 173.72 299.606 173.573L320.478 146.728C320.535 146.655 320.605 146.595 320.685 146.549C320.765 146.503 320.854 146.474 320.945 146.462C321.037 146.451 321.13 146.458 321.219 146.482C321.308 146.507 321.391 146.548 321.464 146.605C321.536 146.662 321.597 146.732 321.643 146.812C321.689 146.892 321.718 146.981 321.729 147.072C321.741 147.164 321.734 147.257 321.71 147.346C321.685 147.435 321.644 147.518 321.587 147.591L300.715 174.435C300.601 174.582 300.433 174.678 300.248 174.701C300.063 174.724 299.877 174.673 299.729 174.559Z" fill="#E4E4E4"/>
<path d="M304.703 178.427C304.557 178.312 304.461 178.144 304.438 177.959C304.415 177.775 304.466 177.588 304.58 177.441L325.452 150.596C325.509 150.524 325.579 150.463 325.659 150.417C325.739 150.371 325.828 150.342 325.919 150.331C326.011 150.319 326.104 150.326 326.193 150.35C326.282 150.375 326.365 150.416 326.438 150.473C326.511 150.53 326.571 150.6 326.617 150.68C326.663 150.761 326.692 150.849 326.704 150.94C326.715 151.032 326.708 151.125 326.684 151.214C326.659 151.303 326.618 151.386 326.561 151.459L305.689 178.303C305.575 178.45 305.407 178.546 305.222 178.569C305.037 178.592 304.851 178.541 304.703 178.427Z" fill="#E4E4E4"/>
<path d="M306.895 180.13C306.748 180.016 306.652 179.848 306.629 179.663C306.606 179.478 306.657 179.292 306.771 179.145L327.643 152.3C327.7 152.227 327.77 152.166 327.85 152.121C327.931 152.075 328.019 152.046 328.111 152.034C328.202 152.023 328.295 152.029 328.384 152.054C328.473 152.078 328.556 152.12 328.629 152.177C328.702 152.233 328.763 152.304 328.808 152.384C328.854 152.464 328.883 152.553 328.895 152.644C328.906 152.736 328.9 152.829 328.875 152.918C328.851 153.006 328.809 153.09 328.752 153.163L307.88 180.007C307.766 180.154 307.598 180.249 307.413 180.273C307.228 180.296 307.042 180.245 306.895 180.13Z" fill="#E4E4E4"/>
<path d="M311.869 183.998C311.722 183.884 311.626 183.715 311.603 183.531C311.58 183.346 311.631 183.159 311.745 183.012L332.617 156.168C332.674 156.095 332.744 156.034 332.825 155.988C332.905 155.943 332.993 155.913 333.085 155.902C333.176 155.89 333.269 155.897 333.358 155.922C333.447 155.946 333.53 155.988 333.603 156.044C333.676 156.101 333.737 156.171 333.782 156.252C333.828 156.332 333.857 156.42 333.869 156.512C333.88 156.603 333.874 156.696 333.849 156.785C333.825 156.874 333.783 156.957 333.726 157.03L312.855 183.875C312.74 184.022 312.572 184.117 312.387 184.14C312.202 184.163 312.016 184.112 311.869 183.998Z" fill="#E4E4E4"/>
<path d="M314.06 185.702C313.913 185.587 313.818 185.419 313.795 185.234C313.771 185.05 313.823 184.863 313.937 184.716L334.809 157.872C334.923 157.725 335.091 157.63 335.276 157.607C335.46 157.585 335.646 157.636 335.793 157.75C335.94 157.864 336.035 158.032 336.059 158.216C336.082 158.401 336.031 158.587 335.918 158.734L315.046 185.579C314.931 185.725 314.763 185.821 314.578 185.844C314.394 185.867 314.207 185.816 314.06 185.702Z" fill="#E4E4E4"/>
<path d="M279.176 216.878C279.336 216.878 279.465 216.749 279.465 216.59C279.465 216.43 279.336 216.301 279.176 216.301C279.017 216.301 278.888 216.43 278.888 216.59C278.888 216.749 279.017 216.878 279.176 216.878Z" fill="white"/>
<path d="M321.203 18.1334C320.189 23.5841 318.525 28.8937 316.248 33.9489C303.21 61.5335 340.341 52.5423 353.611 52.5423C368.119 52.5423 382.001 60.1719 379.881 26.2712C378.975 11.7903 368.119 0 353.611 0C341.218 0 323.795 5.50854 321.203 18.1334Z" fill="#2F2E41"/>
<path d="M367.135 422.7H354.773L348.891 375.019H367.135V422.7Z" fill="#FFB6B6"/>
<path d="M373.659 444.119H364.794L363.212 435.749L359.159 444.119H335.648C334.521 444.119 333.424 443.758 332.516 443.091C331.608 442.423 330.938 441.482 330.602 440.406C330.267 439.33 330.284 438.175 330.652 437.11C331.019 436.044 331.718 435.124 332.645 434.484L351.42 421.516V413.055L371.169 414.233L373.659 444.119Z" fill="#2F2E41"/>
<path d="M440.572 407.099L430.653 414.476L397.482 379.725L412.122 368.837L440.572 407.099Z" fill="#FFB6B6"/>
<path d="M458.588 420.393L451.474 425.683L445.211 419.911L446.953 429.046L428.086 443.076C427.182 443.749 426.086 444.115 424.959 444.12C423.832 444.126 422.733 443.772 421.822 443.108C420.911 442.445 420.235 441.508 419.895 440.433C419.554 439.359 419.565 438.204 419.927 437.137L427.256 415.527L422.207 408.737L438.758 397.898L458.588 420.393Z" fill="#2F2E41"/>
<path d="M326.65 203.256L385.328 194.116L373.659 159.009H326.65V203.256Z" fill="#FFB6B6"/>
<path d="M381.526 176.691C381.526 176.691 404.98 196.955 394.158 254.722L380.947 311.324L416.941 373.816L398.639 383.8L354.284 322.148L333.987 274.536L323.251 191.09L381.526 176.691Z" fill="#2F2E41"/>
<path d="M345.174 288.104L343.763 309.952L347.893 374.648L368.394 381.707L372.277 315.419L345.174 288.104Z" fill="#2F2E41"/>
<path d="M338.871 59.8135L361.553 60.6984L370.592 75.7047L391.217 79.7312L378.905 142.022L381.169 177.477L360.633 177.351C345.832 177.261 331.52 182.638 320.44 192.452L321.054 146.428L312.221 112.072L314.206 76.0481L330.798 73.9741L338.871 59.8135Z" fill="#E6E6E6"/>
<path d="M351.437 52.5359C363.227 52.5359 372.784 42.978 372.784 31.1876C372.784 19.3973 363.227 9.83936 351.437 9.83936C339.648 9.83936 330.09 19.3973 330.09 31.1876C330.09 42.978 339.648 52.5359 351.437 52.5359Z" fill="#FFB6B6"/>
<path d="M336.94 9.42568C340.681 7.14511 344.966 5.91144 349.346 5.85369C353.727 5.79593 358.043 6.91621 361.842 9.09738C365.642 11.2785 368.785 14.4405 370.945 18.2526C373.104 22.0647 374.199 26.3869 374.117 30.7674C363.239 33.4985 351.812 35.5886 340.212 31.4206L337.472 24.7157L335.857 31.4256C332.325 32.8696 328.783 34.0914 325.241 31.4117C325.097 27.0436 326.101 22.714 328.154 18.8558C330.207 14.9976 333.237 11.7459 336.94 9.42568Z" fill="#2F2E41"/>
<path d="M387.269 220.517L390.146 246.634C390.347 247.286 390.751 247.856 391.299 248.261C391.848 248.666 392.511 248.885 393.193 248.885H406.458C407.14 248.885 407.804 248.666 408.352 248.261C408.9 247.856 409.305 247.286 409.505 246.634L411.888 226.617C412.576 226.954 413.335 227.123 414.101 227.111C414.867 227.098 415.619 226.903 416.295 226.543C416.972 226.183 417.553 225.667 417.991 225.039C418.429 224.41 418.712 223.687 418.816 222.927C418.92 222.168 418.842 221.395 418.589 220.672C418.337 219.949 417.916 219.296 417.361 218.767C416.807 218.238 416.135 217.848 415.4 217.63C414.666 217.411 413.89 217.37 413.137 217.51C412.839 217.158 412.469 216.876 412.051 216.683C411.633 216.49 411.178 216.391 410.718 216.392H390.316C389.817 216.392 389.325 216.509 388.88 216.733C388.434 216.958 388.048 217.284 387.751 217.686C387.455 218.087 387.257 218.552 387.173 219.044C387.089 219.536 387.122 220.04 387.269 220.517ZM412.305 225.263L413.765 220.517C413.934 219.97 413.951 219.386 413.813 218.83C413.876 218.827 413.934 218.811 413.998 218.811C414.914 218.811 415.793 219.175 416.442 219.824C417.09 220.472 417.454 221.351 417.454 222.268C417.454 223.185 417.09 224.064 416.442 224.712C415.793 225.361 414.914 225.725 413.998 225.725C413.403 225.721 412.819 225.562 412.305 225.263Z" fill="#00337B"/>
<path d="M407.271 248.902C406.434 248.061 405.791 247.046 405.389 245.929C404.986 244.813 404.833 243.621 404.941 242.439C405.049 241.257 405.414 240.113 406.012 239.087C406.61 238.061 407.425 237.179 408.4 236.503L395.472 172.288L409.749 176.872L420.097 238.984C421.125 240.698 421.488 242.729 421.118 244.693C420.748 246.657 419.67 248.417 418.089 249.64C416.508 250.863 414.534 251.463 412.54 251.327C410.546 251.191 408.671 250.328 407.271 248.902Z" fill="#FFB6B6"/>
<path d="M382.359 86.4181L391.217 79.7315C391.217 79.7315 399.031 79.1781 400.415 93.2704C401.799 107.363 410.464 161.449 410.464 161.449L424.018 224.23L405.255 228.348L390.738 160.596L376.205 113.854L382.359 86.4181Z" fill="#E6E6E6"/>
<path d="M305.911 144.873C308.68 144.873 310.925 142.628 310.925 139.859C310.925 137.089 308.68 134.844 305.911 134.844C303.141 134.844 300.896 137.089 300.896 139.859C300.896 142.628 303.141 144.873 305.911 144.873Z" fill="#00337B"/>
<path d="M146.019 480.871L156.469 480.87L161.44 440.563L146.017 440.564L146.019 480.871Z" fill="#FFB6B6"/>
<path d="M143.354 477.458L146.295 477.458L157.778 472.788L163.933 477.457H163.933C167.411 477.458 170.747 478.839 173.206 481.299C175.666 483.758 177.048 487.094 177.048 490.572V490.999L143.354 491L143.354 477.458Z" fill="#2F2E41"/>
<path d="M186.513 474.285L196.706 476.587L210.433 438.365L195.389 434.968L186.513 474.285Z" fill="#FFB6B6"/>
<path d="M184.664 470.37L187.533 471.017L199.763 468.992L204.738 474.902L204.739 474.902C208.131 475.669 211.081 477.751 212.938 480.692C214.795 483.633 215.408 487.191 214.642 490.584L214.548 491L181.682 483.579L184.664 470.37Z" fill="#2F2E41"/>
<path d="M126.889 273.536L136.338 379.409C136.338 379.409 132.798 442.971 144.223 465.338H160.791L168.995 373.605L170.025 312.033L205.547 363.979L182.922 463.838L203.314 465.661L240.028 357.291L199.693 255.556L126.889 273.536Z" fill="#2F2E41"/>
<path d="M136.786 104.935C150.244 104.935 161.155 94.0239 161.155 80.5646C161.155 67.1053 150.244 56.1943 136.786 56.1943C123.327 56.1943 112.417 67.1053 112.417 80.5646C112.417 94.0239 123.327 104.935 136.786 104.935Z" fill="#FFB8B8"/>
<path d="M179.624 128.158L159.632 119.58L149.9 109.257L125.588 113.178L119.137 124.239L98.2552 143.657L122.721 254.284L121.98 278.446C121.98 278.446 137.638 285.495 205.547 269.264C206.361 269.07 204.656 268.217 204.656 268.217L179.624 128.158Z" fill="#3F3D56"/>
<path d="M111.446 94.3929C111.276 94.1612 111.108 93.9275 110.941 93.6919C110.874 93.8334 110.821 93.9796 110.744 94.1178L111.446 94.3929Z" fill="#2F2E41"/>
<path d="M161.026 62.7389C159.397 59.1902 156.493 56.3842 152.89 54.8786C149.32 53.4383 145.329 53.4418 141.761 54.8884C138.539 52.8528 134.959 51.2391 131.19 51.0392C127.42 50.8394 123.434 52.238 121.111 55.3167C120.592 56.1294 120.003 56.8949 119.35 57.6044C117.483 59.3338 114.645 59.0844 112.163 58.7308C113.276 59.685 114.39 60.6392 115.503 61.5934C114.156 61.9454 112.808 62.2975 111.46 62.6496C113.033 63.6034 114.606 64.5573 116.178 65.5112C111.613 68.2516 109.538 74.233 110.086 79.6654C110.604 84.8085 113.087 89.5116 116.055 93.6918C117.239 91.193 116.984 88.2031 116.965 85.3888C116.944 82.4152 117.47 79.0385 119.853 77.3767C121.46 76.2556 123.527 76.2056 125.465 76.2162C135.241 76.2699 145.007 76.8796 154.714 78.0423C156.031 78.0993 157.316 78.4718 158.459 79.1285C160.606 80.5931 161.024 83.6155 161.239 86.267C162.373 81.8889 162.929 77.3809 162.89 72.8584C162.986 69.3918 162.351 65.9439 161.026 62.7389Z" fill="#2F2E41"/>
<path d="M168.613 347.754C189.796 347.754 206.968 330.581 206.968 309.397C206.968 288.213 189.796 271.04 168.613 271.04C147.43 271.04 130.258 288.213 130.258 309.397C130.258 330.581 147.43 347.754 168.613 347.754Z" fill="white"/>
<path d="M168.613 270.188C166.642 270.188 164.673 270.336 162.723 270.631C161.726 270.776 160.755 270.963 159.791 271.193C152.716 272.824 146.232 276.39 141.064 281.491C135.896 286.592 132.248 293.029 130.525 300.084C128.802 307.138 129.073 314.532 131.307 321.442C133.542 328.351 137.652 334.504 143.18 339.213C143.836 339.767 144.501 340.304 145.191 340.816C150.167 344.526 155.953 347.001 162.072 348.038C168.192 349.076 174.47 348.645 180.391 346.781C186.311 344.917 191.704 341.674 196.127 337.319C200.549 332.963 203.874 327.62 205.828 321.728C207.782 315.837 208.308 309.565 207.365 303.43C206.422 297.295 204.035 291.472 200.401 286.44C196.768 281.407 191.991 277.31 186.465 274.484C180.938 271.659 174.82 270.186 168.613 270.188V270.188ZM168.613 346.902C160.639 346.91 152.872 344.362 146.452 339.631C145.754 339.119 145.08 338.591 144.424 338.028C139.039 333.485 135.043 327.517 132.895 320.806C130.747 314.096 130.534 306.916 132.279 300.09C134.025 293.264 137.659 287.069 142.765 282.214C147.871 277.359 154.242 274.042 161.147 272.642C162.101 272.446 163.056 272.293 164.028 272.174C165.549 271.985 167.08 271.891 168.613 271.892C178.559 271.892 188.098 275.844 195.132 282.877C202.165 289.911 206.116 299.45 206.116 309.397C206.116 319.344 202.165 328.883 195.132 335.917C188.098 342.95 178.559 346.902 168.613 346.902Z" fill="#3F3D56"/>
<path d="M149.801 301.726H187.426C188.804 301.726 189.921 300.608 189.921 299.23V299.107C189.921 297.729 188.804 296.611 187.426 296.611H149.801C148.422 296.611 147.305 297.729 147.305 299.107V299.23C147.305 300.608 148.422 301.726 149.801 301.726Z" fill="#00337B"/>
<path d="M149.801 311.954H187.426C188.804 311.954 189.921 310.837 189.921 309.458V309.336C189.921 307.957 188.804 306.84 187.426 306.84H149.801C148.422 306.84 147.305 307.957 147.305 309.336V309.458C147.305 310.837 148.422 311.954 149.801 311.954Z" fill="#00337B"/>
<path d="M149.801 322.183H187.426C188.804 322.183 189.921 321.065 189.921 319.687V319.564C189.921 318.186 188.804 317.068 187.426 317.068H149.801C148.422 317.068 147.305 318.186 147.305 319.564V319.687C147.305 321.065 148.422 322.183 149.801 322.183Z" fill="#00337B"/>
<path d="M597.721 479.57L586.764 479.569L581.552 437.304L597.723 437.305L597.721 479.57Z" fill="#9E616A"/>
<path d="M545.885 479.57L534.929 479.569L529.716 437.304L545.887 437.305L545.885 479.57Z" fill="#9E616A"/>
<path d="M546.271 491L512.577 490.999V490.572C512.578 487.094 513.959 483.758 516.419 481.299C518.878 478.839 522.214 477.458 525.692 477.457H525.693L531.847 472.788L543.33 477.458L546.271 477.458L546.271 491Z" fill="#2F2E41"/>
<path d="M599.513 491L565.819 490.999V490.572C565.819 487.094 567.201 483.758 569.661 481.299C572.12 478.839 575.455 477.458 578.934 477.457H578.934L585.089 472.788L596.572 477.458L599.513 477.458L599.513 491Z" fill="#2F2E41"/>
<path d="M535.137 229.434L518.485 330.835L523.017 345.945L517.07 356.647L525.803 450.632L522.258 458.437L532.163 464.546H552.316L553.386 379.46L558.364 366.968V360.083L568.499 308.199L570.365 380.859L573.312 393.371L570.836 402.279L574.072 408.52L582.666 466.399H605.265L603.517 452.934C605.486 451.937 607.067 450.315 608.013 448.321C608.959 446.328 609.215 444.076 608.742 441.921L607.446 436.019L610.395 418.568L615.765 321.21L614.251 242.655L587.815 222.438L535.137 229.434Z" fill="#2F2E41"/>
<path d="M573.312 99.2222C584.908 99.2222 594.309 89.8214 594.309 78.2249C594.309 66.6284 584.908 57.2275 573.312 57.2275C561.717 57.2275 552.316 66.6284 552.316 78.2249C552.316 89.8214 561.717 99.2222 573.312 99.2222Z" fill="#9E616A"/>
<path d="M527.438 269.672C528.352 268.728 529.047 267.595 529.476 266.353C529.904 265.111 530.055 263.79 529.918 262.483C529.781 261.177 529.359 259.916 528.682 258.79C528.005 257.664 527.089 256.7 525.999 255.966L534.164 225.089L518.434 230.38L513.092 258.891C511.981 260.804 511.61 263.058 512.049 265.226C512.489 267.394 513.708 269.325 515.476 270.654C517.245 271.983 519.439 272.617 521.644 272.436C523.848 272.255 525.91 271.272 527.438 269.672H527.438Z" fill="#9E616A"/>
<path d="M536.031 121.424L532.654 120.723L529.775 122.318C529.775 122.318 521.731 133.043 521.731 142.874C521.731 152.706 511.9 247.446 511.9 247.446L529.775 255.49L544.074 181.307L536.031 121.424Z" fill="#E6E6E6"/>
<path d="M591.699 62.8297C591.699 62.8297 597.191 52.331 585.109 51.3766C585.109 51.3766 574.81 42.0331 564.312 49.6685C564.312 49.6685 558.586 49.6685 555.454 56.1487C555.454 56.1487 550.951 54.4406 549.961 59.012C549.961 59.012 546.665 68.5563 549.961 77.1461C553.256 85.7359 554.351 86.6903 554.351 86.6903C554.351 86.6903 548.936 68.6813 562.117 67.7269C575.298 66.7725 590.047 58.5348 591.146 69.0335C592.244 79.5321 593.897 82.1189 593.897 82.1189C593.897 82.1189 604.331 67.1246 591.699 62.8297Z" fill="#2F2E41"/>
<path d="M668.397 356.647C666.813 356.649 665.283 356.065 664.102 355.008L600.561 298.443C599.28 297.3 598.505 295.697 598.406 293.983C598.306 292.27 598.89 290.588 600.03 289.305L640.735 243.574C641.877 242.293 643.481 241.518 645.194 241.419C646.908 241.319 648.59 241.903 649.873 243.043L713.415 299.609C714.697 300.75 715.473 302.354 715.573 304.068C715.673 305.781 715.087 307.464 713.946 308.746L673.241 354.477C672.677 355.114 671.993 355.632 671.227 356.003C670.462 356.374 669.63 356.588 668.781 356.635C668.653 356.644 668.525 356.647 668.397 356.647Z" fill="white"/>
<path d="M668.397 357.063C666.71 357.066 665.082 356.445 663.826 355.32L600.284 298.754C598.922 297.538 598.097 295.831 597.991 294.008C597.885 292.185 598.507 290.394 599.719 289.028L640.424 243.298C641.64 241.935 643.347 241.11 645.17 241.004C646.994 240.898 648.784 241.52 650.15 242.732L713.692 299.298C715.056 300.513 715.882 302.22 715.988 304.044C716.094 305.868 715.471 307.659 714.257 309.024L673.551 354.754C672.951 355.432 672.223 355.984 671.409 356.378C670.594 356.773 669.709 357.002 668.806 357.052C668.669 357.059 668.533 357.063 668.397 357.063ZM645.573 242.655C644.835 242.654 644.105 242.809 643.432 243.11C642.759 243.412 642.157 243.853 641.667 244.404L600.962 290.134C600.042 291.17 599.571 292.529 599.651 293.912C599.731 295.295 600.357 296.589 601.391 297.511L664.932 354.077C665.445 354.533 666.042 354.884 666.69 355.109C667.338 355.335 668.024 355.43 668.709 355.39C669.394 355.35 670.065 355.176 670.682 354.877C671.3 354.578 671.852 354.16 672.308 353.648L713.014 307.917C713.935 306.882 714.408 305.524 714.327 304.14C714.247 302.757 713.62 301.462 712.585 300.541L649.044 243.975C648.088 243.123 646.853 242.653 645.573 242.655H645.573Z" fill="#3F3D56"/>
<path d="M691.439 313.338C690.753 313.339 690.09 313.087 689.578 312.63L639.701 268.228C639.424 267.984 639.199 267.688 639.038 267.356C638.877 267.025 638.782 266.665 638.76 266.297C638.738 265.929 638.789 265.56 638.91 265.212C639.031 264.864 639.219 264.543 639.464 264.268C639.709 263.992 640.006 263.768 640.338 263.608C640.67 263.448 641.03 263.354 641.398 263.334C641.766 263.313 642.134 263.365 642.482 263.487C642.83 263.609 643.15 263.798 643.425 264.044L693.303 308.446C693.727 308.823 694.027 309.321 694.161 309.873C694.296 310.424 694.26 311.004 694.058 311.535C693.856 312.065 693.497 312.522 693.029 312.844C692.561 313.166 692.007 313.338 691.439 313.338Z" fill="#00337B"/>
<path d="M681.925 324.025C681.239 324.026 680.576 323.774 680.064 323.318L630.187 278.916C629.912 278.671 629.688 278.375 629.528 278.044C629.368 277.713 629.275 277.353 629.253 276.986C629.232 276.619 629.283 276.251 629.404 275.904C629.525 275.557 629.713 275.236 629.958 274.962C630.202 274.687 630.498 274.463 630.829 274.303C631.16 274.143 631.52 274.049 631.887 274.028C632.254 274.007 632.622 274.058 632.969 274.179C633.317 274.3 633.637 274.488 633.911 274.732L683.789 319.134C684.214 319.512 684.513 320.009 684.648 320.561C684.783 321.113 684.747 321.692 684.544 322.223C684.342 322.754 683.983 323.21 683.516 323.532C683.048 323.854 682.493 324.026 681.925 324.025H681.925Z" fill="#00337B"/>
<path d="M672.412 334.715C671.725 334.716 671.062 334.464 670.55 334.006L620.672 289.605C620.397 289.361 620.173 289.064 620.012 288.733C619.852 288.402 619.758 288.042 619.736 287.675C619.715 287.307 619.766 286.939 619.887 286.592C620.008 286.244 620.196 285.923 620.441 285.648C620.685 285.374 620.982 285.15 621.313 284.989C621.645 284.829 622.004 284.736 622.372 284.715C622.739 284.693 623.107 284.745 623.455 284.866C623.802 284.987 624.123 285.176 624.397 285.421L674.275 329.823C674.699 330.2 674.999 330.698 675.134 331.25C675.269 331.801 675.233 332.381 675.03 332.912C674.828 333.442 674.469 333.899 674.002 334.221C673.534 334.543 672.979 334.715 672.412 334.715H672.412Z" fill="#00337B"/>
<path d="M615.372 271.495C614.732 270.347 614.351 269.074 614.257 267.763C614.162 266.452 614.356 265.137 614.825 263.91C615.294 262.682 616.026 261.573 616.97 260.659C617.914 259.745 619.047 259.049 620.289 258.62L620.343 226.682L634.182 235.842L632.009 264.767C632.591 266.902 632.37 269.175 631.387 271.157C630.405 273.139 628.729 274.692 626.679 275.521C624.628 276.35 622.344 276.399 620.26 275.656C618.177 274.914 616.437 273.434 615.372 271.495H615.372Z" fill="#9E616A"/>
<path d="M616.651 130.176L622.834 124.216L627.376 127.495C627.376 127.495 631.845 132.857 635.42 148.945C638.995 165.033 635.42 253.517 635.42 253.517L615.758 250.835L618.439 204.359L610.395 165.033L616.651 130.176Z" fill="#E6E6E6"/>
<path d="M625.781 125.67L604.951 115.719L590.808 102.601L565.019 102.408L556.7 113.224L534.738 120.684L538.399 196.418L535.903 202.242C535.903 202.242 537.642 203.813 538.436 204.691C539.23 205.57 537.338 212.925 537.338 212.925L536.271 220.926L539.23 223.041L535.384 227.585L534.429 234.748C534.429 234.748 601.576 218.057 614.263 245.706C614.934 247.167 613.283 232.89 613.283 232.89L611.632 222.438L613.27 213.057L615.765 210.561L611.58 206.376L614.263 186.514L625.781 125.67Z" fill="#3F3D56"/>
<path d="M153.394 293.566C153.911 292.253 154.134 290.843 154.047 289.435C153.96 288.027 153.565 286.655 152.891 285.416C152.216 284.177 151.278 283.101 150.143 282.263C149.008 281.426 147.703 280.848 146.32 280.569L141.692 246.589L128.276 258.318L134.727 288.787C134.413 291.142 134.974 293.53 136.303 295.498C137.632 297.467 139.637 298.879 141.938 299.468C144.239 300.057 146.676 299.782 148.787 298.694C150.899 297.606 152.538 295.781 153.394 293.566V293.566Z" fill="#FFB8B8"/>
<path d="M100.83 143.036L97.1933 143.732L94.9952 146.5C94.9952 146.5 91.4392 160.449 95.4901 170.197C99.541 179.945 128.83 277.931 128.83 277.931L149.867 278.541L133.479 199.095L100.83 143.036Z" fill="#3F3D56"/>
<path d="M183.764 288.582C182.795 287.556 182.062 286.331 181.618 284.992C181.174 283.653 181.028 282.233 181.192 280.832C181.356 279.43 181.825 278.082 182.566 276.882C183.307 275.682 184.303 274.658 185.482 273.884L177.107 240.629L193.929 246.509L199.303 277.187C200.472 279.255 200.842 281.68 200.343 284.002C199.843 286.324 198.51 288.382 196.594 289.787C194.679 291.191 192.315 291.844 189.95 291.622C187.585 291.4 185.384 290.318 183.764 288.582Z" fill="#FFB8B8"/>
<path d="M176.414 129.306L180.048 128.597L183.12 130.345C183.12 130.345 191.62 141.962 191.496 152.518C191.371 163.073 200.728 264.915 200.728 264.915L181.435 273.325L167.021 193.498L176.414 129.306Z" fill="#3F3D56"/>
</svg>
