<svg width="98" height="31" viewBox="0 0 98 31" fill="none" xmlns="http://www.w3.org/2000/svg">
<path d="M70.2152 20.8333H73.5316C73.5529 22.0383 73.2997 23.2279 72.7985 24.2778C72.327 25.2459 71.6324 26.0358 70.7954 26.5556C69.9221 27.0929 68.9498 27.3665 67.9652 27.3519C66.9853 27.3687 66.0176 27.0949 65.1506 26.5556C64.3284 26.0341 63.6487 25.2473 63.1906 24.287C62.6971 23.231 62.4495 22.0392 62.4732 20.8333H65.7896C65.7423 21.6766 65.9632 22.5102 66.4089 23.1713C66.6025 23.4367 66.8436 23.6479 67.1148 23.7896C67.386 23.9314 67.6805 24.0001 67.9769 23.9908C68.2762 23.9951 68.5729 23.9243 68.8472 23.783C69.1216 23.6417 69.3674 23.4332 69.5684 23.1713C70.0358 22.5226 70.2682 21.6828 70.2152 20.8333Z" fill="#F9FBFF"/>
<path d="M19.8626 7.57869C19.0173 7.05379 18.0734 6.78944 17.1186 6.81017C16.1424 6.78781 15.1777 7.06031 14.3158 7.60184C13.5087 8.12406 12.849 8.9144 12.4185 9.87499C11.9506 10.9391 11.7174 12.1253 11.7403 13.3241C11.7176 14.5239 11.9536 15.7108 12.4263 16.7731C12.8644 17.7318 13.5272 18.521 14.3354 19.0463C15.1906 19.5867 16.1488 19.8592 17.1186 19.8379C17.928 19.8541 18.7307 19.6613 19.4706 19.2731C20.1445 18.9135 20.7408 18.3786 21.215 17.7083C21.6736 17.0526 22.0017 16.2837 22.1754 15.4583H18.6983C18.5563 15.8426 18.3167 16.1653 18.0126 16.3818C17.7085 16.5983 17.355 16.6978 17.001 16.6667C16.4891 16.6824 15.9928 16.4577 15.6211 16.0417C15.2193 15.559 14.9893 14.9129 14.9782 14.2361H22.3439C22.3822 13.8597 22.4019 13.481 22.4027 13.1018C22.4242 11.9387 22.1906 10.7888 21.7246 9.76388C21.292 8.84157 20.6462 8.08366 19.8626 7.57869ZM14.9978 12.0972C15.0503 11.4796 15.2931 10.9063 15.6799 10.4861C16.0822 10.1157 16.5786 9.91655 17.0886 9.92075C17.5987 9.92495 18.0927 10.1323 18.4906 10.5092C18.6805 10.7065 18.8305 10.9515 18.9296 11.2264C19.0287 11.5012 19.0742 11.7988 19.0629 12.0972H14.9978Z" fill="#F9FBFF"/>
<path d="M28.8236 7.45371C29.4021 7.05341 30.0621 6.84694 30.7326 6.85649V10.963H29.8349C29.1825 10.9023 28.5333 11.1191 28.0043 11.5741C27.5966 11.9907 27.3928 12.7207 27.3928 13.7639V19.6435H24.1353V6.99075H27.3928V9.10186C27.7546 8.42848 28.2446 7.86413 28.8236 7.45371Z" fill="#F9FBFF"/>
<path d="M49.0274 8.28241C49.8114 9.23611 50.2034 10.5602 50.2034 12.2593V19.6667H46.9616V12.7778C46.9978 12.0866 46.802 11.4063 46.4167 10.8843C46.0037 10.4521 45.4711 10.2135 44.9193 10.2135C44.3675 10.2135 43.8348 10.4521 43.4218 10.8843C43.035 11.4053 42.839 12.0863 42.877 12.7778V19.6574H39.639V12.7778C39.6752 12.0866 39.4795 11.4063 39.0942 10.8843C38.6812 10.4521 38.1485 10.2135 37.5967 10.2135C37.0449 10.2135 36.5123 10.4521 36.0993 10.8843C35.7125 11.4053 35.5165 12.0863 35.5544 12.7778V19.6574H32.2969V6.99074H35.5544V8.5787C35.8937 8.0423 36.3374 7.61035 36.848 7.31945C37.4132 7.00172 38.0332 6.84324 38.659 6.85648C39.4075 6.84098 40.1468 7.05132 40.8072 7.46759C41.4305 7.86966 41.9423 8.47572 42.2811 9.21296C42.6604 8.51076 43.1783 7.92772 43.7903 7.51389C44.4198 7.07692 45.1378 6.84973 45.8679 6.85648C46.4496 6.82154 47.031 6.93031 47.575 7.17584C48.1191 7.42137 48.6137 7.79825 49.0274 8.28241Z" fill="#F9FBFF"/>
<path d="M60.5483 13.8889C60.9443 14.4875 61.1497 15.2315 61.1285 15.9907C61.1357 16.7017 60.9518 17.3971 60.6032 17.9768C60.2229 18.5988 59.7009 19.0804 59.0979 19.3657C58.3743 19.7146 57.5979 19.8848 56.8165 19.8657C55.9663 19.8852 55.1221 19.6928 54.3391 19.3009C53.6628 18.9659 53.0713 18.43 52.6221 17.7454C52.2081 17.1055 51.9627 16.3359 51.9165 15.5324H55.1387C55.1553 15.7433 55.2101 15.9476 55.2993 16.1313C55.3886 16.315 55.5103 16.4739 55.6562 16.5972C55.9814 16.8797 56.3777 17.0249 56.7812 17.0093C57.1126 17.0336 57.4421 16.9331 57.722 16.7222C57.8259 16.6429 57.9109 16.5338 57.9692 16.405C58.0275 16.2763 58.0571 16.1321 58.0552 15.9861C58.0567 15.8103 58.0118 15.6383 57.9269 15.494C57.8419 15.3496 57.721 15.2401 57.5809 15.1805C57.0886 14.9262 56.5783 14.7232 56.056 14.5741C55.4015 14.4 54.7583 14.171 54.1313 13.8889C53.6206 13.6542 53.1678 13.2722 52.8142 12.7778C52.4242 12.1949 52.2277 11.464 52.2615 10.7222C52.2565 10.0151 52.4328 9.32273 52.7671 8.7361C53.1375 8.10473 53.653 7.61158 54.2528 7.31481C54.9967 6.94643 55.7985 6.76966 56.6048 6.79629C57.9376 6.79629 58.9921 7.18981 59.7408 7.97684C60.5165 8.77364 60.9942 9.90022 61.0697 11.1111H58.0552C58.0371 10.908 57.9847 10.7112 57.9012 10.5323C57.8178 10.3534 57.7049 10.196 57.5691 10.0694C57.2603 9.79615 56.8805 9.65863 56.4951 9.68055C56.1861 9.65681 55.8787 9.74918 55.617 9.94444C55.5204 10.0223 55.4418 10.1275 55.3884 10.2504C55.335 10.3733 55.3085 10.51 55.3112 10.6481C55.311 10.8272 55.3576 11.002 55.4446 11.1486C55.5316 11.2952 55.6548 11.4066 55.7973 11.4676C56.2846 11.7199 56.7931 11.9108 57.3143 12.037C57.9671 12.232 58.6098 12.4716 59.2391 12.7546C59.7481 12.9992 60.1979 13.3889 60.5483 13.8889Z" fill="#F9FBFF"/>
<path d="M82.7514 7.5787C81.9063 7.05303 80.9623 6.78864 80.0074 6.81018C79.0378 6.79135 78.0801 7.06376 77.2242 7.60184C76.4171 8.12406 75.7574 8.9144 75.3269 9.87499C74.859 10.9391 74.6258 12.1253 74.6487 13.3241C74.6241 14.5241 74.8602 15.7116 75.3347 16.7731C75.7665 17.7296 76.4225 18.5188 77.2242 19.0463C78.0794 19.5867 79.0376 19.8592 80.0074 19.838C80.8169 19.8547 81.6197 19.6619 82.3594 19.2731C83.0254 18.9208 83.615 18.3943 84.0836 17.7334C84.5521 17.0726 84.8874 16.2946 85.0642 15.4583H81.591C81.4493 15.8439 81.2092 16.1675 80.9042 16.3841C80.5992 16.6007 80.2446 16.6995 79.8898 16.6667C79.3784 16.6789 78.8832 16.4546 78.5099 16.0417C78.1096 15.5582 77.8809 14.9122 77.871 14.2361H85.2523C85.2874 13.8594 85.3057 13.4808 85.3072 13.1018C85.3306 11.9385 85.0969 10.788 84.629 9.76388C84.1935 8.83791 83.5417 8.07937 82.7514 7.5787ZM77.8906 12.0972C77.9458 11.4775 78.1929 10.9038 78.5844 10.4861C78.9724 10.1058 79.4642 9.90502 79.9682 9.92129C80.4904 9.90033 81.0005 10.11 81.399 10.5093C81.5883 10.7071 81.7378 10.9523 81.8368 11.227C81.9358 11.5016 81.9818 11.7989 81.9713 12.0972H77.8906Z" fill="#F9FBFF"/>
<path d="M97.6079 12.2593V19.6667H94.3661V12.7778C94.4048 12.0607 94.2067 11.3538 93.8134 10.8056C93.4124 10.3541 92.8797 10.1023 92.3257 10.1023C91.7718 10.1023 91.239 10.3541 90.8381 10.8056C90.4448 11.3538 90.2467 12.0607 90.2854 12.7778V19.6574H87.0239V6.99074H90.2854V8.67129C90.6247 8.09959 91.084 7.64175 91.6182 7.34259C92.2094 7.01855 92.856 6.86011 93.5076 6.87963C94.0635 6.84984 94.6182 6.96319 95.1333 7.21181C95.6484 7.46043 96.1116 7.83837 96.4907 8.31944C97.2355 9.25463 97.6079 10.5679 97.6079 12.2593Z" fill="#F9FBFF"/>
<path d="M71.5441 3.62964C71.1728 3.61263 70.8023 3.68239 70.4538 3.83493C70.1053 3.98747 69.7858 4.21978 69.5136 4.51853C69.2588 4.80087 69.0573 5.14347 68.9222 5.52398C68.7871 5.90449 68.7215 6.31437 68.7296 6.72686C68.7276 6.7685 68.7276 6.81023 68.7296 6.85186C68.4925 6.82376 68.2544 6.80985 68.0161 6.8102C67.0342 6.79293 66.0642 7.06503 65.1937 7.60186C64.3622 8.12434 63.6741 8.91612 63.2102 9.88427C62.7147 10.9348 62.4645 12.1219 62.485 13.3241C62.4609 14.5286 62.7084 15.719 63.2024 16.7732C63.6581 17.7367 64.3384 18.5256 65.1624 19.0463C66.0283 19.584 66.9948 19.8563 67.973 19.838C68.9585 19.8541 69.9322 19.5821 70.8072 19.0463C71.6432 18.5246 72.3365 17.733 72.8064 16.7639C73.3093 15.7164 73.5639 14.5281 73.5433 13.3241C73.5639 12.1219 73.3136 10.9348 72.8181 9.88427C72.7593 9.76853 72.7005 9.65279 72.6417 9.54631C72.9807 9.403 73.2905 9.17749 73.5512 8.88427C73.805 8.61192 74.0064 8.27836 74.1416 7.90616C74.2769 7.53396 74.3429 7.13179 74.3352 6.72686C74.3443 6.31421 74.2791 5.90398 74.1439 5.52329C74.0088 5.14261 73.8067 4.80014 73.5512 4.51853C73.283 4.22105 72.9675 3.98931 72.623 3.83674C72.2785 3.68416 71.9118 3.61377 71.5441 3.62964ZM69.5841 15.6667C69.3834 15.9291 69.1377 16.1379 68.8632 16.2792C68.5888 16.4205 68.292 16.4911 67.9926 16.4861C67.6961 16.4961 67.4014 16.4277 67.1301 16.2859C66.8588 16.1441 66.6178 15.9326 66.4246 15.6667C65.9811 15.013 65.759 14.188 65.8013 13.3519C65.7515 12.5032 65.9772 11.6639 66.4325 11.0046C66.634 10.7524 66.877 10.5515 67.1466 10.4142C67.4163 10.2768 67.7068 10.206 68.0005 10.206C68.2941 10.206 68.5846 10.2768 68.8543 10.4142C69.1239 10.5515 69.3669 10.7524 69.5685 11.0046C70.0268 11.6588 70.2554 12.4955 70.2074 13.3426C70.2572 14.1852 70.0266 15.0174 69.5645 15.6621L69.5841 15.6667Z" fill="#F9FBFF"/>
<path d="M0.39209 3.72223H10.7487V6.83334H7.19721V19.6574H3.93969V6.83334H0.39209V3.72223Z" fill="#F9FBFF"/>
</svg>
