<svg width="913" height="442" viewBox="0 0 913 442" fill="none" xmlns="http://www.w3.org/2000/svg">
<path d="M124.218 353.275H810.862V5.66455H124.218V353.275Z" fill="white"/>
<path d="M816.526 358.939H118.554V0H816.526V358.939ZM129.882 347.611H805.198V11.3284H129.882V347.611Z" fill="#E5E5E5"/>
<path d="M444.691 79.2031V197.186H273.183L241.498 235.203L245.116 197.186H229.699V79.2031H444.691Z" fill="#00337B"/>
<path d="M548.482 86.2031V161.849H658.445L678.76 186.223L676.441 161.849H686.325V86.2031H548.482Z" fill="#F0F0F0"/>
<path d="M94.66 430.711H104.581L109.301 392.445H94.659L94.66 430.711Z" fill="#FFB7B7"/>
<path d="M92.1298 427.472L111.668 427.472H111.668C114.971 427.472 118.137 428.784 120.472 431.119C122.807 433.454 124.119 436.62 124.119 439.922V440.327L92.1303 440.328L92.1298 427.472Z" fill="#2F2E41"/>
<path d="M213.852 430.385L223.486 428.014L218.925 389.729L204.707 393.228L213.852 430.385Z" fill="#FFB7B7"/>
<path d="M210.621 427.845L229.593 423.176L229.594 423.175C232.8 422.387 236.189 422.904 239.014 424.613C241.839 426.323 243.87 429.084 244.659 432.291L244.756 432.683L213.693 440.328L210.621 427.845Z" fill="#2F2E41"/>
<path d="M88.5593 421.587L90.6202 411.043C90.6202 411.043 94.4138 370.33 121.639 329.697L130.501 285.558C130.501 285.558 127.869 252.148 153.271 234.063L161.102 228.668L188.56 230.242L194.901 264.96L207.678 347.108C207.678 347.108 210.976 347.417 212.212 356.916C214.726 360.905 216.213 365.455 216.54 370.158C216.54 370.158 223.079 388.197 224.831 401.479L224.625 414.476L210.817 421.832L182.038 340.443L161.454 294.941C161.454 294.941 151.547 327 136.372 354.464C136.372 354.464 115.587 399.451 111.435 408.591L106.901 423.549L88.5593 421.587Z" fill="#2F2E41"/>
<path d="M180.363 158.807C191.202 158.807 199.989 150.021 199.989 139.182C199.989 128.343 191.202 119.557 180.363 119.557C169.524 119.557 160.738 128.343 160.738 139.182C160.738 150.021 169.524 158.807 180.363 158.807Z" fill="#FFB7B7"/>
<path d="M180.363 158.807C191.202 158.807 199.989 150.021 199.989 139.182C199.989 128.343 191.202 119.557 180.363 119.557C169.524 119.557 160.738 128.343 160.738 139.182C160.738 150.021 169.524 158.807 180.363 158.807Z" fill="#FFB8B8"/>
<path d="M153.329 234.272L159.807 218.09C155.23 203.263 155.51 187.362 160.608 172.707L161.847 171.686C172.646 162.794 182.123 164.412 190.918 175.29C192.334 177.059 193.991 178.621 195.839 179.931C199.718 182.652 205.872 197.438 197.747 206.105L191.247 244.023C191.931 264.958 176.74 257.075 153.329 234.272Z" fill="#3F3D56"/>
<path d="M246.223 212.262C245.385 211.628 244.418 211.186 243.391 210.966C242.364 210.747 241.301 210.755 240.277 210.991C239.254 211.226 238.294 211.683 237.466 212.33C236.638 212.976 235.962 213.797 235.486 214.733L219.116 213.458L215.915 223.217L239.058 224.692C240.683 225.389 242.508 225.465 244.186 224.906C245.864 224.347 247.278 223.192 248.161 221.66C249.044 220.127 249.335 218.324 248.978 216.592C248.62 214.86 247.64 213.32 246.223 212.262H246.223Z" fill="#FFB7B7"/>
<path d="M230.55 228.093L183.904 219.384L168.732 193.947C167.757 191.244 167.896 188.265 169.118 185.664C170.34 183.064 172.545 181.055 175.248 180.081C177.95 179.106 180.93 179.245 183.53 180.466C186.131 181.688 188.139 183.893 189.114 186.596L196.23 206.274L233.121 212.38L230.55 228.093Z" fill="#CCCCCC"/>
<path d="M145.381 134.883C155.779 134.883 164.209 126.454 164.209 116.055C164.209 105.657 155.779 97.2271 145.381 97.2271C134.982 97.2271 126.553 105.657 126.553 116.055C126.553 126.454 134.982 134.883 145.381 134.883Z" fill="#2F2E41"/>
<path d="M129.141 131.646C131.578 133.408 134.401 134.56 137.374 135.006C140.348 135.453 143.385 135.18 146.232 134.213C149.079 133.245 151.652 131.609 153.737 129.442C155.822 127.276 157.358 124.642 158.216 121.76C157.891 124.342 157.035 126.829 155.7 129.064C154.366 131.299 152.583 133.233 150.463 134.743C148.344 136.254 145.934 137.309 143.386 137.842C140.838 138.374 138.208 138.372 135.66 137.837C133.113 137.301 130.705 136.244 128.587 134.73C126.469 133.217 124.688 131.281 123.357 129.045C122.025 126.809 121.171 124.321 120.849 121.738C120.528 119.155 120.745 116.533 121.488 114.039C121.066 117.39 121.554 120.793 122.9 123.891C124.247 126.99 126.402 129.668 129.141 131.646Z" fill="#2F2E41"/>
<path d="M203.445 131.667C200.158 125.782 198.9 123.324 194.662 119.746C190.914 116.581 186.304 115.652 182.586 118.651C178.188 116.75 173.293 116.319 168.63 117.422C163.967 118.524 159.784 121.102 156.703 124.771C153.621 128.44 151.805 133.006 151.525 137.789C151.245 142.573 152.515 147.319 155.147 151.323C157.779 155.327 161.632 158.375 166.135 160.015C170.637 161.654 175.548 161.798 180.139 160.424C184.729 159.05 188.754 156.232 191.615 152.389C194.477 148.545 196.022 143.882 196.022 139.09C196.018 138.248 195.968 137.408 195.87 136.572C199.102 136.118 200.213 132.121 203.445 131.667Z" fill="#2F2E41"/>
<path d="M782.249 272.526C782.31 271.227 782.656 269.957 783.261 268.807C783.866 267.656 784.716 266.652 785.752 265.865C786.787 265.079 787.982 264.529 789.253 264.254C790.523 263.979 791.839 263.986 793.107 264.275L804.868 247.701L816.683 252.391L799.745 275.564C799.119 277.661 797.746 279.456 795.885 280.609C794.023 281.761 791.804 282.191 789.648 281.816C787.491 281.442 785.547 280.289 784.183 278.577C782.819 276.864 782.131 274.711 782.249 272.526Z" fill="#A0616A"/>
<path d="M795.15 258.271L816.06 223.103L807.541 200.385L819.144 169.443L819.572 169.626C819.853 169.747 826.445 172.689 827.423 183.224L840.756 225.131L805.17 271.297L795.15 258.271Z" fill="#3F3D56"/>
<path d="M681.585 128.982C682.875 129.144 684.114 129.587 685.214 130.279C686.314 130.971 687.25 131.896 687.954 132.989C688.658 134.082 689.114 135.316 689.29 136.605C689.466 137.893 689.357 139.204 688.971 140.445L704.586 153.453L698.996 164.87L677.203 146.192C675.16 145.405 673.476 143.897 672.471 141.952C671.466 140.007 671.21 137.762 671.75 135.64C672.29 133.519 673.589 131.67 675.402 130.443C677.215 129.215 679.414 128.696 681.585 128.982Z" fill="#A0616A"/>
<path d="M694.798 142.947L728.245 166.514L751.553 159.776L781.506 173.737L781.29 174.149C781.148 174.42 777.705 180.765 767.125 180.925L724.314 190.979L681.037 151.93L694.798 142.947Z" fill="#3F3D56"/>
<path d="M755.999 429.531H744.371L738.84 384.681L756.001 384.682L755.999 429.531Z" fill="#A0616A"/>
<path d="M736.066 426.208H758.49V440.327H721.947C721.947 438.473 722.312 436.637 723.021 434.924C723.731 433.211 724.771 431.654 726.082 430.343C727.393 429.032 728.95 427.992 730.663 427.283C732.376 426.573 734.212 426.208 736.066 426.208Z" fill="#2F2E41"/>
<path d="M802.472 429.531H790.844L785.313 384.681L802.474 384.682L802.472 429.531Z" fill="#A0616A"/>
<path d="M782.539 426.208H804.963V440.327H768.42C768.42 438.473 768.785 436.637 769.494 434.924C770.204 433.211 771.244 431.654 772.555 430.343C773.866 429.032 775.423 427.992 777.136 427.283C778.849 426.573 780.685 426.208 782.539 426.208Z" fill="#2F2E41"/>
<path d="M806.607 265.827L805.659 332.217L804.71 419.472L783.845 417.575L773.412 297.125L760.134 417.575H738.593L736.423 296.176L744.011 269.62L806.607 265.827Z" fill="#2F2E41"/>
<path d="M741.931 270.025L738.752 269.888L753.517 188.551L747.472 163.967C747.158 162.688 747.323 161.338 747.938 160.173C748.553 159.008 749.573 158.109 750.806 157.646L761.683 153.568L765.526 143L795.845 146.267L796.591 154.526C799.876 155.58 826.931 164.59 825.065 174.857C823.222 184.99 812.343 216.872 811.791 218.488L809.886 264.21L809.651 264.327C809.369 264.468 788.471 274.744 765.768 274.742C757.578 274.879 749.452 273.271 741.931 270.025Z" fill="#3F3D56"/>
<path d="M779.497 137.77C791.554 137.77 801.327 127.997 801.327 115.941C801.327 103.884 791.554 94.1108 779.497 94.1108C767.441 94.1108 757.668 103.884 757.668 115.941C757.668 127.997 767.441 137.77 779.497 137.77Z" fill="#A0616A"/>
<path d="M797.179 137.072C793.019 141.504 785.293 139.125 784.751 133.071C784.708 132.601 784.712 132.128 784.76 131.658C785.04 128.977 786.589 126.542 786.218 123.71C786.134 123.006 785.872 122.334 785.455 121.759C782.14 117.32 774.358 123.745 771.229 119.726C769.311 117.262 771.566 113.382 770.094 110.628C768.151 106.993 762.396 108.786 758.786 106.795C754.771 104.58 755.011 98.4192 757.654 94.6717C760.878 90.1014 766.53 87.6627 772.112 87.3112C777.694 86.9598 783.237 88.4687 788.448 90.4995C794.369 92.8069 800.24 95.9958 803.884 101.202C808.315 107.533 808.741 116.045 806.525 123.449C805.177 127.952 800.577 133.454 797.179 137.072Z" fill="#2F2E41"/>
<path d="M560.665 423.5L563.908 415.158L533.276 398.679L528.489 410.991L560.665 423.5Z" fill="#FFB8B8"/>
<path d="M578.041 401.738C576.666 401.203 575.199 400.944 573.724 400.976C572.25 401.008 570.795 401.331 569.445 401.925C568.095 402.519 566.875 403.374 565.855 404.44C564.836 405.506 564.036 406.763 563.502 408.138L561.314 413.761L557.941 422.441L557.117 424.57L567.926 428.774L578.381 401.873L578.041 401.738Z" fill="#2F2E41"/>
<path d="M557.943 407.446L556.532 411.186L553.012 420.522L552.927 420.756C543.959 421.908 534.127 419.649 525.034 416.14C521.396 414.736 517.832 413.146 514.358 411.376C509.215 408.777 504.611 406.035 500.937 403.689C495.407 400.14 491.987 397.474 491.987 397.474C491.987 397.474 491.083 398.291 489.449 399.691C487.257 401.566 483.756 404.493 479.321 407.939C477.629 409.263 475.813 410.648 473.871 412.094C459.562 422.707 441.198 394.386 441.198 394.386C441.198 394.386 446.363 391.098 447.712 390.459C452.057 388.404 462.264 383.554 471.069 379.244C475.606 377.02 479.765 374.935 482.558 373.453C492.447 368.188 504.739 378.15 504.739 378.15L557.943 407.446Z" fill="#2F2E41"/>
<path opacity="0.14" d="M557.943 407.446L556.532 411.186L553.012 420.522L552.927 420.756C543.959 421.908 534.127 419.649 525.034 416.14C521.396 414.736 517.832 413.146 514.358 411.376C509.215 408.777 504.611 406.035 500.937 403.689C495.407 400.14 491.987 397.474 491.987 397.474C491.987 397.474 491.083 398.291 489.449 399.691C487.257 401.566 483.756 404.493 479.321 407.939C477.629 409.263 475.813 410.648 473.871 412.094C459.562 422.707 441.198 394.386 441.198 394.386C441.198 394.386 446.363 391.098 447.712 390.459C452.057 388.404 462.264 383.554 471.069 379.244C475.606 377.02 479.765 374.935 482.558 373.453C492.447 368.188 504.739 378.15 504.739 378.15L557.943 407.446Z" fill="black"/>
<path d="M414.813 328.93H372.471C371.6 328.929 370.765 328.583 370.149 327.967C369.533 327.351 369.187 326.516 369.186 325.645V307.394C369.186 300.908 371.763 294.688 376.349 290.102C380.935 285.515 387.156 282.938 393.642 282.938C400.128 282.938 406.349 285.515 410.935 290.102C415.521 294.688 418.098 300.908 418.098 307.394V325.645C418.097 326.516 417.751 327.351 417.135 327.967C416.519 328.583 415.684 328.929 414.813 328.93Z" fill="#2F2E41"/>
<path d="M455.08 351.855C454.094 352.028 453.158 352.415 452.338 352.989C451.518 353.562 450.834 354.309 450.334 355.176C449.834 356.043 449.53 357.009 449.444 358.006C449.357 359.003 449.49 360.007 449.834 360.947L438.32 371.536L443.049 380.103L459.099 364.92C460.639 364.238 461.877 363.015 462.576 361.482C463.275 359.949 463.387 358.213 462.892 356.602C462.397 354.992 461.328 353.619 459.888 352.744C458.448 351.869 456.737 351.553 455.08 351.855V351.855Z" fill="#FFB8B8"/>
<path d="M420.436 400.001C419.915 400.001 419.395 399.979 418.873 399.934C415.767 399.675 412.778 398.631 410.186 396.9C407.594 395.169 405.484 392.808 404.055 390.038L385.609 354.535C384.401 352.208 384.135 349.506 384.869 346.989C385.602 344.472 387.277 342.335 389.546 341.022C391.815 339.708 394.503 339.32 397.051 339.939C399.598 340.557 401.81 342.133 403.225 344.34L420.242 382.523L443.398 363.709L456.806 368.928L434.163 393.926C432.422 395.836 430.303 397.363 427.939 398.409C425.576 399.455 423.02 399.998 420.436 400.001Z" fill="#00337B"/>
<path d="M558.077 435.233L561.951 427.165L532.676 408.381L526.958 420.289L558.077 435.233Z" fill="#FFB8B8"/>
<path d="M577.074 414.87C575.744 414.231 574.302 413.86 572.829 413.779C571.356 413.697 569.881 413.907 568.489 414.396C567.097 414.885 565.815 415.643 564.717 416.628C563.618 417.612 562.724 418.804 562.086 420.134L559.473 425.573L555.443 433.968L554.458 436.027L564.911 441.049L577.402 415.031L577.074 414.87Z" fill="#2F2E41"/>
<path d="M556.597 419.017L554.903 422.638L550.676 431.676L550.574 431.902C541.543 432.362 531.914 429.354 523.117 425.157C519.597 423.478 516.167 421.619 512.839 419.586C507.911 416.601 503.531 413.513 500.048 410.892C494.807 406.928 491.602 404.008 491.602 404.008C491.602 404.008 490.638 404.752 488.901 406.022C486.572 407.723 482.856 410.373 478.169 413.469C476.381 414.659 474.463 415.9 472.417 417.192C457.334 426.675 435.886 438.224 417.642 440.662C385.601 444.948 393.143 402.19 393.143 402.19L418.643 388.947L429.469 391.144L441.522 393.583L445.792 394.451C445.792 394.451 446.603 394.145 447.997 393.612C452.487 391.896 463.036 387.845 472.147 384.224C476.841 382.355 481.148 380.595 484.046 379.332C494.31 374.843 505.801 385.72 505.801 385.72L556.597 419.017Z" fill="#2F2E41"/>
<path d="M346.481 441.683C347.456 441.46 348.371 441.025 349.16 440.409C349.949 439.794 350.594 439.013 351.048 438.121C351.503 437.23 351.757 436.249 351.791 435.249C351.826 434.249 351.641 433.253 351.25 432.332L362.2 421.161L357.035 412.851L341.792 428.844C340.288 429.604 339.116 430.89 338.497 432.457C337.878 434.024 337.856 435.764 338.434 437.346C339.012 438.929 340.15 440.245 341.633 441.044C343.116 441.843 344.841 442.071 346.481 441.683H346.481Z" fill="#FFB8B8"/>
<path d="M399.637 329.745C409.066 329.745 416.71 322.102 416.71 312.673C416.71 303.244 409.066 295.6 399.637 295.6C390.208 295.6 382.564 303.244 382.564 312.673C382.564 322.102 390.208 329.745 399.637 329.745Z" fill="#FFB8B8"/>
<path d="M377.426 360.064L392.298 402.228L392.209 402.375C390.14 405.795 389.464 408.553 390.254 410.352C390.462 410.809 390.767 411.216 391.147 411.544C391.527 411.872 391.975 412.114 392.457 412.253L427.651 387.653L426.419 377.794L426.488 377.684C429.889 372.241 430.991 367.312 429.762 363.034C428.649 359.572 426.244 356.673 423.049 354.938L422.926 354.841L405.373 333.477L381.908 337.645L377.426 360.064Z" fill="#00337B"/>
<path d="M354.81 434.071L344.846 421.809L368.864 382.162L380.062 347.549L380.409 347.661L380.062 347.549C380.673 345.658 381.683 343.92 383.023 342.453C384.364 340.985 386.003 339.822 387.83 339.041C389.658 338.261 391.632 337.881 393.619 337.928C395.606 337.975 397.559 338.447 399.348 339.313C401.137 340.179 402.72 341.418 403.989 342.947C405.259 344.476 406.186 346.259 406.708 348.177C407.23 350.095 407.334 352.102 407.015 354.063C406.696 356.025 405.959 357.895 404.856 359.548L384.299 390.347L354.81 434.071Z" fill="#00337B"/>
<path d="M423.884 309.22H397.993L397.727 305.502L396.4 309.22H392.413L391.887 301.852L389.256 309.22H381.542V308.855C381.548 303.726 383.588 298.808 387.215 295.181C390.841 291.555 395.759 289.515 400.888 289.509H404.538C409.667 289.515 414.584 291.555 418.211 295.181C421.838 298.808 423.878 303.726 423.884 308.855V309.22Z" fill="#2F2E41"/>
<path d="M397.781 332.337C397.586 332.337 397.391 332.32 397.199 332.286L378.241 328.941V297.608H399.111L398.594 298.21C391.405 306.594 396.821 320.189 400.689 327.546C400.974 328.085 401.101 328.694 401.056 329.302C401.01 329.909 400.794 330.492 400.432 330.983C400.129 331.402 399.73 331.743 399.269 331.979C398.809 332.214 398.298 332.337 397.781 332.337Z" fill="#2F2E41"/>
<path d="M681.028 276.203V320.344H485.481L457.244 354.223L460.469 320.344H446.73V276.203H681.028Z" fill="#F0F0F0"/>
<path d="M528.028 306.203C532.446 306.203 536.028 302.621 536.028 298.203C536.028 293.785 532.446 290.203 528.028 290.203C523.609 290.203 520.028 293.785 520.028 298.203C520.028 302.621 523.609 306.203 528.028 306.203Z" fill="white"/>
<path d="M501.028 306.203C505.446 306.203 509.028 302.621 509.028 298.203C509.028 293.785 505.446 290.203 501.028 290.203C496.609 290.203 493.028 293.785 493.028 298.203C493.028 302.621 496.609 306.203 501.028 306.203Z" fill="white"/>
<path d="M474.028 306.203C478.446 306.203 482.028 302.621 482.028 298.203C482.028 293.785 478.446 290.203 474.028 290.203C469.609 290.203 466.028 293.785 466.028 298.203C466.028 302.621 469.609 306.203 474.028 306.203Z" fill="white"/>
<path d="M912 441.203H1C0.734784 441.203 0.480429 441.098 0.292892 440.91C0.105356 440.723 0 440.468 0 440.203C0 439.938 0.105356 439.684 0.292892 439.496C0.480429 439.308 0.734784 439.203 1 439.203H912C912.265 439.203 912.52 439.308 912.707 439.496C912.895 439.684 913 439.938 913 440.203C913 440.468 912.895 440.723 912.707 440.91C912.52 441.098 912.265 441.203 912 441.203Z" fill="#CACACA"/>
</svg>
