<svg width="652" height="492" viewBox="0 0 652 492" fill="none" xmlns="http://www.w3.org/2000/svg">
<path d="M375.729 23.9458C381.321 35.8429 369.471 39.2127 355.896 45.5894C342.321 51.9661 332.162 58.935 326.569 47.0378C320.977 35.1407 316.439 11.5271 335.643 2.50617C355.509 -6.82555 370.136 12.0486 375.729 23.9458Z" fill="#2F2E41"/>
<path d="M348.032 47.3424C358.125 47.3424 366.307 39.1634 366.307 29.074C366.307 18.9847 358.125 10.8057 348.032 10.8057C337.939 10.8057 329.757 18.9847 329.757 29.074C329.757 39.1634 337.939 47.3424 348.032 47.3424Z" fill="#FFB8B8"/>
<path d="M438.569 110.091C437.937 109.265 437.304 108.455 436.664 107.666C435.839 106.64 435.008 105.646 434.172 104.684C424.7 93.7573 414.625 86.8772 403.532 86.1408H403.517L403.353 86.126L381.247 107.666L373.732 114.985L373.896 115.387L377.95 125.48H449.001C445.8 120.169 442.317 115.032 438.569 110.091Z" fill="#2F2E41"/>
<path d="M328.159 36.4291L334.701 33.3561L333.79 23.9223L338.164 31.7294L341.291 30.2606L340.759 24.7576L343.311 29.3116L366.544 18.3983C364.362 13.7563 360.425 10.171 355.598 8.431C350.772 6.69104 345.451 6.93898 340.808 9.12026L337.441 10.7019C332.797 12.8832 329.21 16.8192 327.47 21.644C325.729 26.4687 325.977 31.7871 328.159 36.4291Z" fill="#2F2E41"/>
<path d="M479.567 368.03H97.9836C94.7287 368.026 91.6081 366.732 89.3065 364.431C87.005 362.13 85.7103 359.011 85.7066 355.757V126.554C85.7093 124.17 86.6577 121.885 88.3439 120.199C90.03 118.513 92.3162 117.565 94.7008 117.562H482.694C485.12 117.565 487.446 118.53 489.161 120.245C490.876 121.959 491.841 124.284 491.844 126.709V355.757C491.84 359.011 490.546 362.13 488.244 364.431C485.942 366.732 482.822 368.026 479.567 368.03Z" fill="#F2F2F2"/>
<path d="M109.889 355.757H467.662C470.819 355.757 473.848 354.504 476.08 352.272C478.313 350.04 479.567 347.013 479.567 343.857V149.319C479.567 146.162 478.313 143.135 476.08 140.904C473.848 138.672 470.819 137.418 467.662 137.418H109.889C106.731 137.418 103.703 138.672 101.471 140.904C99.2379 143.135 97.9836 146.162 97.9836 149.319V343.857C97.9836 347.013 99.2379 350.04 101.471 352.272C103.703 354.504 106.731 355.757 109.889 355.757Z" fill="white"/>
<path d="M491.673 125.852H85.5343V119.604C85.5391 116.339 86.839 113.21 89.149 110.902C91.4589 108.594 94.5903 107.297 97.856 107.294H479.351C482.617 107.297 485.749 108.594 488.059 110.902C490.368 113.21 491.668 116.339 491.673 119.604V125.852Z" fill="#00337B"/>
<path d="M107.927 119.777C109.687 119.777 111.114 118.351 111.114 116.591C111.114 114.832 109.687 113.405 107.927 113.405C106.167 113.405 104.74 114.832 104.74 116.591C104.74 118.351 106.167 119.777 107.927 119.777Z" fill="white"/>
<path d="M120.025 119.777C121.785 119.777 123.212 118.351 123.212 116.591C123.212 114.832 121.785 113.405 120.025 113.405C118.264 113.405 116.838 114.832 116.838 116.591C116.838 118.351 118.264 119.777 120.025 119.777Z" fill="white"/>
<path d="M132.122 119.777C133.882 119.777 135.309 118.351 135.309 116.591C135.309 114.832 133.882 113.405 132.122 113.405C130.362 113.405 128.935 114.832 128.935 116.591C128.935 118.351 130.362 119.777 132.122 119.777Z" fill="white"/>
<path d="M299.939 313.568H267.944C266.07 313.566 264.273 312.821 262.948 311.496C261.623 310.172 260.878 308.376 260.876 306.502V274.519C260.878 272.646 261.623 270.85 262.948 269.525C264.273 268.2 266.07 267.455 267.944 267.453H299.939C301.813 267.455 303.61 268.2 304.935 269.525C306.26 270.85 307.005 272.646 307.007 274.519V306.502C307.005 308.376 306.26 310.172 304.935 311.496C303.61 312.821 301.813 313.566 299.939 313.568ZM267.944 268.941C266.465 268.942 265.046 269.531 264 270.576C262.954 271.622 262.365 273.04 262.364 274.519V306.502C262.365 307.981 262.954 309.399 264 310.445C265.046 311.491 266.465 312.079 267.944 312.081H299.939C301.418 312.079 302.837 311.491 303.883 310.445C304.929 309.399 305.518 307.981 305.519 306.502V274.519C305.518 273.04 304.929 271.622 303.883 270.576C302.837 269.531 301.418 268.942 299.939 268.941H267.944Z" fill="#CCCCCC"/>
<path d="M293.614 304.643H274.269C273.677 304.642 273.109 304.407 272.691 303.989C272.273 303.571 272.037 303.003 272.036 302.412V278.61C272.037 278.019 272.273 277.452 272.691 277.033C273.109 276.615 273.677 276.38 274.269 276.379H288.286C288.795 276.379 289.288 276.553 289.685 276.871L295.012 281.151C295.273 281.359 295.484 281.624 295.628 281.925C295.773 282.226 295.847 282.556 295.846 282.89V302.412C295.846 303.003 295.61 303.571 295.192 303.989C294.773 304.407 294.206 304.642 293.614 304.643ZM274.269 277.866C274.071 277.867 273.882 277.945 273.743 278.085C273.603 278.224 273.525 278.413 273.525 278.61V302.412C273.525 302.609 273.603 302.798 273.743 302.937C273.882 303.077 274.071 303.155 274.269 303.156H293.614C293.812 303.155 294.001 303.077 294.14 302.937C294.28 302.798 294.358 302.609 294.358 302.412V282.89C294.359 282.779 294.334 282.669 294.286 282.568C294.238 282.468 294.167 282.38 294.08 282.31L288.752 278.03C288.62 277.924 288.456 277.867 288.286 277.866H274.269Z" fill="#CCCCCC"/>
<path d="M289.894 286.791H277.989C277.792 286.791 277.602 286.713 277.463 286.573C277.323 286.434 277.245 286.245 277.245 286.048C277.245 285.85 277.323 285.661 277.463 285.522C277.602 285.382 277.792 285.304 277.989 285.304H289.894C290.091 285.304 290.281 285.382 290.42 285.522C290.56 285.661 290.638 285.85 290.638 286.048C290.638 286.245 290.56 286.434 290.42 286.573C290.281 286.713 290.091 286.791 289.894 286.791Z" fill="#CCCCCC"/>
<path d="M289.894 291.254H277.989C277.792 291.254 277.602 291.176 277.463 291.036C277.323 290.897 277.245 290.708 277.245 290.51C277.245 290.313 277.323 290.124 277.463 289.984C277.602 289.845 277.792 289.767 277.989 289.767H289.894C290.091 289.767 290.281 289.845 290.42 289.984C290.56 290.124 290.638 290.313 290.638 290.51C290.638 290.708 290.56 290.897 290.42 291.036C290.281 291.176 290.091 291.254 289.894 291.254Z" fill="#CCCCCC"/>
<path d="M289.894 295.717H277.989C277.792 295.717 277.602 295.639 277.463 295.499C277.323 295.36 277.245 295.171 277.245 294.973C277.245 294.776 277.323 294.587 277.463 294.447C277.602 294.308 277.792 294.229 277.989 294.229H289.894C290.091 294.229 290.281 294.308 290.42 294.447C290.56 294.587 290.638 294.776 290.638 294.973C290.638 295.171 290.56 295.36 290.42 295.499C290.281 295.639 290.091 295.717 289.894 295.717Z" fill="#CCCCCC"/>
<path d="M375.833 313.568H343.838C341.964 313.566 340.168 312.821 338.843 311.496C337.517 310.172 336.772 308.376 336.77 306.502V274.519C336.772 272.646 337.517 270.85 338.843 269.525C340.168 268.2 341.964 267.455 343.838 267.453H375.833C377.707 267.455 379.504 268.2 380.829 269.525C382.154 270.85 382.9 272.646 382.902 274.519V306.502C382.9 308.376 382.154 310.172 380.829 311.496C379.504 312.821 377.707 313.566 375.833 313.568ZM343.838 268.941C342.359 268.942 340.94 269.531 339.894 270.576C338.848 271.622 338.26 273.04 338.258 274.519V306.502C338.26 307.981 338.848 309.399 339.894 310.445C340.94 311.491 342.359 312.079 343.838 312.081H375.833C377.313 312.079 378.731 311.491 379.777 310.445C380.823 309.399 381.412 307.981 381.414 306.502V274.519C381.412 273.04 380.823 271.622 379.777 270.576C378.731 269.531 377.313 268.942 375.833 268.941H343.838Z" fill="#CCCCCC"/>
<path d="M370.253 298.693H349.419C348.827 298.692 348.26 298.457 347.841 298.038C347.423 297.62 347.187 297.053 347.187 296.461V284.56C347.187 283.969 347.423 283.402 347.841 282.983C348.26 282.565 348.827 282.33 349.419 282.329H370.253C370.844 282.33 371.412 282.565 371.83 282.983C372.249 283.402 372.484 283.969 372.485 284.56V296.461C372.484 297.053 372.249 297.62 371.83 298.038C371.412 298.457 370.844 298.692 370.253 298.693ZM349.419 283.817C349.222 283.817 349.032 283.895 348.893 284.035C348.753 284.174 348.675 284.363 348.675 284.56V296.461C348.675 296.658 348.753 296.847 348.893 296.987C349.032 297.126 349.222 297.205 349.419 297.205H370.253C370.45 297.205 370.639 297.126 370.779 296.987C370.918 296.847 370.996 296.658 370.997 296.461V284.56C370.996 284.363 370.918 284.174 370.779 284.035C370.639 283.895 370.45 283.817 370.253 283.817H349.419Z" fill="#CCCCCC"/>
<path d="M359.836 292.473C359.418 292.474 359.008 292.357 358.653 292.137L347.536 285.191C347.369 285.087 347.251 284.92 347.207 284.728C347.163 284.536 347.196 284.334 347.301 284.167C347.405 284 347.572 283.881 347.764 283.837C347.956 283.792 348.158 283.826 348.325 283.93L359.442 290.875C359.56 290.948 359.697 290.987 359.836 290.987C359.975 290.987 360.112 290.948 360.23 290.875L371.346 283.93C371.514 283.826 371.715 283.792 371.907 283.837C372.1 283.881 372.266 284 372.371 284.167C372.475 284.334 372.509 284.536 372.465 284.728C372.421 284.92 372.302 285.087 372.135 285.191L361.019 292.137C360.664 292.357 360.254 292.474 359.836 292.473Z" fill="#CCCCCC"/>
<path d="M224.045 313.568H192.05C190.176 313.566 188.379 312.821 187.054 311.496C185.729 310.172 184.983 308.376 184.981 306.502V274.519C184.983 272.646 185.729 270.85 187.054 269.525C188.379 268.2 190.176 267.455 192.05 267.453H224.045C225.919 267.455 227.715 268.2 229.04 269.525C230.366 270.85 231.111 272.646 231.113 274.519V306.502C231.111 308.376 230.366 310.172 229.04 311.496C227.715 312.821 225.919 313.566 224.045 313.568ZM192.05 268.941C190.57 268.942 189.152 269.531 188.106 270.576C187.06 271.622 186.471 273.04 186.469 274.519V306.502C186.471 307.981 187.06 309.399 188.106 310.445C189.152 311.491 190.57 312.079 192.05 312.081H224.045C225.524 312.079 226.943 311.491 227.989 310.445C229.035 309.399 229.623 307.981 229.625 306.502V274.519C229.623 273.04 229.035 271.622 227.989 270.576C226.943 269.531 225.524 268.942 224.045 268.941H192.05Z" fill="#CCCCCC"/>
<path d="M218.464 298.693H197.63C197.039 298.692 196.471 298.457 196.053 298.038C195.634 297.62 195.399 297.053 195.398 296.461V284.56C195.399 283.969 195.634 283.402 196.053 282.983C196.471 282.565 197.039 282.33 197.63 282.329H218.464C219.056 282.33 219.623 282.565 220.042 282.983C220.46 283.402 220.696 283.969 220.696 284.56V296.461C220.696 297.053 220.46 297.62 220.042 298.038C219.623 298.457 219.056 298.692 218.464 298.693ZM197.63 283.817C197.433 283.817 197.244 283.895 197.104 284.035C196.965 284.174 196.887 284.363 196.886 284.56V296.461C196.887 296.658 196.965 296.847 197.104 296.987C197.244 297.126 197.433 297.205 197.63 297.205H218.464C218.661 297.205 218.851 297.126 218.99 296.987C219.13 296.847 219.208 296.658 219.208 296.461V284.56C219.208 284.363 219.13 284.174 218.99 284.035C218.851 283.895 218.661 283.817 218.464 283.817H197.63Z" fill="#CCCCCC"/>
<path d="M215.162 298.692H200.188C199.927 298.692 199.671 298.624 199.444 298.493C199.218 298.363 199.03 298.175 198.899 297.949C198.769 297.722 198.7 297.466 198.7 297.205C198.7 296.944 198.769 296.687 198.9 296.461L203.41 288.651C203.541 288.425 203.728 288.237 203.955 288.107C204.181 287.976 204.438 287.907 204.699 287.907C204.96 287.907 205.217 287.976 205.443 288.107C205.669 288.237 205.857 288.425 205.988 288.651L208.901 293.695L210.588 290.773C210.719 290.547 210.907 290.359 211.133 290.228C211.359 290.098 211.616 290.029 211.877 290.029C212.138 290.029 212.395 290.098 212.621 290.228C212.847 290.359 213.035 290.547 213.166 290.773L216.451 296.461C216.582 296.687 216.65 296.944 216.65 297.205C216.65 297.466 216.581 297.722 216.451 297.949C216.32 298.175 216.132 298.363 215.906 298.493C215.68 298.624 215.423 298.692 215.162 298.692H215.162ZM215.162 297.205L211.877 291.517L209.545 295.554C209.48 295.667 209.386 295.761 209.273 295.827C209.16 295.892 209.031 295.926 208.901 295.926C208.77 295.926 208.642 295.892 208.529 295.827C208.415 295.761 208.321 295.667 208.256 295.554L204.699 289.395L200.188 297.205H215.162Z" fill="#CCCCCC"/>
<path d="M216.232 288.279C217.054 288.279 217.72 287.613 217.72 286.791C217.72 285.97 217.054 285.304 216.232 285.304C215.41 285.304 214.744 285.97 214.744 286.791C214.744 287.613 215.41 288.279 216.232 288.279Z" fill="#CCCCCC"/>
<path d="M572.053 482.09L562.931 482.09L558.591 446.917L572.055 446.918L572.053 482.09Z" fill="#FFB8B8"/>
<path d="M574.379 490.929L544.966 490.928V490.557C544.966 489.054 545.262 487.565 545.838 486.177C546.413 484.788 547.256 483.527 548.319 482.464C549.382 481.401 550.644 480.558 552.033 479.983C553.422 479.408 554.911 479.112 556.415 479.112H556.415L574.38 479.113L574.379 490.929Z" fill="#2F2E41"/>
<path d="M609.256 482.09L600.134 482.09L595.795 446.917L609.258 446.918L609.256 482.09Z" fill="#FFB8B8"/>
<path d="M611.582 490.929L582.169 490.928V490.557C582.169 489.054 582.465 487.565 583.041 486.177C583.616 484.788 584.459 483.527 585.522 482.464C586.585 481.401 587.848 480.558 589.237 479.983C590.626 479.408 592.114 479.112 593.618 479.112H593.618L611.583 479.113L611.582 490.929Z" fill="#2F2E41"/>
<path d="M606.522 466.843L598.073 464.274C597.443 464.083 596.884 463.711 596.465 463.204C596.046 462.696 595.786 462.077 595.718 461.423L587.841 386.801C587.835 386.71 587.795 386.626 587.729 386.564C587.662 386.502 587.575 386.468 587.485 386.468C587.394 386.459 587.304 386.486 587.233 386.543C587.162 386.6 587.116 386.682 587.105 386.772L573.912 459.069C573.832 459.507 573.665 459.925 573.421 460.299C573.177 460.672 572.861 460.993 572.491 461.242C572.121 461.492 571.705 461.665 571.268 461.751C570.83 461.838 570.38 461.836 569.943 461.746L559.145 459.523C558.353 459.357 557.648 458.911 557.158 458.268C556.669 457.624 556.428 456.825 556.48 456.018L564.505 337.522L618.924 331.652L610.838 463.844C610.786 464.694 610.412 465.492 609.792 466.076C609.172 466.66 608.353 466.987 607.501 466.989C607.169 466.989 606.839 466.94 606.522 466.843Z" fill="#2F2E41"/>
<path d="M606.47 234.331C616.563 234.331 624.745 226.152 624.745 216.062C624.745 205.973 616.563 197.794 606.47 197.794C596.377 197.794 588.195 205.973 588.195 216.062C588.195 226.152 596.377 234.331 606.47 234.331Z" fill="#FFB8B8"/>
<path d="M564.422 338.219L576.221 263.95C576.848 260.001 578.31 256.231 580.508 252.891C582.707 249.551 585.591 246.717 588.97 244.578C592.35 242.439 596.146 241.043 600.106 240.485C604.067 239.927 608.101 240.218 611.94 241.339C618.652 243.28 624.4 247.652 628.06 253.603C631.72 259.553 633.03 266.653 631.733 273.517L619.388 339.843L564.422 338.219Z" fill="#00337B"/>
<path d="M611.515 351.506C612.428 350.904 613.197 350.109 613.769 349.177C614.341 348.245 614.702 347.199 614.826 346.112C614.95 345.026 614.834 343.926 614.487 342.889C614.139 341.852 613.568 340.904 612.815 340.112L625.015 316.495L611.276 317.961L601.797 340.163C600.549 341.517 599.841 343.281 599.808 345.122C599.774 346.962 600.418 348.751 601.615 350.15C602.813 351.548 604.483 352.458 606.307 352.708C608.132 352.958 609.985 352.531 611.515 351.507V351.506Z" fill="#FFB8B8"/>
<path d="M614.127 335.946C613.452 335.851 612.823 335.552 612.322 335.09L607.654 330.778C607.15 330.31 606.802 329.699 606.656 329.026C606.511 328.354 606.576 327.653 606.842 327.019L616.17 304.915L614.847 261.239C615.037 259.835 615.503 258.483 616.216 257.258C616.93 256.034 617.877 254.963 619.006 254.105C620.134 253.247 621.42 252.62 622.79 252.259C624.161 251.899 625.589 251.812 626.994 252.003C628.398 252.195 629.751 252.661 630.975 253.375C632.199 254.09 633.27 255.038 634.127 256.167C634.984 257.295 635.61 258.582 635.969 259.952C636.329 261.322 636.415 262.75 636.222 264.154L638.484 291.609C639.172 299.942 636.809 308.241 631.834 314.962L617.286 334.622C617.006 335 616.65 335.315 616.24 335.546C615.831 335.777 615.377 335.919 614.909 335.964C614.649 335.989 614.386 335.983 614.127 335.946Z" fill="#00337B"/>
<path d="M501.23 206.11C501.429 207.185 501.862 208.203 502.497 209.093C503.133 209.983 503.956 210.723 504.908 211.261C505.861 211.798 506.92 212.121 508.01 212.205C509.101 212.29 510.196 212.134 511.22 211.749L528.219 232.187L532.226 218.969L515.469 201.587C514.708 199.91 513.359 198.571 511.676 197.822C509.994 197.074 508.095 196.968 506.34 197.526C504.585 198.083 503.095 199.265 502.154 200.847C501.212 202.429 500.883 204.302 501.23 206.11Z" fill="#FFB8B8"/>
<path d="M514.546 214.581C514.897 213.997 515.417 213.534 516.038 213.253L521.83 210.637C522.458 210.356 523.157 210.273 523.833 210.402C524.509 210.53 525.129 210.863 525.61 211.355L542.335 228.561L583.084 244.371C584.304 245.094 585.369 246.049 586.219 247.183C587.068 248.318 587.686 249.608 588.037 250.981C588.387 252.354 588.464 253.783 588.262 255.185C588.059 256.588 587.583 257.937 586.859 259.155C586.135 260.373 585.178 261.437 584.042 262.285C582.906 263.133 581.615 263.749 580.241 264.098C578.867 264.447 577.438 264.522 576.035 264.318C574.632 264.114 573.283 263.636 572.065 262.911L545.892 254.289C537.948 251.674 531.224 246.263 526.972 239.062L514.534 218.005C514.295 217.6 514.144 217.15 514.09 216.682C514.037 216.215 514.083 215.742 514.225 215.294C514.303 215.044 514.411 214.805 514.546 214.581Z" fill="#00337B"/>
<path opacity="0.1" d="M621.293 279.408L620.549 303.21L606.842 327.019L618.287 300.486L621.293 279.408Z" fill="black"/>
<path d="M604.376 219.496C603.228 219.645 602.065 219.372 601.103 218.729C600.141 218.086 599.445 217.115 599.145 215.998C598.855 214.712 598.221 213.529 597.31 212.576C596.399 211.623 595.245 210.936 593.973 210.588C590.621 209.822 586.524 211.4 584.067 208.861C583.541 208.281 583.161 207.585 582.957 206.829C582.753 206.074 582.732 205.28 582.895 204.515C583.347 202.048 585.113 200.184 587.034 198.693C591.078 195.57 595.971 193.742 601.072 193.449C603.712 193.372 606.355 193.504 608.974 193.842C611.717 194.015 614.431 194.511 617.058 195.319C620.05 196.448 622.71 198.312 624.791 200.741C626.872 203.169 628.307 206.083 628.964 209.213C629.564 212.352 629.472 215.584 628.694 218.684C627.915 221.784 626.469 224.677 624.457 227.161C622.048 230.16 618.942 232.524 615.409 234.047C614.567 234.445 613.603 234.493 612.726 234.183C610.525 233.309 610.885 230.584 611.888 228.767C612.962 226.822 614.614 224.939 613.75 222.572C613.318 221.474 612.487 220.58 611.424 220.068C609.236 218.953 606.789 219.217 604.438 219.488L604.376 219.496Z" fill="#2F2E41"/>
<path d="M495.123 229.812H268.929C265.674 229.808 262.553 228.514 260.251 226.213C257.95 223.912 256.655 220.793 256.652 217.539V169.193C256.655 165.939 257.95 162.819 260.251 160.519C262.553 158.218 265.674 156.924 268.929 156.92H495.123C498.378 156.924 501.499 158.218 503.8 160.519C506.102 162.819 507.397 165.939 507.4 169.193V217.539C507.397 220.793 506.102 223.912 503.8 226.213C501.499 228.514 498.378 229.808 495.123 229.812Z" fill="white"/>
<path d="M495.123 230.185H268.928C265.575 230.181 262.36 228.847 259.988 226.477C257.617 224.106 256.283 220.892 256.279 217.54V169.193C256.283 165.841 257.617 162.627 259.988 160.256C262.36 157.886 265.575 156.553 268.928 156.549H495.123C498.477 156.553 501.692 157.886 504.063 160.256C506.435 162.627 507.768 165.841 507.772 169.193V217.54C507.768 220.892 506.435 224.106 504.063 226.477C501.692 228.847 498.477 230.181 495.123 230.185ZM268.928 158.036C265.969 158.04 263.133 159.216 261.04 161.308C258.948 163.4 257.771 166.235 257.768 169.193V217.54C257.771 220.498 258.948 223.334 261.04 225.425C263.133 227.517 265.969 228.694 268.928 228.697H495.123C498.082 228.694 500.919 227.517 503.011 225.425C505.104 223.334 506.281 220.498 506.284 217.54V169.193C506.281 166.235 505.104 163.4 503.011 161.308C500.919 159.216 498.082 158.04 495.123 158.036H268.928Z" fill="#3F3D56"/>
<path d="M467.593 217.911H296.459C293.204 217.908 290.083 216.614 287.782 214.313C285.48 212.012 284.185 208.893 284.182 205.639V180.35C284.185 177.096 285.48 173.977 287.782 171.676C290.083 169.375 293.204 168.081 296.459 168.077H467.593C470.848 168.081 473.968 169.375 476.27 171.676C478.572 173.977 479.866 177.096 479.87 180.35V205.639C479.866 208.893 478.572 212.012 476.27 214.313C473.968 216.614 470.848 217.908 467.593 217.911Z" fill="#F2F2F2"/>
<path d="M333.286 204.281C341.395 204.281 347.968 197.71 347.968 189.605C347.968 181.499 341.395 174.928 333.286 174.928C325.177 174.928 318.604 181.499 318.604 189.605C318.604 197.71 325.177 204.281 333.286 204.281Z" fill="#FF6584"/>
<path d="M456.958 216.43L436.234 199.056L415.868 181.981C415.33 181.53 414.651 181.284 413.949 181.285C413.248 181.287 412.57 181.536 412.034 181.988L391.733 199.141L386.775 203.331L379.298 197.063L356.577 178.014C356.04 177.563 355.36 177.317 354.659 177.318C353.957 177.32 353.279 177.569 352.743 178.021L330.095 197.158L307.091 216.596C306.975 216.694 306.891 216.826 306.852 216.974C306.813 217.121 306.821 217.277 306.873 217.42C306.926 217.563 307.021 217.687 307.146 217.774C307.271 217.861 307.42 217.908 307.573 217.908L354.737 217.817L369.666 217.788L369.52 217.912L414.02 217.826L456.481 217.744C456.634 217.744 456.783 217.697 456.908 217.609C457.033 217.521 457.127 217.397 457.179 217.254C457.232 217.111 457.238 216.955 457.199 216.807C457.159 216.66 457.075 216.528 456.958 216.43Z" fill="#3F3D56"/>
<path d="M651.256 492H508.396C508.199 492 508.009 491.922 507.87 491.782C507.73 491.643 507.652 491.454 507.652 491.256C507.652 491.059 507.73 490.87 507.87 490.731C508.009 490.591 508.199 490.513 508.396 490.513H651.256C651.453 490.513 651.642 490.591 651.782 490.731C651.922 490.87 652 491.059 652 491.256C652 491.454 651.922 491.643 651.782 491.782C651.642 491.922 651.453 492 651.256 492Z" fill="#CCCCCC"/>
<path d="M449.455 98.1159C448.861 97.1506 448.076 96.3163 447.148 95.6642C446.221 95.012 445.17 94.5555 444.061 94.3225C443.654 94.2371 443.241 94.1849 442.826 94.1663L386.135 43.499C385.022 42.3549 383.536 41.6455 381.946 41.4982C381.633 41.4622 381.317 41.4523 381.001 41.4685C379.693 41.5279 378.431 41.967 377.369 42.7321C376.306 43.4972 375.49 44.5552 375.02 45.7766C374.549 46.9981 374.445 48.3301 374.72 49.6098C374.994 50.8895 375.636 52.0615 376.567 52.9824L398.271 71.8971L433.911 102.951C433.941 103.535 434.028 104.116 434.172 104.684C434.598 106.328 435.515 107.804 436.8 108.916C438.085 110.028 439.678 110.723 441.367 110.909C442.908 111.089 444.468 110.831 445.869 110.165C446.979 109.646 447.964 108.892 448.756 107.956C448.837 107.86 448.912 107.77 448.986 107.666C450.027 106.311 450.629 104.671 450.713 102.964C450.796 101.258 450.358 99.5665 449.455 98.1159H449.455Z" fill="#FFB8B8"/>
<path d="M352.489 146.946L351.961 125.48L351.514 107.666L351.209 95.2003L350.606 70.9006C350.487 69.5996 349.991 68.3614 349.18 67.3372C348.369 66.313 347.277 65.5471 346.037 65.133C344.797 64.7189 343.464 64.6746 342.2 65.0053C340.935 65.3361 339.795 66.0277 338.917 66.9957C338.71 67.2168 338.524 67.4558 338.359 67.7097C337.443 69.0212 337.031 70.6189 337.198 72.2096L338.523 107.666L339.185 125.48L340.033 148.203C339.788 148.537 339.567 148.887 339.371 149.252C338.842 150.255 338.522 151.355 338.431 152.485C338.341 153.616 338.481 154.753 338.843 155.827C339.221 156.954 339.833 157.988 340.64 158.861C341.447 159.734 342.43 160.426 343.523 160.892C344.617 161.358 345.797 161.587 346.986 161.564C348.175 161.541 349.345 161.266 350.42 160.758C351.669 160.168 352.753 159.28 353.576 158.172C354.4 157.063 354.937 155.769 355.142 154.404C355.346 153.039 355.211 151.644 354.749 150.343C354.286 149.043 353.51 147.876 352.489 146.946H352.489Z" fill="#FFB8B8"/>
<path d="M403.532 86.1405L398.271 71.8968L389.759 48.8243C389.145 47.1455 388.16 45.6266 386.879 44.3802C385.597 43.1338 384.051 42.1918 382.355 41.6243C382.222 41.5797 382.08 41.5351 381.946 41.4979C380.304 40.9995 378.573 40.8624 376.872 41.0961C375.172 41.3298 373.542 41.9286 372.095 42.8516L343.426 61.0299C340.801 62.6909 338.924 65.3071 338.192 68.3258C337.46 71.3445 337.931 74.5293 339.505 77.2074C343.09 83.4046 346.997 89.4102 351.209 95.1998C354.55 99.7444 360.77 100.228 361.849 107.666H382.988L404.387 88.4611L403.532 86.1405Z" fill="#CCCCCC"/>
<path d="M75.2727 260.22C84.7947 260.22 92.5139 252.504 92.5139 242.985C92.5139 233.466 84.7947 225.75 75.2727 225.75C65.7507 225.75 58.0316 233.466 58.0316 242.985C58.0316 252.504 65.7507 260.22 75.2727 260.22Z" fill="#A0616A"/>
<path d="M117.6 231.121C117.77 231.256 117.934 231.4 118.094 231.551C118.886 232.297 119.511 233.202 119.929 234.206C120.347 235.21 120.548 236.291 120.519 237.379C120.489 238.466 120.231 239.535 119.759 240.515C119.288 241.496 118.615 242.366 117.784 243.068C117.59 243.23 117.388 243.382 117.178 243.524L118.345 282.904C118.378 284.193 117.995 285.459 117.251 286.513C116.508 287.567 115.445 288.353 114.219 288.755L114.148 288.771L82.1618 292.176C81.2922 292.268 80.4128 292.188 79.5746 291.938C78.7363 291.689 77.9558 291.277 77.278 290.724C76.6002 290.172 76.0385 289.491 75.6255 288.72C75.2125 287.95 74.9562 287.105 74.8716 286.235C74.787 285.365 74.8756 284.486 75.1324 283.651C75.3892 282.815 75.8091 282.039 76.3678 281.366C76.9264 280.693 77.6128 280.138 78.3874 279.732C79.1619 279.326 80.0092 279.078 80.8804 279.001L103.682 276.994L107.625 242.89C107.367 242.662 107.125 242.416 106.902 242.154C105.666 240.691 105.017 238.821 105.083 236.907C105.148 234.993 105.922 233.172 107.256 231.797C108.589 230.422 110.386 229.592 112.298 229.467C114.209 229.342 116.099 229.931 117.6 231.121H117.6Z" fill="#A0616A"/>
<path d="M103.669 482.852H112.275L116.369 449.669H103.667L103.669 482.852Z" fill="#A0616A"/>
<path d="M101.474 480.044L118.422 480.043H118.423C119.841 480.043 121.246 480.322 122.556 480.865C123.866 481.407 125.057 482.203 126.06 483.205C127.063 484.208 127.859 485.398 128.401 486.708C128.944 488.018 129.224 489.422 129.224 490.84V491.191L101.474 491.192L101.474 480.044Z" fill="#2F2E41"/>
<path d="M18.1298 470.957L25.5243 475.358L46.0254 448.941L35.1115 442.445L18.1298 470.957Z" fill="#A0616A"/>
<path d="M17.6811 467.422L32.2436 476.089L32.2442 476.09C33.4629 476.815 34.5267 477.773 35.375 478.91C36.2232 480.046 36.8392 481.338 37.1879 482.713C37.5365 484.087 37.6109 485.517 37.4068 486.92C37.2028 488.323 36.7242 489.672 35.9986 490.89L35.819 491.192L11.9759 477.001L17.6811 467.422Z" fill="#2F2E41"/>
<path d="M114.306 471.132H104.669C103.888 471.134 103.135 470.846 102.555 470.324C101.975 469.802 101.609 469.084 101.528 468.308L91.8124 377.017C91.7879 376.787 91.6884 376.572 91.5293 376.404C91.3702 376.236 91.1604 376.126 90.9321 376.089C90.7038 376.053 90.4699 376.092 90.2663 376.201C90.0627 376.311 89.9008 376.484 89.8055 376.695L72.2789 415.49L41.2488 466.07C40.8472 466.719 40.2254 467.201 39.4973 467.428C38.7691 467.656 37.9833 467.614 37.2838 467.309L24.8876 461.857C24.4777 461.677 24.1109 461.411 23.8114 461.079C23.5119 460.746 23.2866 460.353 23.1505 459.927C23.0144 459.5 22.9705 459.049 23.0218 458.605C23.0731 458.16 23.2183 457.731 23.448 457.347L51.9731 409.601L60.7215 369.373C57.97 351.927 69.7656 325.99 69.8852 325.73L69.9437 325.603L102.435 312.908L102.598 313.108C115.412 355.142 123.22 400.379 117.454 468.239C117.383 469.026 117.021 469.759 116.439 470.294C115.857 470.829 115.096 471.128 114.306 471.132Z" fill="#2F2E41"/>
<path d="M68.6346 329.853L68.4833 329.535C68.411 329.383 61.1863 314.151 55.617 297.871C54.5467 294.722 54.142 291.386 54.4288 288.074C54.7155 284.761 55.6873 281.544 57.2826 278.626C58.8987 275.678 61.1097 273.098 63.7754 271.049C66.4411 269 69.5035 267.526 72.7685 266.722C78.4368 265.364 84.4045 266.087 89.5844 268.758C94.7643 271.43 98.8116 275.873 100.989 281.278C105.407 292.321 103.999 304.109 102.674 313.378L102.647 313.564L102.479 313.645L68.6346 329.853Z" fill="#3F3D56"/>
<path d="M96.1771 233.249H68.8002V221.32C74.8091 218.934 80.6892 216.904 84.2436 221.32C87.4085 221.32 90.4438 222.577 92.6818 224.814C94.9198 227.051 96.1771 230.086 96.1771 233.249V233.249Z" fill="#2F2E41"/>
<path d="M67.2845 219.215C50.9181 219.215 46.3371 239.722 46.3371 251.291C46.3371 257.743 49.2561 260.051 53.8429 260.832L55.4627 252.196L59.2567 261.204C60.5452 261.21 61.8987 261.185 63.302 261.159L64.5884 258.511L67.4569 261.111C78.9459 261.129 88.2316 262.803 88.2316 251.291C88.2316 239.722 84.2141 219.215 67.2845 219.215Z" fill="#2F2E41"/>
<path d="M143.604 492H0.744061C0.546724 492 0.357469 491.922 0.21793 491.782C0.0783914 491.643 0 491.454 0 491.256C0 491.059 0.0783914 490.87 0.21793 490.731C0.357469 490.591 0.546724 490.513 0.744061 490.513H143.604C143.801 490.513 143.99 490.591 144.13 490.731C144.27 490.87 144.348 491.059 144.348 491.256C144.348 491.454 144.27 491.643 144.13 491.782C143.99 491.922 143.801 492 143.604 492Z" fill="#CCCCCC"/>
<path d="M146.29 247.291H114.295C112.421 247.289 110.625 246.544 109.3 245.219C107.974 243.894 107.229 242.098 107.227 240.225V208.242C107.229 206.368 107.974 204.572 109.3 203.248C110.625 201.923 112.421 201.178 114.295 201.176H146.29C148.164 201.178 149.961 201.923 151.286 203.248C152.611 204.572 153.357 206.368 153.359 208.242V240.225C153.357 242.098 152.611 243.894 151.286 245.219C149.961 246.544 148.164 247.289 146.29 247.291Z" fill="white"/>
<path d="M146.29 247.291H114.295C112.421 247.289 110.625 246.544 109.3 245.219C107.974 243.894 107.229 242.098 107.227 240.225V208.242C107.229 206.368 107.974 204.572 109.3 203.248C110.625 201.923 112.421 201.178 114.295 201.176H146.29C148.164 201.178 149.961 201.923 151.286 203.248C152.611 204.572 153.357 206.368 153.359 208.242V240.225C153.357 242.098 152.611 243.894 151.286 245.219C149.961 246.544 148.164 247.289 146.29 247.291ZM114.295 202.663C112.816 202.665 111.397 203.253 110.351 204.299C109.305 205.345 108.717 206.763 108.715 208.242V240.225C108.717 241.704 109.305 243.122 110.351 244.168C111.397 245.214 112.816 245.802 114.295 245.803H146.29C147.77 245.802 149.188 245.214 150.234 244.168C151.28 243.122 151.869 241.704 151.871 240.225V208.242C151.869 206.763 151.28 205.345 150.234 204.299C149.188 203.253 147.77 202.665 146.29 202.663H114.295Z" fill="#3F3D56"/>
<path d="M140.71 234.275H119.876C119.284 234.274 118.717 234.039 118.298 233.621C117.88 233.202 117.644 232.635 117.644 232.043V216.424C117.644 215.832 117.88 215.265 118.298 214.847C118.717 214.428 119.284 214.193 119.876 214.192H125.741C126.122 214.191 126.498 214.288 126.831 214.474C127.164 214.66 127.443 214.929 127.642 215.254L129.278 217.911H140.71C141.301 217.912 141.869 218.147 142.287 218.566C142.706 218.984 142.941 219.551 142.942 220.143V232.043C142.941 232.635 142.706 233.202 142.287 233.621C141.869 234.039 141.301 234.274 140.71 234.275Z" fill="#00337B"/>
<path d="M140.032 242.166C140.136 242.357 140.232 242.553 140.32 242.754C140.761 243.749 140.986 244.825 140.981 245.913C140.977 247.001 140.742 248.075 140.293 249.066C139.844 250.057 139.19 250.941 138.375 251.662C137.56 252.383 136.602 252.923 135.564 253.248C135.322 253.323 135.077 253.384 134.829 253.433L120.618 290.181C120.148 291.382 119.303 292.399 118.209 293.082C117.115 293.766 115.829 294.078 114.544 293.973L114.472 293.96L83.6705 284.69C82.833 284.438 82.0539 284.023 81.3779 283.468C80.702 282.913 80.1427 282.23 79.7323 281.458C79.322 280.686 79.0687 279.84 78.9871 278.97C78.9055 278.099 78.9973 277.221 79.2571 276.387C79.5169 275.552 79.9395 274.777 80.5006 274.106C81.0617 273.436 81.7502 272.883 82.5263 272.48C83.3023 272.076 84.1506 271.831 85.0221 271.757C85.8935 271.684 86.771 271.784 87.6037 272.051L109.397 279.045L126.27 249.144C126.121 248.833 125.994 248.513 125.89 248.184C125.318 246.357 125.446 244.382 126.25 242.644C127.053 240.905 128.474 239.527 130.236 238.777C131.999 238.027 133.977 237.958 135.787 238.585C137.598 239.211 139.11 240.487 140.032 242.166H140.032Z" fill="#A0616A"/>
</svg>
