<svg id="Layer_1" data-name="Layer 1" xmlns="http://www.w3.org/2000/svg" viewBox="0 0 24 24"><defs><style>.cls-1{fill:#0066f5;}.cls-2{fill:#fff;}</style></defs><title>Fav Icon</title><rect class="cls-1" x="0.5" y="0.5" width="23" height="23" rx="5.26"/><path class="cls-2" d="M13.65,16.09h3v0A5.08,5.08,0,0,1,16,18.75a4.41,4.41,0,0,1-1.83,1.75,5.41,5.41,0,0,1-2.59.61A5.33,5.33,0,0,1,9,20.5a4.41,4.41,0,0,1-1.79-1.74,5.18,5.18,0,0,1-.65-2.65v0h3v0a2.59,2.59,0,0,0,.56,1.79,1.85,1.85,0,0,0,1.42.63,2,2,0,0,0,1.46-.63,2.47,2.47,0,0,0,.6-1.79Z"/><path class="cls-2" d="M17.42,5.26a2.23,2.23,0,0,0-.72-1.69,2.53,2.53,0,0,0-1.83-.68A2.57,2.57,0,0,0,13,3.57a2.23,2.23,0,0,0-.72,1.69v.1c-.21,0-.43,0-.65,0a5.37,5.37,0,0,0-2.58.61A4.42,4.42,0,0,0,7.25,7.69a5.08,5.08,0,0,0-.67,2.64A5.19,5.19,0,0,0,7.24,13,4.41,4.41,0,0,0,9,14.72a5.33,5.33,0,0,0,2.57.61,5.41,5.41,0,0,0,2.59-.61A4.53,4.53,0,0,0,16,13a5.08,5.08,0,0,0,.67-2.64A5.17,5.17,0,0,0,16,7.69a2.26,2.26,0,0,0-.16-.26,2.3,2.3,0,0,0,.83-.51A2.18,2.18,0,0,0,17.42,5.26Zm-4.36,6.87a2,2,0,0,1-1.46.62,1.86,1.86,0,0,1-1.42-.62,2.59,2.59,0,0,1-.57-1.8,2.56,2.56,0,0,1,.58-1.8,1.87,1.87,0,0,1,1.45-.62,1.91,1.91,0,0,1,1.44.62,2.59,2.59,0,0,1,.58,1.8A2.51,2.51,0,0,1,13.06,12.13Z"/></svg>