<svg width="83" height="83" viewBox="0 0 83 83" fill="none" xmlns="http://www.w3.org/2000/svg">
<path d="M66.1854 0.770508H16.8146C7.95388 0.770508 0.770844 7.95354 0.770844 16.8143V66.1851C0.770844 75.0458 7.95388 82.2288 16.8146 82.2288H66.1854C75.0461 82.2288 82.2292 75.0458 82.2292 66.1851V16.8143C82.2292 7.95354 75.0461 0.770508 66.1854 0.770508Z" fill="white"/>
<path d="M47.3438 55.9854H57.9687C58.0782 59.2771 57.2819 62.5358 55.6667 65.4062C54.1586 68.0613 51.9052 70.2161 49.1854 71.6041C46.3553 73.0767 43.2023 73.8193 40.0125 73.7645C36.8333 73.8255 33.6903 73.0823 30.875 71.6041C28.2124 70.2034 26.011 68.0635 24.5354 65.4416C22.9431 62.5751 22.1481 59.3342 22.2333 56.0562V56.0562H32.8583C32.7042 58.343 33.4118 60.6046 34.8417 62.3958C35.4681 63.1101 36.2423 63.6796 37.1107 64.0649C37.9791 64.4501 38.9209 64.642 39.8708 64.627C40.8395 64.6284 41.7981 64.4311 42.6875 64.0474C43.5769 63.6636 44.3781 63.1015 45.0417 62.3958C46.5615 60.6473 47.3257 58.3674 47.1667 56.0562L47.3438 55.9854Z" fill="#0066F5"/>
<path d="M60.6958 17.6292C60.7203 16.5076 60.5055 15.3937 60.0658 14.3617C59.6261 13.3296 58.9716 12.4031 58.1458 11.6437C57.2789 10.8331 56.2595 10.2027 55.1469 9.78926C54.0342 9.37582 52.8506 9.18757 51.6646 9.23542C50.456 9.17647 49.2478 9.35909 48.1106 9.77261C46.9734 10.1861 45.9301 10.8222 45.0417 11.6437C44.2159 12.4031 43.5614 13.3296 43.1217 14.3617C42.682 15.3937 42.4673 16.5076 42.4917 17.6292V17.9833C41.7479 17.9833 40.9688 17.9833 40.1896 17.9833C37.0111 17.9285 33.8695 18.6713 31.0521 20.1437C28.3873 21.5215 26.1745 23.636 24.6771 26.2354C23.0498 29.078 22.2293 32.3109 22.3042 35.5854C22.2188 38.8904 23.0263 42.1571 24.6417 45.0417C26.0993 47.6226 28.2613 49.7354 30.875 51.1333C33.6797 52.6058 36.8099 53.3487 39.9771 53.2937C43.1669 53.3485 46.3199 52.6059 49.15 51.1333C51.8544 49.7596 54.114 47.6474 55.6667 45.0417C57.294 42.1991 58.1145 38.9662 58.0396 35.6917C58.1177 32.3831 57.2977 29.1151 55.6667 26.2354C55.4988 25.916 55.3094 25.6084 55.1 25.3146C56.1976 24.9293 57.1999 24.3134 58.0396 23.5083C58.8801 22.7779 59.5527 21.8743 60.0112 20.8595C60.4697 19.8447 60.7033 18.7427 60.6958 17.6292V17.6292ZM45.2542 41.9604C44.5876 42.6597 43.785 43.2152 42.8958 43.5929C42.0065 43.9705 41.0494 44.1622 40.0833 44.1562C39.1365 44.1732 38.1971 43.9859 37.3292 43.6069C36.4613 43.228 35.6854 42.6664 35.0542 41.9604C33.6031 40.1651 32.8822 37.8887 33.0354 35.5854C32.8814 33.2761 33.6163 30.9953 35.0896 29.2104C35.734 28.4925 36.5275 27.924 37.4145 27.5447C38.3015 27.1654 39.2607 26.9845 40.225 27.0146C41.1821 26.9989 42.1315 27.1866 43.0107 27.5651C43.8898 27.9436 44.6787 28.5044 45.325 29.2104C46.7888 31.0005 47.5225 33.2775 47.3792 35.5854C47.5322 37.9066 46.7693 40.1953 45.2542 41.9604V41.9604Z" fill="#0066F5"/>
</svg>
