<svg width="160" height="33" viewBox="0 0 160 33" fill="none" xmlns="http://www.w3.org/2000/svg">
<path d="M114.637 23.7998H120.051C120.086 25.4656 119.673 27.1101 118.854 28.5614C118.085 29.8997 116.95 30.9917 115.584 31.7102C114.158 32.4531 112.571 32.8313 110.963 32.811C109.364 32.8343 107.784 32.4558 106.368 31.7102C105.026 30.9893 103.916 29.9017 103.168 28.5742C102.362 27.1143 101.958 25.4668 101.997 23.7998H107.411C107.334 24.9655 107.695 26.118 108.422 27.0318C108.738 27.3987 109.132 27.6907 109.575 27.8866C110.018 28.0825 110.498 28.1775 110.982 28.1646C111.471 28.1706 111.955 28.0727 112.403 27.8774C112.851 27.6821 113.253 27.3939 113.581 27.0318C114.344 26.1351 114.723 24.974 114.637 23.7998Z" fill="#0044A3"/>
<path d="M32.4288 5.47676C31.0488 4.75113 29.5078 4.3857 27.9488 4.41436C26.3552 4.38344 24.7801 4.76015 23.3728 5.50876C22.0552 6.23067 20.9782 7.32324 20.2752 8.65116C19.5114 10.1222 19.1306 11.762 19.168 13.4192C19.1309 15.0778 19.5163 16.7186 20.288 18.1872C21.0033 19.5124 22.0855 20.6035 23.4048 21.3296C24.8011 22.0766 26.3656 22.4534 27.9488 22.424C29.2704 22.4462 30.5809 22.1798 31.7888 21.6432C32.8891 21.1461 33.8628 20.4065 34.6368 19.48C35.3856 18.5735 35.9214 17.5106 36.2048 16.3696H30.528C30.2962 16.9008 29.905 17.3469 29.4085 17.6462C28.9121 17.9454 28.3349 18.083 27.7568 18.04C26.9211 18.0618 26.1109 17.751 25.504 17.176C24.848 16.5087 24.4725 15.6155 24.4544 14.68H36.48C36.5426 14.1596 36.5746 13.636 36.576 13.112C36.6111 11.5041 36.2297 9.91448 35.4688 8.49756C34.7627 7.22256 33.7083 6.17483 32.4288 5.47676ZM24.4864 11.7232C24.5721 10.8694 24.9684 10.0768 25.6 9.49596C26.2569 8.98398 27.0672 8.70862 27.9 8.71443C28.7328 8.72023 29.5392 9.00687 30.1888 9.52796C30.499 9.80059 30.7439 10.1394 30.9057 10.5193C31.0674 10.8992 31.1417 11.3106 31.1232 11.7232H24.4864Z" fill="#0044A3"/>
<path d="M47.0592 5.30407C48.0038 4.7507 49.0813 4.46527 50.176 4.47847V10.1553H48.7104C47.6453 10.0715 46.5852 10.3711 45.7216 11.0001C45.056 11.5761 44.7232 12.5851 44.7232 14.0273V22.1553H39.4048V4.66407H44.7232V7.58247C45.314 6.65158 46.1138 5.87142 47.0592 5.30407Z" fill="#0044A3"/>
<path d="M80.0448 6.44975C81.3248 7.76815 81.9648 9.59855 81.9648 11.9474V22.1874H76.672V12.6642C76.7311 11.7086 76.4115 10.7682 75.7824 10.0466C75.1082 9.4491 74.2385 9.11923 73.3376 9.11923C72.4367 9.11923 71.5671 9.4491 70.8928 10.0466C70.2613 10.7668 69.9413 11.7082 70.0032 12.6642V22.1746H64.7168V12.6642C64.7759 11.7086 64.4563 10.7682 63.8272 10.0466C63.153 9.4491 62.2833 9.11923 61.3824 9.11923C60.4816 9.11923 59.6119 9.4491 58.9376 10.0466C58.3061 10.7668 57.9861 11.7082 58.048 12.6642V22.1746H52.7296V4.66415H58.048V6.85935C58.6019 6.11783 59.3264 5.5207 60.16 5.11855C61.0828 4.67933 62.095 4.46025 63.1168 4.47855C64.3387 4.45712 65.5459 4.7479 66.624 5.32335C67.6417 5.87918 68.4773 6.71699 69.0304 7.73615C69.6497 6.76542 70.4952 5.95943 71.4944 5.38735C72.5221 4.78329 73.6944 4.46921 74.8864 4.47855C75.8361 4.43025 76.7853 4.58061 77.6735 4.92003C78.5618 5.25945 79.3694 5.78046 80.0448 6.44975Z" fill="#0044A3"/>
<path d="M98.8544 14.2C99.5009 15.0276 99.8362 16.056 99.8016 17.1056C99.8133 18.0885 99.5131 19.0498 98.944 19.8512C98.3231 20.711 97.4709 21.3768 96.4864 21.7712C95.305 22.2535 94.0374 22.4888 92.7616 22.4624C91.3734 22.4894 89.9952 22.2233 88.7168 21.6816C87.6126 21.2185 86.647 20.4777 85.9136 19.5312C85.2376 18.6467 84.837 17.5827 84.7616 16.472H90.0224C90.0494 16.7636 90.1388 17.046 90.2846 17.3C90.4304 17.554 90.629 17.7736 90.8672 17.944C91.3982 18.3346 92.0452 18.5352 92.704 18.5136C93.2451 18.5473 93.7829 18.4084 94.24 18.1168C94.4095 18.0072 94.5484 17.8564 94.6435 17.6783C94.7387 17.5003 94.787 17.301 94.784 17.0992C94.7864 16.8562 94.7132 16.6184 94.5744 16.4189C94.4357 16.2194 94.2383 16.068 94.0096 15.9856C93.2058 15.634 92.3728 15.3534 91.52 15.1472C90.4513 14.9066 89.4012 14.5901 88.3776 14.2C87.5438 13.8756 86.8045 13.3476 86.2272 12.664C85.5905 11.8583 85.2696 10.8479 85.3248 9.82242C85.3167 8.84489 85.6045 7.88777 86.1504 7.07682C86.7551 6.20401 87.5967 5.52228 88.576 5.11202C89.7905 4.60277 91.0996 4.35841 92.416 4.39522C94.592 4.39522 96.3136 4.93922 97.536 6.02722C98.8025 7.12872 99.5823 8.68609 99.7056 10.36H94.784C94.7544 10.0792 94.6689 9.80718 94.5326 9.55989C94.3963 9.3126 94.212 9.09504 93.9904 8.92002C93.4862 8.54223 92.8661 8.35212 92.2368 8.38242C91.7324 8.3496 91.2306 8.4773 90.8032 8.74722C90.6455 8.85492 90.5172 9.00033 90.43 9.17022C90.3429 9.34012 90.2995 9.52911 90.304 9.72002C90.3037 9.96754 90.3797 10.2091 90.5218 10.4119C90.6638 10.6146 90.8649 10.7686 91.0976 10.8528C91.8932 11.2016 92.7234 11.4655 93.5744 11.64C94.6402 11.9096 95.6894 12.2408 96.7168 12.632C97.5479 12.9702 98.2823 13.5089 98.8544 14.2Z" fill="#0044A3"/>
<path d="M135.104 5.47668C133.724 4.75 132.183 4.38451 130.624 4.41428C129.041 4.38825 127.477 4.76483 126.08 5.50868C124.762 6.2306 123.685 7.32316 122.982 8.65108C122.219 10.1221 121.838 11.762 121.875 13.4191C121.835 15.078 122.221 16.7196 122.995 18.1871C123.7 19.5092 124.771 20.6003 126.08 21.3295C127.476 22.0765 129.041 22.4533 130.624 22.4239C131.946 22.447 133.256 22.1805 134.464 21.6431C135.551 21.156 136.514 20.4281 137.279 19.5146C138.044 18.601 138.591 17.5256 138.88 16.3695H133.21C132.978 16.9024 132.586 17.3499 132.088 17.6493C131.59 17.9488 131.011 18.0853 130.432 18.0399C129.597 18.0569 128.789 17.7468 128.179 17.1759C127.526 16.5076 127.152 15.6146 127.136 14.6799H139.187C139.244 14.1591 139.274 13.6358 139.277 13.1119C139.315 11.5037 138.933 9.91324 138.17 8.49748C137.459 7.21742 136.394 6.16882 135.104 5.47668ZM127.168 11.7231C127.258 10.8664 127.662 10.0733 128.301 9.49588C128.934 8.97011 129.737 8.6926 130.56 8.71508C131.413 8.68611 132.245 8.97589 132.896 9.52788C133.205 9.80139 133.449 10.1403 133.611 10.52C133.773 10.8998 133.847 11.3107 133.83 11.7231H127.168Z" fill="#0044A3"/>
<path d="M159.36 11.9471V22.1871H154.067V12.6639C154.13 11.6726 153.807 10.6954 153.165 9.93755C152.51 9.31349 151.64 8.96535 150.736 8.96535C149.832 8.96535 148.962 9.31349 148.307 9.93755C147.665 10.6954 147.342 11.6726 147.405 12.6639V22.1743H142.08V4.66395H147.405V6.98714C147.959 6.19682 148.709 5.5639 149.581 5.15034C150.546 4.70239 151.602 4.48337 152.666 4.51034C153.573 4.46917 154.479 4.62586 155.32 4.96955C156.161 5.31324 156.917 5.83571 157.536 6.50074C158.752 7.79354 159.36 9.60901 159.36 11.9471Z" fill="#0044A3"/>
<path d="M116.806 0.017624C116.2 -0.00589625 115.595 0.0905464 115.026 0.301417C114.457 0.512287 113.936 0.833433 113.491 1.24642C113.075 1.63673 112.746 2.11034 112.526 2.63636C112.305 3.16238 112.198 3.72899 112.211 4.29922C112.208 4.35678 112.208 4.41447 112.211 4.47202C111.824 4.43317 111.435 4.41395 111.046 4.41442C109.443 4.39056 107.86 4.7667 106.438 5.50882C105.081 6.2311 103.957 7.32566 103.2 8.66402C102.391 10.1162 101.983 11.7573 102.016 13.4192C101.977 15.0843 102.381 16.7299 103.187 18.1872C103.931 19.5193 105.042 20.6099 106.387 21.3296C107.801 22.073 109.379 22.4493 110.976 22.424C112.585 22.4463 114.175 22.0703 115.603 21.3296C116.968 20.6084 118.1 19.5142 118.867 18.1744C119.688 16.7263 120.104 15.0836 120.07 13.4192C120.104 11.7573 119.695 10.1162 118.886 8.66402C118.79 8.50402 118.694 8.34402 118.598 8.19682C119.152 7.99872 119.658 7.68697 120.083 7.28162C120.498 6.90513 120.826 6.44402 121.047 5.92949C121.268 5.41496 121.376 4.859 121.363 4.29922C121.378 3.72877 121.272 3.16167 121.051 2.63541C120.83 2.10915 120.501 1.63572 120.083 1.24642C119.645 0.83518 119.13 0.514833 118.568 0.303913C118.005 0.0929934 117.407 -0.00431221 116.806 0.017624ZM113.606 16.6576C113.279 17.0204 112.878 17.309 112.429 17.5044C111.981 17.6997 111.497 17.7972 111.008 17.7904C110.524 17.8042 110.043 17.7097 109.6 17.5137C109.157 17.3177 108.763 17.0252 108.448 16.6576C107.724 15.7539 107.361 14.6135 107.43 13.4576C107.349 12.2844 107.718 11.1242 108.461 10.2128C108.79 9.86417 109.187 9.5864 109.627 9.39655C110.067 9.2067 110.541 9.10877 111.021 9.10877C111.5 9.10877 111.975 9.2067 112.415 9.39655C112.855 9.5864 113.252 9.86417 113.581 10.2128C114.329 11.1171 114.702 12.2737 114.624 13.4448C114.705 14.6096 114.329 15.76 113.574 16.6512L113.606 16.6576Z" fill="#0044A3"/>
<path d="M0.640015 0.145508H17.5488V4.44631H11.7504V22.1743H6.43201V4.44631H0.640015V0.145508Z" fill="#0044A3"/>
</svg>
